%TF.GenerationSoftware,KiCad,Pcbnew,8.0.0*%
%TF.CreationDate,2024-03-23T03:27:30+01:00*%
%TF.ProjectId,cornish-v1.2,636f726e-6973-4682-9d76-312e322e6b69,v1.0.0*%
%TF.SameCoordinates,Original*%
%TF.FileFunction,Soldermask,Bot*%
%TF.FilePolarity,Negative*%
%FSLAX46Y46*%
G04 Gerber Fmt 4.6, Leading zero omitted, Abs format (unit mm)*
G04 Created by KiCad (PCBNEW 8.0.0) date 2024-03-23 03:27:30*
%MOMM*%
%LPD*%
G01*
G04 APERTURE LIST*
G04 Aperture macros list*
%AMRoundRect*
0 Rectangle with rounded corners*
0 $1 Rounding radius*
0 $2 $3 $4 $5 $6 $7 $8 $9 X,Y pos of 4 corners*
0 Add a 4 corners polygon primitive as box body*
4,1,4,$2,$3,$4,$5,$6,$7,$8,$9,$2,$3,0*
0 Add four circle primitives for the rounded corners*
1,1,$1+$1,$2,$3*
1,1,$1+$1,$4,$5*
1,1,$1+$1,$6,$7*
1,1,$1+$1,$8,$9*
0 Add four rect primitives between the rounded corners*
20,1,$1+$1,$2,$3,$4,$5,0*
20,1,$1+$1,$4,$5,$6,$7,0*
20,1,$1+$1,$6,$7,$8,$9,0*
20,1,$1+$1,$8,$9,$2,$3,0*%
%AMFreePoly0*
4,1,14,0.635355,0.435355,0.650000,0.400000,0.650000,0.200000,0.635355,0.164645,0.035355,-0.435355,0.000000,-0.450000,-0.035355,-0.435355,-0.635355,0.164645,-0.650000,0.200000,-0.650000,0.400000,-0.635355,0.435355,-0.600000,0.450000,0.600000,0.450000,0.635355,0.435355,0.635355,0.435355,$1*%
%AMFreePoly1*
4,1,16,0.635355,1.035355,0.650000,1.000000,0.650000,-0.250000,0.635355,-0.285355,0.600000,-0.300000,-0.600000,-0.300000,-0.635355,-0.285355,-0.650000,-0.250000,-0.650000,1.000000,-0.635355,1.035355,-0.600000,1.050000,-0.564645,1.035355,0.000000,0.470710,0.564645,1.035355,0.600000,1.050000,0.635355,1.035355,0.635355,1.035355,$1*%
G04 Aperture macros list end*
%ADD10C,0.250000*%
%ADD11C,0.100000*%
%ADD12RoundRect,0.050000X-0.889000X-0.889000X0.889000X-0.889000X0.889000X0.889000X-0.889000X0.889000X0*%
%ADD13RoundRect,0.050000X-0.450000X-0.600000X0.450000X-0.600000X0.450000X0.600000X-0.450000X0.600000X0*%
%ADD14C,2.005000*%
%ADD15C,3.100000*%
%ADD16C,5.037800*%
%ADD17RoundRect,0.050000X-1.275000X-1.250000X1.275000X-1.250000X1.275000X1.250000X-1.275000X1.250000X0*%
%ADD18RoundRect,0.050000X-1.088798X-0.628618X0.628618X-1.088798X1.088798X0.628618X-0.628618X1.088798X0*%
%ADD19RoundRect,0.050000X-0.589958X-0.463087X0.279375X-0.696024X0.589958X0.463087X-0.279375X0.696024X0*%
%ADD20C,1.600000*%
%ADD21O,1.700000X2.300000*%
%ADD22RoundRect,0.050000X-1.161204X-1.356367X1.379093X-1.134120X1.161204X1.356367X-1.379093X1.134120X0*%
%ADD23RoundRect,0.050000X-1.555079X-0.877413X0.908032X-1.537402X1.555079X0.877413X-0.908032X1.537402X0*%
%ADD24C,1.700000*%
%ADD25RoundRect,0.050000X-0.800000X0.800000X-0.800000X-0.800000X0.800000X-0.800000X0.800000X0.800000X0*%
%ADD26FreePoly0,270.000000*%
%ADD27FreePoly0,90.000000*%
%ADD28FreePoly1,90.000000*%
%ADD29FreePoly1,270.000000*%
%ADD30RoundRect,0.050000X-0.808136X-0.963099X0.963099X-0.808136X0.808136X0.963099X-0.963099X0.808136X0*%
%ADD31RoundRect,0.050000X-0.395994X-0.636937X0.500581X-0.558497X0.395994X0.636937X-0.500581X0.558497X0*%
%ADD32C,0.800000*%
%ADD33C,4.500000*%
%ADD34RoundRect,0.050000X0.325397X-1.214397X1.214397X0.325397X-0.325397X1.214397X-1.214397X-0.325397X0*%
%ADD35RoundRect,0.050000X0.294615X-0.689711X0.744615X0.089711X-0.294615X0.689711X-0.744615X-0.089711X0*%
%ADD36C,2.200000*%
%ADD37C,1.850000*%
%ADD38RoundRect,0.050000X0.445032X-1.729182X1.720032X0.479182X-0.445032X1.729182X-1.720032X-0.479182X0*%
%ADD39RoundRect,0.050000X-0.850000X-0.850000X0.850000X-0.850000X0.850000X0.850000X-0.850000X0.850000X0*%
%ADD40O,1.800000X1.800000*%
G04 APERTURE END LIST*
D10*
%TO.C,_41*%
X267979125Y-121901688D02*
G75*
G02*
X267729125Y-121901688I-125000J0D01*
G01*
X267729125Y-121901688D02*
G75*
G02*
X267979125Y-121901688I125000J0D01*
G01*
X267979127Y-114281688D02*
G75*
G02*
X267729125Y-114281688I-125001J0D01*
G01*
X267729125Y-114281688D02*
G75*
G02*
X267979127Y-114281688I125001J0D01*
G01*
X267979126Y-116821688D02*
G75*
G02*
X267729126Y-116821688I-125000J0D01*
G01*
X267729126Y-116821688D02*
G75*
G02*
X267979126Y-116821688I125000J0D01*
G01*
X267979126Y-119361688D02*
G75*
G02*
X267729126Y-119361688I-125000J0D01*
G01*
X267729126Y-119361688D02*
G75*
G02*
X267979126Y-119361688I125000J0D01*
G01*
X267979126Y-124441688D02*
G75*
G02*
X267729126Y-124441688I-125000J0D01*
G01*
X267729126Y-124441688D02*
G75*
G02*
X267979126Y-124441688I125000J0D01*
G01*
X267979126Y-126981688D02*
G75*
G02*
X267729126Y-126981688I-125000J0D01*
G01*
X267729126Y-126981688D02*
G75*
G02*
X267979126Y-126981688I125000J0D01*
G01*
X267979126Y-129521688D02*
G75*
G02*
X267729126Y-129521688I-125000J0D01*
G01*
X267729126Y-129521688D02*
G75*
G02*
X267979126Y-129521688I125000J0D01*
G01*
X267979126Y-132061688D02*
G75*
G02*
X267729126Y-132061688I-125000J0D01*
G01*
X267729126Y-132061688D02*
G75*
G02*
X267979126Y-132061688I125000J0D01*
G01*
X267979127Y-134601687D02*
G75*
G02*
X267729125Y-134601687I-125001J0D01*
G01*
X267729125Y-134601687D02*
G75*
G02*
X267979127Y-134601687I125001J0D01*
G01*
X267979126Y-137141688D02*
G75*
G02*
X267729126Y-137141688I-125000J0D01*
G01*
X267729126Y-137141688D02*
G75*
G02*
X267979126Y-137141688I125000J0D01*
G01*
X267979126Y-139681688D02*
G75*
G02*
X267729126Y-139681688I-125000J0D01*
G01*
X267729126Y-139681688D02*
G75*
G02*
X267979126Y-139681688I125000J0D01*
G01*
X267979126Y-142221688D02*
G75*
G02*
X267729126Y-142221688I-125000J0D01*
G01*
X267729126Y-142221688D02*
G75*
G02*
X267979126Y-142221688I125000J0D01*
G01*
X269503126Y-114281688D02*
G75*
G02*
X269253126Y-114281688I-125000J0D01*
G01*
X269253126Y-114281688D02*
G75*
G02*
X269503126Y-114281688I125000J0D01*
G01*
X269503126Y-116821688D02*
G75*
G02*
X269253126Y-116821688I-125000J0D01*
G01*
X269253126Y-116821688D02*
G75*
G02*
X269503126Y-116821688I125000J0D01*
G01*
X269503126Y-119361688D02*
G75*
G02*
X269253126Y-119361688I-125000J0D01*
G01*
X269253126Y-119361688D02*
G75*
G02*
X269503126Y-119361688I125000J0D01*
G01*
X269503125Y-121901689D02*
G75*
G02*
X269253127Y-121901689I-124999J0D01*
G01*
X269253127Y-121901689D02*
G75*
G02*
X269503125Y-121901689I124999J0D01*
G01*
X269503126Y-124441688D02*
G75*
G02*
X269253126Y-124441688I-125000J0D01*
G01*
X269253126Y-124441688D02*
G75*
G02*
X269503126Y-124441688I125000J0D01*
G01*
X269503126Y-126981688D02*
G75*
G02*
X269253126Y-126981688I-125000J0D01*
G01*
X269253126Y-126981688D02*
G75*
G02*
X269503126Y-126981688I125000J0D01*
G01*
X269503126Y-129521688D02*
G75*
G02*
X269253126Y-129521688I-125000J0D01*
G01*
X269253126Y-129521688D02*
G75*
G02*
X269503126Y-129521688I125000J0D01*
G01*
X269503126Y-132061688D02*
G75*
G02*
X269253126Y-132061688I-125000J0D01*
G01*
X269253126Y-132061688D02*
G75*
G02*
X269503126Y-132061688I125000J0D01*
G01*
X269503126Y-137141688D02*
G75*
G02*
X269253126Y-137141688I-125000J0D01*
G01*
X269253126Y-137141688D02*
G75*
G02*
X269503126Y-137141688I125000J0D01*
G01*
X269503126Y-139681688D02*
G75*
G02*
X269253126Y-139681688I-125000J0D01*
G01*
X269253126Y-139681688D02*
G75*
G02*
X269503126Y-139681688I125000J0D01*
G01*
X269503126Y-142221688D02*
G75*
G02*
X269253126Y-142221688I-125000J0D01*
G01*
X269253126Y-142221688D02*
G75*
G02*
X269503126Y-142221688I125000J0D01*
G01*
X269503127Y-134601688D02*
G75*
G02*
X269253127Y-134601688I-125000J0D01*
G01*
X269253127Y-134601688D02*
G75*
G02*
X269503127Y-134601688I125000J0D01*
G01*
D11*
X263536126Y-122409688D02*
X262520126Y-122409688D01*
X262520126Y-121393688D01*
X263536125Y-121393688D01*
X263536126Y-122409688D01*
G36*
X263536126Y-122409688D02*
G01*
X262520126Y-122409688D01*
X262520126Y-121393688D01*
X263536125Y-121393688D01*
X263536126Y-122409688D01*
G37*
X263536126Y-114789688D02*
X262520126Y-114789688D01*
X262520126Y-113773688D01*
X263536126Y-113773688D01*
X263536126Y-114789688D01*
G36*
X263536126Y-114789688D02*
G01*
X262520126Y-114789688D01*
X262520126Y-113773688D01*
X263536126Y-113773688D01*
X263536126Y-114789688D01*
G37*
X263536126Y-117329688D02*
X262520125Y-117329688D01*
X262520127Y-116313688D01*
X263536126Y-116313688D01*
X263536126Y-117329688D01*
G36*
X263536126Y-117329688D02*
G01*
X262520125Y-117329688D01*
X262520127Y-116313688D01*
X263536126Y-116313688D01*
X263536126Y-117329688D01*
G37*
X263536126Y-119869688D02*
X262520126Y-119869688D01*
X262520126Y-118853688D01*
X263536126Y-118853688D01*
X263536126Y-119869688D01*
G36*
X263536126Y-119869688D02*
G01*
X262520126Y-119869688D01*
X262520126Y-118853688D01*
X263536126Y-118853688D01*
X263536126Y-119869688D01*
G37*
X263536126Y-124949688D02*
X262520126Y-124949688D01*
X262520126Y-123933688D01*
X263536126Y-123933688D01*
X263536126Y-124949688D01*
G36*
X263536126Y-124949688D02*
G01*
X262520126Y-124949688D01*
X262520126Y-123933688D01*
X263536126Y-123933688D01*
X263536126Y-124949688D01*
G37*
X263536127Y-127489688D02*
X262520126Y-127489688D01*
X262520126Y-126473688D01*
X263536126Y-126473688D01*
X263536127Y-127489688D01*
G36*
X263536127Y-127489688D02*
G01*
X262520126Y-127489688D01*
X262520126Y-126473688D01*
X263536126Y-126473688D01*
X263536127Y-127489688D01*
G37*
X263536126Y-130029688D02*
X262520125Y-130029688D01*
X262520127Y-129013688D01*
X263536126Y-129013688D01*
X263536126Y-130029688D01*
G36*
X263536126Y-130029688D02*
G01*
X262520125Y-130029688D01*
X262520127Y-129013688D01*
X263536126Y-129013688D01*
X263536126Y-130029688D01*
G37*
X263536126Y-132569688D02*
X262520126Y-132569688D01*
X262520126Y-131553688D01*
X263536126Y-131553688D01*
X263536126Y-132569688D01*
G36*
X263536126Y-132569688D02*
G01*
X262520126Y-132569688D01*
X262520126Y-131553688D01*
X263536126Y-131553688D01*
X263536126Y-132569688D01*
G37*
X263536126Y-135109688D02*
X262520126Y-135109688D01*
X262520126Y-134093688D01*
X263536126Y-134093688D01*
X263536126Y-135109688D01*
G36*
X263536126Y-135109688D02*
G01*
X262520126Y-135109688D01*
X262520126Y-134093688D01*
X263536126Y-134093688D01*
X263536126Y-135109688D01*
G37*
X263536126Y-137649688D02*
X262520126Y-137649688D01*
X262520126Y-136633688D01*
X263536126Y-136633688D01*
X263536126Y-137649688D01*
G36*
X263536126Y-137649688D02*
G01*
X262520126Y-137649688D01*
X262520126Y-136633688D01*
X263536126Y-136633688D01*
X263536126Y-137649688D01*
G37*
X263536127Y-140189688D02*
X262520126Y-140189688D01*
X262520126Y-139173688D01*
X263536126Y-139173688D01*
X263536127Y-140189688D01*
G36*
X263536127Y-140189688D02*
G01*
X262520126Y-140189688D01*
X262520126Y-139173688D01*
X263536126Y-139173688D01*
X263536127Y-140189688D01*
G37*
X263536126Y-142729688D02*
X262520126Y-142729688D01*
X262520126Y-141713688D01*
X263536126Y-141713688D01*
X263536126Y-142729688D01*
G36*
X263536126Y-142729688D02*
G01*
X262520126Y-142729688D01*
X262520126Y-141713688D01*
X263536126Y-141713688D01*
X263536126Y-142729688D01*
G37*
X274712126Y-114789688D02*
X273696126Y-114789688D01*
X273696126Y-113773688D01*
X274712126Y-113773688D01*
X274712126Y-114789688D01*
G36*
X274712126Y-114789688D02*
G01*
X273696126Y-114789688D01*
X273696126Y-113773688D01*
X274712126Y-113773688D01*
X274712126Y-114789688D01*
G37*
X274712126Y-117329688D02*
X273696126Y-117329688D01*
X273696125Y-116313688D01*
X274712126Y-116313688D01*
X274712126Y-117329688D01*
G36*
X274712126Y-117329688D02*
G01*
X273696126Y-117329688D01*
X273696125Y-116313688D01*
X274712126Y-116313688D01*
X274712126Y-117329688D01*
G37*
X274712126Y-119869688D02*
X273696126Y-119869688D01*
X273696126Y-118853688D01*
X274712126Y-118853688D01*
X274712126Y-119869688D01*
G36*
X274712126Y-119869688D02*
G01*
X273696126Y-119869688D01*
X273696126Y-118853688D01*
X274712126Y-118853688D01*
X274712126Y-119869688D01*
G37*
X274712126Y-122409688D02*
X273696126Y-122409688D01*
X273696126Y-121393688D01*
X274712126Y-121393688D01*
X274712126Y-122409688D01*
G36*
X274712126Y-122409688D02*
G01*
X273696126Y-122409688D01*
X273696126Y-121393688D01*
X274712126Y-121393688D01*
X274712126Y-122409688D01*
G37*
X274712126Y-124949688D02*
X273696126Y-124949688D01*
X273696126Y-123933688D01*
X274712126Y-123933688D01*
X274712126Y-124949688D01*
G36*
X274712126Y-124949688D02*
G01*
X273696126Y-124949688D01*
X273696126Y-123933688D01*
X274712126Y-123933688D01*
X274712126Y-124949688D01*
G37*
X274712125Y-127489688D02*
X273696126Y-127489688D01*
X273696126Y-126473688D01*
X274712127Y-126473688D01*
X274712125Y-127489688D01*
G36*
X274712125Y-127489688D02*
G01*
X273696126Y-127489688D01*
X273696126Y-126473688D01*
X274712127Y-126473688D01*
X274712125Y-127489688D01*
G37*
X274712126Y-130029688D02*
X273696126Y-130029688D01*
X273696125Y-129013688D01*
X274712126Y-129013688D01*
X274712126Y-130029688D01*
G36*
X274712126Y-130029688D02*
G01*
X273696126Y-130029688D01*
X273696125Y-129013688D01*
X274712126Y-129013688D01*
X274712126Y-130029688D01*
G37*
X274712126Y-132569688D02*
X273696126Y-132569688D01*
X273696126Y-131553688D01*
X274712126Y-131553688D01*
X274712126Y-132569688D01*
G36*
X274712126Y-132569688D02*
G01*
X273696126Y-132569688D01*
X273696126Y-131553688D01*
X274712126Y-131553688D01*
X274712126Y-132569688D01*
G37*
X274712126Y-137649688D02*
X273696126Y-137649688D01*
X273696126Y-136633688D01*
X274712126Y-136633688D01*
X274712126Y-137649688D01*
G36*
X274712126Y-137649688D02*
G01*
X273696126Y-137649688D01*
X273696126Y-136633688D01*
X274712126Y-136633688D01*
X274712126Y-137649688D01*
G37*
X274712125Y-140189688D02*
X273696126Y-140189688D01*
X273696126Y-139173688D01*
X274712127Y-139173688D01*
X274712125Y-140189688D01*
G36*
X274712125Y-140189688D02*
G01*
X273696126Y-140189688D01*
X273696126Y-139173688D01*
X274712127Y-139173688D01*
X274712125Y-140189688D01*
G37*
X274712126Y-142729688D02*
X273696126Y-142729688D01*
X273696126Y-141713688D01*
X274712126Y-141713688D01*
X274712126Y-142729688D01*
G36*
X274712126Y-142729688D02*
G01*
X273696126Y-142729688D01*
X273696126Y-141713688D01*
X274712126Y-141713688D01*
X274712126Y-142729688D01*
G37*
X274712126Y-135109688D02*
X273696127Y-135109688D01*
X273696126Y-134093688D01*
X274712126Y-134093688D01*
X274712126Y-135109688D01*
G36*
X274712126Y-135109688D02*
G01*
X273696127Y-135109688D01*
X273696126Y-134093688D01*
X274712126Y-134093688D01*
X274712126Y-135109688D01*
G37*
%TD*%
D12*
%TO.C,D12*%
X198806126Y-101251688D03*
D13*
X200966126Y-101251688D03*
X204266126Y-101251688D03*
D14*
X206426126Y-101251688D03*
%TD*%
D15*
%TO.C,S5*%
X160216127Y-128951688D03*
X162016127Y-130001688D03*
D16*
X164616127Y-124251688D03*
D15*
X167216127Y-130001688D03*
X169016127Y-128951688D03*
D17*
X156546127Y-128951688D03*
X170886127Y-130001688D03*
%TD*%
D12*
%TO.C,D20*%
X241806127Y-115251688D03*
D13*
X243966127Y-115251688D03*
X247266127Y-115251688D03*
D14*
X249426127Y-115251688D03*
%TD*%
D12*
%TO.C,D13*%
X217806126Y-139251688D03*
D13*
X219966126Y-139251688D03*
X223266126Y-139251688D03*
D14*
X225426126Y-139251688D03*
%TD*%
D15*
%TO.C,S20*%
X241216126Y-124951688D03*
X243016126Y-126001688D03*
D16*
X245616126Y-120251688D03*
D15*
X248216126Y-126001688D03*
X250016126Y-124951688D03*
D17*
X237546126Y-124951688D03*
X251886126Y-126001688D03*
%TD*%
D12*
%TO.C,D9*%
X179806126Y-95251688D03*
D13*
X181966126Y-95251688D03*
X185266126Y-95251688D03*
D14*
X187426126Y-95251688D03*
%TD*%
D12*
%TO.C,D6*%
X160806126Y-100251688D03*
D13*
X162966126Y-100251688D03*
X166266126Y-100251688D03*
D14*
X168426126Y-100251688D03*
%TD*%
D12*
%TO.C,D7*%
X179806126Y-133251688D03*
D13*
X181966126Y-133251688D03*
X185266126Y-133251688D03*
D14*
X187426126Y-133251688D03*
%TD*%
D18*
%TO.C,D17*%
X231398632Y-163472435D03*
D19*
X233485030Y-164031485D03*
X236672588Y-164885589D03*
D14*
X238758986Y-165444639D03*
%TD*%
D20*
%TO.C,TRRS1*%
X236316126Y-98851688D03*
X236316126Y-105851688D03*
D21*
X234016126Y-108551688D03*
X238616126Y-108551688D03*
X234016126Y-107451688D03*
X238616126Y-107451687D03*
X234016126Y-103451688D03*
X238616126Y-103451688D03*
X234016126Y-100451688D03*
X238616126Y-100451688D03*
%TD*%
D12*
%TO.C,D4*%
X160806126Y-138251688D03*
D13*
X162966126Y-138251688D03*
X166266126Y-138251688D03*
D14*
X168426126Y-138251688D03*
%TD*%
D15*
%TO.C,S1*%
X141059049Y-160954016D03*
X142943712Y-161843139D03*
D16*
X145032673Y-155888415D03*
D15*
X148123925Y-161389930D03*
X149825562Y-160187045D03*
D22*
X137403014Y-161273877D03*
X151779959Y-161070068D03*
%TD*%
D12*
%TO.C,D5*%
X160806126Y-119251688D03*
D13*
X162966126Y-119251688D03*
X166266126Y-119251688D03*
D14*
X168426126Y-119251688D03*
%TD*%
D15*
%TO.C,S17*%
X228318191Y-172689213D03*
X229785098Y-174169310D03*
D16*
X233784714Y-169288166D03*
D15*
X234807912Y-175515169D03*
X236818338Y-174966821D03*
D23*
X224773244Y-171739348D03*
X238352860Y-176465035D03*
%TD*%
D12*
%TO.C,D15*%
X217806126Y-101251688D03*
D13*
X219966126Y-101251688D03*
X223266126Y-101251688D03*
D14*
X225426126Y-101251688D03*
%TD*%
D12*
%TO.C,D16*%
X203506126Y-161251688D03*
D13*
X205666126Y-161251688D03*
X208966126Y-161251688D03*
D14*
X211126126Y-161251688D03*
%TD*%
D24*
%TO.C,_41*%
X276236125Y-114281688D03*
D25*
X276236125Y-114281688D03*
D26*
X274458126Y-114281688D03*
D27*
X262774126Y-114281688D03*
D24*
X260996126Y-114281688D03*
X276236126Y-116821688D03*
D26*
X274458126Y-116821688D03*
D27*
X262774126Y-116821688D03*
D24*
X260996126Y-116821688D03*
X276236126Y-119361688D03*
D26*
X274458126Y-119361688D03*
D27*
X262774126Y-119361688D03*
D24*
X260996126Y-119361688D03*
X260996126Y-121901687D03*
X276236126Y-121901688D03*
D26*
X274458126Y-121901688D03*
D27*
X262774126Y-121901688D03*
D24*
X276236126Y-124441688D03*
D26*
X274458126Y-124441688D03*
D27*
X262774125Y-124441688D03*
D24*
X260996126Y-124441688D03*
X276236126Y-126981688D03*
D26*
X274458126Y-126981688D03*
D27*
X262774126Y-126981688D03*
D24*
X260996126Y-126981688D03*
X276236126Y-129521688D03*
D26*
X274458126Y-129521688D03*
D27*
X262774126Y-129521688D03*
D24*
X260996126Y-129521688D03*
X276236126Y-132061688D03*
D26*
X274458127Y-132061688D03*
D27*
X262774126Y-132061688D03*
D24*
X260996126Y-132061688D03*
D26*
X274458126Y-134601688D03*
D27*
X262774126Y-134601688D03*
D24*
X260996126Y-134601688D03*
X276236126Y-134601689D03*
X276236126Y-137141688D03*
D26*
X274458126Y-137141688D03*
D27*
X262774126Y-137141688D03*
D24*
X260996126Y-137141688D03*
X276236126Y-139681688D03*
D26*
X274458126Y-139681688D03*
D27*
X262774126Y-139681688D03*
D24*
X260996126Y-139681688D03*
X276236126Y-142221688D03*
D26*
X274458126Y-142221688D03*
D27*
X262774126Y-142221688D03*
D24*
X260996127Y-142221688D03*
D28*
X263790126Y-114281687D03*
X263790126Y-116821688D03*
X263790126Y-119361688D03*
X263790126Y-121901688D03*
X263790126Y-124441688D03*
X263790126Y-126981688D03*
X263790126Y-129521688D03*
X263790126Y-132061688D03*
X263790126Y-134601688D03*
X263790126Y-137141688D03*
X263790126Y-139681688D03*
X263790126Y-142221688D03*
D29*
X273442126Y-142221689D03*
X273442126Y-139681688D03*
X273442126Y-137141688D03*
X273442126Y-134601688D03*
X273442126Y-132061688D03*
X273442126Y-129521688D03*
X273442126Y-126981688D03*
X273442126Y-124441688D03*
X273442126Y-121901688D03*
X273442126Y-119361688D03*
X273442126Y-116821688D03*
X273442126Y-114281688D03*
%TD*%
D30*
%TO.C,D1*%
X140801392Y-151239505D03*
D31*
X142953173Y-151051249D03*
X146240615Y-150763635D03*
D14*
X148392396Y-150575379D03*
%TD*%
D12*
%TO.C,D10*%
X198806126Y-139251688D03*
D13*
X200966126Y-139251688D03*
X204266126Y-139251688D03*
D14*
X206426126Y-139251688D03*
%TD*%
D15*
%TO.C,S4*%
X160216127Y-147951688D03*
X162016127Y-149001688D03*
D16*
X164616127Y-143251688D03*
D15*
X167216127Y-149001688D03*
X169016127Y-147951688D03*
D17*
X156546127Y-147951688D03*
X170886127Y-149001688D03*
%TD*%
D15*
%TO.C,S8*%
X179216127Y-123951688D03*
X181016127Y-125001688D03*
D16*
X183616127Y-119251688D03*
D15*
X186216127Y-125001688D03*
X188016127Y-123951688D03*
D17*
X175546127Y-123951688D03*
X189886127Y-125001688D03*
%TD*%
D15*
%TO.C,S12*%
X198216126Y-110951688D03*
X200016126Y-112001688D03*
D16*
X202616126Y-106251688D03*
D15*
X205216126Y-112001688D03*
X207016126Y-110951688D03*
D17*
X194546126Y-110951688D03*
X208886126Y-112001688D03*
%TD*%
D32*
%TO.C,_46*%
X194166126Y-156751688D03*
X194649400Y-155584962D03*
X194649400Y-157918414D03*
X195816126Y-155101688D03*
D33*
X195816126Y-156751688D03*
D32*
X195816126Y-158401688D03*
X196982852Y-155584962D03*
X196982852Y-157918414D03*
X197466126Y-156751688D03*
%TD*%
%TO.C,_44*%
X150574108Y-146369224D03*
X151157229Y-147489390D03*
X150953856Y-145164817D03*
X152074022Y-144581696D03*
D33*
X152217829Y-146225417D03*
D32*
X152361636Y-147869138D03*
X153481802Y-147286017D03*
X153278429Y-144961444D03*
X153861550Y-146081610D03*
%TD*%
D12*
%TO.C,D11*%
X198806126Y-120251688D03*
D13*
X200966126Y-120251688D03*
X204266126Y-120251688D03*
D14*
X206426126Y-120251688D03*
%TD*%
D15*
%TO.C,S15*%
X217216126Y-110951688D03*
X219016126Y-112001688D03*
D16*
X221616126Y-106251688D03*
D15*
X224216126Y-112001688D03*
X226016126Y-110951688D03*
D17*
X213546126Y-110951688D03*
X227886126Y-112001688D03*
%TD*%
D12*
%TO.C,D19*%
X241806127Y-134251688D03*
D13*
X243966127Y-134251688D03*
X247266127Y-134251688D03*
D14*
X249426127Y-134251688D03*
%TD*%
D15*
%TO.C,S13*%
X217216126Y-148951688D03*
X219016126Y-150001688D03*
D16*
X221616126Y-144251688D03*
D15*
X224216126Y-150001688D03*
X226016126Y-148951688D03*
D17*
X213546126Y-148951688D03*
X227886126Y-150001688D03*
%TD*%
D15*
%TO.C,S19*%
X241216126Y-143951688D03*
X243016126Y-145001688D03*
D16*
X245616126Y-139251688D03*
D15*
X248216126Y-145001688D03*
X250016126Y-143951688D03*
D17*
X237546126Y-143951688D03*
X251886126Y-145001688D03*
%TD*%
D34*
%TO.C,D18*%
X250392882Y-174254705D03*
D35*
X251472882Y-172384091D03*
X253122882Y-169526207D03*
D14*
X254202882Y-167655593D03*
%TD*%
D32*
%TO.C,_47*%
X243966126Y-104751688D03*
X244449400Y-103584962D03*
X244449400Y-105918414D03*
X245616126Y-103101688D03*
D33*
X245616126Y-104751688D03*
D32*
X245616126Y-106401688D03*
X246782852Y-103584962D03*
X246782852Y-105918414D03*
X247266126Y-104751688D03*
%TD*%
D15*
%TO.C,S6*%
X160216126Y-109951688D03*
X162016126Y-111001688D03*
D16*
X164616126Y-105251688D03*
D15*
X167216126Y-111001688D03*
X169016126Y-109951688D03*
D17*
X156546126Y-109951688D03*
X170886126Y-111001688D03*
%TD*%
D15*
%TO.C,S7*%
X179216127Y-142951688D03*
X181016127Y-144001688D03*
D16*
X183616127Y-138251688D03*
D15*
X186216127Y-144001688D03*
X188016127Y-142951688D03*
D17*
X175546127Y-142951688D03*
X189886127Y-144001688D03*
%TD*%
D15*
%TO.C,S9*%
X179216127Y-104951688D03*
X181016127Y-106001688D03*
D16*
X183616127Y-100251688D03*
D15*
X186216127Y-106001688D03*
X188016127Y-104951688D03*
D17*
X175546127Y-104951688D03*
X189886127Y-106001688D03*
%TD*%
D30*
%TO.C,D2*%
X139145433Y-132311805D03*
D31*
X141297214Y-132123549D03*
X144584656Y-131835935D03*
D14*
X146736437Y-131647679D03*
%TD*%
D12*
%TO.C,D14*%
X217806126Y-120251688D03*
D13*
X219966126Y-120251688D03*
X223266126Y-120251688D03*
D14*
X225426126Y-120251688D03*
%TD*%
D32*
%TO.C,_48*%
X246966126Y-155751688D03*
X247449400Y-154584962D03*
X247449400Y-156918414D03*
X248616126Y-154101688D03*
D33*
X248616126Y-155751688D03*
D32*
X248616126Y-157401688D03*
X249782852Y-154584962D03*
X249782852Y-156918414D03*
X250266126Y-155751688D03*
%TD*%
D15*
%TO.C,S10*%
X198216126Y-148951688D03*
X200016126Y-150001688D03*
D16*
X202616126Y-144251688D03*
D15*
X205216126Y-150001688D03*
X207016126Y-148951688D03*
D17*
X194546126Y-148951688D03*
X208886126Y-150001688D03*
%TD*%
D15*
%TO.C,S16*%
X202916126Y-170951688D03*
X204716126Y-172001688D03*
D16*
X207316126Y-166251688D03*
D15*
X209916126Y-172001688D03*
X211716126Y-170951688D03*
D17*
X199246126Y-170951688D03*
X213586126Y-172001688D03*
%TD*%
D36*
%TO.C,_42*%
X272725772Y-153593009D03*
X269220772Y-159663846D03*
D37*
X274257174Y-155920539D03*
X272007175Y-159817653D03*
%TD*%
D15*
%TO.C,S3*%
X137747131Y-123098618D03*
X139631794Y-123987741D03*
D16*
X141720755Y-118033017D03*
D15*
X144812007Y-123534532D03*
X146513644Y-122331647D03*
D22*
X134091096Y-123418479D03*
X148468041Y-123214670D03*
%TD*%
D15*
%TO.C,S2*%
X139403090Y-142026318D03*
X141287753Y-142915441D03*
D16*
X143376714Y-136960717D03*
D15*
X146467966Y-142462232D03*
X148169603Y-141259347D03*
D22*
X135747055Y-142346179D03*
X150124000Y-142142370D03*
%TD*%
D12*
%TO.C,D8*%
X179806126Y-114251688D03*
D13*
X181966126Y-114251688D03*
X185266126Y-114251688D03*
D14*
X187426126Y-114251688D03*
%TD*%
D15*
%TO.C,S18*%
X258498328Y-179615660D03*
X260307655Y-178581814D03*
D16*
X256628009Y-173455148D03*
D15*
X262907655Y-174078482D03*
X262898328Y-171994636D03*
D38*
X256663328Y-182793973D03*
X264742655Y-170900169D03*
%TD*%
D30*
%TO.C,D3*%
X137489474Y-113384107D03*
D31*
X139641255Y-113195851D03*
X142928697Y-112908237D03*
D14*
X145080478Y-112719981D03*
%TD*%
D32*
%TO.C,_45*%
X191466127Y-115751688D03*
X191949401Y-114584962D03*
X191949401Y-116918414D03*
X193116127Y-114101688D03*
D33*
X193116127Y-115751688D03*
D32*
X193116127Y-117401688D03*
X194282853Y-114584962D03*
X194282853Y-116918414D03*
X194766127Y-115751688D03*
%TD*%
D15*
%TO.C,S14*%
X217216126Y-129951688D03*
X219016126Y-131001688D03*
D16*
X221616126Y-125251688D03*
D15*
X224216126Y-131001688D03*
X226016126Y-129951688D03*
D17*
X213546126Y-129951688D03*
X227886126Y-131001688D03*
%TD*%
D32*
%TO.C,_43*%
X151271806Y-114185948D03*
X151854927Y-115306114D03*
X151651554Y-112981541D03*
X152771720Y-112398420D03*
D33*
X152915527Y-114042141D03*
D32*
X153059334Y-115685862D03*
X154179500Y-115102741D03*
X153976127Y-112778168D03*
X154559248Y-113898334D03*
%TD*%
D15*
%TO.C,S11*%
X198216126Y-129951688D03*
X200016126Y-131001688D03*
D16*
X202616126Y-125251688D03*
D15*
X205216126Y-131001688D03*
X207016126Y-129951688D03*
D17*
X194546126Y-129951688D03*
X208886126Y-131001688D03*
%TD*%
D39*
%TO.C,OLED1*%
X272416127Y-146151688D03*
D40*
X269876126Y-146151688D03*
X267336126Y-146151688D03*
X264796126Y-146151688D03*
%TD*%
M02*
