M48
; DRILL file {KiCad 8.0.0} date 2024-03-23T03:27:25+0100
; FORMAT={-:-/ absolute / inch / decimal}
; #@! TF.CreationDate,2024-03-23T03:27:25+01:00
; #@! TF.GenerationSoftware,Kicad,Pcbnew,8.0.0
; #@! TF.FileFunction,NonPlated,1,2,NPTH
FMAT,2
INCH
; #@! TA.AperFunction,NonPlated,NPTH,ComponentDrill
T1C0.0591
; #@! TA.AperFunction,NonPlated,NPTH,ComponentDrill
T2C0.1181
; #@! TA.AperFunction,NonPlated,NPTH,ComponentDrill
T3C0.1944
%
G90
G05
T1
X9.3038Y-3.8918
X9.3038Y-4.1674
T2
X5.4231Y-4.8464
X5.4883Y-5.5916
X5.4973Y-4.8814
X5.5535Y-6.3368
X5.5625Y-5.6266
X5.6277Y-6.3718
X5.7013Y-4.8636
X5.7665Y-5.6087
X5.7683Y-4.8162
X5.8317Y-6.3539
X5.8334Y-5.5614
X5.8986Y-6.3066
X6.3077Y-4.3288
X6.3077Y-5.0768
X6.3077Y-5.8249
X6.3786Y-4.3701
X6.3786Y-5.1182
X6.3786Y-5.8662
X6.5833Y-4.3701
X6.5833Y-5.1182
X6.5833Y-5.8662
X6.6542Y-4.3288
X6.6542Y-5.0768
X6.6542Y-5.8249
X7.0558Y-4.132
X7.0558Y-4.88
X7.0558Y-5.628
X7.1266Y-4.1733
X7.1266Y-4.9213
X7.1266Y-5.6694
X7.3313Y-4.1733
X7.3313Y-4.9213
X7.3313Y-5.6694
X7.4022Y-4.132
X7.4022Y-4.88
X7.4022Y-5.628
X7.8038Y-4.3682
X7.8038Y-5.1162
X7.8038Y-5.8642
X7.8747Y-4.4095
X7.8747Y-5.1575
X7.8747Y-5.9056
X7.9888Y-6.7304
X8.0597Y-6.7717
X8.0794Y-4.4095
X8.0794Y-5.1575
X8.0794Y-5.9056
X8.1502Y-4.3682
X8.1502Y-5.1162
X8.1502Y-5.8642
X8.2644Y-6.7717
X8.3353Y-6.7304
X8.5518Y-4.3682
X8.5518Y-5.1162
X8.5518Y-5.8642
X8.6227Y-4.4095
X8.6227Y-5.1575
X8.6227Y-5.9056
X8.8274Y-4.4095
X8.8274Y-5.1575
X8.8274Y-5.9056
X8.8983Y-4.3682
X8.8983Y-5.1162
X8.8983Y-5.8642
X8.9889Y-6.7988
X9.0467Y-6.8571
X9.2444Y-6.91
X9.3236Y-6.8885
X9.4967Y-4.9194
X9.4967Y-5.6674
X9.5676Y-4.9607
X9.5676Y-5.7087
X9.7723Y-4.9607
X9.7723Y-5.7087
X9.8432Y-4.9194
X9.8432Y-5.6674
X10.1771Y-7.0715
X10.2483Y-7.0308
X10.3503Y-6.7714
X10.3507Y-6.8535
T3
X5.5796Y-4.647
X5.6448Y-5.3922
X5.7099Y-6.1373
X6.4809Y-4.1438
X6.4809Y-4.8918
X6.4809Y-5.6398
X7.229Y-3.9469
X7.229Y-4.6949
X7.229Y-5.443
X7.977Y-4.1831
X7.977Y-4.9312
X7.977Y-5.6792
X8.1621Y-6.5453
X8.725Y-4.1831
X8.725Y-4.9312
X8.725Y-5.6792
X9.2041Y-6.6649
X9.6699Y-4.7343
X9.6699Y-5.4823
X10.1035Y-6.8289
M30
