%TF.GenerationSoftware,KiCad,Pcbnew,8.0.0*%
%TF.CreationDate,2024-03-23T03:27:30+01:00*%
%TF.ProjectId,cornish-v1.2,636f726e-6973-4682-9d76-312e322e6b69,v1.0.0*%
%TF.SameCoordinates,Original*%
%TF.FileFunction,Legend,Top*%
%TF.FilePolarity,Positive*%
%FSLAX46Y46*%
G04 Gerber Fmt 4.6, Leading zero omitted, Abs format (unit mm)*
G04 Created by KiCad (PCBNEW 8.0.0) date 2024-03-23 03:27:30*
%MOMM*%
%LPD*%
G01*
G04 APERTURE LIST*
%ADD10C,0.300000*%
%ADD11C,0.187500*%
%ADD12C,0.150000*%
%ADD13C,0.100000*%
%ADD14C,0.120000*%
G04 APERTURE END LIST*
D10*
X230554510Y-158300828D02*
X230554510Y-156800828D01*
X230554510Y-157372257D02*
X230697368Y-157300828D01*
X230697368Y-157300828D02*
X230983082Y-157300828D01*
X230983082Y-157300828D02*
X231125939Y-157372257D01*
X231125939Y-157372257D02*
X231197368Y-157443685D01*
X231197368Y-157443685D02*
X231268796Y-157586542D01*
X231268796Y-157586542D02*
X231268796Y-158015114D01*
X231268796Y-158015114D02*
X231197368Y-158157971D01*
X231197368Y-158157971D02*
X231125939Y-158229400D01*
X231125939Y-158229400D02*
X230983082Y-158300828D01*
X230983082Y-158300828D02*
X230697368Y-158300828D01*
X230697368Y-158300828D02*
X230554510Y-158229400D01*
X231768796Y-157300828D02*
X232125939Y-158300828D01*
X232483082Y-157300828D02*
X232125939Y-158300828D01*
X232125939Y-158300828D02*
X231983082Y-158657971D01*
X231983082Y-158657971D02*
X231911653Y-158729400D01*
X231911653Y-158729400D02*
X231768796Y-158800828D01*
X233983082Y-157300828D02*
X234554510Y-157300828D01*
X234197367Y-156800828D02*
X234197367Y-158086542D01*
X234197367Y-158086542D02*
X234268796Y-158229400D01*
X234268796Y-158229400D02*
X234411653Y-158300828D01*
X234411653Y-158300828D02*
X234554510Y-158300828D01*
X234911653Y-157300828D02*
X235197368Y-158300828D01*
X235197368Y-158300828D02*
X235483082Y-157586542D01*
X235483082Y-157586542D02*
X235768796Y-158300828D01*
X235768796Y-158300828D02*
X236054510Y-157300828D01*
X236625939Y-158300828D02*
X236625939Y-157300828D01*
X236625939Y-156800828D02*
X236554511Y-156872257D01*
X236554511Y-156872257D02*
X236625939Y-156943685D01*
X236625939Y-156943685D02*
X236697368Y-156872257D01*
X236697368Y-156872257D02*
X236625939Y-156800828D01*
X236625939Y-156800828D02*
X236625939Y-156943685D01*
X237268797Y-158229400D02*
X237411654Y-158300828D01*
X237411654Y-158300828D02*
X237697368Y-158300828D01*
X237697368Y-158300828D02*
X237840225Y-158229400D01*
X237840225Y-158229400D02*
X237911654Y-158086542D01*
X237911654Y-158086542D02*
X237911654Y-158015114D01*
X237911654Y-158015114D02*
X237840225Y-157872257D01*
X237840225Y-157872257D02*
X237697368Y-157800828D01*
X237697368Y-157800828D02*
X237483083Y-157800828D01*
X237483083Y-157800828D02*
X237340225Y-157729400D01*
X237340225Y-157729400D02*
X237268797Y-157586542D01*
X237268797Y-157586542D02*
X237268797Y-157515114D01*
X237268797Y-157515114D02*
X237340225Y-157372257D01*
X237340225Y-157372257D02*
X237483083Y-157300828D01*
X237483083Y-157300828D02*
X237697368Y-157300828D01*
X237697368Y-157300828D02*
X237840225Y-157372257D01*
X238554511Y-158300828D02*
X238554511Y-156800828D01*
X239197369Y-158300828D02*
X239197369Y-157515114D01*
X239197369Y-157515114D02*
X239125940Y-157372257D01*
X239125940Y-157372257D02*
X238983083Y-157300828D01*
X238983083Y-157300828D02*
X238768797Y-157300828D01*
X238768797Y-157300828D02*
X238625940Y-157372257D01*
X238625940Y-157372257D02*
X238554511Y-157443685D01*
G36*
X244854185Y-158504211D02*
G01*
X239584463Y-158504211D01*
X239584463Y-155703758D01*
X239962241Y-155703758D01*
X239963949Y-155733113D01*
X240320294Y-157976615D01*
X240319384Y-157982442D01*
X240324772Y-158004805D01*
X240328494Y-158028238D01*
X240331667Y-158033426D01*
X240333093Y-158039342D01*
X240346845Y-158058238D01*
X240359035Y-158078165D01*
X240363952Y-158081744D01*
X240367532Y-158086662D01*
X240387458Y-158098851D01*
X240406355Y-158112604D01*
X240412270Y-158114029D01*
X240417459Y-158117203D01*
X240440536Y-158120839D01*
X240463255Y-158126313D01*
X240469264Y-158125366D01*
X240475273Y-158126313D01*
X240497984Y-158120841D01*
X240521069Y-158117204D01*
X240526259Y-158114028D01*
X240532173Y-158112604D01*
X240551061Y-158098857D01*
X240570996Y-158086663D01*
X240574576Y-158081743D01*
X240579493Y-158078165D01*
X240591680Y-158058241D01*
X240605435Y-158039342D01*
X240606860Y-158033426D01*
X240610034Y-158028238D01*
X240617436Y-157999779D01*
X240976287Y-155703757D01*
X240962578Y-155646858D01*
X240928139Y-155599537D01*
X240878212Y-155568996D01*
X240820398Y-155559887D01*
X240763498Y-155573596D01*
X240716178Y-155608035D01*
X240685637Y-155657962D01*
X240678235Y-155686420D01*
X240469520Y-157021830D01*
X240252891Y-155657962D01*
X240222350Y-155608035D01*
X240175030Y-155573596D01*
X240118130Y-155559887D01*
X240060316Y-155568997D01*
X240010389Y-155599538D01*
X239975950Y-155646858D01*
X239962241Y-155703758D01*
X239584463Y-155703758D01*
X239584463Y-155527833D01*
X241177750Y-155527833D01*
X241181401Y-155586245D01*
X241207127Y-155638815D01*
X241251014Y-155677538D01*
X241306378Y-155696519D01*
X241364790Y-155692868D01*
X241417360Y-155667142D01*
X241438883Y-155647105D01*
X241578549Y-155485015D01*
X241592053Y-155472114D01*
X241596579Y-155464090D01*
X241598941Y-155461350D01*
X241600203Y-155457666D01*
X241605710Y-155447906D01*
X241607710Y-157828305D01*
X241297143Y-157829315D01*
X241243071Y-157851713D01*
X241201687Y-157893097D01*
X241179289Y-157947169D01*
X241179289Y-158005697D01*
X241201687Y-158059769D01*
X241243071Y-158101153D01*
X241297143Y-158123551D01*
X241326407Y-158126433D01*
X242212814Y-158123551D01*
X242266886Y-158101153D01*
X242308270Y-158059769D01*
X242330668Y-158005697D01*
X242330668Y-157947169D01*
X242308270Y-157893097D01*
X242266886Y-157851713D01*
X242239654Y-157840433D01*
X242607232Y-157840433D01*
X242608485Y-157843666D01*
X242608565Y-157847137D01*
X242617740Y-157875075D01*
X242693223Y-158039894D01*
X242699818Y-158056903D01*
X242701019Y-158058161D01*
X242701686Y-158059769D01*
X242702865Y-158060948D01*
X242703617Y-158062590D01*
X242722356Y-158080493D01*
X242740249Y-158099221D01*
X242741839Y-158099922D01*
X242743070Y-158101153D01*
X242744677Y-158101819D01*
X242745935Y-158103020D01*
X242770085Y-158112384D01*
X242793797Y-158122846D01*
X242795535Y-158122885D01*
X242797142Y-158123551D01*
X242798882Y-158123551D01*
X242800502Y-158124179D01*
X242826405Y-158123588D01*
X242852309Y-158124179D01*
X242853929Y-158123551D01*
X242855670Y-158123551D01*
X242857276Y-158122885D01*
X242859014Y-158122846D01*
X242882727Y-158112384D01*
X242906876Y-158103021D01*
X242908134Y-158101819D01*
X242909742Y-158101153D01*
X242910970Y-158099924D01*
X242912563Y-158099222D01*
X242930466Y-158080482D01*
X242949194Y-158062590D01*
X242950344Y-158060550D01*
X242951126Y-158059769D01*
X242951792Y-158058161D01*
X242952993Y-158056904D01*
X242954291Y-158053554D01*
X242963643Y-158036980D01*
X242978352Y-158002337D01*
X243250089Y-158002337D01*
X243250717Y-158003956D01*
X243250717Y-158005697D01*
X243261272Y-158031179D01*
X243271247Y-158056904D01*
X243272449Y-158058162D01*
X243273115Y-158059769D01*
X243292608Y-158079262D01*
X243311678Y-158099222D01*
X243313270Y-158099924D01*
X243314499Y-158101153D01*
X243339971Y-158111704D01*
X243365226Y-158122846D01*
X243366964Y-158122885D01*
X243368571Y-158123551D01*
X243397835Y-158126433D01*
X244355671Y-158123551D01*
X244409743Y-158101153D01*
X244451127Y-158059769D01*
X244473525Y-158005697D01*
X244473525Y-157947169D01*
X244451127Y-157893097D01*
X244409743Y-157851713D01*
X244355671Y-157829315D01*
X244326407Y-157826433D01*
X243626698Y-157828538D01*
X244386125Y-156100910D01*
X244396273Y-156083934D01*
X244399785Y-156069837D01*
X244401391Y-156066184D01*
X244401461Y-156063110D01*
X244403382Y-156055400D01*
X244469708Y-155586338D01*
X244473525Y-155577126D01*
X244476407Y-155547862D01*
X244473854Y-155235145D01*
X244476375Y-155220938D01*
X244473545Y-155197256D01*
X244473525Y-155194788D01*
X244473138Y-155193855D01*
X244472886Y-155191741D01*
X244401691Y-154880822D01*
X244401391Y-154867635D01*
X244392408Y-154840283D01*
X244392338Y-154839975D01*
X244392280Y-154839892D01*
X244392216Y-154839697D01*
X244319056Y-154679950D01*
X244313226Y-154662944D01*
X244307860Y-154655504D01*
X244306339Y-154652182D01*
X244303525Y-154649494D01*
X244296025Y-154639094D01*
X244166506Y-154495738D01*
X244165412Y-154493097D01*
X244152022Y-154479707D01*
X244131645Y-154457153D01*
X244127381Y-154455066D01*
X244124028Y-154451713D01*
X244101237Y-154442272D01*
X244079075Y-154431427D01*
X244074340Y-154431131D01*
X244069956Y-154429315D01*
X244040692Y-154426433D01*
X243706920Y-154428922D01*
X243703579Y-154427777D01*
X243682311Y-154429105D01*
X243654286Y-154429315D01*
X243649901Y-154431131D01*
X243645167Y-154431427D01*
X243623004Y-154442272D01*
X243600214Y-154451713D01*
X243596860Y-154455066D01*
X243592597Y-154457153D01*
X243571074Y-154477190D01*
X243431407Y-154639279D01*
X243417903Y-154652182D01*
X243413375Y-154660206D01*
X243411016Y-154662945D01*
X243409754Y-154666625D01*
X243403454Y-154677792D01*
X243322851Y-154867635D01*
X243321518Y-154926147D01*
X243342677Y-154980714D01*
X243383108Y-155023032D01*
X243436656Y-155046656D01*
X243495168Y-155047989D01*
X243549735Y-155026830D01*
X243592053Y-154986399D01*
X243606502Y-154960789D01*
X243664297Y-154824663D01*
X243749363Y-154725942D01*
X243972130Y-154724280D01*
X244053281Y-154814102D01*
X244109468Y-154936787D01*
X244176449Y-155229306D01*
X244178844Y-155522660D01*
X244178003Y-155526038D01*
X244113400Y-155982900D01*
X243274195Y-157892016D01*
X243273115Y-157893097D01*
X243263222Y-157916979D01*
X243251422Y-157943824D01*
X243251382Y-157945562D01*
X243250717Y-157947169D01*
X243250717Y-157974770D01*
X243250089Y-158002337D01*
X242978352Y-158002337D01*
X243023530Y-157895933D01*
X243024423Y-157894999D01*
X243029642Y-157881539D01*
X243044248Y-157847139D01*
X243044327Y-157843665D01*
X243045581Y-157840432D01*
X243044990Y-157814529D01*
X243045581Y-157788626D01*
X243044327Y-157785392D01*
X243044248Y-157781920D01*
X243035072Y-157753982D01*
X242959586Y-157589158D01*
X242952993Y-157572153D01*
X242951792Y-157570896D01*
X242951126Y-157569288D01*
X242949946Y-157568108D01*
X242949195Y-157566467D01*
X242930449Y-157548557D01*
X242912562Y-157529835D01*
X242910971Y-157529133D01*
X242909742Y-157527904D01*
X242908135Y-157527238D01*
X242906877Y-157526036D01*
X242882719Y-157516669D01*
X242859014Y-157506211D01*
X242857276Y-157506171D01*
X242855670Y-157505506D01*
X242853929Y-157505506D01*
X242852309Y-157504878D01*
X242826405Y-157505468D01*
X242800502Y-157504878D01*
X242798882Y-157505506D01*
X242797142Y-157505506D01*
X242795535Y-157506171D01*
X242793797Y-157506211D01*
X242770076Y-157516675D01*
X242745935Y-157526037D01*
X242744678Y-157527237D01*
X242743070Y-157527904D01*
X242741841Y-157529132D01*
X242740249Y-157529835D01*
X242722339Y-157548580D01*
X242703617Y-157566468D01*
X242702466Y-157568507D01*
X242701686Y-157569288D01*
X242701020Y-157570894D01*
X242699818Y-157572153D01*
X242698518Y-157575505D01*
X242689168Y-157592078D01*
X242629282Y-157733124D01*
X242628391Y-157734058D01*
X242623171Y-157747518D01*
X242608565Y-157781921D01*
X242608485Y-157785391D01*
X242607232Y-157788625D01*
X242607822Y-157814529D01*
X242607232Y-157840433D01*
X242239654Y-157840433D01*
X242212814Y-157829315D01*
X242183550Y-157826433D01*
X241904852Y-157827339D01*
X241902138Y-154597627D01*
X241904375Y-154589869D01*
X241902114Y-154568750D01*
X241902096Y-154547169D01*
X241899004Y-154539706D01*
X241898145Y-154531675D01*
X241887890Y-154512874D01*
X241879698Y-154493097D01*
X241873988Y-154487387D01*
X241870120Y-154480295D01*
X241853449Y-154466848D01*
X241838314Y-154451713D01*
X241830854Y-154448623D01*
X241824565Y-154443550D01*
X241804017Y-154437506D01*
X241784242Y-154429315D01*
X241776167Y-154429315D01*
X241768415Y-154427035D01*
X241747121Y-154429315D01*
X241725714Y-154429315D01*
X241718251Y-154432406D01*
X241710220Y-154433266D01*
X241691420Y-154443520D01*
X241671642Y-154451713D01*
X241665931Y-154457423D01*
X241658841Y-154461291D01*
X241645396Y-154477958D01*
X241630258Y-154493097D01*
X241627167Y-154500557D01*
X241622095Y-154506846D01*
X241611073Y-154534108D01*
X241477789Y-154996449D01*
X241474883Y-155001602D01*
X241346481Y-155298674D01*
X241196731Y-155472469D01*
X241177750Y-155527833D01*
X239584463Y-155527833D01*
X239584463Y-154048655D01*
X244854185Y-154048655D01*
X244854185Y-158504211D01*
G37*
D11*
G36*
X234422257Y-154952209D02*
G01*
X234473380Y-155001811D01*
X234529682Y-155111623D01*
X234531231Y-155496005D01*
X234477822Y-155605582D01*
X234428221Y-155656703D01*
X234318337Y-155713042D01*
X234076718Y-155714473D01*
X234002073Y-155678091D01*
X234001193Y-154936222D01*
X234071230Y-154900313D01*
X234312849Y-154898882D01*
X234422257Y-154952209D01*
G37*
G36*
X235779400Y-154952209D02*
G01*
X235830523Y-155001811D01*
X235886825Y-155111623D01*
X235888374Y-155496005D01*
X235834965Y-155605582D01*
X235785364Y-155656703D01*
X235675480Y-155713042D01*
X235433861Y-155714473D01*
X235359216Y-155678091D01*
X235358336Y-154936222D01*
X235428373Y-154900313D01*
X235669992Y-154898882D01*
X235779400Y-154952209D01*
G37*
G36*
X223279399Y-154952209D02*
G01*
X223330522Y-155001811D01*
X223386824Y-155111623D01*
X223388373Y-155496005D01*
X223334964Y-155605582D01*
X223285363Y-155656703D01*
X223175410Y-155713078D01*
X223005130Y-155714396D01*
X222895878Y-155661145D01*
X222844757Y-155611544D01*
X222788455Y-155501732D01*
X222786906Y-155117350D01*
X222840313Y-155007775D01*
X222889916Y-154956652D01*
X222999870Y-154900277D01*
X223170149Y-154898959D01*
X223279399Y-154952209D01*
G37*
G36*
X239052964Y-154946287D02*
G01*
X239101252Y-155040469D01*
X239101773Y-155087003D01*
X238573032Y-155194079D01*
X238572580Y-155046008D01*
X238620106Y-154948499D01*
X238714088Y-154900313D01*
X238955707Y-154898882D01*
X239052964Y-154946287D01*
G37*
G36*
X239455203Y-156565294D02*
G01*
X221148652Y-156565294D01*
X221148652Y-155092392D01*
X221315319Y-155092392D01*
X221316987Y-155506439D01*
X221316055Y-155509238D01*
X221317055Y-155523320D01*
X221317120Y-155539254D01*
X221318409Y-155542366D01*
X221318648Y-155545726D01*
X221325216Y-155562890D01*
X221397825Y-155704507D01*
X221402546Y-155715906D01*
X221405537Y-155719551D01*
X221406435Y-155721301D01*
X221408306Y-155722923D01*
X221414206Y-155730112D01*
X221487084Y-155800823D01*
X221494446Y-155809312D01*
X221498394Y-155811797D01*
X221499841Y-155813201D01*
X221502130Y-155814149D01*
X221510000Y-155819103D01*
X221641045Y-155882975D01*
X221642698Y-155884628D01*
X221654272Y-155889422D01*
X221670022Y-155897099D01*
X221673380Y-155897337D01*
X221676493Y-155898627D01*
X221694783Y-155900428D01*
X221966156Y-155898820D01*
X221968771Y-155899692D01*
X221982390Y-155898724D01*
X221998787Y-155898627D01*
X222001899Y-155897337D01*
X222005258Y-155897099D01*
X222022423Y-155890531D01*
X222180835Y-155809312D01*
X222204802Y-155781678D01*
X222216369Y-155746976D01*
X222213777Y-155710489D01*
X222197418Y-155677770D01*
X222169783Y-155653804D01*
X222135082Y-155642236D01*
X222098594Y-155644828D01*
X222081430Y-155651397D01*
X221961194Y-155713042D01*
X221719575Y-155714473D01*
X221610164Y-155661145D01*
X221559043Y-155611544D01*
X221502741Y-155501732D01*
X221501192Y-155117350D01*
X221513357Y-155092392D01*
X222601033Y-155092392D01*
X222602701Y-155506439D01*
X222601769Y-155509238D01*
X222602769Y-155523320D01*
X222602834Y-155539254D01*
X222604123Y-155542366D01*
X222604362Y-155545726D01*
X222610930Y-155562890D01*
X222683539Y-155704507D01*
X222688260Y-155715906D01*
X222691251Y-155719551D01*
X222692149Y-155721301D01*
X222694020Y-155722923D01*
X222699920Y-155730112D01*
X222772798Y-155800823D01*
X222780160Y-155809312D01*
X222784108Y-155811797D01*
X222785555Y-155813201D01*
X222787844Y-155814149D01*
X222795714Y-155819103D01*
X222926759Y-155882975D01*
X222928412Y-155884628D01*
X222939986Y-155889422D01*
X222955736Y-155897099D01*
X222959094Y-155897337D01*
X222962207Y-155898627D01*
X222980497Y-155900428D01*
X223180616Y-155898878D01*
X223183057Y-155899692D01*
X223196205Y-155898757D01*
X223213073Y-155898627D01*
X223216185Y-155897337D01*
X223219545Y-155897099D01*
X223236709Y-155890531D01*
X223378326Y-155817921D01*
X223389725Y-155813201D01*
X223393370Y-155810209D01*
X223395120Y-155809312D01*
X223396742Y-155807440D01*
X223403931Y-155801541D01*
X223474642Y-155728662D01*
X223483131Y-155721301D01*
X223485616Y-155717352D01*
X223487020Y-155715906D01*
X223487968Y-155713616D01*
X223492922Y-155705747D01*
X223556794Y-155574701D01*
X223558447Y-155573049D01*
X223563241Y-155561474D01*
X223570918Y-155545725D01*
X223571156Y-155542366D01*
X223572446Y-155539254D01*
X223574247Y-155520964D01*
X223572578Y-155106916D01*
X223573511Y-155104118D01*
X223572510Y-155090035D01*
X223572446Y-155074102D01*
X223571156Y-155070989D01*
X223570918Y-155067631D01*
X223564350Y-155050466D01*
X223491736Y-154908839D01*
X223487019Y-154897450D01*
X223484029Y-154893806D01*
X223483131Y-154892055D01*
X223481259Y-154890432D01*
X223475360Y-154883243D01*
X223402483Y-154812535D01*
X223397403Y-154806678D01*
X224029604Y-154806678D01*
X224031405Y-155824968D01*
X224045404Y-155858763D01*
X224071269Y-155884628D01*
X224105064Y-155898627D01*
X224141644Y-155898627D01*
X224175439Y-155884628D01*
X224201304Y-155858763D01*
X224215303Y-155824968D01*
X224217104Y-155806678D01*
X224215883Y-155116516D01*
X224268885Y-155007775D01*
X224318488Y-154956652D01*
X224428574Y-154900210D01*
X224570216Y-154898627D01*
X224604011Y-154884628D01*
X224629876Y-154858763D01*
X224643875Y-154824968D01*
X224643875Y-154806678D01*
X224958175Y-154806678D01*
X224959976Y-155824968D01*
X224973975Y-155858763D01*
X224999840Y-155884628D01*
X225033635Y-155898627D01*
X225070215Y-155898627D01*
X225104010Y-155884628D01*
X225129875Y-155858763D01*
X225143874Y-155824968D01*
X225145675Y-155806678D01*
X225144228Y-154989016D01*
X225175630Y-154956652D01*
X225285584Y-154900277D01*
X225455863Y-154898959D01*
X225552962Y-154946287D01*
X225601075Y-155040128D01*
X225602834Y-155824968D01*
X225616833Y-155858763D01*
X225642698Y-155884628D01*
X225676493Y-155898627D01*
X225713073Y-155898627D01*
X225746868Y-155884628D01*
X225772733Y-155858763D01*
X225786732Y-155824968D01*
X225788533Y-155806678D01*
X225786805Y-155035662D01*
X225787797Y-155032689D01*
X225786766Y-155018192D01*
X225786732Y-155002674D01*
X225785442Y-154999561D01*
X225785204Y-154996202D01*
X225778635Y-154979037D01*
X225707991Y-154841253D01*
X225704800Y-154831680D01*
X225700599Y-154826836D01*
X225697416Y-154820627D01*
X225688534Y-154812924D01*
X225683117Y-154806678D01*
X226315318Y-154806678D01*
X226317119Y-155824968D01*
X226331118Y-155858763D01*
X226356983Y-155884628D01*
X226390778Y-155898627D01*
X226427358Y-155898627D01*
X226461153Y-155884628D01*
X226487018Y-155858763D01*
X226501017Y-155824968D01*
X226502818Y-155806678D01*
X226501428Y-155020964D01*
X226958176Y-155020964D01*
X226959348Y-155079357D01*
X226958912Y-155080666D01*
X226959556Y-155089735D01*
X226959977Y-155110682D01*
X226961266Y-155113794D01*
X226961505Y-155117153D01*
X226968073Y-155134318D01*
X227038715Y-155272101D01*
X227041908Y-155281678D01*
X227046109Y-155286522D01*
X227049292Y-155292730D01*
X227058173Y-155300432D01*
X227065874Y-155309312D01*
X227075126Y-155315136D01*
X227076926Y-155316697D01*
X227078370Y-155317178D01*
X227081428Y-155319103D01*
X227212476Y-155382977D01*
X227214127Y-155384628D01*
X227225688Y-155389416D01*
X227241451Y-155397100D01*
X227244812Y-155397338D01*
X227247922Y-155398627D01*
X227266212Y-155400428D01*
X227455863Y-155398959D01*
X227552962Y-155446287D01*
X227601431Y-155540821D01*
X227601993Y-155568800D01*
X227555173Y-155664857D01*
X227461193Y-155713042D01*
X227219575Y-155714473D01*
X227076688Y-155644829D01*
X227040200Y-155642236D01*
X227005498Y-155653804D01*
X226977864Y-155677770D01*
X226961505Y-155710488D01*
X226958912Y-155746976D01*
X226970480Y-155781678D01*
X226994446Y-155809312D01*
X227010000Y-155819103D01*
X227141045Y-155882975D01*
X227142698Y-155884628D01*
X227154272Y-155889422D01*
X227170022Y-155897099D01*
X227173380Y-155897337D01*
X227176493Y-155898627D01*
X227194783Y-155900428D01*
X227466156Y-155898820D01*
X227468771Y-155899692D01*
X227482390Y-155898724D01*
X227498787Y-155898627D01*
X227501899Y-155897337D01*
X227505259Y-155897099D01*
X227522423Y-155890531D01*
X227660203Y-155819889D01*
X227669781Y-155816697D01*
X227674626Y-155812494D01*
X227680834Y-155809312D01*
X227688536Y-155800430D01*
X227697416Y-155792730D01*
X227703240Y-155783477D01*
X227704801Y-155781678D01*
X227705282Y-155780233D01*
X227707207Y-155777176D01*
X227771081Y-155646128D01*
X227772733Y-155644477D01*
X227777525Y-155632908D01*
X227785204Y-155617154D01*
X227785442Y-155613794D01*
X227786732Y-155610682D01*
X227788533Y-155592392D01*
X227787360Y-155533997D01*
X227787797Y-155532689D01*
X227787152Y-155523619D01*
X227786732Y-155502674D01*
X227785442Y-155499561D01*
X227785204Y-155496202D01*
X227778635Y-155479037D01*
X227707991Y-155341253D01*
X227704800Y-155331680D01*
X227700599Y-155326836D01*
X227697416Y-155320627D01*
X227688534Y-155312924D01*
X227680834Y-155304045D01*
X227671578Y-155298218D01*
X227669781Y-155296660D01*
X227668338Y-155296179D01*
X227665280Y-155294254D01*
X227534233Y-155230379D01*
X227532582Y-155228728D01*
X227521012Y-155223935D01*
X227505259Y-155216257D01*
X227501899Y-155216018D01*
X227498787Y-155214729D01*
X227480497Y-155212928D01*
X227290845Y-155214396D01*
X227193745Y-155167069D01*
X227145277Y-155072534D01*
X227144715Y-155044554D01*
X227191533Y-154948499D01*
X227285584Y-154900277D01*
X227455863Y-154898959D01*
X227598592Y-154968528D01*
X227635079Y-154971121D01*
X227669781Y-154959554D01*
X227697416Y-154935587D01*
X227713775Y-154902869D01*
X227716368Y-154866381D01*
X227704800Y-154831680D01*
X227680834Y-154804045D01*
X227665280Y-154794254D01*
X227534233Y-154730379D01*
X227532582Y-154728728D01*
X227521012Y-154723935D01*
X227505259Y-154716257D01*
X227501899Y-154716018D01*
X227498787Y-154714729D01*
X227480497Y-154712928D01*
X227280378Y-154714477D01*
X227277938Y-154713664D01*
X227264789Y-154714598D01*
X227247922Y-154714729D01*
X227244809Y-154716018D01*
X227241450Y-154716257D01*
X227224286Y-154722825D01*
X227086505Y-154793466D01*
X227076926Y-154796660D01*
X227072079Y-154800863D01*
X227065874Y-154804045D01*
X227058173Y-154812924D01*
X227049292Y-154820627D01*
X227043465Y-154829882D01*
X227041907Y-154831680D01*
X227041426Y-154833122D01*
X227039501Y-154836181D01*
X226975627Y-154967227D01*
X226973976Y-154968879D01*
X226969184Y-154980447D01*
X226961505Y-154996202D01*
X226961266Y-154999561D01*
X226959977Y-155002674D01*
X226958176Y-155020964D01*
X226501428Y-155020964D01*
X226501017Y-154788388D01*
X226487018Y-154754593D01*
X226461153Y-154728728D01*
X226427358Y-154714729D01*
X226390778Y-154714729D01*
X226356983Y-154728728D01*
X226331118Y-154754593D01*
X226317119Y-154788388D01*
X226315318Y-154806678D01*
X225683117Y-154806678D01*
X225680834Y-154804045D01*
X225671578Y-154798218D01*
X225669781Y-154796660D01*
X225668338Y-154796179D01*
X225665280Y-154794254D01*
X225534233Y-154730379D01*
X225532582Y-154728728D01*
X225521012Y-154723935D01*
X225505259Y-154716257D01*
X225501899Y-154716018D01*
X225498787Y-154714729D01*
X225480497Y-154712928D01*
X225280377Y-154714477D01*
X225277936Y-154713664D01*
X225264787Y-154714598D01*
X225247921Y-154714729D01*
X225244808Y-154716018D01*
X225241449Y-154716257D01*
X225224284Y-154722826D01*
X225135559Y-154768316D01*
X225129875Y-154754593D01*
X225104010Y-154728728D01*
X225070215Y-154714729D01*
X225033635Y-154714729D01*
X224999840Y-154728728D01*
X224973975Y-154754593D01*
X224959976Y-154788388D01*
X224958175Y-154806678D01*
X224643875Y-154806678D01*
X224643875Y-154788388D01*
X224629876Y-154754593D01*
X224604011Y-154728728D01*
X224570216Y-154714729D01*
X224551926Y-154712928D01*
X224422911Y-154714369D01*
X224420794Y-154713664D01*
X224408612Y-154714529D01*
X224390779Y-154714729D01*
X224387666Y-154716018D01*
X224384307Y-154716257D01*
X224367142Y-154722826D01*
X224225521Y-154795436D01*
X224215322Y-154799661D01*
X224215303Y-154788388D01*
X224201304Y-154754593D01*
X224175439Y-154728728D01*
X224141644Y-154714729D01*
X224105064Y-154714729D01*
X224071269Y-154728728D01*
X224045404Y-154754593D01*
X224031405Y-154788388D01*
X224029604Y-154806678D01*
X223397403Y-154806678D01*
X223395120Y-154804045D01*
X223391168Y-154801557D01*
X223389724Y-154800156D01*
X223387437Y-154799208D01*
X223379566Y-154794254D01*
X223248519Y-154730379D01*
X223246868Y-154728728D01*
X223235298Y-154723935D01*
X223219545Y-154716257D01*
X223216185Y-154716018D01*
X223213073Y-154714729D01*
X223194783Y-154712928D01*
X222994663Y-154714477D01*
X222992222Y-154713664D01*
X222979073Y-154714598D01*
X222962207Y-154714729D01*
X222959094Y-154716018D01*
X222955735Y-154716257D01*
X222938570Y-154722826D01*
X222796949Y-154795436D01*
X222785556Y-154800156D01*
X222781911Y-154803147D01*
X222780160Y-154804045D01*
X222778537Y-154805915D01*
X222771349Y-154811815D01*
X222700644Y-154884686D01*
X222692149Y-154892055D01*
X222689661Y-154896006D01*
X222688261Y-154897450D01*
X222687314Y-154899735D01*
X222682358Y-154907609D01*
X222618484Y-155038655D01*
X222616833Y-155040307D01*
X222612041Y-155051875D01*
X222604362Y-155067630D01*
X222604123Y-155070989D01*
X222602834Y-155074102D01*
X222601033Y-155092392D01*
X221513357Y-155092392D01*
X221554599Y-155007775D01*
X221604202Y-154956652D01*
X221714086Y-154900313D01*
X221955704Y-154898882D01*
X222098593Y-154968528D01*
X222135081Y-154971121D01*
X222169782Y-154959553D01*
X222197417Y-154935587D01*
X222213776Y-154902869D01*
X222216369Y-154866381D01*
X222204801Y-154831679D01*
X222180835Y-154804045D01*
X222165281Y-154794254D01*
X222034233Y-154730379D01*
X222032582Y-154728728D01*
X222021013Y-154723935D01*
X222005259Y-154716257D01*
X222001899Y-154716018D01*
X221998787Y-154714729D01*
X221980497Y-154712928D01*
X221709123Y-154714535D01*
X221706508Y-154713664D01*
X221692888Y-154714631D01*
X221676493Y-154714729D01*
X221673380Y-154716018D01*
X221670021Y-154716257D01*
X221652856Y-154722826D01*
X221511235Y-154795436D01*
X221499842Y-154800156D01*
X221496197Y-154803147D01*
X221494446Y-154804045D01*
X221492823Y-154805915D01*
X221485635Y-154811815D01*
X221414930Y-154884686D01*
X221406435Y-154892055D01*
X221403947Y-154896006D01*
X221402547Y-154897450D01*
X221401600Y-154899735D01*
X221396644Y-154907609D01*
X221332770Y-155038655D01*
X221331119Y-155040307D01*
X221326327Y-155051875D01*
X221318648Y-155067630D01*
X221318409Y-155070989D01*
X221317120Y-155074102D01*
X221315319Y-155092392D01*
X221148652Y-155092392D01*
X221148652Y-154396397D01*
X226245691Y-154396397D01*
X226246615Y-154398627D01*
X226259689Y-154430192D01*
X226271349Y-154444398D01*
X226356983Y-154527485D01*
X226390778Y-154541484D01*
X226427358Y-154541484D01*
X226448588Y-154532690D01*
X226461152Y-154527486D01*
X226475359Y-154515827D01*
X226558414Y-154430225D01*
X226558448Y-154430192D01*
X226572446Y-154396396D01*
X226572446Y-154359818D01*
X226558448Y-154326022D01*
X226546788Y-154311816D01*
X226541493Y-154306678D01*
X228243890Y-154306678D01*
X228245691Y-155824968D01*
X228259690Y-155858763D01*
X228285555Y-155884628D01*
X228319350Y-155898627D01*
X228355930Y-155898627D01*
X228389725Y-155884628D01*
X228415590Y-155858763D01*
X228429589Y-155824968D01*
X228431390Y-155806678D01*
X228430419Y-154988526D01*
X228461345Y-154956652D01*
X228571299Y-154900277D01*
X228741578Y-154898959D01*
X228838677Y-154946287D01*
X228886790Y-155040128D01*
X228888549Y-155824968D01*
X228902548Y-155858763D01*
X228928413Y-155884628D01*
X228962208Y-155898627D01*
X228998788Y-155898627D01*
X229032583Y-155884628D01*
X229058448Y-155858763D01*
X229072447Y-155824968D01*
X229074248Y-155806678D01*
X229073008Y-155253540D01*
X229602834Y-155253540D01*
X229616833Y-155287335D01*
X229642698Y-155313200D01*
X229676493Y-155327199D01*
X229694783Y-155329000D01*
X230855931Y-155327199D01*
X230889726Y-155313200D01*
X230915591Y-155287335D01*
X230929590Y-155253540D01*
X230929590Y-155216960D01*
X230915591Y-155183165D01*
X230889726Y-155157300D01*
X230855931Y-155143301D01*
X230837641Y-155141500D01*
X229676493Y-155143301D01*
X229642698Y-155157300D01*
X229616833Y-155183165D01*
X229602834Y-155216960D01*
X229602834Y-155253540D01*
X229073008Y-155253540D01*
X229072520Y-155035662D01*
X229073512Y-155032689D01*
X229072481Y-155018192D01*
X229072447Y-155002674D01*
X229071157Y-154999561D01*
X229070919Y-154996202D01*
X229064350Y-154979037D01*
X228993706Y-154841253D01*
X228990515Y-154831680D01*
X228986314Y-154826836D01*
X228985356Y-154824968D01*
X231245692Y-154824968D01*
X231259691Y-154858763D01*
X231285556Y-154884628D01*
X231319351Y-154898627D01*
X231337641Y-154900428D01*
X231458699Y-154900058D01*
X231459977Y-155824968D01*
X231473976Y-155858763D01*
X231499841Y-155884628D01*
X231533636Y-155898627D01*
X231570216Y-155898627D01*
X231604011Y-155884628D01*
X231629876Y-155858763D01*
X231643875Y-155824968D01*
X231645676Y-155806678D01*
X231644423Y-154899491D01*
X231927359Y-154898627D01*
X231961154Y-154884628D01*
X231987019Y-154858763D01*
X232001018Y-154824968D01*
X232001018Y-154788388D01*
X231987019Y-154754593D01*
X231961154Y-154728728D01*
X231927359Y-154714729D01*
X231909069Y-154712928D01*
X231644166Y-154713737D01*
X231643935Y-154546155D01*
X231691535Y-154448498D01*
X231785717Y-154400210D01*
X231927359Y-154398627D01*
X231961154Y-154384628D01*
X231987019Y-154358763D01*
X232001018Y-154324968D01*
X232001018Y-154306678D01*
X232315319Y-154306678D01*
X232317074Y-155577608D01*
X232316055Y-155580666D01*
X232317098Y-155595354D01*
X232317120Y-155610682D01*
X232318409Y-155613794D01*
X232318648Y-155617154D01*
X232325216Y-155634318D01*
X232395859Y-155772102D01*
X232399052Y-155781678D01*
X232403253Y-155786522D01*
X232406436Y-155792730D01*
X232415316Y-155800431D01*
X232423018Y-155809312D01*
X232432274Y-155815138D01*
X232434070Y-155816696D01*
X232435511Y-155817176D01*
X232438572Y-155819103D01*
X232598594Y-155897099D01*
X232635081Y-155899692D01*
X232669783Y-155888125D01*
X232697418Y-155864158D01*
X232713777Y-155831440D01*
X232716369Y-155794952D01*
X232704802Y-155760250D01*
X232680835Y-155732616D01*
X232665281Y-155722825D01*
X232550889Y-155667069D01*
X232502792Y-155573260D01*
X232501734Y-154806678D01*
X233101033Y-154806678D01*
X233102834Y-155824968D01*
X233116833Y-155858763D01*
X233142698Y-155884628D01*
X233176493Y-155898627D01*
X233213073Y-155898627D01*
X233246868Y-155884628D01*
X233272733Y-155858763D01*
X233286732Y-155824968D01*
X233288533Y-155806678D01*
X233286764Y-154806678D01*
X233815319Y-154806678D01*
X233816428Y-155741725D01*
X233816055Y-155746976D01*
X233816435Y-155748118D01*
X233817120Y-156324968D01*
X233831119Y-156358763D01*
X233856984Y-156384628D01*
X233890779Y-156398627D01*
X233927359Y-156398627D01*
X233961154Y-156384628D01*
X233987019Y-156358763D01*
X234001018Y-156324968D01*
X234002819Y-156306678D01*
X234002319Y-155885654D01*
X234011403Y-155889416D01*
X234027166Y-155897100D01*
X234030527Y-155897338D01*
X234033637Y-155898627D01*
X234051927Y-155900428D01*
X234323300Y-155898820D01*
X234325915Y-155899692D01*
X234339534Y-155898724D01*
X234355931Y-155898627D01*
X234359043Y-155897337D01*
X234362403Y-155897099D01*
X234379567Y-155890531D01*
X234521184Y-155817921D01*
X234532583Y-155813201D01*
X234536228Y-155810209D01*
X234537978Y-155809312D01*
X234539600Y-155807440D01*
X234546789Y-155801541D01*
X234617500Y-155728662D01*
X234625989Y-155721301D01*
X234628474Y-155717352D01*
X234629878Y-155715906D01*
X234630826Y-155713616D01*
X234635780Y-155705747D01*
X234699652Y-155574701D01*
X234701305Y-155573049D01*
X234706099Y-155561474D01*
X234713776Y-155545725D01*
X234714014Y-155542366D01*
X234715304Y-155539254D01*
X234717105Y-155520964D01*
X234715436Y-155106916D01*
X234716369Y-155104118D01*
X234715368Y-155090035D01*
X234715304Y-155074102D01*
X234714014Y-155070989D01*
X234713776Y-155067631D01*
X234707208Y-155050466D01*
X234634594Y-154908839D01*
X234629877Y-154897450D01*
X234626887Y-154893806D01*
X234625989Y-154892055D01*
X234624117Y-154890432D01*
X234618218Y-154883243D01*
X234545341Y-154812535D01*
X234540261Y-154806678D01*
X235172462Y-154806678D01*
X235173571Y-155741725D01*
X235173198Y-155746976D01*
X235173578Y-155748118D01*
X235174263Y-156324968D01*
X235188262Y-156358763D01*
X235214127Y-156384628D01*
X235247922Y-156398627D01*
X235284502Y-156398627D01*
X235318297Y-156384628D01*
X235344162Y-156358763D01*
X235358161Y-156324968D01*
X235359962Y-156306678D01*
X235359462Y-155885654D01*
X235368546Y-155889416D01*
X235384309Y-155897100D01*
X235387670Y-155897338D01*
X235390780Y-155898627D01*
X235409070Y-155900428D01*
X235680443Y-155898820D01*
X235683058Y-155899692D01*
X235696677Y-155898724D01*
X235713074Y-155898627D01*
X235716186Y-155897337D01*
X235719546Y-155897099D01*
X235736710Y-155890531D01*
X235878327Y-155817921D01*
X235889726Y-155813201D01*
X235893371Y-155810209D01*
X235895121Y-155809312D01*
X235896743Y-155807440D01*
X235903932Y-155801541D01*
X235974643Y-155728662D01*
X235983132Y-155721301D01*
X235985617Y-155717352D01*
X235987021Y-155715906D01*
X235987969Y-155713616D01*
X235992923Y-155705747D01*
X236056795Y-155574701D01*
X236058448Y-155573049D01*
X236063242Y-155561474D01*
X236070919Y-155545725D01*
X236071157Y-155542366D01*
X236072447Y-155539254D01*
X236074248Y-155520964D01*
X236072579Y-155106916D01*
X236073512Y-155104118D01*
X236072511Y-155090035D01*
X236072447Y-155074102D01*
X236071157Y-155070989D01*
X236070919Y-155067631D01*
X236064351Y-155050466D01*
X236049225Y-155020964D01*
X236458177Y-155020964D01*
X236459349Y-155079357D01*
X236458913Y-155080666D01*
X236459557Y-155089735D01*
X236459978Y-155110682D01*
X236461267Y-155113794D01*
X236461506Y-155117153D01*
X236468074Y-155134318D01*
X236538716Y-155272101D01*
X236541909Y-155281678D01*
X236546110Y-155286522D01*
X236549293Y-155292730D01*
X236558174Y-155300432D01*
X236565875Y-155309312D01*
X236575127Y-155315136D01*
X236576927Y-155316697D01*
X236578371Y-155317178D01*
X236581429Y-155319103D01*
X236712477Y-155382977D01*
X236714128Y-155384628D01*
X236725689Y-155389416D01*
X236741452Y-155397100D01*
X236744813Y-155397338D01*
X236747923Y-155398627D01*
X236766213Y-155400428D01*
X236955864Y-155398959D01*
X237052963Y-155446287D01*
X237101432Y-155540821D01*
X237101994Y-155568800D01*
X237055174Y-155664857D01*
X236961194Y-155713042D01*
X236719576Y-155714473D01*
X236576689Y-155644829D01*
X236540201Y-155642236D01*
X236505499Y-155653804D01*
X236477865Y-155677770D01*
X236461506Y-155710488D01*
X236458913Y-155746976D01*
X236470481Y-155781678D01*
X236494447Y-155809312D01*
X236510001Y-155819103D01*
X236641046Y-155882975D01*
X236642699Y-155884628D01*
X236654273Y-155889422D01*
X236670023Y-155897099D01*
X236673381Y-155897337D01*
X236676494Y-155898627D01*
X236694784Y-155900428D01*
X236966157Y-155898820D01*
X236968772Y-155899692D01*
X236982391Y-155898724D01*
X236998788Y-155898627D01*
X237001900Y-155897337D01*
X237005260Y-155897099D01*
X237022424Y-155890531D01*
X237160204Y-155819889D01*
X237169782Y-155816697D01*
X237174627Y-155812494D01*
X237180835Y-155809312D01*
X237188537Y-155800430D01*
X237197417Y-155792730D01*
X237203241Y-155783477D01*
X237204802Y-155781678D01*
X237205283Y-155780233D01*
X237207208Y-155777176D01*
X237271082Y-155646128D01*
X237272734Y-155644477D01*
X237277526Y-155632908D01*
X237285205Y-155617154D01*
X237285443Y-155613794D01*
X237286733Y-155610682D01*
X237288534Y-155592392D01*
X237287361Y-155533997D01*
X237287798Y-155532689D01*
X237287153Y-155523619D01*
X237286733Y-155502674D01*
X237285443Y-155499561D01*
X237285205Y-155496202D01*
X237278636Y-155479037D01*
X237207992Y-155341253D01*
X237204801Y-155331680D01*
X237200600Y-155326836D01*
X237197417Y-155320627D01*
X237188535Y-155312924D01*
X237180835Y-155304045D01*
X237171579Y-155298218D01*
X237169782Y-155296660D01*
X237168339Y-155296179D01*
X237165281Y-155294254D01*
X237034234Y-155230379D01*
X237032583Y-155228728D01*
X237021013Y-155223935D01*
X237005260Y-155216257D01*
X237001900Y-155216018D01*
X236998788Y-155214729D01*
X236980498Y-155212928D01*
X236790846Y-155214396D01*
X236693746Y-155167069D01*
X236645278Y-155072534D01*
X236644716Y-155044554D01*
X236691534Y-154948499D01*
X236785585Y-154900277D01*
X236955864Y-154898959D01*
X237098593Y-154968528D01*
X237135080Y-154971121D01*
X237169782Y-154959554D01*
X237197417Y-154935587D01*
X237213776Y-154902869D01*
X237216369Y-154866381D01*
X237204801Y-154831680D01*
X237183118Y-154806678D01*
X237743891Y-154806678D01*
X237745692Y-155824968D01*
X237759691Y-155858763D01*
X237785556Y-155884628D01*
X237819351Y-155898627D01*
X237855931Y-155898627D01*
X237889726Y-155884628D01*
X237915591Y-155858763D01*
X237929590Y-155824968D01*
X237931391Y-155806678D01*
X237930507Y-155306776D01*
X238386749Y-155306776D01*
X238387635Y-155311207D01*
X238388449Y-155577772D01*
X238387485Y-155580666D01*
X238388502Y-155594977D01*
X238388550Y-155610682D01*
X238389839Y-155613794D01*
X238390078Y-155617153D01*
X238396646Y-155634318D01*
X238467288Y-155772101D01*
X238470481Y-155781678D01*
X238474682Y-155786522D01*
X238477865Y-155792730D01*
X238486746Y-155800432D01*
X238494447Y-155809312D01*
X238503699Y-155815136D01*
X238505499Y-155816697D01*
X238506943Y-155817178D01*
X238510001Y-155819103D01*
X238641049Y-155882977D01*
X238642700Y-155884628D01*
X238654261Y-155889416D01*
X238670024Y-155897100D01*
X238673385Y-155897338D01*
X238676495Y-155898627D01*
X238694785Y-155900428D01*
X238966158Y-155898820D01*
X238968773Y-155899692D01*
X238982392Y-155898724D01*
X238998789Y-155898627D01*
X239001901Y-155897337D01*
X239005261Y-155897099D01*
X239022425Y-155890531D01*
X239180836Y-155809312D01*
X239204803Y-155781678D01*
X239216370Y-155746976D01*
X239213778Y-155710488D01*
X239197419Y-155677770D01*
X239169784Y-155653803D01*
X239135082Y-155642236D01*
X239098595Y-155644829D01*
X239081430Y-155651397D01*
X238961195Y-155713042D01*
X238719576Y-155714473D01*
X238622318Y-155667069D01*
X238574190Y-155573197D01*
X238573610Y-155383474D01*
X239204221Y-155255770D01*
X239213075Y-155255770D01*
X239221543Y-155252261D01*
X239230753Y-155250397D01*
X239238384Y-155245285D01*
X239246870Y-155241771D01*
X239253434Y-155235206D01*
X239261146Y-155230042D01*
X239266240Y-155222401D01*
X239272735Y-155215906D01*
X239276287Y-155207329D01*
X239281436Y-155199607D01*
X239283218Y-155190597D01*
X239286734Y-155182111D01*
X239288535Y-155163821D01*
X239288534Y-155163733D01*
X239288536Y-155163723D01*
X239288533Y-155163711D01*
X239287093Y-155034806D01*
X239287799Y-155032689D01*
X239286933Y-155020507D01*
X239286734Y-155002674D01*
X239285444Y-154999561D01*
X239285206Y-154996202D01*
X239278637Y-154979037D01*
X239207993Y-154841253D01*
X239204802Y-154831680D01*
X239200601Y-154826836D01*
X239197418Y-154820627D01*
X239188536Y-154812924D01*
X239180836Y-154804045D01*
X239171580Y-154798218D01*
X239169783Y-154796660D01*
X239168340Y-154796179D01*
X239165282Y-154794254D01*
X239034235Y-154730379D01*
X239032584Y-154728728D01*
X239021014Y-154723935D01*
X239005261Y-154716257D01*
X239001901Y-154716018D01*
X238998789Y-154714729D01*
X238980499Y-154712928D01*
X238709125Y-154714535D01*
X238706511Y-154713664D01*
X238692891Y-154714631D01*
X238676495Y-154714729D01*
X238673382Y-154716018D01*
X238670023Y-154716257D01*
X238652859Y-154722825D01*
X238515078Y-154793466D01*
X238505499Y-154796660D01*
X238500652Y-154800863D01*
X238494447Y-154804045D01*
X238486746Y-154812924D01*
X238477865Y-154820627D01*
X238472038Y-154829882D01*
X238470480Y-154831680D01*
X238469999Y-154833122D01*
X238468074Y-154836181D01*
X238404200Y-154967227D01*
X238402549Y-154968879D01*
X238397757Y-154980447D01*
X238390078Y-154996202D01*
X238389839Y-154999561D01*
X238388550Y-155002674D01*
X238386749Y-155020964D01*
X238387608Y-155302430D01*
X238386749Y-155306776D01*
X237930507Y-155306776D01*
X237929590Y-154788388D01*
X237915591Y-154754593D01*
X237889726Y-154728728D01*
X237855931Y-154714729D01*
X237819351Y-154714729D01*
X237785556Y-154728728D01*
X237759691Y-154754593D01*
X237745692Y-154788388D01*
X237743891Y-154806678D01*
X237183118Y-154806678D01*
X237180835Y-154804045D01*
X237165281Y-154794254D01*
X237034234Y-154730379D01*
X237032583Y-154728728D01*
X237021013Y-154723935D01*
X237005260Y-154716257D01*
X237001900Y-154716018D01*
X236998788Y-154714729D01*
X236980498Y-154712928D01*
X236780379Y-154714477D01*
X236777939Y-154713664D01*
X236764790Y-154714598D01*
X236747923Y-154714729D01*
X236744810Y-154716018D01*
X236741451Y-154716257D01*
X236724287Y-154722825D01*
X236586506Y-154793466D01*
X236576927Y-154796660D01*
X236572080Y-154800863D01*
X236565875Y-154804045D01*
X236558174Y-154812924D01*
X236549293Y-154820627D01*
X236543466Y-154829882D01*
X236541908Y-154831680D01*
X236541427Y-154833122D01*
X236539502Y-154836181D01*
X236475628Y-154967227D01*
X236473977Y-154968879D01*
X236469185Y-154980447D01*
X236461506Y-154996202D01*
X236461267Y-154999561D01*
X236459978Y-155002674D01*
X236458177Y-155020964D01*
X236049225Y-155020964D01*
X235991737Y-154908839D01*
X235987020Y-154897450D01*
X235984030Y-154893806D01*
X235983132Y-154892055D01*
X235981260Y-154890432D01*
X235975361Y-154883243D01*
X235902484Y-154812535D01*
X235895121Y-154804045D01*
X235891169Y-154801557D01*
X235889725Y-154800156D01*
X235887438Y-154799208D01*
X235879567Y-154794254D01*
X235748520Y-154730379D01*
X235746869Y-154728728D01*
X235735299Y-154723935D01*
X235719546Y-154716257D01*
X235716186Y-154716018D01*
X235713074Y-154714729D01*
X235694784Y-154712928D01*
X235423410Y-154714535D01*
X235420796Y-154713664D01*
X235407176Y-154714631D01*
X235390780Y-154714729D01*
X235387667Y-154716018D01*
X235384308Y-154716257D01*
X235367144Y-154722825D01*
X235330950Y-154741381D01*
X235318297Y-154728728D01*
X235284502Y-154714729D01*
X235247922Y-154714729D01*
X235214127Y-154728728D01*
X235188262Y-154754593D01*
X235174263Y-154788388D01*
X235172462Y-154806678D01*
X234540261Y-154806678D01*
X234537978Y-154804045D01*
X234534026Y-154801557D01*
X234532582Y-154800156D01*
X234530295Y-154799208D01*
X234522424Y-154794254D01*
X234391377Y-154730379D01*
X234389726Y-154728728D01*
X234378156Y-154723935D01*
X234362403Y-154716257D01*
X234359043Y-154716018D01*
X234355931Y-154714729D01*
X234337641Y-154712928D01*
X234066267Y-154714535D01*
X234063653Y-154713664D01*
X234050033Y-154714631D01*
X234033637Y-154714729D01*
X234030524Y-154716018D01*
X234027165Y-154716257D01*
X234010001Y-154722825D01*
X233973807Y-154741381D01*
X233961154Y-154728728D01*
X233927359Y-154714729D01*
X233890779Y-154714729D01*
X233856984Y-154728728D01*
X233831119Y-154754593D01*
X233817120Y-154788388D01*
X233815319Y-154806678D01*
X233286764Y-154806678D01*
X233286732Y-154788388D01*
X233272733Y-154754593D01*
X233246868Y-154728728D01*
X233213073Y-154714729D01*
X233176493Y-154714729D01*
X233142698Y-154728728D01*
X233116833Y-154754593D01*
X233102834Y-154788388D01*
X233101033Y-154806678D01*
X232501734Y-154806678D01*
X232501167Y-154396397D01*
X233031406Y-154396397D01*
X233032330Y-154398627D01*
X233045404Y-154430192D01*
X233057064Y-154444398D01*
X233142698Y-154527485D01*
X233176493Y-154541484D01*
X233213073Y-154541484D01*
X233234303Y-154532690D01*
X233246867Y-154527486D01*
X233261074Y-154515827D01*
X233344129Y-154430225D01*
X233344163Y-154430192D01*
X233358161Y-154396397D01*
X237674264Y-154396397D01*
X237675188Y-154398627D01*
X237688262Y-154430192D01*
X237699922Y-154444398D01*
X237785556Y-154527485D01*
X237819351Y-154541484D01*
X237855931Y-154541484D01*
X237877161Y-154532690D01*
X237889725Y-154527486D01*
X237903932Y-154515827D01*
X237986987Y-154430225D01*
X237987021Y-154430192D01*
X238001019Y-154396396D01*
X238001019Y-154359818D01*
X237987021Y-154326022D01*
X237975361Y-154311816D01*
X237889726Y-154228727D01*
X237865828Y-154218829D01*
X237855931Y-154214729D01*
X237819351Y-154214729D01*
X237809453Y-154218829D01*
X237785556Y-154228727D01*
X237785550Y-154228732D01*
X237771349Y-154240387D01*
X237688294Y-154325989D01*
X237688262Y-154326022D01*
X237674701Y-154358762D01*
X237674264Y-154359818D01*
X237674264Y-154396397D01*
X233358161Y-154396397D01*
X233358161Y-154396396D01*
X233358161Y-154359818D01*
X233344163Y-154326022D01*
X233332503Y-154311816D01*
X233246868Y-154228727D01*
X233222970Y-154218829D01*
X233213073Y-154214729D01*
X233176493Y-154214729D01*
X233166595Y-154218829D01*
X233142698Y-154228727D01*
X233142692Y-154228732D01*
X233128491Y-154240387D01*
X233045436Y-154325989D01*
X233045404Y-154326022D01*
X233031843Y-154358762D01*
X233031406Y-154359818D01*
X233031406Y-154396397D01*
X232501167Y-154396397D01*
X232501018Y-154288388D01*
X232487019Y-154254593D01*
X232461154Y-154228728D01*
X232427359Y-154214729D01*
X232390779Y-154214729D01*
X232356984Y-154228728D01*
X232331119Y-154254593D01*
X232317120Y-154288388D01*
X232315319Y-154306678D01*
X232001018Y-154306678D01*
X232001018Y-154288388D01*
X231987019Y-154254593D01*
X231961154Y-154228728D01*
X231927359Y-154214729D01*
X231909069Y-154212928D01*
X231780054Y-154214369D01*
X231777937Y-154213664D01*
X231765755Y-154214529D01*
X231747922Y-154214729D01*
X231744809Y-154216018D01*
X231741450Y-154216257D01*
X231724285Y-154222826D01*
X231586501Y-154293469D01*
X231576928Y-154296661D01*
X231572084Y-154300861D01*
X231565875Y-154304045D01*
X231558172Y-154312926D01*
X231549293Y-154320627D01*
X231543466Y-154329882D01*
X231541908Y-154331680D01*
X231541427Y-154333122D01*
X231539502Y-154336181D01*
X231475627Y-154467227D01*
X231473976Y-154468879D01*
X231469183Y-154480448D01*
X231461505Y-154496202D01*
X231461266Y-154499561D01*
X231459977Y-154502674D01*
X231458176Y-154520964D01*
X231458443Y-154714304D01*
X231319351Y-154714729D01*
X231285556Y-154728728D01*
X231259691Y-154754593D01*
X231245692Y-154788388D01*
X231245692Y-154824968D01*
X228985356Y-154824968D01*
X228983131Y-154820627D01*
X228974249Y-154812924D01*
X228966549Y-154804045D01*
X228957293Y-154798218D01*
X228955496Y-154796660D01*
X228954053Y-154796179D01*
X228950995Y-154794254D01*
X228819948Y-154730379D01*
X228818297Y-154728728D01*
X228806727Y-154723935D01*
X228790974Y-154716257D01*
X228787614Y-154716018D01*
X228784502Y-154714729D01*
X228766212Y-154712928D01*
X228566092Y-154714477D01*
X228563651Y-154713664D01*
X228550502Y-154714598D01*
X228533636Y-154714729D01*
X228530523Y-154716018D01*
X228527164Y-154716257D01*
X228509999Y-154722826D01*
X228430152Y-154763764D01*
X228429589Y-154288388D01*
X228415590Y-154254593D01*
X228389725Y-154228728D01*
X228355930Y-154214729D01*
X228319350Y-154214729D01*
X228285555Y-154228728D01*
X228259690Y-154254593D01*
X228245691Y-154288388D01*
X228243890Y-154306678D01*
X226541493Y-154306678D01*
X226461153Y-154228727D01*
X226437255Y-154218829D01*
X226427358Y-154214729D01*
X226390778Y-154214729D01*
X226380880Y-154218829D01*
X226356983Y-154228727D01*
X226356977Y-154228732D01*
X226342776Y-154240387D01*
X226259721Y-154325989D01*
X226259689Y-154326022D01*
X226246128Y-154358762D01*
X226245691Y-154359818D01*
X226245691Y-154396397D01*
X221148652Y-154396397D01*
X221148652Y-154046261D01*
X239455203Y-154046261D01*
X239455203Y-156565294D01*
G37*
D12*
X270574915Y-158022988D02*
X270111667Y-158063452D01*
X270346343Y-158418886D02*
X269653523Y-158018886D01*
X269653523Y-158018886D02*
X269805904Y-157754954D01*
X269805904Y-157754954D02*
X269876991Y-157708019D01*
X269876991Y-157708019D02*
X269929030Y-157694075D01*
X269929030Y-157694075D02*
X270014060Y-157699179D01*
X270014060Y-157699179D02*
X270113035Y-157756322D01*
X270113035Y-157756322D02*
X270159970Y-157827408D01*
X270159970Y-157827408D02*
X270173914Y-157879447D01*
X270173914Y-157879447D02*
X270168810Y-157964478D01*
X270168810Y-157964478D02*
X270016429Y-158228409D01*
X270383438Y-157516542D02*
X270516771Y-157285601D01*
X270936820Y-157396151D02*
X270746343Y-157726065D01*
X270746343Y-157726065D02*
X270053523Y-157326065D01*
X270053523Y-157326065D02*
X270243999Y-156996151D01*
X271056209Y-157113171D02*
X271146344Y-157033245D01*
X271146344Y-157033245D02*
X271241582Y-156868287D01*
X271241582Y-156868287D02*
X271246686Y-156783257D01*
X271246686Y-156783257D02*
X271232742Y-156731218D01*
X271232742Y-156731218D02*
X271185807Y-156660131D01*
X271185807Y-156660131D02*
X271119824Y-156622036D01*
X271119824Y-156622036D02*
X271034793Y-156616932D01*
X271034793Y-156616932D02*
X270982754Y-156630876D01*
X270982754Y-156630876D02*
X270911667Y-156677811D01*
X270911667Y-156677811D02*
X270802485Y-156790729D01*
X270802485Y-156790729D02*
X270731399Y-156837665D01*
X270731399Y-156837665D02*
X270679360Y-156851608D01*
X270679360Y-156851608D02*
X270594329Y-156846505D01*
X270594329Y-156846505D02*
X270528346Y-156808409D01*
X270528346Y-156808409D02*
X270481411Y-156737323D01*
X270481411Y-156737323D02*
X270467467Y-156685284D01*
X270467467Y-156685284D02*
X270472571Y-156600253D01*
X270472571Y-156600253D02*
X270567809Y-156435296D01*
X270567809Y-156435296D02*
X270657943Y-156355369D01*
X271126295Y-156229875D02*
X271259628Y-155998934D01*
X271679677Y-156109484D02*
X271489201Y-156439398D01*
X271489201Y-156439398D02*
X270796381Y-156039398D01*
X270796381Y-156039398D02*
X270986857Y-155709484D01*
X271101143Y-155511535D02*
X271329714Y-155115638D01*
X271908249Y-155713586D02*
X271215429Y-155313586D01*
D13*
%TO.C,D12*%
X201866126Y-101251688D02*
X202266126Y-101251688D01*
X202266126Y-101251688D02*
X202266126Y-100701688D01*
X202266126Y-101251688D02*
X202266126Y-101801688D01*
X202266126Y-101251688D02*
X202866126Y-100851688D01*
X202866126Y-100851688D02*
X202866126Y-101651688D01*
X202866126Y-101251688D02*
X203366126Y-101251688D01*
X202866126Y-101651688D02*
X202266126Y-101251688D01*
%TO.C,D20*%
X244866127Y-115251688D02*
X245266127Y-115251688D01*
X245266127Y-115251688D02*
X245266127Y-114701688D01*
X245266127Y-115251688D02*
X245266127Y-115801688D01*
X245266127Y-115251688D02*
X245866127Y-114851688D01*
X245866127Y-114851688D02*
X245866127Y-115651688D01*
X245866127Y-115251688D02*
X246366127Y-115251688D01*
X245866127Y-115651688D02*
X245266127Y-115251688D01*
%TO.C,D13*%
X220866126Y-139251688D02*
X221266126Y-139251688D01*
X221266126Y-139251688D02*
X221266126Y-138701688D01*
X221266126Y-139251688D02*
X221266126Y-139801688D01*
X221266126Y-139251688D02*
X221866126Y-138851688D01*
X221866126Y-138851688D02*
X221866126Y-139651688D01*
X221866126Y-139251688D02*
X222366126Y-139251688D01*
X221866126Y-139651688D02*
X221266126Y-139251688D01*
%TO.C,D9*%
X182866126Y-95251688D02*
X183266126Y-95251688D01*
X183266126Y-95251688D02*
X183266126Y-94701688D01*
X183266126Y-95251688D02*
X183266126Y-95801688D01*
X183266126Y-95251688D02*
X183866126Y-94851688D01*
X183866126Y-94851688D02*
X183866126Y-95651688D01*
X183866126Y-95251688D02*
X184366126Y-95251688D01*
X183866126Y-95651688D02*
X183266126Y-95251688D01*
%TO.C,D6*%
X163866126Y-100251688D02*
X164266126Y-100251688D01*
X164266126Y-100251688D02*
X164266126Y-99701688D01*
X164266126Y-100251688D02*
X164266126Y-100801688D01*
X164266126Y-100251688D02*
X164866126Y-99851688D01*
X164866126Y-99851688D02*
X164866126Y-100651688D01*
X164866126Y-100251688D02*
X165366126Y-100251688D01*
X164866126Y-100651688D02*
X164266126Y-100251688D01*
%TO.C,D7*%
X182866126Y-133251688D02*
X183266126Y-133251688D01*
X183266126Y-133251688D02*
X183266126Y-132701688D01*
X183266126Y-133251688D02*
X183266126Y-133801688D01*
X183266126Y-133251688D02*
X183866126Y-132851688D01*
X183866126Y-132851688D02*
X183866126Y-133651688D01*
X183866126Y-133251688D02*
X184366126Y-133251688D01*
X183866126Y-133651688D02*
X183266126Y-133251688D01*
%TO.C,D17*%
X234354365Y-164264422D02*
X234740734Y-164367950D01*
X234740734Y-164367950D02*
X234598384Y-164899211D01*
X234740734Y-164367950D02*
X234883086Y-163836691D01*
X234740734Y-164367950D02*
X235423818Y-164136871D01*
X235216763Y-164909612D02*
X234740734Y-164367950D01*
X235320290Y-164523242D02*
X235803253Y-164652652D01*
X235423818Y-164136871D02*
X235216763Y-164909612D01*
%TO.C,D4*%
X163866126Y-138251688D02*
X164266126Y-138251688D01*
X164266126Y-138251688D02*
X164266126Y-137701688D01*
X164266126Y-138251688D02*
X164266126Y-138801688D01*
X164266126Y-138251688D02*
X164866126Y-137851688D01*
X164866126Y-137851688D02*
X164866126Y-138651688D01*
X164866126Y-138251688D02*
X165366126Y-138251688D01*
X164866126Y-138651688D02*
X164266126Y-138251688D01*
%TO.C,D5*%
X163866126Y-119251688D02*
X164266126Y-119251688D01*
X164266126Y-119251688D02*
X164266126Y-118701688D01*
X164266126Y-119251688D02*
X164266126Y-119801688D01*
X164266126Y-119251688D02*
X164866126Y-118851688D01*
X164866126Y-118851688D02*
X164866126Y-119651688D01*
X164866126Y-119251688D02*
X165366126Y-119251688D01*
X164866126Y-119651688D02*
X164266126Y-119251688D01*
%TO.C,D15*%
X220866126Y-101251688D02*
X221266126Y-101251688D01*
X221266126Y-101251688D02*
X221266126Y-100701688D01*
X221266126Y-101251688D02*
X221266126Y-101801688D01*
X221266126Y-101251688D02*
X221866126Y-100851688D01*
X221866126Y-100851688D02*
X221866126Y-101651688D01*
X221866126Y-101251688D02*
X222366126Y-101251688D01*
X221866126Y-101651688D02*
X221266126Y-101251688D01*
%TO.C,D16*%
X206566126Y-161251688D02*
X206966126Y-161251688D01*
X206966126Y-161251688D02*
X206966126Y-160701688D01*
X206966126Y-161251688D02*
X206966126Y-161801688D01*
X206966126Y-161251688D02*
X207566126Y-160851688D01*
X207566126Y-160851688D02*
X207566126Y-161651688D01*
X207566126Y-161251688D02*
X208066126Y-161251688D01*
X207566126Y-161651688D02*
X206966126Y-161251688D01*
D12*
%TO.C,_41*%
X259726126Y-115551688D02*
X259726126Y-113011688D01*
X262266126Y-113011688D02*
X259726126Y-113011688D01*
X262266126Y-113011688D02*
X262266126Y-115551688D01*
X262266126Y-115551688D02*
X259726126Y-115551688D01*
D13*
%TO.C,D1*%
X143849748Y-150972809D02*
X144248226Y-150937947D01*
X144248226Y-150937947D02*
X144200291Y-150390039D01*
X144248226Y-150937947D02*
X144296162Y-151485853D01*
X144248226Y-150937947D02*
X144811080Y-150487175D01*
X144811080Y-150487175D02*
X144880805Y-151284131D01*
X144845943Y-150885653D02*
X145344040Y-150842075D01*
X144880805Y-151284131D02*
X144248226Y-150937947D01*
%TO.C,D10*%
X201866126Y-139251688D02*
X202266126Y-139251688D01*
X202266126Y-139251688D02*
X202266126Y-138701688D01*
X202266126Y-139251688D02*
X202266126Y-139801688D01*
X202266126Y-139251688D02*
X202866126Y-138851688D01*
X202866126Y-138851688D02*
X202866126Y-139651688D01*
X202866126Y-139251688D02*
X203366126Y-139251688D01*
X202866126Y-139651688D02*
X202266126Y-139251688D01*
%TO.C,D11*%
X201866126Y-120251688D02*
X202266126Y-120251688D01*
X202266126Y-120251688D02*
X202266126Y-119701688D01*
X202266126Y-120251688D02*
X202266126Y-120801688D01*
X202266126Y-120251688D02*
X202866126Y-119851688D01*
X202866126Y-119851688D02*
X202866126Y-120651688D01*
X202866126Y-120251688D02*
X203366126Y-120251688D01*
X202866126Y-120651688D02*
X202266126Y-120251688D01*
%TO.C,D19*%
X244866127Y-134251688D02*
X245266127Y-134251688D01*
X245266127Y-134251688D02*
X245266127Y-133701688D01*
X245266127Y-134251688D02*
X245266127Y-134801688D01*
X245266127Y-134251688D02*
X245866127Y-133851688D01*
X245866127Y-133851688D02*
X245866127Y-134651688D01*
X245866127Y-134251688D02*
X246366127Y-134251688D01*
X245866127Y-134651688D02*
X245266127Y-134251688D01*
%TO.C,D18*%
X251922882Y-171604668D02*
X252122882Y-171258258D01*
X252076470Y-170538643D02*
X252769293Y-170938643D01*
X252122882Y-171258258D02*
X251646568Y-170983258D01*
X252122882Y-171258258D02*
X252076470Y-170538643D01*
X252122882Y-171258258D02*
X252599196Y-171533257D01*
X252422882Y-170738643D02*
X252672882Y-170305630D01*
X252769293Y-170938643D02*
X252122882Y-171258258D01*
%TO.C,D2*%
X142193789Y-132045109D02*
X142592267Y-132010247D01*
X142592267Y-132010247D02*
X142544332Y-131462339D01*
X142592267Y-132010247D02*
X142640203Y-132558153D01*
X142592267Y-132010247D02*
X143155121Y-131559475D01*
X143155121Y-131559475D02*
X143224846Y-132356431D01*
X143189984Y-131957953D02*
X143688081Y-131914375D01*
X143224846Y-132356431D02*
X142592267Y-132010247D01*
%TO.C,D14*%
X220866126Y-120251688D02*
X221266126Y-120251688D01*
X221266126Y-120251688D02*
X221266126Y-119701688D01*
X221266126Y-120251688D02*
X221266126Y-120801688D01*
X221266126Y-120251688D02*
X221866126Y-119851688D01*
X221866126Y-119851688D02*
X221866126Y-120651688D01*
X221866126Y-120251688D02*
X222366126Y-120251688D01*
X221866126Y-120651688D02*
X221266126Y-120251688D01*
D14*
%TO.C,_42*%
X267729607Y-158606621D02*
X267469605Y-159056953D01*
X267911279Y-159311954D02*
X267469605Y-159056953D01*
X268171276Y-158861621D02*
X267729607Y-158606621D01*
X270622130Y-160276620D02*
X270422943Y-160161620D01*
X270892131Y-159808968D02*
X270622130Y-160276620D01*
X271329605Y-152371239D02*
X271069604Y-152821572D01*
X271511279Y-153076571D02*
X271069604Y-152821572D01*
X271771278Y-152626239D02*
X271329605Y-152371239D01*
X271981598Y-161661955D02*
X270162944Y-160611952D01*
X273142129Y-155911853D02*
X271442128Y-158856340D01*
X273962128Y-154491572D02*
X273692127Y-154959224D01*
X273962128Y-154491572D02*
X273762943Y-154376569D01*
X275841597Y-154976238D02*
X274022944Y-153926238D01*
D13*
%TO.C,D8*%
X182866126Y-114251688D02*
X183266126Y-114251688D01*
X183266126Y-114251688D02*
X183266126Y-113701688D01*
X183266126Y-114251688D02*
X183266126Y-114801688D01*
X183266126Y-114251688D02*
X183866126Y-113851688D01*
X183866126Y-113851688D02*
X183866126Y-114651688D01*
X183866126Y-114251688D02*
X184366126Y-114251688D01*
X183866126Y-114651688D02*
X183266126Y-114251688D01*
%TO.C,D3*%
X140537830Y-113117411D02*
X140936308Y-113082549D01*
X140936308Y-113082549D02*
X140888373Y-112534641D01*
X140936308Y-113082549D02*
X140984244Y-113630455D01*
X140936308Y-113082549D02*
X141499162Y-112631777D01*
X141499162Y-112631777D02*
X141568887Y-113428733D01*
X141534025Y-113030255D02*
X142032122Y-112986677D01*
X141568887Y-113428733D02*
X140936308Y-113082549D01*
%TD*%
M02*
