%TF.GenerationSoftware,KiCad,Pcbnew,8.0.0*%
%TF.CreationDate,2024-03-16T23:28:16+01:00*%
%TF.ProjectId,cornish-v1,636f726e-6973-4682-9d76-312e6b696361,v1.0.0*%
%TF.SameCoordinates,Original*%
%TF.FileFunction,Copper,L2,Bot*%
%TF.FilePolarity,Positive*%
%FSLAX46Y46*%
G04 Gerber Fmt 4.6, Leading zero omitted, Abs format (unit mm)*
G04 Created by KiCad (PCBNEW 8.0.0) date 2024-03-16 23:28:16*
%MOMM*%
%LPD*%
G01*
G04 APERTURE LIST*
G04 Aperture macros list*
%AMRotRect*
0 Rectangle, with rotation*
0 The origin of the aperture is its center*
0 $1 length*
0 $2 width*
0 $3 Rotation angle, in degrees counterclockwise*
0 Add horizontal line*
21,1,$1,$2,0,0,$3*%
%AMFreePoly0*
4,1,5,0.125000,-0.500000,-0.125000,-0.500000,-0.125000,0.500000,0.125000,0.500000,0.125000,-0.500000,0.125000,-0.500000,$1*%
%AMFreePoly1*
4,1,6,0.600000,0.200000,0.000000,-0.400000,-0.600000,0.200000,-0.600000,0.400000,0.600000,0.400000,0.600000,0.200000,0.600000,0.200000,$1*%
%AMFreePoly2*
4,1,6,0.600000,-0.250000,-0.600000,-0.250000,-0.600000,1.000000,0.000000,0.400000,0.600000,1.000000,0.600000,-0.250000,0.600000,-0.250000,$1*%
%AMFreePoly3*
4,1,45,0.008964,0.122598,0.024387,0.122598,0.052641,0.110894,0.062500,0.108253,0.064961,0.105791,0.069447,0.103934,0.103934,0.069447,0.105791,0.064961,0.108253,0.062500,0.110894,0.052643,0.122598,0.024387,0.122598,0.008964,0.125000,0.000000,0.122598,-0.008964,0.122598,-0.024386,0.110896,-0.052633,0.108253,-0.062500,0.105790,-0.064962,0.103934,-0.069446,-0.643355,-0.819983,
-0.641028,-4.773351,0.088389,-5.499612,0.103934,-5.518554,0.122598,-5.563614,0.122598,-5.612387,0.103934,-5.657447,0.069447,-5.691934,0.024387,-5.710598,-0.024386,-5.710598,-0.069446,-5.691934,-0.854388,-4.910388,-0.869934,-4.891446,-0.888598,-4.846386,-0.891000,-0.766000,-0.888598,-0.741614,-0.869934,-0.696554,-0.088388,0.088389,-0.069446,0.103934,-0.064962,0.105790,-0.062500,0.108253,
-0.052633,0.110896,-0.024386,0.122598,-0.008964,0.122598,0.000000,0.125000,0.008964,0.122598,0.008964,0.122598,$1*%
G04 Aperture macros list end*
%ADD10C,0.300000*%
%TA.AperFunction,NonConductor*%
%ADD11C,0.300000*%
%TD*%
%TA.AperFunction,ComponentPad*%
%ADD12C,0.700000*%
%TD*%
%TA.AperFunction,ComponentPad*%
%ADD13C,4.400000*%
%TD*%
%TA.AperFunction,ComponentPad*%
%ADD14C,0.600000*%
%TD*%
%TA.AperFunction,ComponentPad*%
%ADD15C,2.100000*%
%TD*%
%TA.AperFunction,ComponentPad*%
%ADD16C,1.750000*%
%TD*%
%TA.AperFunction,ComponentPad*%
%ADD17R,1.778000X1.778000*%
%TD*%
%TA.AperFunction,SMDPad,CuDef*%
%ADD18R,0.900000X1.200000*%
%TD*%
%TA.AperFunction,ComponentPad*%
%ADD19C,1.905000*%
%TD*%
%TA.AperFunction,ComponentPad*%
%ADD20RotRect,1.778000X1.778000X5.000000*%
%TD*%
%TA.AperFunction,SMDPad,CuDef*%
%ADD21RotRect,0.900000X1.200000X5.000000*%
%TD*%
%TA.AperFunction,SMDPad,CuDef*%
%ADD22R,2.550000X2.500000*%
%TD*%
%TA.AperFunction,ComponentPad*%
%ADD23O,1.600000X2.200000*%
%TD*%
%TA.AperFunction,ComponentPad*%
%ADD24RotRect,1.778000X1.778000X60.000000*%
%TD*%
%TA.AperFunction,SMDPad,CuDef*%
%ADD25RotRect,0.900000X1.200000X60.000000*%
%TD*%
%TA.AperFunction,SMDPad,CuDef*%
%ADD26RotRect,2.550000X2.500000X5.000000*%
%TD*%
%TA.AperFunction,ComponentPad*%
%ADD27C,1.600000*%
%TD*%
%TA.AperFunction,ComponentPad*%
%ADD28R,1.600000X1.600000*%
%TD*%
%TA.AperFunction,SMDPad,CuDef*%
%ADD29FreePoly0,270.000000*%
%TD*%
%TA.AperFunction,SMDPad,CuDef*%
%ADD30FreePoly1,270.000000*%
%TD*%
%TA.AperFunction,SMDPad,CuDef*%
%ADD31FreePoly1,90.000000*%
%TD*%
%TA.AperFunction,SMDPad,CuDef*%
%ADD32FreePoly0,90.000000*%
%TD*%
%TA.AperFunction,SMDPad,CuDef*%
%ADD33FreePoly2,90.000000*%
%TD*%
%TA.AperFunction,SMDPad,CuDef*%
%ADD34FreePoly3,270.000000*%
%TD*%
%TA.AperFunction,ComponentPad*%
%ADD35C,0.800000*%
%TD*%
%TA.AperFunction,SMDPad,CuDef*%
%ADD36FreePoly3,90.000000*%
%TD*%
%TA.AperFunction,SMDPad,CuDef*%
%ADD37FreePoly2,270.000000*%
%TD*%
%TA.AperFunction,SMDPad,CuDef*%
%ADD38RotRect,2.550000X2.500000X345.000000*%
%TD*%
%TA.AperFunction,ComponentPad*%
%ADD39RotRect,1.778000X1.778000X345.000000*%
%TD*%
%TA.AperFunction,SMDPad,CuDef*%
%ADD40RotRect,0.900000X1.200000X345.000000*%
%TD*%
%TA.AperFunction,SMDPad,CuDef*%
%ADD41RotRect,2.550000X2.500000X60.000000*%
%TD*%
%TA.AperFunction,ComponentPad*%
%ADD42R,1.700000X1.700000*%
%TD*%
%TA.AperFunction,ComponentPad*%
%ADD43O,1.700000X1.700000*%
%TD*%
%TA.AperFunction,Conductor*%
%ADD44C,0.250000*%
%TD*%
G04 APERTURE END LIST*
D10*
G36*
X224330386Y-159479275D02*
G01*
X217942815Y-159479275D01*
X217942815Y-158936317D01*
X218365037Y-158936317D01*
X218387435Y-158990389D01*
X218428819Y-159031773D01*
X218482891Y-159054171D01*
X218512155Y-159057053D01*
X220712848Y-159054171D01*
X220766920Y-159031773D01*
X220808304Y-158990389D01*
X220830702Y-158936317D01*
X220830702Y-158877789D01*
X220808304Y-158823717D01*
X220766920Y-158782333D01*
X220712848Y-158759935D01*
X220683584Y-158757053D01*
X219747758Y-158758278D01*
X219745980Y-156395642D01*
X221801861Y-156395642D01*
X221808990Y-156424170D01*
X222709164Y-158936253D01*
X222709529Y-158943586D01*
X222718821Y-158963203D01*
X222726307Y-158984093D01*
X222731360Y-158989675D01*
X222734583Y-158996478D01*
X222750855Y-159011209D01*
X222765587Y-159027482D01*
X222772389Y-159030704D01*
X222777972Y-159035758D01*
X222798646Y-159043141D01*
X222818479Y-159052536D01*
X222825997Y-159052909D01*
X222833090Y-159055443D01*
X222855012Y-159054352D01*
X222876934Y-159055443D01*
X222884026Y-159052909D01*
X222891545Y-159052536D01*
X222911377Y-159043141D01*
X222932052Y-159035758D01*
X222937634Y-159030704D01*
X222944437Y-159027482D01*
X222959168Y-159011209D01*
X222975441Y-158996478D01*
X222978663Y-158989675D01*
X222983717Y-158984093D01*
X222996273Y-158957503D01*
X223908164Y-156395642D01*
X223905257Y-156337187D01*
X223880203Y-156284295D01*
X223836814Y-156245016D01*
X223781696Y-156225331D01*
X223723241Y-156228237D01*
X223670349Y-156253291D01*
X223631069Y-156296680D01*
X223618513Y-156323270D01*
X222856057Y-158465308D01*
X222078956Y-156296680D01*
X222039676Y-156253291D01*
X221986784Y-156228237D01*
X221928329Y-156225330D01*
X221873211Y-156245015D01*
X221829822Y-156284295D01*
X221804768Y-156337187D01*
X221801861Y-156395642D01*
X219745980Y-156395642D01*
X219745377Y-155595013D01*
X219829727Y-155720387D01*
X219835053Y-155733245D01*
X219853502Y-155755725D01*
X219853597Y-155755866D01*
X219853643Y-155755896D01*
X219853708Y-155755976D01*
X220215537Y-156113971D01*
X220229711Y-156130314D01*
X220236155Y-156134370D01*
X220238344Y-156136536D01*
X220242003Y-156138051D01*
X220254597Y-156145979D01*
X220643966Y-156337441D01*
X220702346Y-156341589D01*
X220757868Y-156323081D01*
X220802083Y-156284735D01*
X220828258Y-156232386D01*
X220832406Y-156174005D01*
X220813899Y-156118483D01*
X220775552Y-156074268D01*
X220750666Y-156058603D01*
X220415821Y-155893952D01*
X220083611Y-155565261D01*
X219727916Y-155036577D01*
X219722590Y-155023717D01*
X219712427Y-155013554D01*
X219704047Y-155001098D01*
X219691707Y-154992834D01*
X219681206Y-154982333D01*
X219667628Y-154976708D01*
X219655417Y-154968531D01*
X219640854Y-154965618D01*
X219627134Y-154959935D01*
X219612438Y-154959935D01*
X219598028Y-154957053D01*
X219583459Y-154959935D01*
X219568606Y-154959935D01*
X219555027Y-154965559D01*
X219540613Y-154968411D01*
X219528255Y-154976649D01*
X219514534Y-154982333D01*
X219504142Y-154992724D01*
X219491915Y-155000876D01*
X219483651Y-155013215D01*
X219473150Y-155023717D01*
X219467525Y-155037294D01*
X219459348Y-155049506D01*
X219456435Y-155064068D01*
X219450752Y-155077789D01*
X219447900Y-155106741D01*
X219447870Y-155106895D01*
X219447880Y-155106947D01*
X219447870Y-155107053D01*
X219450618Y-158758667D01*
X218482891Y-158759935D01*
X218428819Y-158782333D01*
X218387435Y-158823717D01*
X218365037Y-158877789D01*
X218365037Y-158936317D01*
X217942815Y-158936317D01*
X217942815Y-154534831D01*
X224330386Y-154534831D01*
X224330386Y-159479275D01*
G37*
D11*
X233445489Y-159300828D02*
X233445489Y-157800828D01*
X233445489Y-158372257D02*
X233302632Y-158300828D01*
X233302632Y-158300828D02*
X233016917Y-158300828D01*
X233016917Y-158300828D02*
X232874060Y-158372257D01*
X232874060Y-158372257D02*
X232802632Y-158443685D01*
X232802632Y-158443685D02*
X232731203Y-158586542D01*
X232731203Y-158586542D02*
X232731203Y-159015114D01*
X232731203Y-159015114D02*
X232802632Y-159157971D01*
X232802632Y-159157971D02*
X232874060Y-159229400D01*
X232874060Y-159229400D02*
X233016917Y-159300828D01*
X233016917Y-159300828D02*
X233302632Y-159300828D01*
X233302632Y-159300828D02*
X233445489Y-159229400D01*
X232231203Y-158300828D02*
X231874060Y-159300828D01*
X231516917Y-158300828D02*
X231874060Y-159300828D01*
X231874060Y-159300828D02*
X232016917Y-159657971D01*
X232016917Y-159657971D02*
X232088346Y-159729400D01*
X232088346Y-159729400D02*
X232231203Y-159800828D01*
X230016917Y-158300828D02*
X229445489Y-158300828D01*
X229802632Y-157800828D02*
X229802632Y-159086542D01*
X229802632Y-159086542D02*
X229731203Y-159229400D01*
X229731203Y-159229400D02*
X229588346Y-159300828D01*
X229588346Y-159300828D02*
X229445489Y-159300828D01*
X229088346Y-158300828D02*
X228802632Y-159300828D01*
X228802632Y-159300828D02*
X228516917Y-158586542D01*
X228516917Y-158586542D02*
X228231203Y-159300828D01*
X228231203Y-159300828D02*
X227945489Y-158300828D01*
X227374060Y-159300828D02*
X227374060Y-158300828D01*
X227374060Y-157800828D02*
X227445488Y-157872257D01*
X227445488Y-157872257D02*
X227374060Y-157943685D01*
X227374060Y-157943685D02*
X227302631Y-157872257D01*
X227302631Y-157872257D02*
X227374060Y-157800828D01*
X227374060Y-157800828D02*
X227374060Y-157943685D01*
X226731202Y-159229400D02*
X226588345Y-159300828D01*
X226588345Y-159300828D02*
X226302631Y-159300828D01*
X226302631Y-159300828D02*
X226159774Y-159229400D01*
X226159774Y-159229400D02*
X226088345Y-159086542D01*
X226088345Y-159086542D02*
X226088345Y-159015114D01*
X226088345Y-159015114D02*
X226159774Y-158872257D01*
X226159774Y-158872257D02*
X226302631Y-158800828D01*
X226302631Y-158800828D02*
X226516917Y-158800828D01*
X226516917Y-158800828D02*
X226659774Y-158729400D01*
X226659774Y-158729400D02*
X226731202Y-158586542D01*
X226731202Y-158586542D02*
X226731202Y-158515114D01*
X226731202Y-158515114D02*
X226659774Y-158372257D01*
X226659774Y-158372257D02*
X226516917Y-158300828D01*
X226516917Y-158300828D02*
X226302631Y-158300828D01*
X226302631Y-158300828D02*
X226159774Y-158372257D01*
X225445488Y-159300828D02*
X225445488Y-157800828D01*
X224802631Y-159300828D02*
X224802631Y-158515114D01*
X224802631Y-158515114D02*
X224874059Y-158372257D01*
X224874059Y-158372257D02*
X225016916Y-158300828D01*
X225016916Y-158300828D02*
X225231202Y-158300828D01*
X225231202Y-158300828D02*
X225374059Y-158372257D01*
X225374059Y-158372257D02*
X225445488Y-158443685D01*
D10*
G36*
X228581510Y-155463975D02*
G01*
X228582779Y-156137469D01*
X228556489Y-156151119D01*
X228341490Y-156153086D01*
X228251877Y-156109975D01*
X228213215Y-156072987D01*
X228166717Y-155983432D01*
X228164466Y-155625800D01*
X228207768Y-155535789D01*
X228244760Y-155497124D01*
X228334489Y-155450536D01*
X228549486Y-155448569D01*
X228581510Y-155463975D01*
G37*
G36*
X229938653Y-155463975D02*
G01*
X229939922Y-156137469D01*
X229913632Y-156151119D01*
X229698633Y-156153086D01*
X229609020Y-156109975D01*
X229570358Y-156072987D01*
X229523860Y-155983432D01*
X229521609Y-155625800D01*
X229564911Y-155535789D01*
X229601903Y-155497124D01*
X229691632Y-155450536D01*
X229906629Y-155448569D01*
X229938653Y-155463975D01*
G37*
G36*
X225333544Y-155482135D02*
G01*
X225367067Y-155546702D01*
X225367412Y-155618664D01*
X224957876Y-155538375D01*
X224983938Y-155484199D01*
X225048774Y-155450536D01*
X225263771Y-155448569D01*
X225333544Y-155482135D01*
G37*
G36*
X240781955Y-155491680D02*
G01*
X240820621Y-155528671D01*
X240867116Y-155618222D01*
X240869367Y-155975855D01*
X240826064Y-156065867D01*
X240789073Y-156104532D01*
X240699177Y-156151206D01*
X240555405Y-156152908D01*
X240466163Y-156109975D01*
X240427501Y-156072987D01*
X240381003Y-155983432D01*
X240378752Y-155625800D01*
X240422054Y-155535789D01*
X240459046Y-155497124D01*
X240548944Y-155450449D01*
X240692714Y-155448747D01*
X240781955Y-155491680D01*
G37*
G36*
X242833584Y-157114613D02*
G01*
X224485964Y-157114613D01*
X224485964Y-155657814D01*
X224652631Y-155657814D01*
X224655241Y-155671009D01*
X224655513Y-155687235D01*
X224661137Y-155700812D01*
X224663989Y-155715229D01*
X224672227Y-155727586D01*
X224677911Y-155741307D01*
X224688303Y-155751699D01*
X224696454Y-155763925D01*
X224708792Y-155772188D01*
X224719295Y-155782691D01*
X224732871Y-155788314D01*
X224745083Y-155796493D01*
X224773214Y-155805058D01*
X224773362Y-155805087D01*
X224773367Y-155805089D01*
X224773372Y-155805089D01*
X225368867Y-155921834D01*
X225369468Y-156047072D01*
X225335607Y-156117457D01*
X225270774Y-156151119D01*
X225055775Y-156153086D01*
X224913677Y-156084726D01*
X224855297Y-156080578D01*
X224799775Y-156099086D01*
X224755560Y-156137433D01*
X224729385Y-156189782D01*
X224725237Y-156248162D01*
X224743745Y-156303684D01*
X224782092Y-156347899D01*
X224806977Y-156363564D01*
X224931502Y-156423470D01*
X224933580Y-156425548D01*
X224949702Y-156432226D01*
X224977298Y-156445502D01*
X224982673Y-156445883D01*
X224987652Y-156447946D01*
X225016916Y-156450828D01*
X225280176Y-156448419D01*
X225283869Y-156449650D01*
X225304297Y-156448198D01*
X225331895Y-156447946D01*
X225336873Y-156445883D01*
X225342249Y-156445502D01*
X225369713Y-156434992D01*
X225505602Y-156364437D01*
X225519773Y-156359714D01*
X225527339Y-156353151D01*
X225537456Y-156347899D01*
X225549777Y-156333691D01*
X225563988Y-156321367D01*
X225573308Y-156306559D01*
X225575802Y-156303684D01*
X225576571Y-156301374D01*
X225579652Y-156296481D01*
X225639558Y-156171955D01*
X225641636Y-156169878D01*
X225648314Y-156153755D01*
X225661590Y-156126160D01*
X225661971Y-156120784D01*
X225664034Y-156115806D01*
X225666916Y-156086542D01*
X225665578Y-155807679D01*
X225666917Y-155800985D01*
X225665511Y-155793882D01*
X225664285Y-155538233D01*
X225665738Y-155533876D01*
X225664157Y-155511634D01*
X225664034Y-155485850D01*
X225661971Y-155480871D01*
X225661590Y-155475496D01*
X225651080Y-155448033D01*
X225580525Y-155312143D01*
X225576754Y-155300828D01*
X226009774Y-155300828D01*
X226012656Y-156330092D01*
X226035054Y-156384164D01*
X226076438Y-156425548D01*
X226130510Y-156447946D01*
X226189038Y-156447946D01*
X226243110Y-156425548D01*
X226284494Y-156384164D01*
X226306892Y-156330092D01*
X226309774Y-156300828D01*
X226308974Y-156015114D01*
X226652631Y-156015114D01*
X226654112Y-156066869D01*
X226653809Y-156067780D01*
X226654360Y-156075543D01*
X226655513Y-156115806D01*
X226657574Y-156120783D01*
X226657957Y-156126161D01*
X226668467Y-156153624D01*
X226739023Y-156289515D01*
X226743746Y-156303684D01*
X226750307Y-156311249D01*
X226755561Y-156321368D01*
X226769772Y-156333692D01*
X226782093Y-156347899D01*
X226796900Y-156357220D01*
X226799776Y-156359714D01*
X226802084Y-156360483D01*
X226806978Y-156363564D01*
X226931503Y-156423470D01*
X226933581Y-156425548D01*
X226949703Y-156432226D01*
X226977299Y-156445502D01*
X226982674Y-156445883D01*
X226987653Y-156447946D01*
X227016917Y-156450828D01*
X227280176Y-156448419D01*
X227283869Y-156449650D01*
X227304297Y-156448198D01*
X227331895Y-156447946D01*
X227336873Y-156445883D01*
X227342249Y-156445502D01*
X227369713Y-156434992D01*
X227537456Y-156347899D01*
X227575802Y-156303684D01*
X227594310Y-156248162D01*
X227590162Y-156189782D01*
X227563988Y-156137433D01*
X227519773Y-156099086D01*
X227464250Y-156080578D01*
X227405870Y-156084726D01*
X227378407Y-156095236D01*
X227270774Y-156151119D01*
X227055776Y-156153086D01*
X226986002Y-156119520D01*
X226951682Y-156053419D01*
X226951624Y-156051371D01*
X226983939Y-155984200D01*
X227048944Y-155950449D01*
X227209150Y-155948553D01*
X227212441Y-155949650D01*
X227231619Y-155948287D01*
X227260467Y-155947946D01*
X227265445Y-155945883D01*
X227270821Y-155945502D01*
X227298285Y-155934992D01*
X227434174Y-155864437D01*
X227448345Y-155859714D01*
X227455911Y-155853151D01*
X227466028Y-155847899D01*
X227478349Y-155833691D01*
X227492560Y-155821367D01*
X227501880Y-155806559D01*
X227504374Y-155803684D01*
X227505143Y-155801374D01*
X227508224Y-155796481D01*
X227568130Y-155671955D01*
X227570208Y-155669878D01*
X227576886Y-155653755D01*
X227590162Y-155626160D01*
X227590543Y-155620784D01*
X227592606Y-155615806D01*
X227595488Y-155586542D01*
X227866917Y-155586542D01*
X227869470Y-155992225D01*
X227868095Y-155996353D01*
X227869632Y-156017992D01*
X227869799Y-156044378D01*
X227871862Y-156049358D01*
X227872244Y-156054733D01*
X227882753Y-156082196D01*
X227956764Y-156224742D01*
X227963625Y-156241305D01*
X227968359Y-156247074D01*
X227969847Y-156249939D01*
X227972841Y-156252536D01*
X227982279Y-156264036D01*
X228057432Y-156335937D01*
X228067807Y-156347899D01*
X228074030Y-156351816D01*
X228076438Y-156354120D01*
X228080097Y-156355635D01*
X228092692Y-156363564D01*
X228217217Y-156423470D01*
X228219295Y-156425548D01*
X228235417Y-156432226D01*
X228263013Y-156445502D01*
X228268388Y-156445883D01*
X228273367Y-156447946D01*
X228302631Y-156450828D01*
X228565891Y-156448419D01*
X228569584Y-156449650D01*
X228583366Y-156448670D01*
X228584085Y-156830092D01*
X228606483Y-156884164D01*
X228647867Y-156925548D01*
X228701939Y-156947946D01*
X228760467Y-156947946D01*
X228814539Y-156925548D01*
X228855923Y-156884164D01*
X228878321Y-156830092D01*
X228881203Y-156800828D01*
X228878914Y-155586542D01*
X229224060Y-155586542D01*
X229226613Y-155992225D01*
X229225238Y-155996353D01*
X229226775Y-156017992D01*
X229226942Y-156044378D01*
X229229005Y-156049358D01*
X229229387Y-156054733D01*
X229239896Y-156082196D01*
X229313907Y-156224742D01*
X229320768Y-156241305D01*
X229325502Y-156247074D01*
X229326990Y-156249939D01*
X229329984Y-156252536D01*
X229339422Y-156264036D01*
X229414575Y-156335937D01*
X229424950Y-156347899D01*
X229431173Y-156351816D01*
X229433581Y-156354120D01*
X229437240Y-156355635D01*
X229449835Y-156363564D01*
X229574360Y-156423470D01*
X229576438Y-156425548D01*
X229592560Y-156432226D01*
X229620156Y-156445502D01*
X229625531Y-156445883D01*
X229630510Y-156447946D01*
X229659774Y-156450828D01*
X229923034Y-156448419D01*
X229926727Y-156449650D01*
X229940509Y-156448670D01*
X229941228Y-156830092D01*
X229963626Y-156884164D01*
X230005010Y-156925548D01*
X230059082Y-156947946D01*
X230117610Y-156947946D01*
X230171682Y-156925548D01*
X230213066Y-156884164D01*
X230235464Y-156830092D01*
X230238346Y-156800828D01*
X230235658Y-155374736D01*
X230237168Y-155353496D01*
X230235609Y-155348820D01*
X230235519Y-155300828D01*
X230652632Y-155300828D01*
X230655514Y-156330092D01*
X230677912Y-156384164D01*
X230719296Y-156425548D01*
X230773368Y-156447946D01*
X230831896Y-156447946D01*
X230885968Y-156425548D01*
X230927352Y-156384164D01*
X230949750Y-156330092D01*
X230952632Y-156300828D01*
X230952579Y-156282066D01*
X231225238Y-156282066D01*
X231229386Y-156340446D01*
X231255561Y-156392795D01*
X231299776Y-156431142D01*
X231355298Y-156449650D01*
X231413678Y-156445502D01*
X231441142Y-156434992D01*
X231577032Y-156364437D01*
X231591201Y-156359714D01*
X231598766Y-156353152D01*
X231608885Y-156347899D01*
X231621207Y-156333690D01*
X231635416Y-156321368D01*
X231644738Y-156306558D01*
X231647231Y-156303684D01*
X231648000Y-156301376D01*
X231651081Y-156296482D01*
X231710989Y-156171954D01*
X231713066Y-156169878D01*
X231719742Y-156153760D01*
X231733020Y-156126161D01*
X231733402Y-156120783D01*
X231735464Y-156115806D01*
X231738346Y-156086542D01*
X231735592Y-154830092D01*
X232012656Y-154830092D01*
X232035054Y-154884164D01*
X232076438Y-154925548D01*
X232130510Y-154947946D01*
X232159774Y-154950828D01*
X232724338Y-154948639D01*
X232725124Y-155365924D01*
X232344796Y-155367996D01*
X232290724Y-155390394D01*
X232249340Y-155431778D01*
X232226942Y-155485850D01*
X232226942Y-155544378D01*
X232249340Y-155598450D01*
X232290724Y-155639834D01*
X232344796Y-155662232D01*
X232374060Y-155665114D01*
X232725685Y-155663199D01*
X232726942Y-156330092D01*
X232749340Y-156384164D01*
X232790724Y-156425548D01*
X232844796Y-156447946D01*
X232903324Y-156447946D01*
X232957396Y-156425548D01*
X232998780Y-156384164D01*
X233021178Y-156330092D01*
X233024060Y-156300828D01*
X233022579Y-155515114D01*
X234581203Y-155515114D01*
X234584085Y-156330092D01*
X234606483Y-156384164D01*
X234647867Y-156425548D01*
X234701939Y-156447946D01*
X234760467Y-156447946D01*
X234814539Y-156425548D01*
X234855923Y-156384164D01*
X234878321Y-156330092D01*
X234881203Y-156300828D01*
X234878564Y-155554762D01*
X234912510Y-155484199D01*
X234977515Y-155450449D01*
X235121285Y-155448747D01*
X235210526Y-155491680D01*
X235225388Y-155505898D01*
X235226942Y-156330092D01*
X235249340Y-156384164D01*
X235290724Y-156425548D01*
X235344796Y-156447946D01*
X235403324Y-156447946D01*
X235457396Y-156425548D01*
X235498780Y-156384164D01*
X235521178Y-156330092D01*
X235524060Y-156300828D01*
X235523522Y-156015114D01*
X235866917Y-156015114D01*
X235868398Y-156066869D01*
X235868095Y-156067780D01*
X235868646Y-156075543D01*
X235869799Y-156115806D01*
X235871860Y-156120783D01*
X235872243Y-156126161D01*
X235882753Y-156153624D01*
X235953309Y-156289515D01*
X235958032Y-156303684D01*
X235964593Y-156311249D01*
X235969847Y-156321368D01*
X235984058Y-156333692D01*
X235996379Y-156347899D01*
X236011186Y-156357220D01*
X236014062Y-156359714D01*
X236016370Y-156360483D01*
X236021264Y-156363564D01*
X236145789Y-156423470D01*
X236147867Y-156425548D01*
X236163989Y-156432226D01*
X236191585Y-156445502D01*
X236196960Y-156445883D01*
X236201939Y-156447946D01*
X236231203Y-156450828D01*
X236494462Y-156448419D01*
X236498155Y-156449650D01*
X236518583Y-156448198D01*
X236546181Y-156447946D01*
X236551159Y-156445883D01*
X236556535Y-156445502D01*
X236583999Y-156434992D01*
X236751742Y-156347899D01*
X236790088Y-156303684D01*
X236808596Y-156248162D01*
X236804448Y-156189782D01*
X236778274Y-156137433D01*
X236734059Y-156099086D01*
X236678536Y-156080578D01*
X236620156Y-156084726D01*
X236592693Y-156095236D01*
X236485060Y-156151119D01*
X236270062Y-156153086D01*
X236200288Y-156119520D01*
X236165968Y-156053419D01*
X236165910Y-156051371D01*
X236198225Y-155984200D01*
X236263230Y-155950449D01*
X236423436Y-155948553D01*
X236426727Y-155949650D01*
X236445905Y-155948287D01*
X236474753Y-155947946D01*
X236479731Y-155945883D01*
X236485107Y-155945502D01*
X236512571Y-155934992D01*
X236648460Y-155864437D01*
X236662631Y-155859714D01*
X236670197Y-155853151D01*
X236680314Y-155847899D01*
X236692635Y-155833691D01*
X236706846Y-155821367D01*
X236716166Y-155806559D01*
X236718660Y-155803684D01*
X236719429Y-155801374D01*
X236722510Y-155796481D01*
X236782416Y-155671955D01*
X236784494Y-155669878D01*
X236791172Y-155653755D01*
X236804448Y-155626160D01*
X236804829Y-155620784D01*
X236806892Y-155615806D01*
X236809774Y-155586542D01*
X236808292Y-155534786D01*
X236808596Y-155533876D01*
X236808044Y-155526112D01*
X236806892Y-155485850D01*
X236804829Y-155480871D01*
X236804448Y-155475496D01*
X236793938Y-155448033D01*
X236723383Y-155312143D01*
X236719612Y-155300828D01*
X237152632Y-155300828D01*
X237155514Y-156330092D01*
X237177912Y-156384164D01*
X237219296Y-156425548D01*
X237273368Y-156447946D01*
X237331896Y-156447946D01*
X237385968Y-156425548D01*
X237427352Y-156384164D01*
X237449750Y-156330092D01*
X237452632Y-156300828D01*
X237450432Y-155515114D01*
X237866918Y-155515114D01*
X237869800Y-156330092D01*
X237892198Y-156384164D01*
X237933582Y-156425548D01*
X237987654Y-156447946D01*
X238046182Y-156447946D01*
X238100254Y-156425548D01*
X238141638Y-156384164D01*
X238164036Y-156330092D01*
X238166918Y-156300828D01*
X238164279Y-155554762D01*
X238198225Y-155484199D01*
X238263230Y-155450449D01*
X238407000Y-155448747D01*
X238496241Y-155491680D01*
X238510347Y-155505174D01*
X238512657Y-156330092D01*
X238535055Y-156384164D01*
X238576439Y-156425548D01*
X238630511Y-156447946D01*
X238689039Y-156447946D01*
X238743111Y-156425548D01*
X238784495Y-156384164D01*
X238806893Y-156330092D01*
X238809775Y-156300828D01*
X238807057Y-155330092D01*
X239012656Y-155330092D01*
X239035054Y-155384164D01*
X239076438Y-155425548D01*
X239130510Y-155447946D01*
X239159774Y-155450828D01*
X239264810Y-155449069D01*
X239353385Y-155491681D01*
X239392049Y-155528671D01*
X239439238Y-155619557D01*
X239441228Y-156330092D01*
X239463626Y-156384164D01*
X239505010Y-156425548D01*
X239559082Y-156447946D01*
X239617610Y-156447946D01*
X239671682Y-156425548D01*
X239713066Y-156384164D01*
X239735464Y-156330092D01*
X239738346Y-156300828D01*
X239736404Y-155607592D01*
X239737168Y-155605303D01*
X239736366Y-155594031D01*
X239736345Y-155586542D01*
X240081203Y-155586542D01*
X240083756Y-155992225D01*
X240082381Y-155996353D01*
X240083918Y-156017992D01*
X240084085Y-156044378D01*
X240086148Y-156049358D01*
X240086530Y-156054733D01*
X240097039Y-156082196D01*
X240171050Y-156224742D01*
X240177911Y-156241305D01*
X240182645Y-156247074D01*
X240184133Y-156249939D01*
X240187127Y-156252536D01*
X240196565Y-156264036D01*
X240271718Y-156335937D01*
X240282093Y-156347899D01*
X240288316Y-156351816D01*
X240290724Y-156354120D01*
X240294383Y-156355635D01*
X240306978Y-156363564D01*
X240431503Y-156423470D01*
X240433581Y-156425548D01*
X240449703Y-156432226D01*
X240477299Y-156445502D01*
X240482674Y-156445883D01*
X240487653Y-156447946D01*
X240516917Y-156450828D01*
X240709150Y-156448553D01*
X240712441Y-156449650D01*
X240731619Y-156448287D01*
X240760467Y-156447946D01*
X240765445Y-156445883D01*
X240770821Y-156445502D01*
X240798285Y-156434992D01*
X240940826Y-156360983D01*
X240957395Y-156354121D01*
X240963165Y-156349385D01*
X240966028Y-156347899D01*
X240968624Y-156344905D01*
X240980126Y-156335466D01*
X241052027Y-156260310D01*
X241063988Y-156249938D01*
X241067905Y-156243714D01*
X241070210Y-156241306D01*
X241071726Y-156237644D01*
X241079653Y-156225053D01*
X241097847Y-156187233D01*
X241441228Y-156187233D01*
X241463625Y-156241305D01*
X241482279Y-156264036D01*
X241540423Y-156319664D01*
X241541275Y-156321367D01*
X241551210Y-156329984D01*
X241576438Y-156354120D01*
X241581414Y-156356181D01*
X241585489Y-156359715D01*
X241612340Y-156371703D01*
X241826969Y-156440561D01*
X241844796Y-156447946D01*
X241852284Y-156448683D01*
X241855300Y-156449651D01*
X241859254Y-156449369D01*
X241874060Y-156450828D01*
X242018267Y-156448413D01*
X242035677Y-156449651D01*
X242042936Y-156448000D01*
X242046181Y-156447946D01*
X242049838Y-156446430D01*
X242064351Y-156443131D01*
X242256914Y-156376518D01*
X242260466Y-156376518D01*
X242278462Y-156369063D01*
X242305488Y-156359715D01*
X242309559Y-156356183D01*
X242314539Y-156354121D01*
X242337269Y-156335466D01*
X242478289Y-156190885D01*
X242492559Y-156178510D01*
X242496559Y-156172154D01*
X242498781Y-156169877D01*
X242500296Y-156166217D01*
X242508224Y-156153624D01*
X242573366Y-156018216D01*
X242581117Y-156007756D01*
X242588960Y-155985801D01*
X242590162Y-155983304D01*
X242590238Y-155982223D01*
X242591010Y-155980065D01*
X242657878Y-155702096D01*
X242664035Y-155687235D01*
X242665823Y-155669069D01*
X242666740Y-155665262D01*
X242666414Y-155663074D01*
X242666917Y-155657971D01*
X242664475Y-155451613D01*
X242666740Y-155436394D01*
X242664082Y-155418423D01*
X242664035Y-155414421D01*
X242663187Y-155412376D01*
X242662438Y-155407305D01*
X242591180Y-155132684D01*
X242590162Y-155118352D01*
X242581773Y-155096428D01*
X242581117Y-155093900D01*
X242580472Y-155093030D01*
X242579653Y-155090888D01*
X242505644Y-154948348D01*
X242498781Y-154931778D01*
X242494044Y-154926006D01*
X242492559Y-154923146D01*
X242489566Y-154920550D01*
X242480126Y-154909048D01*
X242351209Y-154783304D01*
X242349702Y-154780290D01*
X242335412Y-154767896D01*
X242314538Y-154747536D01*
X242309558Y-154745473D01*
X242305488Y-154741943D01*
X242278637Y-154729954D01*
X242064015Y-154661097D01*
X242046181Y-154653710D01*
X242038689Y-154652972D01*
X242035678Y-154652006D01*
X242031728Y-154652286D01*
X242016917Y-154650828D01*
X241872701Y-154653242D01*
X241855299Y-154652006D01*
X241848044Y-154653655D01*
X241844796Y-154653710D01*
X241841134Y-154655226D01*
X241826625Y-154658526D01*
X241634062Y-154725140D01*
X241630511Y-154725140D01*
X241612511Y-154732594D01*
X241585489Y-154741943D01*
X241581418Y-154745472D01*
X241576438Y-154747536D01*
X241553708Y-154766191D01*
X241463625Y-154860350D01*
X241441228Y-154914422D01*
X241441228Y-154972948D01*
X241463625Y-155027020D01*
X241505011Y-155068406D01*
X241559083Y-155090803D01*
X241617609Y-155090803D01*
X241671681Y-155068406D01*
X241694412Y-155049751D01*
X241738406Y-155003766D01*
X241892321Y-154950522D01*
X241987553Y-154948927D01*
X242147664Y-155000296D01*
X242248376Y-155098529D01*
X242301806Y-155201434D01*
X242367024Y-155452782D01*
X242369133Y-155630995D01*
X242308773Y-155881906D01*
X242254890Y-155993910D01*
X242153930Y-156097419D01*
X241998652Y-156151133D01*
X241903425Y-156152728D01*
X241742649Y-156101146D01*
X241671682Y-156033251D01*
X241617610Y-156010853D01*
X241559084Y-156010853D01*
X241505012Y-156033250D01*
X241463626Y-156074635D01*
X241441228Y-156128707D01*
X241441228Y-156187233D01*
X241097847Y-156187233D01*
X241139559Y-156100527D01*
X241141637Y-156098450D01*
X241148315Y-156082327D01*
X241161591Y-156054732D01*
X241161972Y-156049356D01*
X241164035Y-156044378D01*
X241166917Y-156015114D01*
X241164363Y-155609431D01*
X241165739Y-155605304D01*
X241164201Y-155583658D01*
X241164035Y-155557278D01*
X241161972Y-155552299D01*
X241161591Y-155546924D01*
X241151081Y-155519461D01*
X241077072Y-155376918D01*
X241070209Y-155360349D01*
X241065473Y-155354578D01*
X241063988Y-155351718D01*
X241060996Y-155349123D01*
X241051554Y-155337618D01*
X240976407Y-155265725D01*
X240966028Y-155253758D01*
X240959799Y-155249837D01*
X240957394Y-155247536D01*
X240953737Y-155246021D01*
X240941142Y-155238093D01*
X240816617Y-155178186D01*
X240814539Y-155176108D01*
X240798407Y-155169426D01*
X240770822Y-155156155D01*
X240765447Y-155155773D01*
X240760467Y-155153710D01*
X240731203Y-155150828D01*
X240538968Y-155153102D01*
X240535678Y-155152006D01*
X240516505Y-155153368D01*
X240487653Y-155153710D01*
X240482672Y-155155773D01*
X240477298Y-155156155D01*
X240449834Y-155166664D01*
X240307291Y-155240674D01*
X240290724Y-155247536D01*
X240284952Y-155252272D01*
X240282092Y-155253758D01*
X240279496Y-155256750D01*
X240267994Y-155266191D01*
X240196097Y-155341340D01*
X240184133Y-155351717D01*
X240180214Y-155357942D01*
X240177911Y-155360350D01*
X240176395Y-155364009D01*
X240168468Y-155376603D01*
X240108561Y-155501127D01*
X240106483Y-155503206D01*
X240099801Y-155519337D01*
X240086530Y-155546923D01*
X240086148Y-155552297D01*
X240084085Y-155557278D01*
X240081203Y-155586542D01*
X239736345Y-155586542D01*
X239735464Y-155271564D01*
X239713066Y-155217492D01*
X239671682Y-155176108D01*
X239617610Y-155153710D01*
X239559082Y-155153710D01*
X239505010Y-155176108D01*
X239465614Y-155215503D01*
X239388043Y-155178184D01*
X239385967Y-155176108D01*
X239369849Y-155169431D01*
X239342250Y-155156154D01*
X239336872Y-155155771D01*
X239331895Y-155153710D01*
X239302631Y-155150828D01*
X239130510Y-155153710D01*
X239076438Y-155176108D01*
X239035054Y-155217492D01*
X239012656Y-155271564D01*
X239012656Y-155330092D01*
X238807057Y-155330092D01*
X238806893Y-155271564D01*
X238784495Y-155217492D01*
X238743111Y-155176108D01*
X238689039Y-155153710D01*
X238630511Y-155153710D01*
X238576439Y-155176108D01*
X238560244Y-155192302D01*
X238530903Y-155178186D01*
X238528825Y-155176108D01*
X238512693Y-155169426D01*
X238485108Y-155156155D01*
X238479733Y-155155773D01*
X238474753Y-155153710D01*
X238445489Y-155150828D01*
X238253254Y-155153102D01*
X238249964Y-155152006D01*
X238230791Y-155153368D01*
X238201939Y-155153710D01*
X238196958Y-155155773D01*
X238191584Y-155156155D01*
X238164120Y-155166664D01*
X238028229Y-155237220D01*
X238014062Y-155241943D01*
X238006496Y-155248504D01*
X237996378Y-155253758D01*
X237984054Y-155267967D01*
X237969847Y-155280289D01*
X237960527Y-155295094D01*
X237958031Y-155297973D01*
X237957260Y-155300284D01*
X237954182Y-155305175D01*
X237894275Y-155429700D01*
X237892198Y-155431778D01*
X237885519Y-155447900D01*
X237872244Y-155475496D01*
X237871862Y-155480871D01*
X237869800Y-155485850D01*
X237866918Y-155515114D01*
X237450432Y-155515114D01*
X237449750Y-155271564D01*
X237427352Y-155217492D01*
X237385968Y-155176108D01*
X237331896Y-155153710D01*
X237273368Y-155153710D01*
X237219296Y-155176108D01*
X237177912Y-155217492D01*
X237155514Y-155271564D01*
X237152632Y-155300828D01*
X236719612Y-155300828D01*
X236718660Y-155297973D01*
X236712097Y-155290405D01*
X236706845Y-155280290D01*
X236692638Y-155267969D01*
X236680314Y-155253758D01*
X236665503Y-155244435D01*
X236662630Y-155241943D01*
X236660322Y-155241173D01*
X236655428Y-155238093D01*
X236530903Y-155178186D01*
X236528825Y-155176108D01*
X236512693Y-155169426D01*
X236485108Y-155156155D01*
X236479733Y-155155773D01*
X236474753Y-155153710D01*
X236445489Y-155150828D01*
X236253254Y-155153102D01*
X236249964Y-155152006D01*
X236230791Y-155153368D01*
X236201939Y-155153710D01*
X236196958Y-155155773D01*
X236191584Y-155156155D01*
X236164120Y-155166664D01*
X235996378Y-155253758D01*
X235958031Y-155297973D01*
X235939524Y-155353496D01*
X235943673Y-155411876D01*
X235969847Y-155464225D01*
X236014062Y-155502572D01*
X236069585Y-155521079D01*
X236127965Y-155516930D01*
X236155428Y-155506421D01*
X236263230Y-155450449D01*
X236407000Y-155448747D01*
X236476402Y-155482135D01*
X236510722Y-155548236D01*
X236510780Y-155550285D01*
X236478465Y-155617457D01*
X236413463Y-155651206D01*
X236253254Y-155653102D01*
X236249964Y-155652006D01*
X236230791Y-155653368D01*
X236201939Y-155653710D01*
X236196958Y-155655773D01*
X236191584Y-155656155D01*
X236164120Y-155666664D01*
X236028228Y-155737220D01*
X236014062Y-155741943D01*
X236006496Y-155748504D01*
X235996378Y-155753758D01*
X235984054Y-155767967D01*
X235969847Y-155780289D01*
X235960527Y-155795094D01*
X235958031Y-155797973D01*
X235957260Y-155800284D01*
X235954182Y-155805175D01*
X235894275Y-155929699D01*
X235892197Y-155931778D01*
X235885515Y-155947909D01*
X235872244Y-155975495D01*
X235871862Y-155980869D01*
X235869799Y-155985850D01*
X235866917Y-156015114D01*
X235523522Y-156015114D01*
X235521423Y-154901521D01*
X237084085Y-154901521D01*
X237087203Y-154909048D01*
X237106482Y-154955592D01*
X237106483Y-154955593D01*
X237125138Y-154978324D01*
X237219296Y-155068405D01*
X237219297Y-155068406D01*
X237250971Y-155081525D01*
X237273368Y-155090803D01*
X237273369Y-155090803D01*
X237273370Y-155090803D01*
X237331895Y-155090803D01*
X237331896Y-155090803D01*
X237354293Y-155081525D01*
X237385967Y-155068406D01*
X237408698Y-155049751D01*
X237498781Y-154955593D01*
X237521177Y-154901520D01*
X237521177Y-154884162D01*
X237521178Y-154842995D01*
X237498781Y-154788922D01*
X237480127Y-154766192D01*
X237385968Y-154676108D01*
X237385967Y-154676107D01*
X237354293Y-154662987D01*
X237331896Y-154653710D01*
X237273368Y-154653710D01*
X237250971Y-154662987D01*
X237219297Y-154676107D01*
X237196566Y-154694762D01*
X237106482Y-154788922D01*
X237089430Y-154830092D01*
X237084085Y-154842995D01*
X237084085Y-154901521D01*
X235521423Y-154901521D01*
X235521178Y-154771564D01*
X235498780Y-154717492D01*
X235457396Y-154676108D01*
X235403324Y-154653710D01*
X235344796Y-154653710D01*
X235290724Y-154676108D01*
X235249340Y-154717492D01*
X235226942Y-154771564D01*
X235224060Y-154800828D01*
X235224752Y-155168355D01*
X235199393Y-155156155D01*
X235194018Y-155155773D01*
X235189038Y-155153710D01*
X235159774Y-155150828D01*
X234967539Y-155153102D01*
X234964249Y-155152006D01*
X234945076Y-155153368D01*
X234916224Y-155153710D01*
X234911243Y-155155773D01*
X234905869Y-155156155D01*
X234878405Y-155166664D01*
X234742514Y-155237220D01*
X234728347Y-155241943D01*
X234720781Y-155248504D01*
X234710663Y-155253758D01*
X234698339Y-155267967D01*
X234684132Y-155280289D01*
X234674812Y-155295094D01*
X234672316Y-155297973D01*
X234671545Y-155300284D01*
X234668467Y-155305175D01*
X234608560Y-155429700D01*
X234606483Y-155431778D01*
X234599804Y-155447900D01*
X234586529Y-155475496D01*
X234586147Y-155480871D01*
X234584085Y-155485850D01*
X234581203Y-155515114D01*
X233022579Y-155515114D01*
X233021178Y-154771564D01*
X232998780Y-154717492D01*
X232957396Y-154676108D01*
X232903324Y-154653710D01*
X232874060Y-154650828D01*
X232130510Y-154653710D01*
X232076438Y-154676108D01*
X232035054Y-154717492D01*
X232012656Y-154771564D01*
X232012656Y-154830092D01*
X231735592Y-154830092D01*
X231735464Y-154771564D01*
X231713066Y-154717492D01*
X231671682Y-154676108D01*
X231617610Y-154653710D01*
X231559082Y-154653710D01*
X231505010Y-154676108D01*
X231463626Y-154717492D01*
X231441228Y-154771564D01*
X231438346Y-154800828D01*
X231441076Y-156046701D01*
X231407036Y-156117457D01*
X231282093Y-156182329D01*
X231243746Y-156226544D01*
X231225238Y-156282066D01*
X230952579Y-156282066D01*
X230949750Y-155271564D01*
X230927352Y-155217492D01*
X230885968Y-155176108D01*
X230831896Y-155153710D01*
X230773368Y-155153710D01*
X230719296Y-155176108D01*
X230677912Y-155217492D01*
X230655514Y-155271564D01*
X230652632Y-155300828D01*
X230235519Y-155300828D01*
X230235464Y-155271564D01*
X230213066Y-155217492D01*
X230171682Y-155176108D01*
X230117610Y-155153710D01*
X230059082Y-155153710D01*
X230016917Y-155171175D01*
X230012693Y-155169426D01*
X229985108Y-155156155D01*
X229979733Y-155155773D01*
X229974753Y-155153710D01*
X229945489Y-155150828D01*
X229682227Y-155153236D01*
X229678535Y-155152006D01*
X229658111Y-155153457D01*
X229630510Y-155153710D01*
X229625529Y-155155773D01*
X229620155Y-155156155D01*
X229592691Y-155166664D01*
X229450148Y-155240674D01*
X229433581Y-155247536D01*
X229427809Y-155252272D01*
X229424949Y-155253758D01*
X229422353Y-155256750D01*
X229410851Y-155266191D01*
X229338954Y-155341340D01*
X229326990Y-155351717D01*
X229323071Y-155357942D01*
X229320768Y-155360350D01*
X229319252Y-155364009D01*
X229311325Y-155376603D01*
X229251418Y-155501127D01*
X229249340Y-155503206D01*
X229242658Y-155519337D01*
X229229387Y-155546923D01*
X229229005Y-155552297D01*
X229226942Y-155557278D01*
X229224060Y-155586542D01*
X228878914Y-155586542D01*
X228878515Y-155374736D01*
X228880025Y-155353496D01*
X228878466Y-155348820D01*
X228878321Y-155271564D01*
X228855923Y-155217492D01*
X228814539Y-155176108D01*
X228760467Y-155153710D01*
X228701939Y-155153710D01*
X228659774Y-155171175D01*
X228655550Y-155169426D01*
X228627965Y-155156155D01*
X228622590Y-155155773D01*
X228617610Y-155153710D01*
X228588346Y-155150828D01*
X228325084Y-155153236D01*
X228321392Y-155152006D01*
X228300968Y-155153457D01*
X228273367Y-155153710D01*
X228268386Y-155155773D01*
X228263012Y-155156155D01*
X228235548Y-155166664D01*
X228093005Y-155240674D01*
X228076438Y-155247536D01*
X228070666Y-155252272D01*
X228067806Y-155253758D01*
X228065210Y-155256750D01*
X228053708Y-155266191D01*
X227981811Y-155341340D01*
X227969847Y-155351717D01*
X227965928Y-155357942D01*
X227963625Y-155360350D01*
X227962109Y-155364009D01*
X227954182Y-155376603D01*
X227894275Y-155501127D01*
X227892197Y-155503206D01*
X227885515Y-155519337D01*
X227872244Y-155546923D01*
X227871862Y-155552297D01*
X227869799Y-155557278D01*
X227866917Y-155586542D01*
X227595488Y-155586542D01*
X227594006Y-155534786D01*
X227594310Y-155533876D01*
X227593758Y-155526112D01*
X227592606Y-155485850D01*
X227590543Y-155480871D01*
X227590162Y-155475496D01*
X227579652Y-155448033D01*
X227509097Y-155312143D01*
X227504374Y-155297973D01*
X227497811Y-155290405D01*
X227492559Y-155280290D01*
X227478352Y-155267969D01*
X227466028Y-155253758D01*
X227451217Y-155244435D01*
X227448344Y-155241943D01*
X227446036Y-155241173D01*
X227441142Y-155238093D01*
X227316617Y-155178186D01*
X227314539Y-155176108D01*
X227298407Y-155169426D01*
X227270822Y-155156155D01*
X227265447Y-155155773D01*
X227260467Y-155153710D01*
X227231203Y-155150828D01*
X227038968Y-155153102D01*
X227035678Y-155152006D01*
X227016505Y-155153368D01*
X226987653Y-155153710D01*
X226982672Y-155155773D01*
X226977298Y-155156155D01*
X226949834Y-155166664D01*
X226782092Y-155253758D01*
X226743745Y-155297973D01*
X226725238Y-155353496D01*
X226729387Y-155411876D01*
X226755561Y-155464225D01*
X226799776Y-155502572D01*
X226855299Y-155521079D01*
X226913679Y-155516930D01*
X226941142Y-155506421D01*
X227048944Y-155450449D01*
X227192714Y-155448747D01*
X227262116Y-155482135D01*
X227296436Y-155548236D01*
X227296494Y-155550285D01*
X227264179Y-155617457D01*
X227199177Y-155651206D01*
X227038968Y-155653102D01*
X227035678Y-155652006D01*
X227016505Y-155653368D01*
X226987653Y-155653710D01*
X226982672Y-155655773D01*
X226977298Y-155656155D01*
X226949834Y-155666664D01*
X226813942Y-155737220D01*
X226799776Y-155741943D01*
X226792210Y-155748504D01*
X226782092Y-155753758D01*
X226769768Y-155767967D01*
X226755561Y-155780289D01*
X226746241Y-155795094D01*
X226743745Y-155797973D01*
X226742974Y-155800284D01*
X226739896Y-155805175D01*
X226679989Y-155929699D01*
X226677911Y-155931778D01*
X226671229Y-155947909D01*
X226657958Y-155975495D01*
X226657576Y-155980869D01*
X226655513Y-155985850D01*
X226652631Y-156015114D01*
X226308974Y-156015114D01*
X226306892Y-155271564D01*
X226284494Y-155217492D01*
X226243110Y-155176108D01*
X226189038Y-155153710D01*
X226130510Y-155153710D01*
X226076438Y-155176108D01*
X226035054Y-155217492D01*
X226012656Y-155271564D01*
X226009774Y-155300828D01*
X225576754Y-155300828D01*
X225575802Y-155297973D01*
X225569239Y-155290405D01*
X225563987Y-155280290D01*
X225549780Y-155267969D01*
X225537456Y-155253758D01*
X225522645Y-155244435D01*
X225519772Y-155241943D01*
X225517464Y-155241173D01*
X225512570Y-155238093D01*
X225388045Y-155178186D01*
X225385967Y-155176108D01*
X225369835Y-155169426D01*
X225342250Y-155156155D01*
X225336875Y-155155773D01*
X225331895Y-155153710D01*
X225302631Y-155150828D01*
X225039369Y-155153236D01*
X225035677Y-155152006D01*
X225015253Y-155153457D01*
X224987652Y-155153710D01*
X224982671Y-155155773D01*
X224977297Y-155156155D01*
X224949833Y-155166664D01*
X224813942Y-155237220D01*
X224799775Y-155241943D01*
X224792209Y-155248504D01*
X224782091Y-155253758D01*
X224769767Y-155267967D01*
X224755560Y-155280289D01*
X224746240Y-155295094D01*
X224743744Y-155297973D01*
X224742973Y-155300284D01*
X224739895Y-155305175D01*
X224679988Y-155429700D01*
X224677911Y-155431778D01*
X224671232Y-155447900D01*
X224657957Y-155475496D01*
X224657575Y-155480871D01*
X224655513Y-155485850D01*
X224652631Y-155515114D01*
X224654835Y-155646789D01*
X224652631Y-155657814D01*
X224485964Y-155657814D01*
X224485964Y-154901521D01*
X225941227Y-154901521D01*
X225944345Y-154909048D01*
X225963624Y-154955592D01*
X225963625Y-154955593D01*
X225982280Y-154978324D01*
X226076438Y-155068405D01*
X226076439Y-155068406D01*
X226108113Y-155081525D01*
X226130510Y-155090803D01*
X226130511Y-155090803D01*
X226130512Y-155090803D01*
X226189037Y-155090803D01*
X226189038Y-155090803D01*
X226211435Y-155081525D01*
X226243109Y-155068406D01*
X226265840Y-155049751D01*
X226355923Y-154955593D01*
X226378319Y-154901521D01*
X230584085Y-154901521D01*
X230587203Y-154909048D01*
X230606482Y-154955592D01*
X230606483Y-154955593D01*
X230625138Y-154978324D01*
X230719296Y-155068405D01*
X230719297Y-155068406D01*
X230750971Y-155081525D01*
X230773368Y-155090803D01*
X230773369Y-155090803D01*
X230773370Y-155090803D01*
X230831895Y-155090803D01*
X230831896Y-155090803D01*
X230854293Y-155081525D01*
X230885967Y-155068406D01*
X230908698Y-155049751D01*
X230998781Y-154955593D01*
X231021177Y-154901520D01*
X231021177Y-154884162D01*
X231021178Y-154842995D01*
X230998781Y-154788922D01*
X230980127Y-154766192D01*
X230885968Y-154676108D01*
X230885967Y-154676107D01*
X230854293Y-154662987D01*
X230831896Y-154653710D01*
X230773368Y-154653710D01*
X230750971Y-154662987D01*
X230719297Y-154676107D01*
X230696566Y-154694762D01*
X230606482Y-154788922D01*
X230589430Y-154830092D01*
X230584085Y-154842995D01*
X230584085Y-154901521D01*
X226378319Y-154901521D01*
X226378319Y-154901520D01*
X226378319Y-154884162D01*
X226378320Y-154842995D01*
X226355923Y-154788922D01*
X226337269Y-154766192D01*
X226243110Y-154676108D01*
X226243109Y-154676107D01*
X226211435Y-154662987D01*
X226189038Y-154653710D01*
X226130510Y-154653710D01*
X226108113Y-154662987D01*
X226076439Y-154676107D01*
X226053708Y-154694762D01*
X225963624Y-154788922D01*
X225946572Y-154830092D01*
X225941227Y-154842995D01*
X225941227Y-154901521D01*
X224485964Y-154901521D01*
X224485964Y-154484161D01*
X242833584Y-154484161D01*
X242833584Y-157114613D01*
G37*
D12*
%TO.P,_47,*%
%TO.N,*%
X249256795Y-155801108D03*
X248773521Y-156967834D03*
X248773521Y-154634382D03*
X247606795Y-157451108D03*
D13*
X247606795Y-155801108D03*
D12*
X247606795Y-154151108D03*
X246440069Y-156967834D03*
X246440069Y-154634382D03*
X245956795Y-155801108D03*
%TD*%
D14*
%TO.P,REF\u002A\u002A,1*%
%TO.N,P16*%
X199500000Y-154500000D03*
%TD*%
%TO.P,REF\u002A\u002A,1*%
%TO.N,P10*%
X200500000Y-153500000D03*
%TD*%
%TO.P,REF\u002A\u002A,1*%
%TO.N,P9*%
X201500000Y-152500000D03*
%TD*%
D15*
%TO.P,REF\u002A\u002A,*%
%TO.N,*%
X271968597Y-154672468D03*
X268463597Y-160743307D03*
D16*
%TO.P,REF\u002A\u002A,1*%
%TO.N,GND*%
X273500000Y-157000000D03*
%TO.P,REF\u002A\u002A,2*%
%TO.N,RST*%
X271250001Y-160897115D03*
%TD*%
D12*
%TO.P,_46,*%
%TO.N,*%
X242956795Y-104801108D03*
X243440069Y-103634382D03*
X243440069Y-105967834D03*
X244606795Y-103151108D03*
D13*
X244606795Y-104801108D03*
D12*
X244606795Y-106451108D03*
X245773521Y-103634382D03*
X245773521Y-105967834D03*
X246256795Y-104801108D03*
%TD*%
D17*
%TO.P,D19,1*%
%TO.N,P19*%
X240796796Y-134301108D03*
D18*
X242956796Y-134301108D03*
%TO.P,D19,2*%
%TO.N,media_one*%
X246256796Y-134301108D03*
D19*
X248416796Y-134301108D03*
%TD*%
D14*
%TO.P,REF\u002A\u002A,1*%
%TO.N,P4*%
X258118678Y-169174442D03*
%TD*%
D17*
%TO.P,D10,1*%
%TO.N,P19*%
X197796795Y-139301109D03*
D18*
X199956795Y-139301109D03*
%TO.P,D10,2*%
%TO.N,index_bottom*%
X203256795Y-139301109D03*
D19*
X205416795Y-139301109D03*
%TD*%
D20*
%TO.P,D1,1*%
%TO.N,P19*%
X139792061Y-151288925D03*
D21*
X141943842Y-151100669D03*
%TO.P,D1,2*%
%TO.N,pinky_bottom*%
X145231284Y-150813055D03*
D19*
X147383065Y-150624799D03*
%TD*%
D12*
%TO.P,_43,*%
%TO.N,*%
X149564777Y-146418645D03*
X149944525Y-145214238D03*
X150147898Y-147538811D03*
X151064691Y-144631117D03*
D13*
X151208498Y-146274838D03*
D12*
X151352305Y-147918559D03*
X152269098Y-145010865D03*
X152472471Y-147335438D03*
X152852219Y-146131031D03*
%TD*%
D17*
%TO.P,D11,1*%
%TO.N,P20*%
X197796795Y-120301109D03*
D18*
X199956795Y-120301109D03*
%TO.P,D11,2*%
%TO.N,index_home*%
X203256795Y-120301109D03*
D19*
X205416795Y-120301109D03*
%TD*%
D14*
%TO.P,REF\u002A\u002A,1*%
%TO.N,P21*%
X206606795Y-106301108D03*
%TD*%
%TO.P,REF\u002A\u002A,1*%
%TO.N,P16*%
X177606796Y-119301109D03*
%TD*%
%TO.P,REF\u002A\u002A,1*%
%TO.N,P19*%
X187606795Y-138301108D03*
%TD*%
%TO.P,REF\u002A\u002A,1*%
%TO.N,P14*%
X196606795Y-144301108D03*
%TD*%
D12*
%TO.P,_45,*%
%TO.N,*%
X193156795Y-156801109D03*
X193640069Y-155634383D03*
X193640069Y-157967835D03*
X194806795Y-155151109D03*
D13*
X194806795Y-156801109D03*
D12*
X194806795Y-158451109D03*
X195973521Y-155634383D03*
X195973521Y-157967835D03*
X196456795Y-156801109D03*
%TD*%
D14*
%TO.P,REF\u002A\u002A,1*%
%TO.N,P20*%
X147348357Y-136574357D03*
%TD*%
%TO.P,REF\u002A\u002A,1*%
%TO.N,P16*%
X177606796Y-100301109D03*
%TD*%
D22*
%TO.P,S10,1*%
%TO.N,P14*%
X195336795Y-150051109D03*
%TO.P,S10,2*%
%TO.N,index_bottom*%
X209676795Y-149001109D03*
%TD*%
D14*
%TO.P,REF\u002A\u002A,1*%
%TO.N,P20*%
X206606795Y-125301108D03*
%TD*%
D22*
%TO.P,S4,1*%
%TO.N,P10*%
X157336796Y-149051108D03*
%TO.P,S4,2*%
%TO.N,ring_bottom*%
X171676796Y-148001108D03*
%TD*%
D23*
%TO.P,TRRS1,1*%
%TO.N,GND*%
X233006795Y-108601108D03*
X237606795Y-108601108D03*
%TO.P,TRRS1,2*%
X233006795Y-107501108D03*
X237606795Y-107501107D03*
%TO.P,TRRS1,3*%
%TO.N,P1*%
X233006795Y-103501108D03*
X237606795Y-103501108D03*
%TO.P,TRRS1,4*%
%TO.N,VCC*%
X233006795Y-100501108D03*
X237606795Y-100501108D03*
%TD*%
D24*
%TO.P,D18,1*%
%TO.N,P4*%
X249383551Y-174304125D03*
D25*
X250463551Y-172433511D03*
%TO.P,D18,2*%
%TO.N,space_cluster*%
X252113551Y-169575627D03*
D19*
X253193551Y-167705013D03*
%TD*%
D14*
%TO.P,REF\u002A\u002A,1*%
%TO.N,P21*%
X168606795Y-105301108D03*
%TD*%
%TO.P,REF\u002A\u002A,1*%
%TO.N,P18*%
X253118678Y-177834696D03*
%TD*%
%TO.P,REF\u002A\u002A,1*%
%TO.N,P19*%
X225606795Y-144301108D03*
%TD*%
D22*
%TO.P,S11,1*%
%TO.N,P14*%
X195336795Y-131051109D03*
%TO.P,S11,2*%
%TO.N,index_home*%
X209676795Y-130001109D03*
%TD*%
D17*
%TO.P,D13,1*%
%TO.N,P19*%
X216796795Y-139301109D03*
D18*
X218956795Y-139301109D03*
%TO.P,D13,2*%
%TO.N,index2_bottom*%
X222256795Y-139301109D03*
D19*
X224416795Y-139301109D03*
%TD*%
D14*
%TO.P,REF\u002A\u002A,1*%
%TO.N,P4*%
X211306795Y-166301108D03*
%TD*%
D26*
%TO.P,S3,1*%
%TO.N,P9*%
X134966428Y-124357023D03*
%TO.P,S3,2*%
%TO.N,pinky_top*%
X149160347Y-122061205D03*
%TD*%
D14*
%TO.P,REF\u002A\u002A,1*%
%TO.N,P15*%
X227945754Y-168043491D03*
%TD*%
%TO.P,REF\u002A\u002A,1*%
%TO.N,P10*%
X158606796Y-105301108D03*
%TD*%
D22*
%TO.P,S12,1*%
%TO.N,P14*%
X195336795Y-112051109D03*
%TO.P,S12,2*%
%TO.N,index_top*%
X209676795Y-111001109D03*
%TD*%
D14*
%TO.P,REF\u002A\u002A,1*%
%TO.N,P15*%
X215606795Y-125301108D03*
%TD*%
D17*
%TO.P,D20,1*%
%TO.N,P20*%
X240796796Y-115301108D03*
D18*
X242956796Y-115301108D03*
%TO.P,D20,2*%
%TO.N,media_two*%
X246256796Y-115301108D03*
D19*
X248416796Y-115301108D03*
%TD*%
D22*
%TO.P,S13,1*%
%TO.N,P15*%
X214336795Y-150051109D03*
%TO.P,S13,2*%
%TO.N,index2_bottom*%
X228676795Y-149001109D03*
%TD*%
D17*
%TO.P,D15,1*%
%TO.N,P21*%
X216796795Y-101301109D03*
D18*
X218956795Y-101301109D03*
%TO.P,D15,2*%
%TO.N,index2_top*%
X222256795Y-101301109D03*
D19*
X224416795Y-101301109D03*
%TD*%
D14*
%TO.P,REF\u002A\u002A,1*%
%TO.N,P19*%
X149004316Y-155502057D03*
%TD*%
D22*
%TO.P,S19,1*%
%TO.N,P18*%
X238336795Y-145051109D03*
%TO.P,S19,2*%
%TO.N,media_one*%
X252676795Y-144001109D03*
%TD*%
D14*
%TO.P,REF\u002A\u002A,1*%
%TO.N,P18*%
X239606795Y-139301109D03*
%TD*%
%TO.P,REF\u002A\u002A,1*%
%TO.N,P16*%
X177606796Y-138301109D03*
%TD*%
%TO.P,REF\u002A\u002A,1*%
%TO.N,P14*%
X201306795Y-166301108D03*
%TD*%
%TO.P,REF\u002A\u002A,1*%
%TO.N,P21*%
X225606795Y-106301108D03*
%TD*%
%TO.P,REF\u002A\u002A,1*%
%TO.N,P21*%
X145692397Y-117646658D03*
%TD*%
%TO.P,REF\u002A\u002A,1*%
%TO.N,P10*%
X158606796Y-124301109D03*
%TD*%
%TO.P,REF\u002A\u002A,1*%
%TO.N,P15*%
X215606795Y-106301108D03*
%TD*%
%TO.P,REF\u002A\u002A,1*%
%TO.N,P9*%
X135730450Y-118518216D03*
%TD*%
%TO.P,REF\u002A\u002A,1*%
%TO.N,P10*%
X158606795Y-143301108D03*
%TD*%
D17*
%TO.P,D7,1*%
%TO.N,P19*%
X178796795Y-133301108D03*
D18*
X180956795Y-133301108D03*
%TO.P,D7,2*%
%TO.N,middle_bottom*%
X184256795Y-133301108D03*
D19*
X186416795Y-133301108D03*
%TD*%
D14*
%TO.P,REF\u002A\u002A,1*%
%TO.N,P20*%
X249606795Y-120301108D03*
%TD*%
D17*
%TO.P,D12,1*%
%TO.N,P21*%
X197796795Y-101301109D03*
D18*
X199956795Y-101301109D03*
%TO.P,D12,2*%
%TO.N,index_top*%
X203256795Y-101301109D03*
D19*
X205416795Y-101301109D03*
%TD*%
D27*
%TO.P,_41,*%
%TO.N,*%
X275226794Y-114331108D03*
D28*
X275226794Y-114331108D03*
D29*
X273956795Y-114331108D03*
D30*
X273448795Y-114331108D03*
D31*
X261764795Y-114331108D03*
D32*
X261256795Y-114331108D03*
D27*
X259986795Y-114331108D03*
X275226795Y-116871108D03*
D29*
X273956795Y-116871108D03*
D30*
X273448795Y-116871108D03*
D31*
X261764795Y-116871108D03*
D32*
X261256795Y-116871108D03*
D27*
X259986795Y-116871108D03*
X275226795Y-119411108D03*
D29*
X273956795Y-119411108D03*
D30*
X273448795Y-119411108D03*
D31*
X261764795Y-119411108D03*
D32*
X261256795Y-119411108D03*
D27*
X259986795Y-119411108D03*
X259986795Y-121951107D03*
X275226795Y-121951108D03*
D30*
X273448795Y-121951108D03*
D31*
X261764795Y-121951108D03*
D32*
X261256796Y-121951108D03*
D29*
X273956795Y-121951109D03*
D27*
X275226795Y-124491108D03*
D29*
X273956795Y-124491108D03*
D30*
X273448795Y-124491108D03*
D31*
X261764794Y-124491108D03*
D32*
X261256795Y-124491108D03*
D27*
X259986795Y-124491108D03*
X275226795Y-127031108D03*
D29*
X273956795Y-127031108D03*
D30*
X273448795Y-127031108D03*
D31*
X261764795Y-127031108D03*
D32*
X261256795Y-127031108D03*
D27*
X259986795Y-127031108D03*
X275226795Y-129571108D03*
D29*
X273956795Y-129571108D03*
D30*
X273448795Y-129571108D03*
D31*
X261764795Y-129571108D03*
D32*
X261256795Y-129571108D03*
D27*
X259986795Y-129571108D03*
X275226795Y-132111108D03*
D29*
X273956795Y-132111108D03*
D30*
X273448796Y-132111108D03*
D31*
X261764795Y-132111108D03*
D32*
X261256795Y-132111108D03*
D27*
X259986795Y-132111108D03*
D32*
X261256795Y-134651107D03*
D29*
X273956794Y-134651108D03*
D30*
X273448795Y-134651108D03*
D31*
X261764795Y-134651108D03*
D27*
X259986795Y-134651108D03*
X275226795Y-134651109D03*
X275226795Y-137191108D03*
D29*
X273956795Y-137191108D03*
D30*
X273448795Y-137191108D03*
D31*
X261764795Y-137191108D03*
D32*
X261256795Y-137191108D03*
D27*
X259986795Y-137191108D03*
X275226795Y-139731108D03*
D29*
X273956795Y-139731108D03*
D30*
X273448795Y-139731108D03*
D31*
X261764795Y-139731108D03*
D32*
X261256795Y-139731108D03*
D27*
X259986795Y-139731108D03*
X275226795Y-142271108D03*
D29*
X273956795Y-142271108D03*
D30*
X273448795Y-142271108D03*
D31*
X261764795Y-142271108D03*
D32*
X261256795Y-142271108D03*
D27*
X259986796Y-142271108D03*
D33*
%TO.P,_41,1*%
%TO.N,RAW*%
X262780795Y-114331107D03*
D34*
X268368795Y-114331108D03*
D35*
X268368795Y-114331108D03*
D34*
%TO.P,_41,2*%
%TO.N,GND*%
X268368795Y-116871108D03*
D35*
X268368795Y-116871108D03*
D33*
%TO.N,N/C*%
X262780795Y-116871108D03*
D34*
%TO.P,_41,3*%
%TO.N,RST*%
X268368795Y-119411108D03*
D35*
X268368795Y-119411108D03*
D33*
X262780795Y-119411108D03*
%TO.P,_41,4*%
%TO.N,VCC*%
X262780795Y-121951108D03*
D34*
X268368795Y-121951109D03*
D35*
X268368795Y-121951109D03*
D34*
%TO.P,_41,5*%
%TO.N,P21*%
X268368795Y-124491108D03*
D35*
X268368795Y-124491108D03*
D33*
X262780795Y-124491108D03*
D34*
%TO.P,_41,6*%
%TO.N,P20*%
X268368795Y-127031108D03*
D35*
X268368795Y-127031108D03*
D33*
X262780795Y-127031108D03*
D34*
%TO.P,_41,7*%
%TO.N,P19*%
X268368795Y-129571108D03*
D35*
X268368795Y-129571108D03*
D33*
X262780795Y-129571108D03*
D34*
%TO.P,_41,8*%
%TO.N,P18*%
X268368795Y-132111108D03*
D35*
X268368795Y-132111108D03*
D33*
X262780795Y-132111108D03*
D34*
%TO.P,_41,9*%
%TO.N,P15*%
X268368796Y-134651108D03*
D35*
X268368796Y-134651108D03*
D33*
X262780795Y-134651108D03*
D34*
%TO.P,_41,10*%
%TO.N,P14*%
X268368795Y-137191108D03*
D35*
X268368795Y-137191108D03*
D33*
X262780795Y-137191108D03*
D34*
%TO.P,_41,11*%
%TO.N,P16*%
X268368795Y-139731108D03*
D35*
X268368795Y-139731108D03*
D33*
X262780795Y-139731108D03*
D34*
%TO.P,_41,12*%
%TO.N,P10*%
X268368795Y-142271108D03*
D35*
X268368795Y-142271108D03*
D33*
X262780795Y-142271108D03*
D36*
%TO.P,_41,13*%
%TO.N,P9*%
X266844795Y-142271108D03*
D35*
X266844795Y-142271108D03*
D37*
X272432795Y-142271109D03*
%TO.P,_41,14*%
%TO.N,P8*%
X272432795Y-139731108D03*
D36*
X266844795Y-139731108D03*
D35*
X266844795Y-139731108D03*
D37*
%TO.P,_41,15*%
%TO.N,P7*%
X272432795Y-137191108D03*
D36*
X266844795Y-137191108D03*
D35*
X266844795Y-137191108D03*
D36*
%TO.P,_41,16*%
%TO.N,P6*%
X266844795Y-134651107D03*
D35*
X266844795Y-134651107D03*
D37*
X272432795Y-134651108D03*
%TO.P,_41,17*%
%TO.N,P5*%
X272432795Y-132111108D03*
D36*
X266844795Y-132111108D03*
D35*
X266844795Y-132111108D03*
D37*
%TO.P,_41,18*%
%TO.N,P4*%
X272432795Y-129571108D03*
D36*
X266844795Y-129571108D03*
D35*
X266844795Y-129571108D03*
D37*
%TO.P,_41,19*%
%TO.N,P3*%
X272432795Y-127031108D03*
D36*
X266844795Y-127031108D03*
D35*
X266844795Y-127031108D03*
D37*
%TO.P,_41,20*%
%TO.N,P2*%
X272432795Y-124491108D03*
D36*
X266844795Y-124491108D03*
D35*
X266844795Y-124491108D03*
D37*
%TO.P,_41,21*%
%TO.N,GND*%
X272432795Y-121951108D03*
D36*
X266844794Y-121951108D03*
D35*
X266844794Y-121951108D03*
D37*
%TO.P,_41,22*%
X272432795Y-119411108D03*
D36*
X266844795Y-119411108D03*
D35*
X266844795Y-119411108D03*
D37*
%TO.P,_41,23*%
%TO.N,P0*%
X272432795Y-116871108D03*
D36*
X266844795Y-116871108D03*
D35*
X266844795Y-116871108D03*
D37*
%TO.P,_41,24*%
%TO.N,P1*%
X272432795Y-114331108D03*
D36*
X266844795Y-114331108D03*
D35*
X266844795Y-114331108D03*
%TD*%
D14*
%TO.P,REF\u002A\u002A,1*%
%TO.N,P14*%
X196606795Y-106301108D03*
%TD*%
%TO.P,REF\u002A\u002A,1*%
%TO.N,P19*%
X206606795Y-144301108D03*
%TD*%
D26*
%TO.P,S2,1*%
%TO.N,P9*%
X136622387Y-143284723D03*
%TO.P,S2,2*%
%TO.N,pinky_home*%
X150816306Y-140988905D03*
%TD*%
D14*
%TO.P,REF\u002A\u002A,1*%
%TO.N,P9*%
X137386409Y-137445915D03*
%TD*%
D38*
%TO.P,S17,1*%
%TO.N,P15*%
X225230819Y-173268864D03*
%TO.P,S17,2*%
%TO.N,layer_cluster*%
X239353955Y-175966107D03*
%TD*%
D17*
%TO.P,D14,1*%
%TO.N,P20*%
X216796795Y-120301109D03*
D18*
X218956795Y-120301109D03*
%TO.P,D14,2*%
%TO.N,index2_home*%
X222256795Y-120301109D03*
D19*
X224416795Y-120301109D03*
%TD*%
D14*
%TO.P,REF\u002A\u002A,1*%
%TO.N,P19*%
X249606795Y-139301108D03*
%TD*%
D22*
%TO.P,S16,1*%
%TO.N,P14*%
X200036795Y-172051109D03*
%TO.P,S16,2*%
%TO.N,mod_cluster*%
X214376795Y-171001109D03*
%TD*%
D17*
%TO.P,D6,1*%
%TO.N,P21*%
X159796796Y-100301108D03*
D18*
X161956796Y-100301108D03*
%TO.P,D6,2*%
%TO.N,ring_top*%
X165256796Y-100301108D03*
D19*
X167416796Y-100301108D03*
%TD*%
D22*
%TO.P,S7,1*%
%TO.N,P16*%
X176336796Y-144051108D03*
%TO.P,S7,2*%
%TO.N,middle_bottom*%
X190676796Y-143001108D03*
%TD*%
D12*
%TO.P,_42,*%
%TO.N,*%
X150262475Y-114235368D03*
X150642223Y-113030961D03*
X150845596Y-115355534D03*
X151762389Y-112447840D03*
D13*
X151906196Y-114091561D03*
D12*
X152050003Y-115735282D03*
X152966796Y-112827588D03*
X153170169Y-115152161D03*
X153549917Y-113947754D03*
%TD*%
D14*
%TO.P,REF\u002A\u002A,1*%
%TO.N,P9*%
X139042369Y-156373615D03*
%TD*%
D22*
%TO.P,S20,1*%
%TO.N,P18*%
X238336795Y-126051109D03*
%TO.P,S20,2*%
%TO.N,media_two*%
X252676795Y-125001109D03*
%TD*%
D17*
%TO.P,D16,1*%
%TO.N,P4*%
X202496795Y-161301109D03*
D18*
X204656795Y-161301109D03*
%TO.P,D16,2*%
%TO.N,mod_cluster*%
X207956795Y-161301109D03*
D19*
X210116795Y-161301109D03*
%TD*%
D14*
%TO.P,REF\u002A\u002A,1*%
%TO.N,P20*%
X187606796Y-119301108D03*
%TD*%
D39*
%TO.P,D17,1*%
%TO.N,P4*%
X230389301Y-163521857D03*
D40*
X232475700Y-164080906D03*
%TO.P,D17,2*%
%TO.N,layer_cluster*%
X235663256Y-164935010D03*
D19*
X237749655Y-165494059D03*
%TD*%
D20*
%TO.P,D2,1*%
%TO.N,P20*%
X138136102Y-132361226D03*
D21*
X140287883Y-132172970D03*
%TO.P,D2,2*%
%TO.N,pinky_home*%
X143575325Y-131885356D03*
D19*
X145727106Y-131697100D03*
%TD*%
D17*
%TO.P,D9,1*%
%TO.N,P21*%
X178796795Y-95301108D03*
D18*
X180956795Y-95301108D03*
%TO.P,D9,2*%
%TO.N,middle_top*%
X184256795Y-95301108D03*
D19*
X186416795Y-95301108D03*
%TD*%
D14*
%TO.P,REF\u002A\u002A,1*%
%TO.N,P20*%
X225606795Y-125301108D03*
%TD*%
D20*
%TO.P,D3,1*%
%TO.N,P21*%
X136480144Y-113433527D03*
D21*
X138631925Y-113245271D03*
%TO.P,D3,2*%
%TO.N,pinky_top*%
X141919367Y-112957657D03*
D19*
X144071148Y-112769401D03*
%TD*%
D41*
%TO.P,S18,1*%
%TO.N,P18*%
X257463325Y-181809548D03*
%TO.P,S18,2*%
%TO.N,space_cluster*%
X263723998Y-168865743D03*
%TD*%
D17*
%TO.P,D8,1*%
%TO.N,P20*%
X178796795Y-114301108D03*
D18*
X180956795Y-114301108D03*
%TO.P,D8,2*%
%TO.N,middle_home*%
X184256795Y-114301108D03*
D19*
X186416795Y-114301108D03*
%TD*%
D14*
%TO.P,REF\u002A\u002A,1*%
%TO.N,P4*%
X237605012Y-170631682D03*
%TD*%
%TO.P,REF\u002A\u002A,1*%
%TO.N,P20*%
X168606795Y-124301108D03*
%TD*%
%TO.P,REF\u002A\u002A,1*%
%TO.N,P18*%
X239606795Y-120301108D03*
%TD*%
D17*
%TO.P,D4,1*%
%TO.N,P19*%
X159796796Y-138301108D03*
D18*
X161956796Y-138301108D03*
%TO.P,D4,2*%
%TO.N,ring_bottom*%
X165256796Y-138301108D03*
D19*
X167416796Y-138301108D03*
%TD*%
D17*
%TO.P,D5,1*%
%TO.N,P20*%
X159796796Y-119301108D03*
D18*
X161956796Y-119301108D03*
%TO.P,D5,2*%
%TO.N,ring_home*%
X165256796Y-119301108D03*
D19*
X167416796Y-119301108D03*
%TD*%
D14*
%TO.P,REF\u002A\u002A,1*%
%TO.N,P15*%
X215606795Y-144301108D03*
%TD*%
%TO.P,REF\u002A\u002A,1*%
%TO.N,P14*%
X196606795Y-125301108D03*
%TD*%
D22*
%TO.P,S15,1*%
%TO.N,P15*%
X214336795Y-112051109D03*
%TO.P,S15,2*%
%TO.N,index2_top*%
X228676795Y-111001109D03*
%TD*%
D12*
%TO.P,_44,*%
%TO.N,*%
X190456796Y-115801108D03*
X190940070Y-114634382D03*
X190940070Y-116967834D03*
X192106796Y-114151108D03*
D13*
X192106796Y-115801108D03*
D12*
X192106796Y-117451108D03*
X193273522Y-114634382D03*
X193273522Y-116967834D03*
X193756796Y-115801108D03*
%TD*%
D22*
%TO.P,S8,1*%
%TO.N,P16*%
X176336796Y-125051108D03*
%TO.P,S8,2*%
%TO.N,middle_home*%
X190676796Y-124001108D03*
%TD*%
D14*
%TO.P,REF\u002A\u002A,1*%
%TO.N,P21*%
X187606796Y-100301108D03*
%TD*%
D42*
%TO.P,OLED1,1*%
%TO.N,GND*%
X263806794Y-145401108D03*
D43*
%TO.P,OLED1,2*%
%TO.N,VCC*%
X266346795Y-145401108D03*
%TO.P,OLED1,3*%
%TO.N,P3*%
X268886795Y-145401108D03*
%TO.P,OLED1,4*%
%TO.N,P2*%
X271426795Y-145401108D03*
%TD*%
D22*
%TO.P,S6,1*%
%TO.N,P10*%
X157336795Y-111051109D03*
%TO.P,S6,2*%
%TO.N,ring_top*%
X171676795Y-110001109D03*
%TD*%
D26*
%TO.P,S1,1*%
%TO.N,P9*%
X138278346Y-162212421D03*
%TO.P,S1,2*%
%TO.N,pinky_bottom*%
X152472265Y-159916603D03*
%TD*%
D22*
%TO.P,S5,1*%
%TO.N,P10*%
X157336796Y-130051108D03*
%TO.P,S5,2*%
%TO.N,ring_home*%
X171676796Y-129001108D03*
%TD*%
%TO.P,S9,1*%
%TO.N,P16*%
X176336796Y-106051108D03*
%TO.P,S9,2*%
%TO.N,middle_top*%
X190676796Y-105001108D03*
%TD*%
%TO.P,S14,1*%
%TO.N,P15*%
X214336795Y-131051109D03*
%TO.P,S14,2*%
%TO.N,index2_home*%
X228676795Y-130001109D03*
%TD*%
D14*
%TO.P,REF\u002A\u002A,1*%
%TO.N,P19*%
X168606795Y-143301108D03*
%TD*%
D44*
%TO.N,pinky_bottom*%
X145231284Y-150813055D02*
X147194809Y-150813055D01*
X147194809Y-150813055D02*
X147383065Y-150624799D01*
%TO.N,pinky_home*%
X143575325Y-131885356D02*
X145538850Y-131885356D01*
X145538850Y-131885356D02*
X145727106Y-131697100D01*
%TO.N,pinky_top*%
X141919367Y-112957657D02*
X143882892Y-112957657D01*
X143882892Y-112957657D02*
X144071148Y-112769401D01*
%TO.N,ring_home*%
X165256796Y-119301108D02*
X167416796Y-119301108D01*
%TO.N,P20*%
X161956796Y-119301108D02*
X159796796Y-119301108D01*
%TO.N,ring_top*%
X165256796Y-100301108D02*
X167416796Y-100301108D01*
%TO.N,P21*%
X180956795Y-95301108D02*
X178796795Y-95301108D01*
%TO.N,middle_top*%
X184256795Y-95301108D02*
X186416795Y-95301108D01*
%TO.N,middle_home*%
X184256795Y-114301108D02*
X186416795Y-114301108D01*
%TO.N,P20*%
X180956795Y-114301108D02*
X178796795Y-114301108D01*
%TO.N,middle_bottom*%
X184256795Y-133301108D02*
X186416795Y-133301108D01*
%TO.N,index_bottom*%
X203256795Y-139301109D02*
X205416795Y-139301109D01*
%TO.N,index_home*%
X203256795Y-120301109D02*
X205416795Y-120301109D01*
%TO.N,index_top*%
X203256795Y-101301109D02*
X205416795Y-101301109D01*
%TO.N,index2_top*%
X222256795Y-101301109D02*
X224416795Y-101301109D01*
%TO.N,index2_home*%
X222256795Y-120301109D02*
X224416795Y-120301109D01*
%TO.N,index2_bottom*%
X222256795Y-139301109D02*
X224416795Y-139301109D01*
%TO.N,P4*%
X232475700Y-164080906D02*
X230948350Y-164080906D01*
X230948350Y-164080906D02*
X230389301Y-163521857D01*
%TO.N,layer_cluster*%
X235663256Y-164935010D02*
X237190606Y-164935010D01*
X237190606Y-164935010D02*
X237749655Y-165494059D01*
%TO.N,P4*%
X250463551Y-172433511D02*
X250463551Y-173224125D01*
X250463551Y-173224125D02*
X249383551Y-174304125D01*
%TO.N,media_one*%
X246256796Y-134301108D02*
X248416796Y-134301108D01*
%TO.N,media_two*%
X246256796Y-115301108D02*
X248416796Y-115301108D01*
%TO.N,P20*%
X140672970Y-132172970D02*
X140287883Y-132172970D01*
%TO.N,P9*%
X134966428Y-124357023D02*
X134862800Y-124253395D01*
%TO.N,P21*%
X165305687Y-102000000D02*
X163500000Y-102000000D01*
X161956796Y-100456796D02*
X161956796Y-100301108D01*
%TO.N,P10*%
X157336795Y-111051109D02*
X157331795Y-111046109D01*
%TO.N,P20*%
X165305687Y-121000000D02*
X163500000Y-121000000D01*
%TO.N,P16*%
X176336796Y-106051108D02*
X176331796Y-106046108D01*
%TO.N,P21*%
X184305688Y-97000000D02*
X182500000Y-97000000D01*
%TO.N,P20*%
X184305688Y-116000000D02*
X182500000Y-116000000D01*
%TO.N,P19*%
X168023608Y-137023608D02*
X168906795Y-137906795D01*
X168906795Y-143001108D02*
X168606795Y-143301108D01*
X173500000Y-136500000D02*
X173500000Y-138407903D01*
%TO.N,P16*%
X176336796Y-144051108D02*
X176331796Y-144046108D01*
%TO.N,P19*%
X184305687Y-135000000D02*
X182500000Y-135000000D01*
X180956795Y-133456795D02*
X180956795Y-133301108D01*
%TO.N,P14*%
X195336795Y-112051109D02*
X195331795Y-112046109D01*
X195336795Y-131051109D02*
X195331795Y-131046109D01*
X196606795Y-144301108D02*
X196606795Y-144106795D01*
%TO.N,P19*%
X203305687Y-141000000D02*
X201500000Y-141000000D01*
X199956795Y-139456795D02*
X199956795Y-139301109D01*
%TO.N,P20*%
X203305687Y-122000000D02*
X201500000Y-122000000D01*
X199956795Y-120456795D02*
X199956795Y-120301109D01*
%TO.N,P21*%
X203305687Y-103000000D02*
X201500000Y-103000000D01*
X199956795Y-101456795D02*
X199956795Y-101301109D01*
X222305687Y-103000000D02*
X220500000Y-103000000D01*
X218956795Y-101456795D02*
X218956795Y-101301109D01*
%TO.N,P19*%
X222305687Y-141000000D02*
X220500000Y-141000000D01*
X218956795Y-139456795D02*
X218956795Y-139301109D01*
%TO.N,P15*%
X214336795Y-111836795D02*
X214331795Y-111831795D01*
X214336795Y-131051109D02*
X214331795Y-131046109D01*
%TO.N,P20*%
X222305687Y-122000000D02*
X220500000Y-122000000D01*
X218956795Y-120456795D02*
X218956795Y-120301109D01*
X246305687Y-117000000D02*
X244500000Y-117000000D01*
X242956796Y-115456796D02*
X242956796Y-115301108D01*
%TO.N,P19*%
X246305687Y-136000000D02*
X244500000Y-136000000D01*
X242956796Y-134456796D02*
X242956796Y-134301108D01*
%TO.N,P18*%
X238336795Y-126051109D02*
X238331795Y-126046109D01*
X238336795Y-145051109D02*
X238331795Y-145046109D01*
%TO.N,P15*%
X214336795Y-150051109D02*
X214331795Y-150046109D01*
%TO.N,P14*%
X195336795Y-150051109D02*
X195331795Y-150046109D01*
X203000000Y-153500000D02*
X203000000Y-152500000D01*
X202000000Y-151500000D02*
X201500000Y-151500000D01*
%TO.N,P18*%
X242000000Y-147500000D02*
X240500000Y-147500000D01*
%TO.N,space_cluster*%
X253193551Y-167705013D02*
X253193551Y-168495627D01*
%TO.N,P18*%
X253118678Y-177834696D02*
X253118678Y-178258960D01*
%TO.N,P4*%
X236000000Y-169026670D02*
X236000000Y-167605206D01*
X205542791Y-162500000D02*
X205500000Y-162500000D01*
%TO.N,P16*%
X192000000Y-149522445D02*
X192000000Y-151272792D01*
%TO.N,P10*%
X157500000Y-135500000D02*
X159500000Y-133500000D01*
X192500000Y-151136396D02*
X194863604Y-153500000D01*
%TO.N,P9*%
X193000000Y-151000000D02*
X194500000Y-152500000D01*
X136500000Y-129500000D02*
X137000000Y-129000000D01*
X136622387Y-143284723D02*
X136518759Y-143181095D01*
%TO.N,P19*%
X144500000Y-153000000D02*
X146502259Y-153000000D01*
X141755586Y-151288925D02*
X141943842Y-151100669D01*
%TO.N,GND*%
X259250000Y-123250000D02*
X259366108Y-123366108D01*
X259227208Y-144500000D02*
X257500000Y-142772792D01*
%TO.N,P1*%
X237606795Y-103501108D02*
X236481795Y-102376108D01*
X236481795Y-99518205D02*
X237000000Y-99000000D01*
X241568198Y-107931802D02*
X243136396Y-109500000D01*
X263246108Y-115746108D02*
X264661108Y-114331108D01*
%TO.N,GND*%
X240964712Y-108601108D02*
X242863604Y-110500000D01*
X258000000Y-121136396D02*
X258000000Y-122000000D01*
X262866108Y-123366108D02*
X264281108Y-121951108D01*
%TO.N,VCC*%
X241000000Y-108000000D02*
X243000000Y-110000000D01*
X276351795Y-121485117D02*
X275692786Y-120826108D01*
%TO.N,P2*%
X268400094Y-146576108D02*
X267711795Y-145887809D01*
X258000000Y-126500000D02*
X258689892Y-125810108D01*
X259363604Y-144000000D02*
X258000000Y-142636396D01*
%TO.N,P3*%
X267000000Y-143514313D02*
X267000000Y-143500000D01*
X259500000Y-143500000D02*
X258500000Y-142500000D01*
X258500000Y-129000000D02*
X259343892Y-128156108D01*
%TO.N,RST*%
X270588892Y-119411108D02*
X272000000Y-118000000D01*
%TO.N,GND*%
X268905686Y-150500000D02*
X269000000Y-150500000D01*
%TO.N,P21*%
X161956796Y-100301108D02*
X159796796Y-100301108D01*
X138631925Y-113245271D02*
X136668400Y-113245271D01*
X136668400Y-113245271D02*
X136480144Y-113433527D01*
%TO.N,P20*%
X140287883Y-132172970D02*
X138324358Y-132172970D01*
X138324358Y-132172970D02*
X138136102Y-132361226D01*
X144274000Y-133500000D02*
X142000000Y-133500000D01*
X147348357Y-136574357D02*
X144274000Y-133500000D01*
X142000000Y-133500000D02*
X140672970Y-132172970D01*
%TO.N,pinky_home*%
X150816306Y-140988905D02*
X150816306Y-136786300D01*
X150816306Y-136786300D02*
X145727106Y-131697100D01*
%TO.N,P9*%
X134862800Y-124253395D02*
X134862800Y-119385866D01*
X134862800Y-119385866D02*
X135730450Y-118518216D01*
%TO.N,P21*%
X145692397Y-117646658D02*
X142545739Y-114500000D01*
X139886654Y-114500000D02*
X138631925Y-113245271D01*
X142545739Y-114500000D02*
X139886654Y-114500000D01*
%TO.N,pinky_top*%
X149160347Y-122061205D02*
X149160347Y-117858600D01*
X149160347Y-117858600D02*
X144071148Y-112769401D01*
%TO.N,P21*%
X168606795Y-105301108D02*
X165305687Y-102000000D01*
X163500000Y-102000000D02*
X161956796Y-100456796D01*
%TO.N,ring_top*%
X171676795Y-110001109D02*
X171676795Y-104561107D01*
X171676795Y-104561107D02*
X167416796Y-100301108D01*
%TO.N,P10*%
X157331795Y-106576109D02*
X158606796Y-105301108D01*
X157331795Y-111046109D02*
X157331795Y-106576109D01*
X158606796Y-124301109D02*
X157336795Y-123031108D01*
X157336795Y-123031108D02*
X157336795Y-111051109D01*
%TO.N,P20*%
X168606795Y-124301108D02*
X165305687Y-121000000D01*
X163500000Y-121000000D02*
X161956796Y-119456796D01*
X161956796Y-119456796D02*
X161956796Y-119301108D01*
%TO.N,ring_home*%
X171676796Y-129001108D02*
X171676796Y-123561108D01*
X171676796Y-123561108D02*
X167416796Y-119301108D01*
%TO.N,P16*%
X177606796Y-119301109D02*
X176336796Y-118031109D01*
X176336796Y-118031109D02*
X176336796Y-106051108D01*
X176336796Y-125051108D02*
X176331796Y-125046108D01*
X176331796Y-125046108D02*
X176331796Y-120576109D01*
X176331796Y-120576109D02*
X177606796Y-119301109D01*
X176331796Y-101576109D02*
X177606796Y-100301109D01*
X176331796Y-106046108D02*
X176331796Y-101576109D01*
%TO.N,P21*%
X187606796Y-100301108D02*
X184305688Y-97000000D01*
X180956795Y-95456795D02*
X180956795Y-95301108D01*
X182500000Y-97000000D02*
X180956795Y-95456795D01*
%TO.N,middle_top*%
X190676796Y-105001108D02*
X190676796Y-99561109D01*
X190676796Y-99561109D02*
X186416795Y-95301108D01*
%TO.N,P20*%
X180956795Y-114456795D02*
X180956795Y-114301108D01*
X187606796Y-119301108D02*
X184305688Y-116000000D01*
X182500000Y-116000000D02*
X180956795Y-114456795D01*
%TO.N,middle_home*%
X190676796Y-124001108D02*
X190676796Y-118561109D01*
X190676796Y-118561109D02*
X186416795Y-114301108D01*
%TO.N,P19*%
X159796796Y-138301108D02*
X161956796Y-138301108D01*
X159796796Y-138301108D02*
X161074296Y-137023608D01*
X168906795Y-137906795D02*
X168906795Y-143001108D01*
X161074296Y-137023608D02*
X168023608Y-137023608D01*
%TO.N,ring_bottom*%
X167416796Y-138301108D02*
X165256796Y-138301108D01*
%TO.N,P19*%
X176698892Y-133301108D02*
X173500000Y-136500000D01*
X173500000Y-138407903D02*
X168606795Y-143301108D01*
X178796795Y-133301108D02*
X176698892Y-133301108D01*
%TO.N,ring_bottom*%
X171676796Y-148001108D02*
X171501108Y-148001108D01*
X171501108Y-148001108D02*
X167416796Y-143916796D01*
X167416796Y-143916796D02*
X167416796Y-138301108D01*
%TO.N,P16*%
X176331796Y-144046108D02*
X176331796Y-139576109D01*
X176331796Y-139576109D02*
X177606796Y-138301109D01*
%TO.N,P19*%
X180956795Y-133301108D02*
X178796795Y-133301108D01*
X187606795Y-138301108D02*
X184305687Y-135000000D01*
X182500000Y-135000000D02*
X180956795Y-133456795D01*
%TO.N,middle_bottom*%
X190676796Y-143001108D02*
X190676796Y-137561109D01*
X190676796Y-137561109D02*
X186416795Y-133301108D01*
%TO.N,P14*%
X195331795Y-112046109D02*
X195331795Y-107576108D01*
X195331795Y-107576108D02*
X196606795Y-106301108D01*
X196606795Y-125301108D02*
X195336795Y-124031108D01*
X195336795Y-124031108D02*
X195336795Y-112051109D01*
X195331795Y-131046109D02*
X195331795Y-126576108D01*
X195331795Y-126576108D02*
X196606795Y-125301108D01*
X196606795Y-144106795D02*
X195336795Y-142836795D01*
X195336795Y-142836795D02*
X195336795Y-131051109D01*
%TO.N,P19*%
X199956795Y-139301109D02*
X197796795Y-139301109D01*
X206606795Y-144301108D02*
X203305687Y-141000000D01*
X201500000Y-141000000D02*
X199956795Y-139456795D01*
%TO.N,index_bottom*%
X209676795Y-149001109D02*
X209676795Y-143561109D01*
X209676795Y-143561109D02*
X205416795Y-139301109D01*
%TO.N,P20*%
X199956795Y-120301109D02*
X197796795Y-120301109D01*
X206606795Y-125301108D02*
X203305687Y-122000000D01*
X201500000Y-122000000D02*
X199956795Y-120456795D01*
%TO.N,index_home*%
X209676795Y-130001109D02*
X209676795Y-124561109D01*
X209676795Y-124561109D02*
X205416795Y-120301109D01*
%TO.N,P21*%
X199956795Y-101301109D02*
X197796795Y-101301109D01*
X206606795Y-106301108D02*
X203305687Y-103000000D01*
X201500000Y-103000000D02*
X199956795Y-101456795D01*
%TO.N,index_top*%
X209676795Y-111001109D02*
X209676795Y-105561109D01*
X209676795Y-105561109D02*
X205416795Y-101301109D01*
%TO.N,P21*%
X218956795Y-101301109D02*
X216796795Y-101301109D01*
X225606795Y-106301108D02*
X222305687Y-103000000D01*
X220500000Y-103000000D02*
X218956795Y-101456795D01*
%TO.N,index2_top*%
X228676795Y-111001109D02*
X228676795Y-105561109D01*
X228676795Y-105561109D02*
X224416795Y-101301109D01*
%TO.N,P19*%
X218956795Y-139301109D02*
X216796795Y-139301109D01*
X225606795Y-144301108D02*
X222305687Y-141000000D01*
X220500000Y-141000000D02*
X218956795Y-139456795D01*
%TO.N,index2_bottom*%
X228676795Y-149001109D02*
X228676795Y-143561109D01*
X228676795Y-143561109D02*
X224416795Y-139301109D01*
%TO.N,P15*%
X214336795Y-112051109D02*
X214336795Y-111836795D01*
X214331795Y-107576108D02*
X215606795Y-106301108D01*
X214331795Y-111831795D02*
X214331795Y-107576108D01*
X215606795Y-125301108D02*
X214336795Y-124031108D01*
X214336795Y-124031108D02*
X214336795Y-112051109D01*
X214331795Y-131046109D02*
X214331795Y-126576108D01*
X214331795Y-126576108D02*
X215606795Y-125301108D01*
X215606795Y-144301108D02*
X214336795Y-143031108D01*
X214336795Y-143031108D02*
X214336795Y-131051109D01*
%TO.N,P20*%
X218956795Y-120301109D02*
X216796795Y-120301109D01*
X225606795Y-125301108D02*
X222305687Y-122000000D01*
X220500000Y-122000000D02*
X218956795Y-120456795D01*
%TO.N,index2_home*%
X228676795Y-130001109D02*
X228676795Y-124561109D01*
X228676795Y-124561109D02*
X224416795Y-120301109D01*
%TO.N,P20*%
X242956796Y-115301108D02*
X240796796Y-115301108D01*
X249606795Y-120301108D02*
X246305687Y-117000000D01*
X244500000Y-117000000D02*
X242956796Y-115456796D01*
%TO.N,media_two*%
X252676795Y-125001109D02*
X252676795Y-119561107D01*
X252676795Y-119561107D02*
X248416796Y-115301108D01*
%TO.N,P19*%
X242956796Y-134301108D02*
X240796796Y-134301108D01*
X249606795Y-139301108D02*
X246305687Y-136000000D01*
X244500000Y-136000000D02*
X242956796Y-134456796D01*
%TO.N,media_one*%
X252676795Y-144001109D02*
X252676795Y-138561107D01*
X252676795Y-138561107D02*
X248416796Y-134301108D01*
%TO.N,P18*%
X238331795Y-126046109D02*
X238331795Y-121576108D01*
X238331795Y-121576108D02*
X239606795Y-120301108D01*
X239606795Y-139301109D02*
X238336795Y-138031109D01*
X238336795Y-138031109D02*
X238336795Y-126051109D01*
X238331795Y-140576109D02*
X239606795Y-139301109D01*
X238331795Y-145046109D02*
X238331795Y-140576109D01*
%TO.N,P15*%
X214331795Y-150046109D02*
X214331795Y-145576108D01*
X214331795Y-145576108D02*
X215606795Y-144301108D01*
%TO.N,P14*%
X195331795Y-150046109D02*
X195331795Y-145576108D01*
X195331795Y-145576108D02*
X196606795Y-144301108D01*
X201306795Y-166301108D02*
X200000000Y-164994313D01*
X200000000Y-164994313D02*
X200000000Y-156500000D01*
X200000000Y-156500000D02*
X203000000Y-153500000D01*
X203000000Y-152500000D02*
X202000000Y-151500000D01*
X201500000Y-151500000D02*
X201073891Y-151926109D01*
X197211795Y-151926109D02*
X195336795Y-150051109D01*
X201073891Y-151926109D02*
X197211795Y-151926109D01*
%TO.N,P15*%
X227945754Y-168043491D02*
X227945754Y-163660068D01*
X227945754Y-163660068D02*
X214336795Y-150051109D01*
%TO.N,P18*%
X253118678Y-177834696D02*
X249834696Y-177834696D01*
X249834696Y-177834696D02*
X244500000Y-172500000D01*
X244500000Y-172500000D02*
X244500000Y-150000000D01*
X244500000Y-150000000D02*
X242000000Y-147500000D01*
X240500000Y-147500000D02*
X238336795Y-145336795D01*
X238336795Y-145336795D02*
X238336795Y-145051109D01*
%TO.N,P4*%
X258118678Y-169174442D02*
X255325558Y-169174442D01*
X255325558Y-169174442D02*
X252066489Y-172433511D01*
X252066489Y-172433511D02*
X250463551Y-172433511D01*
%TO.N,space_cluster*%
X253193551Y-168495627D02*
X252113551Y-169575627D01*
X263723998Y-168865743D02*
X262563268Y-167705013D01*
X262563268Y-167705013D02*
X253193551Y-167705013D01*
%TO.N,P18*%
X253118678Y-178258960D02*
X256669266Y-181809548D01*
X256669266Y-181809548D02*
X257463325Y-181809548D01*
%TO.N,P4*%
X237605012Y-170631682D02*
X236000000Y-169026670D01*
X236000000Y-167605206D02*
X232475700Y-164080906D01*
%TO.N,layer_cluster*%
X239353955Y-175966107D02*
X239353955Y-167098359D01*
X239353955Y-167098359D02*
X237749655Y-165494059D01*
%TO.N,P15*%
X227945754Y-168043491D02*
X225230819Y-170758426D01*
X225230819Y-170758426D02*
X225230819Y-173268864D01*
%TO.N,P14*%
X200036795Y-172051109D02*
X200031795Y-172046109D01*
X200031795Y-167576108D02*
X201306795Y-166301108D01*
X200031795Y-172046109D02*
X200031795Y-167576108D01*
%TO.N,mod_cluster*%
X210116795Y-161301109D02*
X207956795Y-161301109D01*
X214376795Y-171001109D02*
X212000000Y-168624314D01*
X212000000Y-168624314D02*
X212000000Y-163184314D01*
X212000000Y-163184314D02*
X210116795Y-161301109D01*
%TO.N,P4*%
X204656795Y-161301109D02*
X202496795Y-161301109D01*
X211306795Y-166301108D02*
X208462896Y-163457209D01*
X205500000Y-162500000D02*
X205500000Y-162144314D01*
X208462896Y-163457209D02*
X206500000Y-163457209D01*
X206500000Y-163457209D02*
X205542791Y-162500000D01*
X205500000Y-162144314D02*
X204656795Y-161301109D01*
%TO.N,P16*%
X192000000Y-151272792D02*
X194727208Y-154000000D01*
X199000000Y-154000000D02*
X199500000Y-154500000D01*
X194727208Y-154000000D02*
X199000000Y-154000000D01*
%TO.N,P10*%
X158606795Y-143301108D02*
X157500000Y-142194313D01*
X157500000Y-142194313D02*
X157500000Y-135500000D01*
X188431802Y-129568198D02*
X192500000Y-133636396D01*
X192500000Y-133636396D02*
X192500000Y-151136396D01*
X159500000Y-133500000D02*
X172636396Y-133500000D01*
X194863604Y-153500000D02*
X200500000Y-153500000D01*
X172636396Y-133500000D02*
X176568198Y-129568198D01*
X176568198Y-129568198D02*
X188431802Y-129568198D01*
%TO.N,P9*%
X137000000Y-129000000D02*
X150500000Y-129000000D01*
X150500000Y-129000000D02*
X154500000Y-133000000D01*
X154500000Y-133000000D02*
X172500000Y-133000000D01*
X188500000Y-129000000D02*
X193000000Y-133500000D01*
X172500000Y-133000000D02*
X176500000Y-129000000D01*
X193000000Y-133500000D02*
X193000000Y-151000000D01*
X176500000Y-129000000D02*
X188500000Y-129000000D01*
X194500000Y-152500000D02*
X201500000Y-152500000D01*
%TO.N,P16*%
X176336796Y-144051108D02*
X176336796Y-145336796D01*
X176336796Y-145336796D02*
X177500000Y-146500000D01*
X188977555Y-146500000D02*
X192000000Y-149522445D01*
X177500000Y-146500000D02*
X188977555Y-146500000D01*
%TO.N,P10*%
X158606796Y-124301109D02*
X157331796Y-125576109D01*
X157331796Y-125576109D02*
X157331796Y-130046108D01*
X157331796Y-130046108D02*
X157336796Y-130051108D01*
%TO.N,P9*%
X137386409Y-137445915D02*
X136500000Y-136559506D01*
X136500000Y-136559506D02*
X136500000Y-129500000D01*
X137000000Y-129000000D02*
X134966428Y-126966428D01*
X134966428Y-126966428D02*
X134966428Y-124357023D01*
X136518759Y-143181095D02*
X136518759Y-138313565D01*
X136518759Y-138313565D02*
X137386409Y-137445915D01*
%TO.N,P10*%
X157336796Y-149051108D02*
X157331796Y-149046108D01*
X157331796Y-149046108D02*
X157331796Y-144576107D01*
X157331796Y-144576107D02*
X158606795Y-143301108D01*
%TO.N,P9*%
X139042369Y-156373615D02*
X136622387Y-153953633D01*
X136622387Y-153953633D02*
X136622387Y-143284723D01*
X139042369Y-156373615D02*
X138174718Y-157241266D01*
X138174718Y-162108793D02*
X138278346Y-162212421D01*
X138174718Y-157241266D02*
X138174718Y-162108793D01*
%TO.N,pinky_bottom*%
X147383065Y-150624799D02*
X147383065Y-152883065D01*
X147383065Y-152883065D02*
X152472265Y-157972265D01*
X152472265Y-157972265D02*
X152472265Y-159916603D01*
%TO.N,P19*%
X142600669Y-151100669D02*
X144500000Y-153000000D01*
X141943842Y-151100669D02*
X142600669Y-151100669D01*
X146502259Y-153000000D02*
X149004316Y-155502057D01*
X139792061Y-151288925D02*
X141755586Y-151288925D01*
%TO.N,GND*%
X258000000Y-122000000D02*
X259250000Y-123250000D01*
X263806794Y-145401108D02*
X262901108Y-145401108D01*
X257500000Y-125000000D02*
X259250000Y-123250000D01*
X262901108Y-145401108D02*
X262000000Y-144500000D01*
X257500000Y-142772792D02*
X257500000Y-125000000D01*
X262000000Y-144500000D02*
X259227208Y-144500000D01*
%TO.N,P1*%
X237606795Y-103501108D02*
X233006795Y-103501108D01*
X236481795Y-102376108D02*
X236481795Y-99518205D01*
X237000000Y-99000000D02*
X237996677Y-99000000D01*
X237996677Y-99000000D02*
X241568198Y-102571521D01*
X247636396Y-109500000D02*
X253882504Y-115746108D01*
X241568198Y-102571521D02*
X241568198Y-107931802D01*
X243136396Y-109500000D02*
X247636396Y-109500000D01*
X253882504Y-115746108D02*
X263246108Y-115746108D01*
X264661108Y-114331108D02*
X266844795Y-114331108D01*
%TO.N,GND*%
X237606795Y-108601108D02*
X240964712Y-108601108D01*
X242863604Y-110500000D02*
X247363604Y-110500000D01*
X247363604Y-110500000D02*
X258000000Y-121136396D01*
X259366108Y-123366108D02*
X262866108Y-123366108D01*
X264281108Y-121951108D02*
X266844794Y-121951108D01*
%TO.N,VCC*%
X237606795Y-100501108D02*
X241000000Y-103894313D01*
X243000000Y-110000000D02*
X247500000Y-110000000D01*
X241000000Y-103894313D02*
X241000000Y-108000000D01*
X247500000Y-110000000D02*
X258036108Y-120536108D01*
X258036108Y-120536108D02*
X266953794Y-120536108D01*
X266953794Y-120536108D02*
X268368795Y-121951109D01*
X266346795Y-145401108D02*
X267971795Y-147026108D01*
X267971795Y-147026108D02*
X272062786Y-147026108D01*
X272062786Y-147026108D02*
X276351795Y-142737099D01*
X276351795Y-142737099D02*
X276351795Y-121485117D01*
X275692786Y-120826108D02*
X269493796Y-120826108D01*
X269493796Y-120826108D02*
X268368795Y-121951109D01*
%TO.N,P2*%
X271426795Y-145401108D02*
X270251795Y-146576108D01*
X267711795Y-144862504D02*
X266849291Y-144000000D01*
X270251795Y-146576108D02*
X268400094Y-146576108D01*
X267711795Y-145887809D02*
X267711795Y-144862504D01*
X266849291Y-144000000D02*
X259363604Y-144000000D01*
X258000000Y-142636396D02*
X258000000Y-126500000D01*
X258689892Y-125810108D02*
X265525795Y-125810108D01*
X265525795Y-125810108D02*
X266844795Y-124491108D01*
%TO.N,P3*%
X268886795Y-145401108D02*
X267000000Y-143514313D01*
X267000000Y-143500000D02*
X259500000Y-143500000D01*
X258500000Y-142500000D02*
X258500000Y-129000000D01*
X265719795Y-128156108D02*
X266844795Y-127031108D01*
X259343892Y-128156108D02*
X265719795Y-128156108D01*
%TO.N,RST*%
X272000000Y-118000000D02*
X277000000Y-118000000D01*
X268368795Y-119411108D02*
X270588892Y-119411108D01*
X277000000Y-118000000D02*
X277000000Y-155197057D01*
X277000000Y-155197057D02*
X271299942Y-160897115D01*
X271299942Y-160897115D02*
X271250001Y-160897115D01*
%TO.N,GND*%
X237606795Y-107501107D02*
X233006795Y-107501108D01*
X269000000Y-150500000D02*
X269000000Y-155000000D01*
X263806794Y-145401108D02*
X268905686Y-150500000D01*
X269000000Y-155000000D02*
X271000000Y-157000000D01*
X271000000Y-157000000D02*
X273500000Y-157000000D01*
%TD*%
M02*
