%TF.GenerationSoftware,KiCad,Pcbnew,8.0.0*%
%TF.CreationDate,2024-03-16T23:28:16+01:00*%
%TF.ProjectId,cornish-v1,636f726e-6973-4682-9d76-312e6b696361,v1.0.0*%
%TF.SameCoordinates,Original*%
%TF.FileFunction,Copper,L1,Top*%
%TF.FilePolarity,Positive*%
%FSLAX46Y46*%
G04 Gerber Fmt 4.6, Leading zero omitted, Abs format (unit mm)*
G04 Created by KiCad (PCBNEW 8.0.0) date 2024-03-16 23:28:16*
%MOMM*%
%LPD*%
G01*
G04 APERTURE LIST*
G04 Aperture macros list*
%AMRotRect*
0 Rectangle, with rotation*
0 The origin of the aperture is its center*
0 $1 length*
0 $2 width*
0 $3 Rotation angle, in degrees counterclockwise*
0 Add horizontal line*
21,1,$1,$2,0,0,$3*%
%AMFreePoly0*
4,1,5,0.125000,-0.500000,-0.125000,-0.500000,-0.125000,0.500000,0.125000,0.500000,0.125000,-0.500000,0.125000,-0.500000,$1*%
%AMFreePoly1*
4,1,6,0.600000,0.200000,0.000000,-0.400000,-0.600000,0.200000,-0.600000,0.400000,0.600000,0.400000,0.600000,0.200000,0.600000,0.200000,$1*%
%AMFreePoly2*
4,1,6,0.600000,-0.250000,-0.600000,-0.250000,-0.600000,1.000000,0.000000,0.400000,0.600000,1.000000,0.600000,-0.250000,0.600000,-0.250000,$1*%
%AMFreePoly3*
4,1,45,0.069446,4.167933,0.854389,3.386388,0.869934,3.367446,0.888598,3.322386,0.891000,0.766000,0.888598,0.741614,0.869934,0.696554,0.088388,-0.088388,0.069446,-0.103933,0.064963,-0.105789,0.062500,-0.108253,0.052631,-0.110897,0.024387,-0.122598,0.008964,-0.122598,0.000000,-0.125000,-0.008964,-0.122598,-0.024387,-0.122598,-0.052631,-0.110897,-0.062500,-0.108253,-0.064963,-0.105789,
-0.069446,-0.103933,-0.103933,-0.069446,-0.105789,-0.064963,-0.108253,-0.062500,-0.110897,-0.052631,-0.122598,-0.024387,-0.122598,-0.008964,-0.125000,0.000000,-0.122598,0.008964,-0.122598,0.024387,-0.110897,0.052631,-0.108253,0.062500,-0.105789,0.064963,-0.103933,0.069446,0.643328,0.819956,0.641045,3.249334,-0.088388,3.975612,-0.103933,3.994554,-0.122598,4.039613,-0.122598,4.088387,
-0.103933,4.133446,-0.069446,4.167933,-0.024387,4.186598,0.024387,4.186598,0.069446,4.167933,0.069446,4.167933,$1*%
%AMFreePoly4*
4,1,45,0.069446,4.167933,0.850389,3.390388,0.865934,3.371446,0.884598,3.326386,0.887000,0.762000,0.884598,0.737613,0.865934,0.692554,0.088388,-0.088388,0.069446,-0.103933,0.064963,-0.105789,0.062500,-0.108253,0.052631,-0.110897,0.024387,-0.122598,0.008964,-0.122598,0.000000,-0.125000,-0.008964,-0.122598,-0.024387,-0.122598,-0.052631,-0.110897,-0.062500,-0.108253,-0.064963,-0.105789,
-0.069446,-0.103933,-0.103933,-0.069446,-0.105789,-0.064963,-0.108253,-0.062500,-0.110897,-0.052631,-0.122598,-0.024387,-0.122598,-0.008964,-0.125000,0.000000,-0.122598,0.008964,-0.122598,0.024387,-0.110897,0.052631,-0.108253,0.062500,-0.105789,0.064963,-0.103933,0.069446,0.639328,0.815955,0.637045,3.253333,-0.088388,3.975612,-0.103933,3.994554,-0.122598,4.039613,-0.122598,4.088387,
-0.103933,4.133446,-0.069446,4.167933,-0.024387,4.186598,0.024387,4.186598,0.069446,4.167933,0.069446,4.167933,$1*%
G04 Aperture macros list end*
%ADD10C,0.300000*%
%TA.AperFunction,NonConductor*%
%ADD11C,0.300000*%
%TD*%
%TA.AperFunction,ComponentPad*%
%ADD12C,0.700000*%
%TD*%
%TA.AperFunction,ComponentPad*%
%ADD13C,4.400000*%
%TD*%
%TA.AperFunction,ComponentPad*%
%ADD14C,0.600000*%
%TD*%
%TA.AperFunction,ComponentPad*%
%ADD15C,2.100000*%
%TD*%
%TA.AperFunction,ComponentPad*%
%ADD16C,1.750000*%
%TD*%
%TA.AperFunction,ComponentPad*%
%ADD17R,1.778000X1.778000*%
%TD*%
%TA.AperFunction,SMDPad,CuDef*%
%ADD18R,0.900000X1.200000*%
%TD*%
%TA.AperFunction,ComponentPad*%
%ADD19C,1.905000*%
%TD*%
%TA.AperFunction,ComponentPad*%
%ADD20RotRect,1.778000X1.778000X5.000000*%
%TD*%
%TA.AperFunction,SMDPad,CuDef*%
%ADD21RotRect,0.900000X1.200000X5.000000*%
%TD*%
%TA.AperFunction,SMDPad,CuDef*%
%ADD22R,2.550000X2.500000*%
%TD*%
%TA.AperFunction,ComponentPad*%
%ADD23O,1.600000X2.200000*%
%TD*%
%TA.AperFunction,ComponentPad*%
%ADD24RotRect,1.778000X1.778000X60.000000*%
%TD*%
%TA.AperFunction,SMDPad,CuDef*%
%ADD25RotRect,0.900000X1.200000X60.000000*%
%TD*%
%TA.AperFunction,SMDPad,CuDef*%
%ADD26RotRect,2.550000X2.500000X5.000000*%
%TD*%
%TA.AperFunction,ComponentPad*%
%ADD27C,1.600000*%
%TD*%
%TA.AperFunction,SMDPad,CuDef*%
%ADD28FreePoly0,270.000000*%
%TD*%
%TA.AperFunction,SMDPad,CuDef*%
%ADD29FreePoly1,270.000000*%
%TD*%
%TA.AperFunction,SMDPad,CuDef*%
%ADD30FreePoly1,90.000000*%
%TD*%
%TA.AperFunction,SMDPad,CuDef*%
%ADD31FreePoly0,90.000000*%
%TD*%
%TA.AperFunction,ComponentPad*%
%ADD32R,1.600000X1.600000*%
%TD*%
%TA.AperFunction,SMDPad,CuDef*%
%ADD33FreePoly2,270.000000*%
%TD*%
%TA.AperFunction,SMDPad,CuDef*%
%ADD34FreePoly3,270.000000*%
%TD*%
%TA.AperFunction,ComponentPad*%
%ADD35C,0.800000*%
%TD*%
%TA.AperFunction,SMDPad,CuDef*%
%ADD36FreePoly4,90.000000*%
%TD*%
%TA.AperFunction,SMDPad,CuDef*%
%ADD37FreePoly2,90.000000*%
%TD*%
%TA.AperFunction,SMDPad,CuDef*%
%ADD38RotRect,2.550000X2.500000X345.000000*%
%TD*%
%TA.AperFunction,ComponentPad*%
%ADD39RotRect,1.778000X1.778000X345.000000*%
%TD*%
%TA.AperFunction,SMDPad,CuDef*%
%ADD40RotRect,0.900000X1.200000X345.000000*%
%TD*%
%TA.AperFunction,SMDPad,CuDef*%
%ADD41RotRect,2.550000X2.500000X60.000000*%
%TD*%
%TA.AperFunction,ComponentPad*%
%ADD42R,1.700000X1.700000*%
%TD*%
%TA.AperFunction,ComponentPad*%
%ADD43O,1.700000X1.700000*%
%TD*%
%TA.AperFunction,Conductor*%
%ADD44C,0.250000*%
%TD*%
G04 APERTURE END LIST*
D10*
G36*
X243057184Y-159421740D02*
G01*
X236669613Y-159421740D01*
X236669613Y-156338107D01*
X237091835Y-156338107D01*
X237098964Y-156366635D01*
X237999139Y-158878718D01*
X237999504Y-158886051D01*
X238008796Y-158905668D01*
X238016282Y-158926558D01*
X238021335Y-158932140D01*
X238024558Y-158938943D01*
X238040830Y-158953674D01*
X238055562Y-158969947D01*
X238062364Y-158973169D01*
X238067947Y-158978223D01*
X238088621Y-158985606D01*
X238108454Y-158995001D01*
X238115971Y-158995374D01*
X238123065Y-158997908D01*
X238144993Y-158996817D01*
X238166909Y-158997907D01*
X238173998Y-158995375D01*
X238181520Y-158995001D01*
X238201360Y-158985602D01*
X238222027Y-158978222D01*
X238227607Y-158973170D01*
X238234412Y-158969947D01*
X238249145Y-158953672D01*
X238265416Y-158938943D01*
X238268638Y-158932140D01*
X238273692Y-158926558D01*
X238286248Y-158899968D01*
X239198138Y-156338107D01*
X239195231Y-156279652D01*
X239170177Y-156226760D01*
X239126788Y-156187480D01*
X239071670Y-156167795D01*
X239013215Y-156170702D01*
X238960323Y-156195756D01*
X238921043Y-156239145D01*
X238908487Y-156265735D01*
X238146032Y-158407772D01*
X237368930Y-156239145D01*
X237329650Y-156195756D01*
X237276758Y-156170702D01*
X237218303Y-156167795D01*
X237163185Y-156187480D01*
X237119796Y-156226760D01*
X237094742Y-156279652D01*
X237091835Y-156338107D01*
X236669613Y-156338107D01*
X236669613Y-156116470D01*
X240167593Y-156116470D01*
X240171741Y-156174850D01*
X240197916Y-156227200D01*
X240242131Y-156265546D01*
X240297653Y-156284054D01*
X240356033Y-156279906D01*
X240383497Y-156269396D01*
X240742173Y-156087070D01*
X240761655Y-156079001D01*
X240767525Y-156074183D01*
X240770288Y-156072779D01*
X240772884Y-156069784D01*
X240784386Y-156060346D01*
X241135032Y-155705944D01*
X241146402Y-155698330D01*
X241164833Y-155675824D01*
X241164946Y-155675710D01*
X241164965Y-155675661D01*
X241165033Y-155675580D01*
X241252500Y-155543169D01*
X241254877Y-158701132D01*
X240287151Y-158702400D01*
X240233079Y-158724798D01*
X240191695Y-158766182D01*
X240169297Y-158820254D01*
X240169297Y-158878782D01*
X240191695Y-158932854D01*
X240233079Y-158974238D01*
X240287151Y-158996636D01*
X240316415Y-158999518D01*
X242517108Y-158996636D01*
X242571180Y-158974238D01*
X242612564Y-158932854D01*
X242634962Y-158878782D01*
X242634962Y-158820254D01*
X242612564Y-158766182D01*
X242571180Y-158724798D01*
X242517108Y-158702400D01*
X242487844Y-158699518D01*
X241552017Y-158700743D01*
X241549279Y-155063764D01*
X241552129Y-155049360D01*
X241549258Y-155035005D01*
X241549247Y-155020254D01*
X241543563Y-155006533D01*
X241540651Y-154991971D01*
X241532472Y-154979758D01*
X241526849Y-154966182D01*
X241516350Y-154955683D01*
X241508085Y-154943341D01*
X241495854Y-154935187D01*
X241485465Y-154924798D01*
X241471746Y-154919115D01*
X241459386Y-154910875D01*
X241444967Y-154908022D01*
X241431393Y-154902400D01*
X241416542Y-154902400D01*
X241401972Y-154899518D01*
X241387562Y-154902400D01*
X241372865Y-154902400D01*
X241359143Y-154908083D01*
X241344582Y-154910996D01*
X241332369Y-154919174D01*
X241318793Y-154924798D01*
X241308294Y-154935296D01*
X241295952Y-154943562D01*
X241277520Y-154966070D01*
X241277409Y-154966182D01*
X241277388Y-154966232D01*
X241277322Y-154966313D01*
X240933154Y-155487324D01*
X240596453Y-155827631D01*
X240224447Y-156016733D01*
X240186101Y-156060948D01*
X240167593Y-156116470D01*
X236669613Y-156116470D01*
X236669613Y-154477296D01*
X243057184Y-154477296D01*
X243057184Y-159421740D01*
G37*
D11*
X227554510Y-159300828D02*
X227554510Y-157800828D01*
X227554510Y-158372257D02*
X227697368Y-158300828D01*
X227697368Y-158300828D02*
X227983082Y-158300828D01*
X227983082Y-158300828D02*
X228125939Y-158372257D01*
X228125939Y-158372257D02*
X228197368Y-158443685D01*
X228197368Y-158443685D02*
X228268796Y-158586542D01*
X228268796Y-158586542D02*
X228268796Y-159015114D01*
X228268796Y-159015114D02*
X228197368Y-159157971D01*
X228197368Y-159157971D02*
X228125939Y-159229400D01*
X228125939Y-159229400D02*
X227983082Y-159300828D01*
X227983082Y-159300828D02*
X227697368Y-159300828D01*
X227697368Y-159300828D02*
X227554510Y-159229400D01*
X228768796Y-158300828D02*
X229125939Y-159300828D01*
X229483082Y-158300828D02*
X229125939Y-159300828D01*
X229125939Y-159300828D02*
X228983082Y-159657971D01*
X228983082Y-159657971D02*
X228911653Y-159729400D01*
X228911653Y-159729400D02*
X228768796Y-159800828D01*
X230983082Y-158300828D02*
X231554510Y-158300828D01*
X231197367Y-157800828D02*
X231197367Y-159086542D01*
X231197367Y-159086542D02*
X231268796Y-159229400D01*
X231268796Y-159229400D02*
X231411653Y-159300828D01*
X231411653Y-159300828D02*
X231554510Y-159300828D01*
X231911653Y-158300828D02*
X232197368Y-159300828D01*
X232197368Y-159300828D02*
X232483082Y-158586542D01*
X232483082Y-158586542D02*
X232768796Y-159300828D01*
X232768796Y-159300828D02*
X233054510Y-158300828D01*
X233625939Y-159300828D02*
X233625939Y-158300828D01*
X233625939Y-157800828D02*
X233554511Y-157872257D01*
X233554511Y-157872257D02*
X233625939Y-157943685D01*
X233625939Y-157943685D02*
X233697368Y-157872257D01*
X233697368Y-157872257D02*
X233625939Y-157800828D01*
X233625939Y-157800828D02*
X233625939Y-157943685D01*
X234268797Y-159229400D02*
X234411654Y-159300828D01*
X234411654Y-159300828D02*
X234697368Y-159300828D01*
X234697368Y-159300828D02*
X234840225Y-159229400D01*
X234840225Y-159229400D02*
X234911654Y-159086542D01*
X234911654Y-159086542D02*
X234911654Y-159015114D01*
X234911654Y-159015114D02*
X234840225Y-158872257D01*
X234840225Y-158872257D02*
X234697368Y-158800828D01*
X234697368Y-158800828D02*
X234483083Y-158800828D01*
X234483083Y-158800828D02*
X234340225Y-158729400D01*
X234340225Y-158729400D02*
X234268797Y-158586542D01*
X234268797Y-158586542D02*
X234268797Y-158515114D01*
X234268797Y-158515114D02*
X234340225Y-158372257D01*
X234340225Y-158372257D02*
X234483083Y-158300828D01*
X234483083Y-158300828D02*
X234697368Y-158300828D01*
X234697368Y-158300828D02*
X234840225Y-158372257D01*
X235554511Y-159300828D02*
X235554511Y-157800828D01*
X236197369Y-159300828D02*
X236197369Y-158515114D01*
X236197369Y-158515114D02*
X236125940Y-158372257D01*
X236125940Y-158372257D02*
X235983083Y-158300828D01*
X235983083Y-158300828D02*
X235768797Y-158300828D01*
X235768797Y-158300828D02*
X235625940Y-158372257D01*
X235625940Y-158372257D02*
X235554511Y-158443685D01*
D10*
G36*
X231390977Y-155491680D02*
G01*
X231429643Y-155528671D01*
X231476138Y-155618222D01*
X231478389Y-155975855D01*
X231435086Y-156065867D01*
X231398095Y-156104532D01*
X231308368Y-156151119D01*
X231093370Y-156153086D01*
X231060402Y-156137226D01*
X231059134Y-155464676D01*
X231086369Y-155450536D01*
X231301365Y-155448569D01*
X231390977Y-155491680D01*
G37*
G36*
X232748120Y-155491680D02*
G01*
X232786786Y-155528671D01*
X232833281Y-155618222D01*
X232835532Y-155975855D01*
X232792229Y-156065867D01*
X232755238Y-156104532D01*
X232665511Y-156151119D01*
X232450513Y-156153086D01*
X232417545Y-156137226D01*
X232416277Y-155464676D01*
X232443512Y-155450536D01*
X232658508Y-155448569D01*
X232748120Y-155491680D01*
G37*
G36*
X220533834Y-155491680D02*
G01*
X220572500Y-155528671D01*
X220618995Y-155618222D01*
X220621246Y-155975855D01*
X220577943Y-156065867D01*
X220540952Y-156104532D01*
X220451056Y-156151206D01*
X220307284Y-156152908D01*
X220218042Y-156109975D01*
X220179377Y-156072984D01*
X220132882Y-155983434D01*
X220130631Y-155625800D01*
X220173934Y-155535788D01*
X220210923Y-155497125D01*
X220300823Y-155450449D01*
X220444593Y-155448747D01*
X220533834Y-155491680D01*
G37*
G36*
X236013996Y-155482136D02*
G01*
X236042235Y-155536524D01*
X235630846Y-155620431D01*
X235630530Y-155554583D01*
X235664390Y-155484199D01*
X235729227Y-155450536D01*
X235944223Y-155448569D01*
X236013996Y-155482136D01*
G37*
G36*
X236514037Y-157114613D02*
G01*
X218166415Y-157114613D01*
X218166415Y-155443685D01*
X218333082Y-155443685D01*
X218335523Y-155650042D01*
X218333259Y-155665262D01*
X218335916Y-155683232D01*
X218335964Y-155687235D01*
X218336811Y-155689279D01*
X218337561Y-155694351D01*
X218408818Y-155968971D01*
X218409837Y-155983304D01*
X218418225Y-156005224D01*
X218418882Y-156007756D01*
X218419526Y-156008626D01*
X218420346Y-156010767D01*
X218494356Y-156153310D01*
X218501218Y-156169877D01*
X218505953Y-156175647D01*
X218507440Y-156178510D01*
X218510433Y-156181106D01*
X218519873Y-156192608D01*
X218648790Y-156318353D01*
X218650297Y-156321367D01*
X218664582Y-156333757D01*
X218685460Y-156354121D01*
X218690439Y-156356183D01*
X218694511Y-156359715D01*
X218721362Y-156371703D01*
X218935991Y-156440561D01*
X218953818Y-156447946D01*
X218961306Y-156448683D01*
X218964322Y-156449651D01*
X218968276Y-156449369D01*
X218983082Y-156450828D01*
X219127289Y-156448413D01*
X219144699Y-156449651D01*
X219151958Y-156448000D01*
X219155203Y-156447946D01*
X219158860Y-156446430D01*
X219173373Y-156443131D01*
X219365936Y-156376518D01*
X219369489Y-156376518D01*
X219387483Y-156369064D01*
X219414510Y-156359715D01*
X219418583Y-156356181D01*
X219423561Y-156354120D01*
X219446292Y-156335465D01*
X219536374Y-156241306D01*
X219558771Y-156187233D01*
X219558770Y-156128707D01*
X219536373Y-156074635D01*
X219494987Y-156033250D01*
X219440915Y-156010853D01*
X219382389Y-156010854D01*
X219328317Y-156033251D01*
X219305586Y-156051906D01*
X219261594Y-156097888D01*
X219107674Y-156151133D01*
X219012447Y-156152728D01*
X218852332Y-156101359D01*
X218751623Y-156003127D01*
X218698192Y-155900220D01*
X218632974Y-155648873D01*
X218632236Y-155586542D01*
X219833082Y-155586542D01*
X219835635Y-155992225D01*
X219834260Y-155996352D01*
X219835797Y-156017997D01*
X219835964Y-156044378D01*
X219838026Y-156049356D01*
X219838408Y-156054732D01*
X219848918Y-156082196D01*
X219922926Y-156224737D01*
X219929789Y-156241306D01*
X219934524Y-156247076D01*
X219936011Y-156249939D01*
X219939004Y-156252535D01*
X219948444Y-156264037D01*
X220023599Y-156335938D01*
X220033972Y-156347899D01*
X220040195Y-156351816D01*
X220042604Y-156354121D01*
X220046265Y-156355637D01*
X220058857Y-156363564D01*
X220183382Y-156423470D01*
X220185460Y-156425548D01*
X220201582Y-156432226D01*
X220229178Y-156445502D01*
X220234553Y-156445883D01*
X220239532Y-156447946D01*
X220268796Y-156450828D01*
X220461029Y-156448553D01*
X220464320Y-156449650D01*
X220483498Y-156448287D01*
X220512346Y-156447946D01*
X220517324Y-156445883D01*
X220522700Y-156445502D01*
X220550164Y-156434992D01*
X220692705Y-156360983D01*
X220709274Y-156354121D01*
X220715044Y-156349385D01*
X220717907Y-156347899D01*
X220720503Y-156344905D01*
X220732005Y-156335466D01*
X220803906Y-156260310D01*
X220815867Y-156249938D01*
X220819784Y-156243714D01*
X220822089Y-156241306D01*
X220823605Y-156237644D01*
X220831532Y-156225053D01*
X220891438Y-156100527D01*
X220893516Y-156098450D01*
X220900194Y-156082327D01*
X220913470Y-156054732D01*
X220913851Y-156049356D01*
X220915914Y-156044378D01*
X220918796Y-156015114D01*
X220916242Y-155609431D01*
X220917618Y-155605304D01*
X220916080Y-155583658D01*
X220915914Y-155557278D01*
X220913851Y-155552299D01*
X220913470Y-155546924D01*
X220902960Y-155519461D01*
X220828951Y-155376918D01*
X220822088Y-155360349D01*
X220817352Y-155354578D01*
X220815867Y-155351718D01*
X220812875Y-155349123D01*
X220803433Y-155337618D01*
X220764978Y-155300828D01*
X221261653Y-155300828D01*
X221264535Y-156330092D01*
X221286933Y-156384164D01*
X221328317Y-156425548D01*
X221382389Y-156447946D01*
X221440917Y-156447946D01*
X221494989Y-156425548D01*
X221536373Y-156384164D01*
X221558771Y-156330092D01*
X221561653Y-156300828D01*
X221559759Y-155624642D01*
X221602505Y-155535789D01*
X221639495Y-155497125D01*
X221729708Y-155450286D01*
X221869489Y-155447946D01*
X221923561Y-155425548D01*
X221964945Y-155384164D01*
X221987343Y-155330092D01*
X221987343Y-155300828D01*
X222190224Y-155300828D01*
X222193106Y-156330092D01*
X222215504Y-156384164D01*
X222256888Y-156425548D01*
X222310960Y-156447946D01*
X222369488Y-156447946D01*
X222423560Y-156425548D01*
X222464944Y-156384164D01*
X222487342Y-156330092D01*
X222490224Y-156300828D01*
X222487998Y-155506155D01*
X222496637Y-155497125D01*
X222586537Y-155450449D01*
X222730307Y-155448747D01*
X222799709Y-155482136D01*
X222833193Y-155546625D01*
X222835964Y-156330092D01*
X222858362Y-156384164D01*
X222899746Y-156425548D01*
X222953818Y-156447946D01*
X223012346Y-156447946D01*
X223066418Y-156425548D01*
X223107802Y-156384164D01*
X223130200Y-156330092D01*
X223133082Y-156300828D01*
X223130385Y-155538429D01*
X223131904Y-155533875D01*
X223130289Y-155511157D01*
X223130200Y-155485850D01*
X223128136Y-155480869D01*
X223127755Y-155475495D01*
X223117246Y-155448031D01*
X223046689Y-155312139D01*
X223042919Y-155300828D01*
X223547367Y-155300828D01*
X223550249Y-156330092D01*
X223572647Y-156384164D01*
X223614031Y-156425548D01*
X223668103Y-156447946D01*
X223726631Y-156447946D01*
X223780703Y-156425548D01*
X223822087Y-156384164D01*
X223844485Y-156330092D01*
X223847367Y-156300828D01*
X223845167Y-155515114D01*
X224190225Y-155515114D01*
X224191706Y-155566869D01*
X224191403Y-155567780D01*
X224191954Y-155575543D01*
X224193107Y-155615806D01*
X224195169Y-155620784D01*
X224195551Y-155626160D01*
X224206061Y-155653623D01*
X224276614Y-155789510D01*
X224281339Y-155803685D01*
X224287903Y-155811253D01*
X224293154Y-155821367D01*
X224307360Y-155833688D01*
X224319686Y-155847900D01*
X224334490Y-155857218D01*
X224337368Y-155859714D01*
X224339679Y-155860484D01*
X224344572Y-155863564D01*
X224469097Y-155923470D01*
X224471175Y-155925548D01*
X224487297Y-155932226D01*
X224514893Y-155945502D01*
X224520268Y-155945883D01*
X224525247Y-155947946D01*
X224554511Y-155950828D01*
X224730307Y-155948747D01*
X224799709Y-155982136D01*
X224834030Y-156048237D01*
X224834088Y-156050284D01*
X224801772Y-156117457D01*
X224736939Y-156151119D01*
X224521941Y-156153086D01*
X224379843Y-156084726D01*
X224321463Y-156080578D01*
X224265941Y-156099086D01*
X224221726Y-156137433D01*
X224195551Y-156189782D01*
X224191403Y-156248162D01*
X224209911Y-156303684D01*
X224248258Y-156347899D01*
X224273143Y-156363564D01*
X224397668Y-156423470D01*
X224399746Y-156425548D01*
X224415868Y-156432226D01*
X224443464Y-156445502D01*
X224448839Y-156445883D01*
X224453818Y-156447946D01*
X224483082Y-156450828D01*
X224746341Y-156448419D01*
X224750034Y-156449650D01*
X224770462Y-156448198D01*
X224798060Y-156447946D01*
X224803038Y-156445883D01*
X224808414Y-156445502D01*
X224835878Y-156434992D01*
X224971768Y-156364437D01*
X224985937Y-156359714D01*
X224993502Y-156353152D01*
X225003621Y-156347899D01*
X225015943Y-156333690D01*
X225030152Y-156321368D01*
X225039474Y-156306558D01*
X225041967Y-156303684D01*
X225042736Y-156301376D01*
X225045817Y-156296482D01*
X225105725Y-156171954D01*
X225107802Y-156169878D01*
X225114478Y-156153760D01*
X225127756Y-156126161D01*
X225128138Y-156120783D01*
X225130200Y-156115806D01*
X225133082Y-156086542D01*
X225131600Y-156034785D01*
X225131904Y-156033875D01*
X225131352Y-156026113D01*
X225130200Y-155985850D01*
X225128136Y-155980869D01*
X225127755Y-155975495D01*
X225117246Y-155948031D01*
X225046689Y-155812139D01*
X225041967Y-155797973D01*
X225035405Y-155790407D01*
X225030152Y-155780289D01*
X225015942Y-155767965D01*
X225003621Y-155753758D01*
X224988815Y-155744438D01*
X224985937Y-155741942D01*
X224983625Y-155741171D01*
X224978735Y-155738093D01*
X224854210Y-155678186D01*
X224852132Y-155676108D01*
X224836000Y-155669426D01*
X224808415Y-155656155D01*
X224803040Y-155655773D01*
X224798060Y-155653710D01*
X224768796Y-155650828D01*
X224592999Y-155652908D01*
X224523596Y-155619520D01*
X224489276Y-155553419D01*
X224489218Y-155551370D01*
X224521532Y-155484199D01*
X224586537Y-155450449D01*
X224730307Y-155448747D01*
X224872034Y-155516930D01*
X224930414Y-155521079D01*
X224985936Y-155502572D01*
X225030152Y-155464225D01*
X225056326Y-155411876D01*
X225060475Y-155353496D01*
X225041967Y-155297973D01*
X225003621Y-155253758D01*
X224978735Y-155238093D01*
X224854210Y-155178186D01*
X224852132Y-155176108D01*
X224836000Y-155169426D01*
X224808415Y-155156155D01*
X224803040Y-155155773D01*
X224798060Y-155153710D01*
X224768796Y-155150828D01*
X224576562Y-155153102D01*
X224573272Y-155152006D01*
X224554093Y-155153368D01*
X224525247Y-155153710D01*
X224520269Y-155155771D01*
X224514892Y-155156154D01*
X224487429Y-155166664D01*
X224351537Y-155237220D01*
X224337369Y-155241943D01*
X224329803Y-155248504D01*
X224319685Y-155253758D01*
X224307362Y-155267966D01*
X224293154Y-155280289D01*
X224283831Y-155295098D01*
X224281339Y-155297973D01*
X224280569Y-155300280D01*
X224277489Y-155305175D01*
X224217582Y-155429700D01*
X224215505Y-155431778D01*
X224208826Y-155447900D01*
X224195551Y-155475496D01*
X224195169Y-155480871D01*
X224193107Y-155485850D01*
X224190225Y-155515114D01*
X223845167Y-155515114D01*
X223844485Y-155271564D01*
X223822087Y-155217492D01*
X223780703Y-155176108D01*
X223726631Y-155153710D01*
X223668103Y-155153710D01*
X223614031Y-155176108D01*
X223572647Y-155217492D01*
X223550249Y-155271564D01*
X223547367Y-155300828D01*
X223042919Y-155300828D01*
X223041967Y-155297973D01*
X223035405Y-155290407D01*
X223030152Y-155280289D01*
X223015942Y-155267965D01*
X223003621Y-155253758D01*
X222988815Y-155244438D01*
X222985937Y-155241942D01*
X222983625Y-155241171D01*
X222978735Y-155238093D01*
X222854210Y-155178186D01*
X222852132Y-155176108D01*
X222836000Y-155169426D01*
X222808415Y-155156155D01*
X222803040Y-155155773D01*
X222798060Y-155153710D01*
X222768796Y-155150828D01*
X222576561Y-155153102D01*
X222573271Y-155152006D01*
X222554098Y-155153368D01*
X222525246Y-155153710D01*
X222520265Y-155155773D01*
X222514891Y-155156155D01*
X222487427Y-155166664D01*
X222439171Y-155191719D01*
X222423560Y-155176108D01*
X222369488Y-155153710D01*
X222310960Y-155153710D01*
X222256888Y-155176108D01*
X222215504Y-155217492D01*
X222193106Y-155271564D01*
X222190224Y-155300828D01*
X221987343Y-155300828D01*
X221987343Y-155271564D01*
X221964945Y-155217492D01*
X221923561Y-155176108D01*
X221869489Y-155153710D01*
X221840225Y-155150828D01*
X221718699Y-155152862D01*
X221716129Y-155152006D01*
X221699564Y-155153183D01*
X221668104Y-155153710D01*
X221663123Y-155155773D01*
X221657749Y-155156155D01*
X221630285Y-155166664D01*
X221535012Y-155216131D01*
X221494989Y-155176108D01*
X221440917Y-155153710D01*
X221382389Y-155153710D01*
X221328317Y-155176108D01*
X221286933Y-155217492D01*
X221264535Y-155271564D01*
X221261653Y-155300828D01*
X220764978Y-155300828D01*
X220728286Y-155265725D01*
X220717907Y-155253758D01*
X220711678Y-155249837D01*
X220709273Y-155247536D01*
X220705616Y-155246021D01*
X220693021Y-155238093D01*
X220568496Y-155178186D01*
X220566418Y-155176108D01*
X220550286Y-155169426D01*
X220522701Y-155156155D01*
X220517326Y-155155773D01*
X220512346Y-155153710D01*
X220483082Y-155150828D01*
X220290847Y-155153102D01*
X220287557Y-155152006D01*
X220268384Y-155153368D01*
X220239532Y-155153710D01*
X220234551Y-155155773D01*
X220229177Y-155156155D01*
X220201713Y-155166664D01*
X220059169Y-155240674D01*
X220042604Y-155247536D01*
X220036833Y-155252271D01*
X220033971Y-155253758D01*
X220031374Y-155256751D01*
X220019874Y-155266190D01*
X219947976Y-155341339D01*
X219936011Y-155351717D01*
X219932092Y-155357942D01*
X219929790Y-155360349D01*
X219928274Y-155364007D01*
X219920346Y-155376603D01*
X219860439Y-155501128D01*
X219858362Y-155503206D01*
X219851683Y-155519328D01*
X219838408Y-155546924D01*
X219838026Y-155552299D01*
X219835964Y-155557278D01*
X219833082Y-155586542D01*
X218632236Y-155586542D01*
X218630865Y-155470660D01*
X218691225Y-155219749D01*
X218745108Y-155107746D01*
X218846071Y-155004236D01*
X219001343Y-154950522D01*
X219096575Y-154948927D01*
X219257348Y-155000508D01*
X219328317Y-155068406D01*
X219382390Y-155090802D01*
X219440916Y-155090802D01*
X219494988Y-155068406D01*
X219536374Y-155027020D01*
X219558770Y-154972948D01*
X219558770Y-154914422D01*
X219553426Y-154901520D01*
X223478821Y-154901520D01*
X223501218Y-154955592D01*
X223519873Y-154978323D01*
X223614031Y-155068406D01*
X223636428Y-155077682D01*
X223668103Y-155090803D01*
X223726631Y-155090803D01*
X223764865Y-155074965D01*
X223780702Y-155068406D01*
X223780706Y-155068401D01*
X223803432Y-155049752D01*
X223893516Y-154955593D01*
X223893517Y-154955592D01*
X223915914Y-154901520D01*
X223915914Y-154842994D01*
X223898449Y-154800828D01*
X225475939Y-154800828D01*
X225478821Y-156330092D01*
X225501219Y-156384164D01*
X225542603Y-156425548D01*
X225596675Y-156447946D01*
X225655203Y-156447946D01*
X225709275Y-156425548D01*
X225750659Y-156384164D01*
X225773057Y-156330092D01*
X225775939Y-156300828D01*
X225774439Y-155505396D01*
X225782352Y-155497125D01*
X225872252Y-155450449D01*
X226016022Y-155448747D01*
X226085424Y-155482136D01*
X226118908Y-155546625D01*
X226121679Y-156330092D01*
X226144077Y-156384164D01*
X226185461Y-156425548D01*
X226239533Y-156447946D01*
X226298061Y-156447946D01*
X226352133Y-156425548D01*
X226393517Y-156384164D01*
X226415915Y-156330092D01*
X226418797Y-156300828D01*
X226416100Y-155538429D01*
X226417619Y-155533875D01*
X226416004Y-155511157D01*
X226415915Y-155485850D01*
X226413851Y-155480869D01*
X226413470Y-155475495D01*
X226402961Y-155448031D01*
X226332404Y-155312139D01*
X226327682Y-155297973D01*
X226321120Y-155290407D01*
X226315867Y-155280289D01*
X226301657Y-155267965D01*
X226289336Y-155253758D01*
X226274530Y-155244438D01*
X226271652Y-155241942D01*
X226269340Y-155241171D01*
X226264450Y-155238093D01*
X226139925Y-155178186D01*
X226137847Y-155176108D01*
X226121715Y-155169426D01*
X226094130Y-155156155D01*
X226088755Y-155155773D01*
X226083775Y-155153710D01*
X226054511Y-155150828D01*
X225862276Y-155153102D01*
X225858986Y-155152006D01*
X225839813Y-155153368D01*
X225810961Y-155153710D01*
X225805980Y-155155773D01*
X225800606Y-155156155D01*
X225773801Y-155166411D01*
X225773112Y-154800828D01*
X227975939Y-154800828D01*
X227978821Y-156330092D01*
X228001219Y-156384164D01*
X228042603Y-156425548D01*
X228096675Y-156447946D01*
X228155203Y-156447946D01*
X228209275Y-156425548D01*
X228250659Y-156384164D01*
X228273057Y-156330092D01*
X228275939Y-156300828D01*
X228274739Y-155664303D01*
X228655203Y-155662232D01*
X228709275Y-155639834D01*
X228750659Y-155598450D01*
X228773057Y-155544378D01*
X228773057Y-155485850D01*
X228750659Y-155431778D01*
X228709275Y-155390394D01*
X228655203Y-155367996D01*
X228625939Y-155365114D01*
X228274179Y-155367029D01*
X228273393Y-154950256D01*
X228869489Y-154947946D01*
X228923561Y-154925548D01*
X228964945Y-154884164D01*
X228987343Y-154830092D01*
X228987343Y-154800828D01*
X229261653Y-154800828D01*
X229264419Y-156063015D01*
X229262831Y-156067780D01*
X229264480Y-156090997D01*
X229264535Y-156115806D01*
X229266596Y-156120783D01*
X229266979Y-156126161D01*
X229277489Y-156153624D01*
X229348045Y-156289515D01*
X229352768Y-156303684D01*
X229359329Y-156311249D01*
X229364583Y-156321368D01*
X229378794Y-156333692D01*
X229391115Y-156347899D01*
X229405922Y-156357220D01*
X229408798Y-156359714D01*
X229411106Y-156360483D01*
X229416000Y-156363564D01*
X229586321Y-156445502D01*
X229644701Y-156449650D01*
X229700224Y-156431142D01*
X229744439Y-156392795D01*
X229770613Y-156340446D01*
X229774761Y-156282066D01*
X229756253Y-156226544D01*
X229717907Y-156182329D01*
X229693021Y-156166664D01*
X229595024Y-156119520D01*
X229561584Y-156055112D01*
X229559931Y-155300828D01*
X230047367Y-155300828D01*
X230050249Y-156330092D01*
X230072647Y-156384164D01*
X230114031Y-156425548D01*
X230168103Y-156447946D01*
X230226631Y-156447946D01*
X230280703Y-156425548D01*
X230322087Y-156384164D01*
X230344485Y-156330092D01*
X230347367Y-156300828D01*
X230344567Y-155300828D01*
X230761653Y-155300828D01*
X230763422Y-156239835D01*
X230762831Y-156248162D01*
X230763441Y-156249994D01*
X230764535Y-156830092D01*
X230786933Y-156884164D01*
X230828317Y-156925548D01*
X230882389Y-156947946D01*
X230940917Y-156947946D01*
X230994989Y-156925548D01*
X231036373Y-156884164D01*
X231058771Y-156830092D01*
X231061653Y-156800828D01*
X231060993Y-156450768D01*
X231317770Y-156448419D01*
X231321463Y-156449650D01*
X231341891Y-156448198D01*
X231369489Y-156447946D01*
X231374467Y-156445883D01*
X231379843Y-156445502D01*
X231407307Y-156434992D01*
X231549848Y-156360983D01*
X231566417Y-156354121D01*
X231572187Y-156349385D01*
X231575050Y-156347899D01*
X231577646Y-156344905D01*
X231589148Y-156335466D01*
X231661049Y-156260310D01*
X231673010Y-156249938D01*
X231676927Y-156243714D01*
X231679232Y-156241306D01*
X231680748Y-156237644D01*
X231688675Y-156225053D01*
X231748581Y-156100527D01*
X231750659Y-156098450D01*
X231757337Y-156082327D01*
X231770613Y-156054732D01*
X231770994Y-156049356D01*
X231773057Y-156044378D01*
X231775939Y-156015114D01*
X231773385Y-155609431D01*
X231774761Y-155605304D01*
X231773223Y-155583658D01*
X231773057Y-155557278D01*
X231770994Y-155552299D01*
X231770613Y-155546924D01*
X231760103Y-155519461D01*
X231686094Y-155376918D01*
X231679231Y-155360349D01*
X231674495Y-155354578D01*
X231673010Y-155351718D01*
X231670018Y-155349123D01*
X231660576Y-155337618D01*
X231622121Y-155300828D01*
X232118796Y-155300828D01*
X232120565Y-156239835D01*
X232119974Y-156248162D01*
X232120584Y-156249994D01*
X232121678Y-156830092D01*
X232144076Y-156884164D01*
X232185460Y-156925548D01*
X232239532Y-156947946D01*
X232298060Y-156947946D01*
X232352132Y-156925548D01*
X232393516Y-156884164D01*
X232415914Y-156830092D01*
X232418796Y-156800828D01*
X232418136Y-156450768D01*
X232674913Y-156448419D01*
X232678606Y-156449650D01*
X232699034Y-156448198D01*
X232726632Y-156447946D01*
X232731610Y-156445883D01*
X232736986Y-156445502D01*
X232764450Y-156434992D01*
X232906991Y-156360983D01*
X232923560Y-156354121D01*
X232929330Y-156349385D01*
X232932193Y-156347899D01*
X232934789Y-156344905D01*
X232946291Y-156335466D01*
X233018192Y-156260310D01*
X233030153Y-156249938D01*
X233034070Y-156243714D01*
X233036375Y-156241306D01*
X233037891Y-156237644D01*
X233045818Y-156225053D01*
X233105724Y-156100527D01*
X233107802Y-156098450D01*
X233114480Y-156082327D01*
X233127756Y-156054732D01*
X233128137Y-156049356D01*
X233130200Y-156044378D01*
X233133082Y-156015114D01*
X233130528Y-155609431D01*
X233131904Y-155605304D01*
X233130366Y-155583658D01*
X233130200Y-155557278D01*
X233128137Y-155552299D01*
X233127756Y-155546924D01*
X233117246Y-155519461D01*
X233114989Y-155515114D01*
X233404511Y-155515114D01*
X233405992Y-155566869D01*
X233405689Y-155567780D01*
X233406240Y-155575543D01*
X233407393Y-155615806D01*
X233409455Y-155620784D01*
X233409837Y-155626160D01*
X233420347Y-155653623D01*
X233490900Y-155789510D01*
X233495625Y-155803685D01*
X233502189Y-155811253D01*
X233507440Y-155821367D01*
X233521646Y-155833688D01*
X233533972Y-155847900D01*
X233548776Y-155857218D01*
X233551654Y-155859714D01*
X233553965Y-155860484D01*
X233558858Y-155863564D01*
X233683383Y-155923470D01*
X233685461Y-155925548D01*
X233701583Y-155932226D01*
X233729179Y-155945502D01*
X233734554Y-155945883D01*
X233739533Y-155947946D01*
X233768797Y-155950828D01*
X233944593Y-155948747D01*
X234013995Y-155982136D01*
X234048316Y-156048237D01*
X234048374Y-156050284D01*
X234016058Y-156117457D01*
X233951225Y-156151119D01*
X233736227Y-156153086D01*
X233594129Y-156084726D01*
X233535749Y-156080578D01*
X233480227Y-156099086D01*
X233436012Y-156137433D01*
X233409837Y-156189782D01*
X233405689Y-156248162D01*
X233424197Y-156303684D01*
X233462544Y-156347899D01*
X233487429Y-156363564D01*
X233611954Y-156423470D01*
X233614032Y-156425548D01*
X233630154Y-156432226D01*
X233657750Y-156445502D01*
X233663125Y-156445883D01*
X233668104Y-156447946D01*
X233697368Y-156450828D01*
X233960627Y-156448419D01*
X233964320Y-156449650D01*
X233984748Y-156448198D01*
X234012346Y-156447946D01*
X234017324Y-156445883D01*
X234022700Y-156445502D01*
X234050164Y-156434992D01*
X234186054Y-156364437D01*
X234200223Y-156359714D01*
X234207788Y-156353152D01*
X234217907Y-156347899D01*
X234230229Y-156333690D01*
X234244438Y-156321368D01*
X234253760Y-156306558D01*
X234256253Y-156303684D01*
X234257022Y-156301376D01*
X234260103Y-156296482D01*
X234320011Y-156171954D01*
X234322088Y-156169878D01*
X234328764Y-156153760D01*
X234342042Y-156126161D01*
X234342424Y-156120783D01*
X234344486Y-156115806D01*
X234347368Y-156086542D01*
X234345886Y-156034785D01*
X234346190Y-156033875D01*
X234345638Y-156026113D01*
X234344486Y-155985850D01*
X234342422Y-155980869D01*
X234342041Y-155975495D01*
X234331532Y-155948031D01*
X234260975Y-155812139D01*
X234256253Y-155797973D01*
X234249691Y-155790407D01*
X234244438Y-155780289D01*
X234230228Y-155767965D01*
X234217907Y-155753758D01*
X234203101Y-155744438D01*
X234200223Y-155741942D01*
X234197911Y-155741171D01*
X234193021Y-155738093D01*
X234068496Y-155678186D01*
X234066418Y-155676108D01*
X234050286Y-155669426D01*
X234022701Y-155656155D01*
X234017326Y-155655773D01*
X234012346Y-155653710D01*
X233983082Y-155650828D01*
X233807285Y-155652908D01*
X233737882Y-155619520D01*
X233703562Y-155553419D01*
X233703504Y-155551370D01*
X233735818Y-155484199D01*
X233800823Y-155450449D01*
X233944593Y-155448747D01*
X234086320Y-155516930D01*
X234144700Y-155521079D01*
X234200222Y-155502572D01*
X234244438Y-155464225D01*
X234270612Y-155411876D01*
X234274761Y-155353496D01*
X234257205Y-155300828D01*
X234690225Y-155300828D01*
X234693107Y-156330092D01*
X234715505Y-156384164D01*
X234756889Y-156425548D01*
X234810961Y-156447946D01*
X234869489Y-156447946D01*
X234923561Y-156425548D01*
X234964945Y-156384164D01*
X234987343Y-156330092D01*
X234990225Y-156300828D01*
X234988825Y-155800984D01*
X235333083Y-155800984D01*
X235334488Y-155808010D01*
X235335713Y-156063422D01*
X235334261Y-156067780D01*
X235335841Y-156090021D01*
X235335965Y-156115806D01*
X235338027Y-156120784D01*
X235338409Y-156126160D01*
X235348919Y-156153623D01*
X235419472Y-156289510D01*
X235424197Y-156303685D01*
X235430761Y-156311253D01*
X235436012Y-156321367D01*
X235450218Y-156333688D01*
X235462544Y-156347900D01*
X235477348Y-156357218D01*
X235480226Y-156359714D01*
X235482537Y-156360484D01*
X235487430Y-156363564D01*
X235611955Y-156423470D01*
X235614033Y-156425548D01*
X235630155Y-156432226D01*
X235657751Y-156445502D01*
X235663126Y-156445883D01*
X235668105Y-156447946D01*
X235697369Y-156450828D01*
X235960628Y-156448419D01*
X235964321Y-156449650D01*
X235984749Y-156448198D01*
X236012347Y-156447946D01*
X236017325Y-156445883D01*
X236022701Y-156445502D01*
X236050165Y-156434992D01*
X236217908Y-156347899D01*
X236256254Y-156303684D01*
X236274762Y-156248162D01*
X236270614Y-156189782D01*
X236244440Y-156137433D01*
X236200225Y-156099086D01*
X236144702Y-156080578D01*
X236086322Y-156084726D01*
X236058859Y-156095236D01*
X235951226Y-156151119D01*
X235736228Y-156153086D01*
X235666454Y-156119520D01*
X235632931Y-156054953D01*
X235632300Y-155923480D01*
X236212771Y-155805089D01*
X236226633Y-155805089D01*
X236240078Y-155799519D01*
X236254917Y-155796493D01*
X236267128Y-155788314D01*
X236280705Y-155782691D01*
X236291206Y-155772189D01*
X236303547Y-155763925D01*
X236311699Y-155751697D01*
X236322089Y-155741307D01*
X236327771Y-155727587D01*
X236336011Y-155715229D01*
X236338863Y-155700811D01*
X236344487Y-155687235D01*
X236347369Y-155657971D01*
X236347366Y-155657830D01*
X236347370Y-155657814D01*
X236347366Y-155657794D01*
X236345334Y-155536445D01*
X236346191Y-155533875D01*
X236345013Y-155517310D01*
X236344487Y-155485850D01*
X236342423Y-155480869D01*
X236342042Y-155475495D01*
X236331533Y-155448031D01*
X236260976Y-155312139D01*
X236256254Y-155297973D01*
X236249692Y-155290407D01*
X236244439Y-155280289D01*
X236230229Y-155267965D01*
X236217908Y-155253758D01*
X236203102Y-155244438D01*
X236200224Y-155241942D01*
X236197912Y-155241171D01*
X236193022Y-155238093D01*
X236068497Y-155178186D01*
X236066419Y-155176108D01*
X236050287Y-155169426D01*
X236022702Y-155156155D01*
X236017327Y-155155773D01*
X236012347Y-155153710D01*
X235983083Y-155150828D01*
X235719822Y-155153236D01*
X235716130Y-155152006D01*
X235695701Y-155153457D01*
X235668105Y-155153710D01*
X235663127Y-155155771D01*
X235657750Y-155156154D01*
X235630287Y-155166664D01*
X235494395Y-155237220D01*
X235480227Y-155241943D01*
X235472661Y-155248504D01*
X235462543Y-155253758D01*
X235450220Y-155267966D01*
X235436012Y-155280289D01*
X235426689Y-155295098D01*
X235424197Y-155297973D01*
X235423427Y-155300280D01*
X235420347Y-155305175D01*
X235360440Y-155429700D01*
X235358363Y-155431778D01*
X235351684Y-155447900D01*
X235338409Y-155475496D01*
X235338027Y-155480871D01*
X235335965Y-155485850D01*
X235333083Y-155515114D01*
X235334422Y-155794215D01*
X235333083Y-155800984D01*
X234988825Y-155800984D01*
X234987343Y-155271564D01*
X234964945Y-155217492D01*
X234923561Y-155176108D01*
X234869489Y-155153710D01*
X234810961Y-155153710D01*
X234756889Y-155176108D01*
X234715505Y-155217492D01*
X234693107Y-155271564D01*
X234690225Y-155300828D01*
X234257205Y-155300828D01*
X234256253Y-155297973D01*
X234217907Y-155253758D01*
X234193021Y-155238093D01*
X234068496Y-155178186D01*
X234066418Y-155176108D01*
X234050286Y-155169426D01*
X234022701Y-155156155D01*
X234017326Y-155155773D01*
X234012346Y-155153710D01*
X233983082Y-155150828D01*
X233790848Y-155153102D01*
X233787558Y-155152006D01*
X233768379Y-155153368D01*
X233739533Y-155153710D01*
X233734555Y-155155771D01*
X233729178Y-155156154D01*
X233701715Y-155166664D01*
X233565823Y-155237220D01*
X233551655Y-155241943D01*
X233544089Y-155248504D01*
X233533971Y-155253758D01*
X233521648Y-155267966D01*
X233507440Y-155280289D01*
X233498117Y-155295098D01*
X233495625Y-155297973D01*
X233494855Y-155300280D01*
X233491775Y-155305175D01*
X233431868Y-155429700D01*
X233429791Y-155431778D01*
X233423112Y-155447900D01*
X233409837Y-155475496D01*
X233409455Y-155480871D01*
X233407393Y-155485850D01*
X233404511Y-155515114D01*
X233114989Y-155515114D01*
X233043237Y-155376918D01*
X233036374Y-155360349D01*
X233031638Y-155354578D01*
X233030153Y-155351718D01*
X233027161Y-155349123D01*
X233017719Y-155337618D01*
X232942572Y-155265725D01*
X232932193Y-155253758D01*
X232925964Y-155249837D01*
X232923559Y-155247536D01*
X232919902Y-155246021D01*
X232907307Y-155238093D01*
X232782782Y-155178186D01*
X232780704Y-155176108D01*
X232764572Y-155169426D01*
X232736987Y-155156155D01*
X232731612Y-155155773D01*
X232726632Y-155153710D01*
X232697368Y-155150828D01*
X232434107Y-155153236D01*
X232430415Y-155152006D01*
X232409986Y-155153457D01*
X232382390Y-155153710D01*
X232377412Y-155155771D01*
X232372035Y-155156154D01*
X232344572Y-155166664D01*
X232337809Y-155170175D01*
X232298060Y-155153710D01*
X232239532Y-155153710D01*
X232185460Y-155176108D01*
X232144076Y-155217492D01*
X232121678Y-155271564D01*
X232118796Y-155300828D01*
X231622121Y-155300828D01*
X231585429Y-155265725D01*
X231575050Y-155253758D01*
X231568821Y-155249837D01*
X231566416Y-155247536D01*
X231562759Y-155246021D01*
X231550164Y-155238093D01*
X231425639Y-155178186D01*
X231423561Y-155176108D01*
X231407429Y-155169426D01*
X231379844Y-155156155D01*
X231374469Y-155155773D01*
X231369489Y-155153710D01*
X231340225Y-155150828D01*
X231076964Y-155153236D01*
X231073272Y-155152006D01*
X231052843Y-155153457D01*
X231025247Y-155153710D01*
X231020269Y-155155771D01*
X231014892Y-155156154D01*
X230987429Y-155166664D01*
X230980666Y-155170175D01*
X230940917Y-155153710D01*
X230882389Y-155153710D01*
X230828317Y-155176108D01*
X230786933Y-155217492D01*
X230764535Y-155271564D01*
X230761653Y-155300828D01*
X230344567Y-155300828D01*
X230344485Y-155271564D01*
X230322087Y-155217492D01*
X230280703Y-155176108D01*
X230226631Y-155153710D01*
X230168103Y-155153710D01*
X230114031Y-155176108D01*
X230072647Y-155217492D01*
X230050249Y-155271564D01*
X230047367Y-155300828D01*
X229559931Y-155300828D01*
X229559056Y-154901520D01*
X229978821Y-154901520D01*
X230001218Y-154955592D01*
X230019873Y-154978323D01*
X230114031Y-155068406D01*
X230136428Y-155077682D01*
X230168103Y-155090803D01*
X230226631Y-155090803D01*
X230264865Y-155074965D01*
X230280702Y-155068406D01*
X230280706Y-155068401D01*
X230303432Y-155049752D01*
X230393516Y-154955593D01*
X230393517Y-154955592D01*
X230415914Y-154901520D01*
X234621679Y-154901520D01*
X234644076Y-154955592D01*
X234662731Y-154978323D01*
X234756889Y-155068406D01*
X234779286Y-155077682D01*
X234810961Y-155090803D01*
X234869489Y-155090803D01*
X234907723Y-155074965D01*
X234923560Y-155068406D01*
X234923564Y-155068401D01*
X234946290Y-155049752D01*
X235036374Y-154955593D01*
X235036375Y-154955592D01*
X235058772Y-154901520D01*
X235058772Y-154842994D01*
X235036375Y-154788922D01*
X235017720Y-154766191D01*
X234923560Y-154676107D01*
X234891886Y-154662987D01*
X234869489Y-154653710D01*
X234810961Y-154653710D01*
X234788564Y-154662987D01*
X234756890Y-154676107D01*
X234756889Y-154676108D01*
X234734158Y-154694763D01*
X234644098Y-154788899D01*
X234644076Y-154788922D01*
X234621679Y-154842994D01*
X234621679Y-154901520D01*
X230415914Y-154901520D01*
X230415914Y-154842994D01*
X230393517Y-154788922D01*
X230374862Y-154766191D01*
X230280702Y-154676107D01*
X230249028Y-154662987D01*
X230226631Y-154653710D01*
X230168103Y-154653710D01*
X230145706Y-154662987D01*
X230114032Y-154676107D01*
X230114031Y-154676108D01*
X230091300Y-154694763D01*
X230001240Y-154788899D01*
X230001218Y-154788922D01*
X229978821Y-154842994D01*
X229978821Y-154901520D01*
X229559056Y-154901520D01*
X229558771Y-154771564D01*
X229536373Y-154717492D01*
X229494989Y-154676108D01*
X229440917Y-154653710D01*
X229382389Y-154653710D01*
X229328317Y-154676108D01*
X229286933Y-154717492D01*
X229264535Y-154771564D01*
X229261653Y-154800828D01*
X228987343Y-154800828D01*
X228987343Y-154771564D01*
X228964945Y-154717492D01*
X228923561Y-154676108D01*
X228869489Y-154653710D01*
X228840225Y-154650828D01*
X228096675Y-154653710D01*
X228042603Y-154676108D01*
X228001219Y-154717492D01*
X227978821Y-154771564D01*
X227975939Y-154800828D01*
X225773112Y-154800828D01*
X225773057Y-154771564D01*
X225750659Y-154717492D01*
X225709275Y-154676108D01*
X225655203Y-154653710D01*
X225596675Y-154653710D01*
X225542603Y-154676108D01*
X225501219Y-154717492D01*
X225478821Y-154771564D01*
X225475939Y-154800828D01*
X223898449Y-154800828D01*
X223893517Y-154788922D01*
X223874862Y-154766191D01*
X223780702Y-154676107D01*
X223749028Y-154662987D01*
X223726631Y-154653710D01*
X223668103Y-154653710D01*
X223645706Y-154662987D01*
X223614032Y-154676107D01*
X223614031Y-154676108D01*
X223591300Y-154694763D01*
X223501240Y-154788899D01*
X223501218Y-154788922D01*
X223478821Y-154842994D01*
X223478821Y-154901520D01*
X219553426Y-154901520D01*
X219536374Y-154860349D01*
X219517719Y-154837619D01*
X219459574Y-154781991D01*
X219458724Y-154780290D01*
X219448794Y-154771677D01*
X219423560Y-154747536D01*
X219418580Y-154745473D01*
X219414510Y-154741943D01*
X219387659Y-154729954D01*
X219173037Y-154661097D01*
X219155203Y-154653710D01*
X219147711Y-154652972D01*
X219144700Y-154652006D01*
X219140750Y-154652286D01*
X219125939Y-154650828D01*
X218981723Y-154653242D01*
X218964321Y-154652006D01*
X218957066Y-154653655D01*
X218953818Y-154653710D01*
X218950156Y-154655226D01*
X218935647Y-154658526D01*
X218743087Y-154725139D01*
X218739533Y-154725139D01*
X218721524Y-154732598D01*
X218694511Y-154741943D01*
X218690441Y-154745472D01*
X218685460Y-154747536D01*
X218662730Y-154766191D01*
X218521708Y-154910771D01*
X218507440Y-154923146D01*
X218503439Y-154929501D01*
X218501218Y-154931779D01*
X218499702Y-154935438D01*
X218491775Y-154948032D01*
X218426632Y-155083439D01*
X218418882Y-155093900D01*
X218411038Y-155115854D01*
X218409837Y-155118352D01*
X218409760Y-155119432D01*
X218408989Y-155121591D01*
X218342120Y-155399559D01*
X218335964Y-155414421D01*
X218334175Y-155432586D01*
X218333259Y-155436394D01*
X218333584Y-155438581D01*
X218333082Y-155443685D01*
X218166415Y-155443685D01*
X218166415Y-154484161D01*
X236514037Y-154484161D01*
X236514037Y-157114613D01*
G37*
D12*
%TO.P,_47,*%
%TO.N,*%
X249256795Y-155801108D03*
X248773521Y-156967834D03*
X248773521Y-154634382D03*
X247606795Y-157451108D03*
D13*
X247606795Y-155801108D03*
D12*
X247606795Y-154151108D03*
X246440069Y-156967834D03*
X246440069Y-154634382D03*
X245956795Y-155801108D03*
%TD*%
D14*
%TO.P,REF\u002A\u002A,1*%
%TO.N,P16*%
X199500000Y-154500000D03*
%TD*%
%TO.P,REF\u002A\u002A,1*%
%TO.N,P10*%
X200500000Y-153500000D03*
%TD*%
%TO.P,REF\u002A\u002A,1*%
%TO.N,P9*%
X201500000Y-152500000D03*
%TD*%
D15*
%TO.P,REF\u002A\u002A,*%
%TO.N,*%
X271968597Y-154672468D03*
X268463597Y-160743307D03*
D16*
%TO.P,REF\u002A\u002A,1*%
%TO.N,GND*%
X273500000Y-157000000D03*
%TO.P,REF\u002A\u002A,2*%
%TO.N,RST*%
X271250001Y-160897115D03*
%TD*%
D12*
%TO.P,_46,*%
%TO.N,*%
X242956795Y-104801108D03*
X243440069Y-103634382D03*
X243440069Y-105967834D03*
X244606795Y-103151108D03*
D13*
X244606795Y-104801108D03*
D12*
X244606795Y-106451108D03*
X245773521Y-103634382D03*
X245773521Y-105967834D03*
X246256795Y-104801108D03*
%TD*%
D17*
%TO.P,D19,1*%
%TO.N,P19*%
X240796796Y-134301108D03*
D18*
X242956796Y-134301108D03*
%TO.P,D19,2*%
%TO.N,media_one*%
X246256796Y-134301108D03*
D19*
X248416796Y-134301108D03*
%TD*%
D14*
%TO.P,REF\u002A\u002A,1*%
%TO.N,P4*%
X258118678Y-169174442D03*
%TD*%
D17*
%TO.P,D10,1*%
%TO.N,P19*%
X197796795Y-139301109D03*
D18*
X199956795Y-139301109D03*
%TO.P,D10,2*%
%TO.N,index_bottom*%
X203256795Y-139301109D03*
D19*
X205416795Y-139301109D03*
%TD*%
D20*
%TO.P,D1,1*%
%TO.N,P19*%
X139792061Y-151288925D03*
D21*
X141943842Y-151100669D03*
%TO.P,D1,2*%
%TO.N,pinky_bottom*%
X145231284Y-150813055D03*
D19*
X147383065Y-150624799D03*
%TD*%
D12*
%TO.P,_43,*%
%TO.N,*%
X149564777Y-146418645D03*
X149944525Y-145214238D03*
X150147898Y-147538811D03*
X151064691Y-144631117D03*
D13*
X151208498Y-146274838D03*
D12*
X151352305Y-147918559D03*
X152269098Y-145010865D03*
X152472471Y-147335438D03*
X152852219Y-146131031D03*
%TD*%
D17*
%TO.P,D11,1*%
%TO.N,P20*%
X197796795Y-120301109D03*
D18*
X199956795Y-120301109D03*
%TO.P,D11,2*%
%TO.N,index_home*%
X203256795Y-120301109D03*
D19*
X205416795Y-120301109D03*
%TD*%
D14*
%TO.P,REF\u002A\u002A,1*%
%TO.N,P21*%
X206606795Y-106301108D03*
%TD*%
%TO.P,REF\u002A\u002A,1*%
%TO.N,P16*%
X177606796Y-119301109D03*
%TD*%
%TO.P,REF\u002A\u002A,1*%
%TO.N,P19*%
X187606795Y-138301108D03*
%TD*%
%TO.P,REF\u002A\u002A,1*%
%TO.N,P14*%
X196606795Y-144301108D03*
%TD*%
D12*
%TO.P,_45,*%
%TO.N,*%
X193156795Y-156801109D03*
X193640069Y-155634383D03*
X193640069Y-157967835D03*
X194806795Y-155151109D03*
D13*
X194806795Y-156801109D03*
D12*
X194806795Y-158451109D03*
X195973521Y-155634383D03*
X195973521Y-157967835D03*
X196456795Y-156801109D03*
%TD*%
D14*
%TO.P,REF\u002A\u002A,1*%
%TO.N,P20*%
X147348357Y-136574357D03*
%TD*%
%TO.P,REF\u002A\u002A,1*%
%TO.N,P16*%
X177606796Y-100301109D03*
%TD*%
D22*
%TO.P,S10,1*%
%TO.N,P14*%
X207876795Y-150051109D03*
%TO.P,S10,2*%
%TO.N,index_bottom*%
X193536795Y-149001109D03*
%TD*%
D14*
%TO.P,REF\u002A\u002A,1*%
%TO.N,P20*%
X206606795Y-125301108D03*
%TD*%
D22*
%TO.P,S4,1*%
%TO.N,P10*%
X169876796Y-149051108D03*
%TO.P,S4,2*%
%TO.N,ring_bottom*%
X155536796Y-148001108D03*
%TD*%
D23*
%TO.P,TRRS1,1*%
%TO.N,GND*%
X233006795Y-108601108D03*
X237606795Y-108601108D03*
%TO.P,TRRS1,2*%
X233006795Y-107501108D03*
X237606795Y-107501107D03*
%TO.P,TRRS1,3*%
%TO.N,P1*%
X233006795Y-103501108D03*
X237606795Y-103501108D03*
%TO.P,TRRS1,4*%
%TO.N,VCC*%
X233006795Y-100501108D03*
X237606795Y-100501108D03*
%TD*%
D24*
%TO.P,D18,1*%
%TO.N,P4*%
X249383551Y-174304125D03*
D25*
X250463551Y-172433511D03*
%TO.P,D18,2*%
%TO.N,space_cluster*%
X252113551Y-169575627D03*
D19*
X253193551Y-167705013D03*
%TD*%
D14*
%TO.P,REF\u002A\u002A,1*%
%TO.N,P21*%
X168606795Y-105301108D03*
%TD*%
%TO.P,REF\u002A\u002A,1*%
%TO.N,P18*%
X253118678Y-177834696D03*
%TD*%
%TO.P,REF\u002A\u002A,1*%
%TO.N,P19*%
X225606795Y-144301108D03*
%TD*%
D22*
%TO.P,S11,1*%
%TO.N,P14*%
X207876795Y-131051109D03*
%TO.P,S11,2*%
%TO.N,index_home*%
X193536795Y-130001109D03*
%TD*%
D17*
%TO.P,D13,1*%
%TO.N,P19*%
X216796795Y-139301109D03*
D18*
X218956795Y-139301109D03*
%TO.P,D13,2*%
%TO.N,index2_bottom*%
X222256795Y-139301109D03*
D19*
X224416795Y-139301109D03*
%TD*%
D14*
%TO.P,REF\u002A\u002A,1*%
%TO.N,P4*%
X211306795Y-166301108D03*
%TD*%
D26*
%TO.P,S3,1*%
%TO.N,P9*%
X147458710Y-123264090D03*
%TO.P,S3,2*%
%TO.N,pinky_top*%
X133081765Y-123467899D03*
%TD*%
D14*
%TO.P,REF\u002A\u002A,1*%
%TO.N,P15*%
X227945754Y-168043491D03*
%TD*%
%TO.P,REF\u002A\u002A,1*%
%TO.N,P10*%
X158606796Y-105301108D03*
%TD*%
D22*
%TO.P,S12,1*%
%TO.N,P14*%
X207876795Y-112051109D03*
%TO.P,S12,2*%
%TO.N,index_top*%
X193536795Y-111001109D03*
%TD*%
D14*
%TO.P,REF\u002A\u002A,1*%
%TO.N,P15*%
X215606795Y-125301108D03*
%TD*%
D17*
%TO.P,D20,1*%
%TO.N,P20*%
X240796796Y-115301108D03*
D18*
X242956796Y-115301108D03*
%TO.P,D20,2*%
%TO.N,media_two*%
X246256796Y-115301108D03*
D19*
X248416796Y-115301108D03*
%TD*%
D22*
%TO.P,S13,1*%
%TO.N,P15*%
X226876795Y-150051109D03*
%TO.P,S13,2*%
%TO.N,index2_bottom*%
X212536795Y-149001109D03*
%TD*%
D17*
%TO.P,D15,1*%
%TO.N,P21*%
X216796795Y-101301109D03*
D18*
X218956795Y-101301109D03*
%TO.P,D15,2*%
%TO.N,index2_top*%
X222256795Y-101301109D03*
D19*
X224416795Y-101301109D03*
%TD*%
D14*
%TO.P,REF\u002A\u002A,1*%
%TO.N,P19*%
X149004316Y-155502057D03*
%TD*%
D22*
%TO.P,S19,1*%
%TO.N,P18*%
X250876795Y-145051109D03*
%TO.P,S19,2*%
%TO.N,media_one*%
X236536795Y-144001109D03*
%TD*%
D14*
%TO.P,REF\u002A\u002A,1*%
%TO.N,P18*%
X239606795Y-139301109D03*
%TD*%
%TO.P,REF\u002A\u002A,1*%
%TO.N,P16*%
X177606796Y-138301109D03*
%TD*%
%TO.P,REF\u002A\u002A,1*%
%TO.N,P14*%
X201306795Y-166301108D03*
%TD*%
%TO.P,REF\u002A\u002A,1*%
%TO.N,P21*%
X225606795Y-106301108D03*
%TD*%
%TO.P,REF\u002A\u002A,1*%
%TO.N,P21*%
X145692397Y-117646658D03*
%TD*%
%TO.P,REF\u002A\u002A,1*%
%TO.N,P10*%
X158606796Y-124301109D03*
%TD*%
%TO.P,REF\u002A\u002A,1*%
%TO.N,P15*%
X215606795Y-106301108D03*
%TD*%
%TO.P,REF\u002A\u002A,1*%
%TO.N,P9*%
X135730450Y-118518216D03*
%TD*%
%TO.P,REF\u002A\u002A,1*%
%TO.N,P10*%
X158606795Y-143301108D03*
%TD*%
D17*
%TO.P,D7,1*%
%TO.N,P19*%
X178796795Y-133301108D03*
D18*
X180956795Y-133301108D03*
%TO.P,D7,2*%
%TO.N,middle_bottom*%
X184256795Y-133301108D03*
D19*
X186416795Y-133301108D03*
%TD*%
D14*
%TO.P,REF\u002A\u002A,1*%
%TO.N,P20*%
X249606795Y-120301108D03*
%TD*%
D17*
%TO.P,D12,1*%
%TO.N,P21*%
X197796795Y-101301109D03*
D18*
X199956795Y-101301109D03*
%TO.P,D12,2*%
%TO.N,index_top*%
X203256795Y-101301109D03*
D19*
X205416795Y-101301109D03*
%TD*%
D27*
%TO.P,_41,*%
%TO.N,*%
X275226794Y-114331108D03*
D28*
X273956795Y-114331108D03*
D29*
X273448795Y-114331108D03*
D30*
X261764795Y-114331108D03*
D31*
X261256795Y-114331108D03*
D27*
X259986795Y-114331108D03*
D32*
X259986795Y-114331108D03*
D27*
X275226795Y-116871108D03*
D28*
X273956795Y-116871108D03*
D29*
X273448795Y-116871108D03*
D30*
X261764795Y-116871108D03*
D31*
X261256795Y-116871108D03*
D27*
X259986795Y-116871108D03*
X275226795Y-119411108D03*
D28*
X273956795Y-119411108D03*
D29*
X273448795Y-119411108D03*
D30*
X261764795Y-119411108D03*
D31*
X261256795Y-119411108D03*
D27*
X259986795Y-119411108D03*
X259986795Y-121951107D03*
X275226795Y-121951108D03*
D29*
X273448795Y-121951108D03*
D30*
X261764795Y-121951108D03*
D31*
X261256796Y-121951108D03*
D28*
X273956795Y-121951109D03*
D27*
X275226795Y-124491108D03*
D28*
X273956795Y-124491108D03*
D29*
X273448795Y-124491108D03*
D30*
X261764794Y-124491108D03*
D31*
X261256795Y-124491108D03*
D27*
X259986795Y-124491108D03*
X275226795Y-127031108D03*
D28*
X273956795Y-127031108D03*
D29*
X273448795Y-127031108D03*
D30*
X261764795Y-127031108D03*
D31*
X261256795Y-127031108D03*
D27*
X259986795Y-127031108D03*
X275226795Y-129571108D03*
D28*
X273956795Y-129571108D03*
D29*
X273448795Y-129571108D03*
D30*
X261764795Y-129571108D03*
D31*
X261256795Y-129571108D03*
D27*
X259986795Y-129571108D03*
X275226795Y-132111108D03*
D28*
X273956795Y-132111108D03*
D29*
X273448796Y-132111108D03*
D30*
X261764795Y-132111108D03*
D31*
X261256795Y-132111108D03*
D27*
X259986795Y-132111108D03*
D31*
X261256795Y-134651107D03*
D28*
X273956794Y-134651108D03*
D29*
X273448795Y-134651108D03*
D30*
X261764795Y-134651108D03*
D27*
X259986795Y-134651108D03*
X275226795Y-134651109D03*
X275226795Y-137191108D03*
D28*
X273956795Y-137191108D03*
D29*
X273448795Y-137191108D03*
D30*
X261764795Y-137191108D03*
D31*
X261256795Y-137191108D03*
D27*
X259986795Y-137191108D03*
X275226795Y-139731108D03*
D28*
X273956795Y-139731108D03*
D29*
X273448795Y-139731108D03*
D30*
X261764795Y-139731108D03*
D31*
X261256795Y-139731108D03*
D27*
X259986795Y-139731108D03*
X275226795Y-142271108D03*
D28*
X273956795Y-142271108D03*
D29*
X273448795Y-142271108D03*
D30*
X261764795Y-142271108D03*
D31*
X261256795Y-142271108D03*
D27*
X259986796Y-142271108D03*
D33*
%TO.P,_41,1*%
%TO.N,RAW*%
X272432795Y-114331108D03*
D34*
X268368795Y-114331108D03*
D35*
X268368795Y-114331108D03*
D33*
%TO.P,_41,2*%
%TO.N,GND*%
X272432795Y-116871108D03*
D34*
X268368795Y-116871108D03*
D35*
X268368795Y-116871108D03*
D33*
%TO.P,_41,3*%
%TO.N,RST*%
X272432795Y-119411108D03*
D34*
X268368795Y-119411108D03*
D35*
X268368795Y-119411108D03*
D33*
%TO.P,_41,4*%
%TO.N,VCC*%
X272432795Y-121951108D03*
D34*
X268368795Y-121951109D03*
D35*
X268368795Y-121951109D03*
D33*
%TO.P,_41,5*%
%TO.N,P21*%
X272432795Y-124491108D03*
D34*
X268368795Y-124491108D03*
D35*
X268368795Y-124491108D03*
D33*
%TO.P,_41,6*%
%TO.N,P20*%
X272432795Y-127031108D03*
D34*
X268368795Y-127031108D03*
D35*
X268368795Y-127031108D03*
D33*
%TO.P,_41,7*%
%TO.N,P19*%
X272432795Y-129571108D03*
D34*
X268368795Y-129571108D03*
D35*
X268368795Y-129571108D03*
D33*
%TO.P,_41,8*%
%TO.N,P18*%
X272432795Y-132111108D03*
D34*
X268368795Y-132111108D03*
D35*
X268368795Y-132111108D03*
D33*
%TO.P,_41,9*%
%TO.N,P15*%
X272432795Y-134651108D03*
D34*
X268368796Y-134651108D03*
D35*
X268368796Y-134651108D03*
D33*
%TO.P,_41,10*%
%TO.N,P14*%
X272432795Y-137191108D03*
D34*
X268368795Y-137191108D03*
D35*
X268368795Y-137191108D03*
D33*
%TO.P,_41,11*%
%TO.N,P16*%
X272432795Y-139731108D03*
D34*
X268368795Y-139731108D03*
D35*
X268368795Y-139731108D03*
D34*
%TO.P,_41,12*%
%TO.N,P10*%
X268368795Y-142271108D03*
D35*
X268368795Y-142271108D03*
D33*
X272432795Y-142271109D03*
D36*
%TO.P,_41,13*%
%TO.N,P9*%
X266844795Y-142271108D03*
D35*
X266844795Y-142271108D03*
D37*
X262780795Y-142271108D03*
D36*
%TO.P,_41,14*%
%TO.N,P8*%
X266844795Y-139731108D03*
D35*
X266844795Y-139731108D03*
D37*
X262780795Y-139731108D03*
D36*
%TO.P,_41,15*%
%TO.N,P7*%
X266844795Y-137191108D03*
D35*
X266844795Y-137191108D03*
D37*
X262780795Y-137191108D03*
D36*
%TO.P,_41,16*%
%TO.N,P6*%
X266844795Y-134651107D03*
D35*
X266844795Y-134651107D03*
D37*
X262780795Y-134651108D03*
D36*
%TO.P,_41,17*%
%TO.N,P5*%
X266844795Y-132111108D03*
D35*
X266844795Y-132111108D03*
D37*
X262780795Y-132111108D03*
D36*
%TO.P,_41,18*%
%TO.N,P4*%
X266844795Y-129571108D03*
D35*
X266844795Y-129571108D03*
D37*
X262780795Y-129571108D03*
D36*
%TO.P,_41,19*%
%TO.N,P3*%
X266844795Y-127031108D03*
D35*
X266844795Y-127031108D03*
D37*
X262780795Y-127031108D03*
D36*
%TO.P,_41,20*%
%TO.N,P2*%
X266844795Y-124491108D03*
D35*
X266844795Y-124491108D03*
D37*
X262780795Y-124491108D03*
D36*
%TO.P,_41,21*%
%TO.N,GND*%
X266844794Y-121951108D03*
D35*
X266844794Y-121951108D03*
D37*
X262780795Y-121951108D03*
D36*
%TO.P,_41,22*%
X266844795Y-119411108D03*
D35*
X266844795Y-119411108D03*
D37*
X262780795Y-119411108D03*
D36*
%TO.P,_41,23*%
%TO.N,P0*%
X266844795Y-116871108D03*
D35*
X266844795Y-116871108D03*
D37*
X262780795Y-116871108D03*
%TO.P,_41,24*%
%TO.N,P1*%
X262780795Y-114331107D03*
D36*
X266844795Y-114331108D03*
D35*
X266844795Y-114331108D03*
%TD*%
D14*
%TO.P,REF\u002A\u002A,1*%
%TO.N,P14*%
X196606795Y-106301108D03*
%TD*%
%TO.P,REF\u002A\u002A,1*%
%TO.N,P19*%
X206606795Y-144301108D03*
%TD*%
D26*
%TO.P,S2,1*%
%TO.N,P9*%
X149114669Y-142191790D03*
%TO.P,S2,2*%
%TO.N,pinky_home*%
X134737724Y-142395599D03*
%TD*%
D14*
%TO.P,REF\u002A\u002A,1*%
%TO.N,P9*%
X137386409Y-137445915D03*
%TD*%
D38*
%TO.P,S17,1*%
%TO.N,P15*%
X237343529Y-176514455D03*
%TO.P,S17,2*%
%TO.N,layer_cluster*%
X223763913Y-171788768D03*
%TD*%
D17*
%TO.P,D14,1*%
%TO.N,P20*%
X216796795Y-120301109D03*
D18*
X218956795Y-120301109D03*
%TO.P,D14,2*%
%TO.N,index2_home*%
X222256795Y-120301109D03*
D19*
X224416795Y-120301109D03*
%TD*%
D14*
%TO.P,REF\u002A\u002A,1*%
%TO.N,P19*%
X249606795Y-139301108D03*
%TD*%
D22*
%TO.P,S16,1*%
%TO.N,P14*%
X212576795Y-172051109D03*
%TO.P,S16,2*%
%TO.N,mod_cluster*%
X198236795Y-171001109D03*
%TD*%
D17*
%TO.P,D6,1*%
%TO.N,P21*%
X159796796Y-100301108D03*
D18*
X161956796Y-100301108D03*
%TO.P,D6,2*%
%TO.N,ring_top*%
X165256796Y-100301108D03*
D19*
X167416796Y-100301108D03*
%TD*%
D22*
%TO.P,S7,1*%
%TO.N,P16*%
X188876796Y-144051108D03*
%TO.P,S7,2*%
%TO.N,middle_bottom*%
X174536796Y-143001108D03*
%TD*%
D12*
%TO.P,_42,*%
%TO.N,*%
X150262475Y-114235368D03*
X150642223Y-113030961D03*
X150845596Y-115355534D03*
X151762389Y-112447840D03*
D13*
X151906196Y-114091561D03*
D12*
X152050003Y-115735282D03*
X152966796Y-112827588D03*
X153170169Y-115152161D03*
X153549917Y-113947754D03*
%TD*%
D14*
%TO.P,REF\u002A\u002A,1*%
%TO.N,P9*%
X139042369Y-156373615D03*
%TD*%
D22*
%TO.P,S20,1*%
%TO.N,P18*%
X250876795Y-126051109D03*
%TO.P,S20,2*%
%TO.N,media_two*%
X236536795Y-125001109D03*
%TD*%
D17*
%TO.P,D16,1*%
%TO.N,P4*%
X202496795Y-161301109D03*
D18*
X204656795Y-161301109D03*
%TO.P,D16,2*%
%TO.N,mod_cluster*%
X207956795Y-161301109D03*
D19*
X210116795Y-161301109D03*
%TD*%
D14*
%TO.P,REF\u002A\u002A,1*%
%TO.N,P20*%
X187606796Y-119301108D03*
%TD*%
D39*
%TO.P,D17,1*%
%TO.N,P4*%
X230389301Y-163521857D03*
D40*
X232475700Y-164080906D03*
%TO.P,D17,2*%
%TO.N,layer_cluster*%
X235663256Y-164935010D03*
D19*
X237749655Y-165494059D03*
%TD*%
D20*
%TO.P,D2,1*%
%TO.N,P20*%
X138136102Y-132361226D03*
D21*
X140287883Y-132172970D03*
%TO.P,D2,2*%
%TO.N,pinky_home*%
X143575325Y-131885356D03*
D19*
X145727106Y-131697100D03*
%TD*%
D17*
%TO.P,D9,1*%
%TO.N,P21*%
X178796795Y-95301108D03*
D18*
X180956795Y-95301108D03*
%TO.P,D9,2*%
%TO.N,middle_top*%
X184256795Y-95301108D03*
D19*
X186416795Y-95301108D03*
%TD*%
D14*
%TO.P,REF\u002A\u002A,1*%
%TO.N,P20*%
X225606795Y-125301108D03*
%TD*%
D20*
%TO.P,D3,1*%
%TO.N,P21*%
X136480144Y-113433527D03*
D21*
X138631925Y-113245271D03*
%TO.P,D3,2*%
%TO.N,pinky_top*%
X141919367Y-112957657D03*
D19*
X144071148Y-112769401D03*
%TD*%
D41*
%TO.P,S18,1*%
%TO.N,P18*%
X263733325Y-170949589D03*
%TO.P,S18,2*%
%TO.N,space_cluster*%
X255653998Y-182843393D03*
%TD*%
D17*
%TO.P,D8,1*%
%TO.N,P20*%
X178796795Y-114301108D03*
D18*
X180956795Y-114301108D03*
%TO.P,D8,2*%
%TO.N,middle_home*%
X184256795Y-114301108D03*
D19*
X186416795Y-114301108D03*
%TD*%
D14*
%TO.P,REF\u002A\u002A,1*%
%TO.N,P4*%
X237605012Y-170631682D03*
%TD*%
%TO.P,REF\u002A\u002A,1*%
%TO.N,P20*%
X168606795Y-124301108D03*
%TD*%
%TO.P,REF\u002A\u002A,1*%
%TO.N,P18*%
X239606795Y-120301108D03*
%TD*%
D17*
%TO.P,D4,1*%
%TO.N,P19*%
X159796796Y-138301108D03*
D18*
X161956796Y-138301108D03*
%TO.P,D4,2*%
%TO.N,ring_bottom*%
X165256796Y-138301108D03*
D19*
X167416796Y-138301108D03*
%TD*%
D17*
%TO.P,D5,1*%
%TO.N,P20*%
X159796796Y-119301108D03*
D18*
X161956796Y-119301108D03*
%TO.P,D5,2*%
%TO.N,ring_home*%
X165256796Y-119301108D03*
D19*
X167416796Y-119301108D03*
%TD*%
D14*
%TO.P,REF\u002A\u002A,1*%
%TO.N,P15*%
X215606795Y-144301108D03*
%TD*%
%TO.P,REF\u002A\u002A,1*%
%TO.N,P14*%
X196606795Y-125301108D03*
%TD*%
D22*
%TO.P,S15,1*%
%TO.N,P15*%
X226876795Y-112051109D03*
%TO.P,S15,2*%
%TO.N,index2_top*%
X212536795Y-111001109D03*
%TD*%
D12*
%TO.P,_44,*%
%TO.N,*%
X190456796Y-115801108D03*
X190940070Y-114634382D03*
X190940070Y-116967834D03*
X192106796Y-114151108D03*
D13*
X192106796Y-115801108D03*
D12*
X192106796Y-117451108D03*
X193273522Y-114634382D03*
X193273522Y-116967834D03*
X193756796Y-115801108D03*
%TD*%
D22*
%TO.P,S8,1*%
%TO.N,P16*%
X188876796Y-125051108D03*
%TO.P,S8,2*%
%TO.N,middle_home*%
X174536796Y-124001108D03*
%TD*%
D14*
%TO.P,REF\u002A\u002A,1*%
%TO.N,P21*%
X187606796Y-100301108D03*
%TD*%
D42*
%TO.P,OLED1,1*%
%TO.N,GND*%
X263806794Y-145401108D03*
D43*
%TO.P,OLED1,2*%
%TO.N,VCC*%
X266346795Y-145401108D03*
%TO.P,OLED1,3*%
%TO.N,P3*%
X268886795Y-145401108D03*
%TO.P,OLED1,4*%
%TO.N,P2*%
X271426795Y-145401108D03*
%TD*%
D22*
%TO.P,S6,1*%
%TO.N,P10*%
X169876795Y-111051109D03*
%TO.P,S6,2*%
%TO.N,ring_top*%
X155536795Y-110001109D03*
%TD*%
D26*
%TO.P,S1,1*%
%TO.N,P9*%
X150770628Y-161119488D03*
%TO.P,S1,2*%
%TO.N,pinky_bottom*%
X136393683Y-161323297D03*
%TD*%
D22*
%TO.P,S5,1*%
%TO.N,P10*%
X169876796Y-130051108D03*
%TO.P,S5,2*%
%TO.N,ring_home*%
X155536796Y-129001108D03*
%TD*%
%TO.P,S9,1*%
%TO.N,P16*%
X188876796Y-106051108D03*
%TO.P,S9,2*%
%TO.N,middle_top*%
X174536796Y-105001108D03*
%TD*%
%TO.P,S14,1*%
%TO.N,P15*%
X226876795Y-131051109D03*
%TO.P,S14,2*%
%TO.N,index2_home*%
X212536795Y-130001109D03*
%TD*%
D14*
%TO.P,REF\u002A\u002A,1*%
%TO.N,P19*%
X168606795Y-143301108D03*
%TD*%
D44*
%TO.N,P20*%
X140287883Y-132172970D02*
X138324358Y-132172970D01*
X138324358Y-132172970D02*
X138136102Y-132361226D01*
%TO.N,P21*%
X138631925Y-113245271D02*
X136668400Y-113245271D01*
X136668400Y-113245271D02*
X136480144Y-113433527D01*
%TO.N,P19*%
X161956796Y-138301108D02*
X159796796Y-138301108D01*
%TO.N,ring_bottom*%
X165256796Y-138301108D02*
X167416796Y-138301108D01*
%TO.N,P19*%
X180956795Y-133301108D02*
X178796795Y-133301108D01*
%TO.N,P4*%
X204656795Y-161301109D02*
X202496795Y-161301109D01*
%TO.N,mod_cluster*%
X207956795Y-161301109D02*
X210116795Y-161301109D01*
%TO.N,P19*%
X199956795Y-139301109D02*
X197796795Y-139301109D01*
%TO.N,P20*%
X199956795Y-120301109D02*
X197796795Y-120301109D01*
%TO.N,P21*%
X199956795Y-101301109D02*
X197796795Y-101301109D01*
X218956795Y-101301109D02*
X216796795Y-101301109D01*
%TO.N,P20*%
X218956795Y-120301109D02*
X216796795Y-120301109D01*
%TO.N,P19*%
X218956795Y-139301109D02*
X216796795Y-139301109D01*
%TO.N,P4*%
X250463551Y-172433511D02*
X250463551Y-173224125D01*
X250463551Y-173224125D02*
X249383551Y-174304125D01*
%TO.N,space_cluster*%
X252113551Y-169575627D02*
X252113551Y-168785013D01*
X252113551Y-168785013D02*
X253193551Y-167705013D01*
%TO.N,P19*%
X242956796Y-134301108D02*
X240796796Y-134301108D01*
%TO.N,P20*%
X242956796Y-115301108D02*
X240796796Y-115301108D01*
%TO.N,ring_top*%
X167416796Y-100301108D02*
X165256796Y-100301108D01*
%TO.N,P9*%
X143493933Y-120506067D02*
X142000000Y-122000000D01*
%TO.N,P10*%
X169881795Y-109224459D02*
X168657336Y-108000000D01*
X164500000Y-110000000D02*
X163000000Y-110000000D01*
%TO.N,P16*%
X188881796Y-104224458D02*
X187657338Y-103000000D01*
X183500000Y-105000000D02*
X182305687Y-105000000D01*
%TO.N,middle_top*%
X174500000Y-101500000D02*
X174536796Y-101536796D01*
%TO.N,P21*%
X159796796Y-100301108D02*
X159796796Y-101203204D01*
X178796795Y-95301108D02*
X178606795Y-95301108D01*
%TO.N,P20*%
X178796795Y-114301108D02*
X178606795Y-114301108D01*
%TO.N,P9*%
X145066233Y-139433767D02*
X143500000Y-141000000D01*
%TO.N,P19*%
X164983639Y-146500000D02*
X162689571Y-146500000D01*
X158689571Y-142500000D02*
X158524019Y-142500000D01*
%TO.N,P16*%
X188881796Y-122881796D02*
X187500000Y-121500000D01*
X183500000Y-123500000D02*
X181805687Y-123500000D01*
X188876796Y-125051108D02*
X188881796Y-125046108D01*
X188876796Y-132647765D02*
X186067353Y-135457208D01*
%TO.N,P14*%
X207881795Y-110224459D02*
X206657336Y-109000000D01*
X202000000Y-110500000D02*
X200805687Y-110500000D01*
X207881795Y-129224459D02*
X206657336Y-128000000D01*
X202000000Y-130000000D02*
X201305687Y-130000000D01*
X207876795Y-150051109D02*
X207881795Y-150046109D01*
X207881795Y-148224459D02*
X206657336Y-147000000D01*
X202000000Y-149000000D02*
X201305687Y-149000000D01*
%TO.N,P15*%
X226876795Y-150051109D02*
X226881795Y-150046109D01*
X226881795Y-148224459D02*
X225657336Y-147000000D01*
X221500000Y-148500000D02*
X219805687Y-148500000D01*
X226881795Y-128881795D02*
X226000000Y-128000000D01*
X221500000Y-130000000D02*
X220305687Y-130000000D01*
X226881795Y-109881795D02*
X226000000Y-109000000D01*
X221500000Y-110500000D02*
X219805687Y-110500000D01*
%TO.N,P18*%
X250881795Y-124224459D02*
X249657336Y-123000000D01*
X245500000Y-124500000D02*
X243805687Y-124500000D01*
%TO.N,media_two*%
X246256796Y-115301108D02*
X245556796Y-115301108D01*
%TO.N,P18*%
X250876795Y-145051109D02*
X250881795Y-145046109D01*
X250881795Y-142881795D02*
X250000000Y-142000000D01*
X245000000Y-143500000D02*
X243805686Y-143500000D01*
%TO.N,P21*%
X259274108Y-123274108D02*
X258000000Y-122000000D01*
%TO.N,P4*%
X275692786Y-130986108D02*
X277000000Y-132293322D01*
%TO.N,P18*%
X259000000Y-175500000D02*
X259000000Y-172281404D01*
%TO.N,space_cluster*%
X252000000Y-170500000D02*
X252113551Y-170386449D01*
%TO.N,P15*%
X238364150Y-175493834D02*
X238364150Y-174364150D01*
%TO.N,layer_cluster*%
X235074489Y-165523777D02*
X235663256Y-164935010D01*
%TO.N,mod_cluster*%
X201500000Y-165000000D02*
X203500000Y-165000000D01*
%TO.N,P14*%
X212576795Y-172051109D02*
X212581795Y-172046109D01*
X209873891Y-169126109D02*
X209000000Y-170000000D01*
X212581795Y-170081795D02*
X211626109Y-169126109D01*
%TO.N,P16*%
X208950000Y-154500000D02*
X210000000Y-153450000D01*
X230901109Y-153450000D02*
X232500000Y-151851109D01*
X273186396Y-148450000D02*
X276351795Y-145284601D01*
X276351795Y-139265117D02*
X275586678Y-138500000D01*
%TO.N,P10*%
X209000000Y-153500000D02*
X209500000Y-153000000D01*
X230401109Y-153000000D02*
X232000000Y-151401109D01*
X274500000Y-144500000D02*
X274000000Y-144000000D01*
%TO.N,P9*%
X229951109Y-152500000D02*
X231500000Y-150951109D01*
%TO.N,P14*%
X253586396Y-144000000D02*
X253586396Y-146152904D01*
X259025892Y-135974108D02*
X257850000Y-137150000D01*
X230998891Y-150501109D02*
X229500000Y-152000000D01*
%TO.N,P10*%
X169876796Y-130051108D02*
X169881796Y-130046108D01*
X169881796Y-128224458D02*
X168657338Y-127000000D01*
X166000000Y-127000000D02*
X164500000Y-128500000D01*
X171000000Y-133000000D02*
X169876796Y-131876796D01*
%TO.N,pinky_bottom*%
X141000000Y-153000000D02*
X143044339Y-153000000D01*
%TO.N,P9*%
X145000000Y-160500000D02*
X144000000Y-160500000D01*
%TO.N,P10*%
X169876796Y-149051108D02*
X169881796Y-149046108D01*
X169881796Y-147224458D02*
X168657338Y-146000000D01*
X166500000Y-146000000D02*
X165000000Y-147500000D01*
%TO.N,P16*%
X188881796Y-142224458D02*
X187783446Y-141126108D01*
X185373892Y-141126108D02*
X184000000Y-142500000D01*
%TO.N,P15*%
X258565893Y-133434107D02*
X257400000Y-134600000D01*
X253136396Y-143636396D02*
X253136396Y-145966508D01*
%TO.N,P18*%
X258803892Y-130696108D02*
X256950000Y-132550000D01*
%TO.N,P19*%
X258843892Y-128156108D02*
X256500000Y-130500000D01*
X256500000Y-139000000D02*
X256198892Y-139301108D01*
%TO.N,P20*%
X259116108Y-125616108D02*
X257500000Y-124000000D01*
X257500000Y-120500000D02*
X257301108Y-120301108D01*
%TO.N,pinky_home*%
X143575325Y-131885356D02*
X145538850Y-131885356D01*
X145538850Y-131885356D02*
X145727106Y-131697100D01*
X134737724Y-137262276D02*
X138000000Y-134000000D01*
X141460681Y-134000000D02*
X143575325Y-131885356D01*
X134737724Y-142395599D02*
X134737724Y-137262276D01*
X138000000Y-134000000D02*
X141460681Y-134000000D01*
%TO.N,pinky_top*%
X141919367Y-112957657D02*
X143882892Y-112957657D01*
X143882892Y-112957657D02*
X144071148Y-112769401D01*
X133081765Y-118418235D02*
X136500000Y-115000000D01*
X136500000Y-115000000D02*
X139877024Y-115000000D01*
X133081765Y-123467899D02*
X133081765Y-118418235D01*
X139877024Y-115000000D02*
X141919367Y-112957657D01*
%TO.N,P9*%
X147458710Y-123264090D02*
X147458710Y-121683814D01*
X147458710Y-121683814D02*
X146280963Y-120506067D01*
X146280963Y-120506067D02*
X143493933Y-120506067D01*
X139212234Y-122000000D02*
X135730450Y-118518216D01*
X142000000Y-122000000D02*
X139212234Y-122000000D01*
%TO.N,P10*%
X169876795Y-111051109D02*
X169881795Y-111046109D01*
X169881795Y-111046109D02*
X169881795Y-109224459D01*
X158606796Y-105606796D02*
X158606796Y-105301108D01*
X168657336Y-108000000D02*
X166500000Y-108000000D01*
X166500000Y-108000000D02*
X164500000Y-110000000D01*
X163000000Y-110000000D02*
X158606796Y-105606796D01*
%TO.N,ring_top*%
X163557904Y-102000000D02*
X160500000Y-102000000D01*
X165256796Y-100301108D02*
X163557904Y-102000000D01*
X160500000Y-102000000D02*
X155536795Y-106963205D01*
X155536795Y-106963205D02*
X155536795Y-110001109D01*
%TO.N,ring_home*%
X163557904Y-121000000D02*
X159500000Y-121000000D01*
X165256796Y-119301108D02*
X163557904Y-121000000D01*
X159500000Y-121000000D02*
X155536796Y-124963204D01*
X155536796Y-124963204D02*
X155536796Y-129001108D01*
X167416796Y-119301108D02*
X165256796Y-119301108D01*
%TO.N,middle_home*%
X182557903Y-116000000D02*
X178500000Y-116000000D01*
X184256795Y-114301108D02*
X182557903Y-116000000D01*
X178500000Y-116000000D02*
X174536796Y-119963204D01*
X174536796Y-119963204D02*
X174536796Y-124001108D01*
X184256795Y-114301108D02*
X186416795Y-114301108D01*
%TO.N,P16*%
X188876796Y-106051108D02*
X188881796Y-106046108D01*
X188881796Y-106046108D02*
X188881796Y-104224458D01*
X187657338Y-103000000D02*
X185500000Y-103000000D01*
X185500000Y-103000000D02*
X183500000Y-105000000D01*
X182305687Y-105000000D02*
X177606796Y-100301109D01*
%TO.N,middle_top*%
X178500000Y-97000000D02*
X174500000Y-101000000D01*
X174500000Y-101000000D02*
X174500000Y-101500000D01*
X184256795Y-95301108D02*
X182557903Y-97000000D01*
X182557903Y-97000000D02*
X178500000Y-97000000D01*
X174536796Y-101536796D02*
X174536796Y-105001108D01*
X186416795Y-95301108D02*
X184256795Y-95301108D01*
%TO.N,P21*%
X178796795Y-95301108D02*
X180956795Y-95301108D01*
%TO.N,P20*%
X178796795Y-114301108D02*
X180956795Y-114301108D01*
X159796796Y-119301108D02*
X161956796Y-119301108D01*
%TO.N,P21*%
X159796796Y-100301108D02*
X161956796Y-100301108D01*
X159796796Y-101203204D02*
X145692397Y-115307603D01*
X145692397Y-115307603D02*
X145692397Y-117646658D01*
X178606795Y-95301108D02*
X168606795Y-105301108D01*
%TO.N,P20*%
X178606795Y-114301108D02*
X168606795Y-124301108D01*
%TO.N,P9*%
X147936922Y-139433767D02*
X145066233Y-139433767D01*
X143500000Y-141000000D02*
X140940494Y-141000000D01*
X149114669Y-140611514D02*
X147936922Y-139433767D01*
X149114669Y-142191790D02*
X149114669Y-140611514D01*
X140940494Y-141000000D02*
X137386409Y-137445915D01*
%TO.N,ring_bottom*%
X163557904Y-140000000D02*
X159500000Y-140000000D01*
X165256796Y-138301108D02*
X163557904Y-140000000D01*
X159500000Y-140000000D02*
X155536796Y-143963204D01*
X155536796Y-143963204D02*
X155536796Y-148001108D01*
%TO.N,P19*%
X168606795Y-143301108D02*
X168182531Y-143301108D01*
X168182531Y-143301108D02*
X164983639Y-146500000D01*
X157136796Y-149863204D02*
X151497943Y-155502057D01*
X162689571Y-146500000D02*
X158689571Y-142500000D01*
X158524019Y-142500000D02*
X157136796Y-143887223D01*
X157136796Y-143887223D02*
X157136796Y-149863204D01*
X151497943Y-155502057D02*
X149004316Y-155502057D01*
%TO.N,P20*%
X152500000Y-126597904D02*
X152500000Y-132000000D01*
X159796796Y-119301108D02*
X152500000Y-126597904D01*
X152500000Y-132000000D02*
X147925643Y-136574357D01*
X147925643Y-136574357D02*
X147348357Y-136574357D01*
%TO.N,P16*%
X185500000Y-121500000D02*
X183500000Y-123500000D01*
X188881796Y-125046108D02*
X188881796Y-122881796D01*
X187500000Y-121500000D02*
X185500000Y-121500000D01*
X181805687Y-123500000D02*
X177606796Y-119301109D01*
X188876796Y-125051108D02*
X188876796Y-132647765D01*
X186067353Y-135457208D02*
X180450697Y-135457208D01*
X180450697Y-135457208D02*
X177606796Y-138301109D01*
%TO.N,P21*%
X197796795Y-101301109D02*
X188606797Y-101301109D01*
X188606797Y-101301109D02*
X187606796Y-100301108D01*
%TO.N,index_top*%
X201557904Y-103000000D02*
X197500000Y-103000000D01*
X203256795Y-101301109D02*
X201557904Y-103000000D01*
X197500000Y-103000000D02*
X193536795Y-106963205D01*
X193536795Y-106963205D02*
X193536795Y-111001109D01*
X205416795Y-101301109D02*
X203256795Y-101301109D01*
%TO.N,P14*%
X207876795Y-112051109D02*
X207881795Y-112046109D01*
X207881795Y-112046109D02*
X207881795Y-110224459D01*
X200805687Y-110500000D02*
X196606795Y-106301108D01*
X206657336Y-109000000D02*
X203500000Y-109000000D01*
X203500000Y-109000000D02*
X202000000Y-110500000D01*
%TO.N,P20*%
X197796795Y-120301109D02*
X188606797Y-120301109D01*
X188606797Y-120301109D02*
X187606796Y-119301108D01*
%TO.N,P14*%
X207876795Y-131051109D02*
X207881795Y-131046109D01*
X207881795Y-131046109D02*
X207881795Y-129224459D01*
X206657336Y-128000000D02*
X204000000Y-128000000D01*
X204000000Y-128000000D02*
X202000000Y-130000000D01*
X201305687Y-130000000D02*
X196606795Y-125301108D01*
%TO.N,index_home*%
X201557904Y-122000000D02*
X197500000Y-122000000D01*
X197500000Y-122000000D02*
X193536795Y-125963205D01*
X203256795Y-120301109D02*
X201557904Y-122000000D01*
X193536795Y-125963205D02*
X193536795Y-130001109D01*
X205416795Y-120301109D02*
X203256795Y-120301109D01*
%TO.N,middle_bottom*%
X182557903Y-135000000D02*
X178500000Y-135000000D01*
X184256795Y-133301108D02*
X182557903Y-135000000D01*
X178500000Y-135000000D02*
X174536796Y-138963204D01*
X174536796Y-138963204D02*
X174536796Y-143001108D01*
X186416795Y-133301108D02*
X184256795Y-133301108D01*
%TO.N,P19*%
X197796795Y-139301109D02*
X188606796Y-139301109D01*
X188606796Y-139301109D02*
X187606795Y-138301108D01*
%TO.N,index_bottom*%
X203256795Y-139301109D02*
X205416795Y-139301109D01*
X193536795Y-144963205D02*
X197500000Y-141000000D01*
X193536795Y-149001109D02*
X193536795Y-144963205D01*
X197500000Y-141000000D02*
X201557904Y-141000000D01*
X201557904Y-141000000D02*
X203256795Y-139301109D01*
%TO.N,P14*%
X201305687Y-149000000D02*
X196606795Y-144301108D01*
X207881795Y-150046109D02*
X207881795Y-148224459D01*
X206657336Y-147000000D02*
X204000000Y-147000000D01*
X204000000Y-147000000D02*
X202000000Y-149000000D01*
%TO.N,P19*%
X216796795Y-139301109D02*
X211606794Y-139301109D01*
X211606794Y-139301109D02*
X206606795Y-144301108D01*
%TO.N,index2_bottom*%
X222256795Y-139301109D02*
X224416795Y-139301109D01*
X212536795Y-144963205D02*
X216500000Y-141000000D01*
X212536795Y-149001109D02*
X212536795Y-144963205D01*
X220557904Y-141000000D02*
X222256795Y-139301109D01*
X216500000Y-141000000D02*
X220557904Y-141000000D01*
%TO.N,P15*%
X223000000Y-147000000D02*
X221500000Y-148500000D01*
X226881795Y-150046109D02*
X226881795Y-148224459D01*
X225657336Y-147000000D02*
X223000000Y-147000000D01*
X219805687Y-148500000D02*
X215606795Y-144301108D01*
X226876795Y-131051109D02*
X226881795Y-131046109D01*
X226881795Y-131046109D02*
X226881795Y-128881795D01*
X226000000Y-128000000D02*
X223500000Y-128000000D01*
X220305687Y-130000000D02*
X215606795Y-125301108D01*
X223500000Y-128000000D02*
X221500000Y-130000000D01*
%TO.N,index2_home*%
X222256795Y-120301109D02*
X224416795Y-120301109D01*
X212536795Y-125963205D02*
X216500000Y-122000000D01*
X216500000Y-122000000D02*
X220557904Y-122000000D01*
X212536795Y-130001109D02*
X212536795Y-125963205D01*
X220557904Y-122000000D02*
X222256795Y-120301109D01*
%TO.N,P20*%
X216796795Y-120301109D02*
X211606794Y-120301109D01*
X211606794Y-120301109D02*
X206606795Y-125301108D01*
%TO.N,P21*%
X216796795Y-101301109D02*
X211606794Y-101301109D01*
X211606794Y-101301109D02*
X206606795Y-106301108D01*
%TO.N,index2_top*%
X222256795Y-101301109D02*
X224416795Y-101301109D01*
X212536795Y-106963205D02*
X216500000Y-103000000D01*
X212536795Y-111001109D02*
X212536795Y-106963205D01*
X216500000Y-103000000D02*
X220557904Y-103000000D01*
X220557904Y-103000000D02*
X222256795Y-101301109D01*
%TO.N,P15*%
X226876795Y-112051109D02*
X226881795Y-112046109D01*
X226881795Y-112046109D02*
X226881795Y-109881795D01*
X223000000Y-109000000D02*
X221500000Y-110500000D01*
X226000000Y-109000000D02*
X223000000Y-109000000D01*
X219805687Y-110500000D02*
X215606795Y-106301108D01*
%TO.N,P18*%
X250876795Y-126051109D02*
X250881795Y-126046109D01*
X243805687Y-124500000D02*
X239606795Y-120301108D01*
X250881795Y-126046109D02*
X250881795Y-124224459D01*
X247000000Y-123000000D02*
X245500000Y-124500000D01*
X249657336Y-123000000D02*
X247000000Y-123000000D01*
%TO.N,P20*%
X240796796Y-115301108D02*
X235606795Y-115301108D01*
X235606795Y-115301108D02*
X225606795Y-125301108D01*
%TO.N,P19*%
X240796796Y-134301108D02*
X235606795Y-134301108D01*
X235606795Y-134301108D02*
X225606795Y-144301108D01*
%TO.N,media_two*%
X245556796Y-115301108D02*
X243857904Y-117000000D01*
X243857904Y-117000000D02*
X240500000Y-117000000D01*
X240500000Y-117000000D02*
X236536795Y-120963205D01*
X236536795Y-120963205D02*
X236536795Y-125001109D01*
X248416796Y-115301108D02*
X246256796Y-115301108D01*
%TO.N,media_one*%
X236536795Y-144001109D02*
X236536795Y-139963205D01*
X236536795Y-139963205D02*
X240500000Y-136000000D01*
X240500000Y-136000000D02*
X244557904Y-136000000D01*
X244557904Y-136000000D02*
X246256796Y-134301108D01*
X248416796Y-134301108D02*
X246256796Y-134301108D01*
%TO.N,P18*%
X250000000Y-142000000D02*
X246500000Y-142000000D01*
X250881795Y-145046109D02*
X250881795Y-142881795D01*
X246500000Y-142000000D02*
X245000000Y-143500000D01*
X243805686Y-143500000D02*
X239606795Y-139301109D01*
%TO.N,P21*%
X268368795Y-124491108D02*
X267151795Y-123274108D01*
X258000000Y-122000000D02*
X258000000Y-115000000D01*
X267151795Y-123274108D02*
X259274108Y-123274108D01*
X227801108Y-106301108D02*
X225606795Y-106301108D01*
X258000000Y-115000000D02*
X254500000Y-111500000D01*
X254500000Y-111500000D02*
X233000000Y-111500000D01*
X233000000Y-111500000D02*
X227801108Y-106301108D01*
%TO.N,P4*%
X266844795Y-129571108D02*
X268259795Y-130986108D01*
X268259795Y-130986108D02*
X275692786Y-130986108D01*
X277000000Y-132293322D02*
X277000000Y-145272792D01*
X277000000Y-145272792D02*
X258118678Y-164154114D01*
X258118678Y-164154114D02*
X258118678Y-169174442D01*
%TO.N,P18*%
X256665304Y-177834696D02*
X259000000Y-175500000D01*
X253118678Y-177834696D02*
X256665304Y-177834696D01*
X261281404Y-170000000D02*
X262783736Y-170000000D01*
X259000000Y-172281404D02*
X261281404Y-170000000D01*
X262783736Y-170000000D02*
X263733325Y-170949589D01*
%TO.N,space_cluster*%
X255653998Y-182843393D02*
X252000000Y-179189395D01*
X252000000Y-179189395D02*
X252000000Y-170500000D01*
X252113551Y-170386449D02*
X252113551Y-169575627D01*
%TO.N,P4*%
X237605012Y-170631682D02*
X240631682Y-170631682D01*
X240631682Y-170631682D02*
X245000000Y-175000000D01*
X245000000Y-175000000D02*
X248687676Y-175000000D01*
X248687676Y-175000000D02*
X249383551Y-174304125D01*
%TO.N,P15*%
X237000000Y-173000000D02*
X231000000Y-173000000D01*
X227945754Y-169945754D02*
X227945754Y-168043491D01*
X237343529Y-176514455D02*
X238364150Y-175493834D01*
X238364150Y-174364150D02*
X237000000Y-173000000D01*
X231000000Y-173000000D02*
X227945754Y-169945754D01*
%TO.N,layer_cluster*%
X223763913Y-170783641D02*
X229023777Y-165523777D01*
X223763913Y-171788768D02*
X223763913Y-170783641D01*
X229023777Y-165523777D02*
X235074489Y-165523777D01*
X235663256Y-164935010D02*
X237190606Y-164935010D01*
X237190606Y-164935010D02*
X237749655Y-165494059D01*
%TO.N,P4*%
X230389301Y-163521857D02*
X231916651Y-163521857D01*
X231916651Y-163521857D02*
X232475700Y-164080906D01*
X211306795Y-166301108D02*
X227610050Y-166301108D01*
X227610050Y-166301108D02*
X230389301Y-163521857D01*
%TO.N,mod_cluster*%
X203500000Y-165000000D02*
X207198891Y-161301109D01*
X200000000Y-166500000D02*
X201500000Y-165000000D01*
X198236795Y-171001109D02*
X198261795Y-171001109D01*
X198261795Y-171001109D02*
X200000000Y-169262904D01*
X200000000Y-169262904D02*
X200000000Y-166500000D01*
X207198891Y-161301109D02*
X207956795Y-161301109D01*
%TO.N,P14*%
X209000000Y-170000000D02*
X204500000Y-170000000D01*
X212581795Y-172046109D02*
X212581795Y-170081795D01*
X201306795Y-166806795D02*
X201306795Y-166301108D01*
X211626109Y-169126109D02*
X209873891Y-169126109D01*
X204500000Y-170000000D02*
X201306795Y-166806795D01*
%TO.N,P16*%
X232500000Y-151851109D02*
X250098891Y-151851109D01*
X210000000Y-153450000D02*
X230901109Y-153450000D01*
X250098891Y-151851109D02*
X253500000Y-148450000D01*
X253500000Y-148450000D02*
X273186396Y-148450000D01*
X199500000Y-154500000D02*
X208950000Y-154500000D01*
X276351795Y-145284601D02*
X276351795Y-139265117D01*
X275586678Y-138500000D02*
X269599903Y-138500000D01*
X269599903Y-138500000D02*
X268368795Y-139731108D01*
%TO.N,P10*%
X200500000Y-153500000D02*
X209000000Y-153500000D01*
X274500000Y-146500000D02*
X274500000Y-144500000D01*
X209500000Y-153000000D02*
X230401109Y-153000000D01*
X249610983Y-151401109D02*
X253012092Y-148000000D01*
X270097687Y-144000000D02*
X268368795Y-142271108D01*
X232000000Y-151401109D02*
X249610983Y-151401109D01*
X253012092Y-148000000D02*
X273000000Y-148000000D01*
X273000000Y-148000000D02*
X274500000Y-146500000D01*
X274000000Y-144000000D02*
X270097687Y-144000000D01*
%TO.N,P9*%
X201500000Y-152500000D02*
X229951109Y-152500000D01*
X265719795Y-141146108D02*
X266844795Y-142271108D01*
X231500000Y-150951109D02*
X249424587Y-150951109D01*
X249424587Y-150951109D02*
X259229588Y-141146108D01*
X259229588Y-141146108D02*
X265719795Y-141146108D01*
%TO.N,P14*%
X268368795Y-137191108D02*
X267151795Y-135974108D01*
X257850000Y-139736396D02*
X253586396Y-144000000D01*
X267151795Y-135974108D02*
X259025892Y-135974108D01*
X209825686Y-152000000D02*
X207876795Y-150051109D01*
X257850000Y-137150000D02*
X257850000Y-139736396D01*
X253586396Y-146152904D02*
X249238191Y-150501109D01*
X249238191Y-150501109D02*
X230998891Y-150501109D01*
X229500000Y-152000000D02*
X209825686Y-152000000D01*
%TO.N,P10*%
X169881796Y-130046108D02*
X169881796Y-128224458D01*
X168657338Y-127000000D02*
X166000000Y-127000000D01*
X158606796Y-124999458D02*
X158606796Y-124301109D01*
X164500000Y-128500000D02*
X162107338Y-128500000D01*
X162107338Y-128500000D02*
X158606796Y-124999458D01*
X169876796Y-149051108D02*
X171000000Y-147927904D01*
X171000000Y-147927904D02*
X171000000Y-133000000D01*
X169876796Y-131876796D02*
X169876796Y-130051108D01*
%TO.N,pinky_bottom*%
X145231284Y-150813055D02*
X147194809Y-150813055D01*
X147194809Y-150813055D02*
X147383065Y-150624799D01*
X136393683Y-161323297D02*
X136393683Y-157606317D01*
X136393683Y-157606317D02*
X141000000Y-153000000D01*
X143044339Y-153000000D02*
X145231284Y-150813055D01*
%TO.N,P19*%
X141943842Y-151100669D02*
X139980317Y-151100669D01*
X139980317Y-151100669D02*
X139792061Y-151288925D01*
%TO.N,P9*%
X150770628Y-161119488D02*
X150770628Y-159539212D01*
X150770628Y-159539212D02*
X149592881Y-158361465D01*
X149592881Y-158361465D02*
X147138535Y-158361465D01*
X147138535Y-158361465D02*
X145000000Y-160500000D01*
X144000000Y-160500000D02*
X139873615Y-156373615D01*
X139873615Y-156373615D02*
X139042369Y-156373615D01*
%TO.N,P10*%
X168657338Y-146000000D02*
X166500000Y-146000000D01*
X169881796Y-149046108D02*
X169881796Y-147224458D01*
X165000000Y-147500000D02*
X162805687Y-147500000D01*
X162805687Y-147500000D02*
X158606795Y-143301108D01*
%TO.N,P16*%
X188876796Y-144051108D02*
X188881796Y-144046108D01*
X188881796Y-144046108D02*
X188881796Y-142224458D01*
X184000000Y-142500000D02*
X181805687Y-142500000D01*
X181805687Y-142500000D02*
X177606796Y-138301109D01*
X187783446Y-141126108D02*
X185373892Y-141126108D01*
%TO.N,P15*%
X268368796Y-134651108D02*
X267151795Y-133434107D01*
X267151795Y-133434107D02*
X258565893Y-133434107D01*
X257400000Y-134600000D02*
X257400000Y-139372792D01*
X257400000Y-139372792D02*
X253136396Y-143636396D01*
X253136396Y-145966508D02*
X249051795Y-150051109D01*
X249051795Y-150051109D02*
X226876795Y-150051109D01*
%TO.N,P18*%
X268368795Y-132111108D02*
X266953795Y-130696108D01*
X266953795Y-130696108D02*
X258803892Y-130696108D01*
X251085287Y-145051109D02*
X250876795Y-145051109D01*
X256950000Y-132550000D02*
X256950000Y-139186396D01*
X256950000Y-139186396D02*
X251085287Y-145051109D01*
%TO.N,P19*%
X268368795Y-129571108D02*
X266953795Y-128156108D01*
X266953795Y-128156108D02*
X258843892Y-128156108D01*
X256500000Y-130500000D02*
X256500000Y-139000000D01*
X256198892Y-139301108D02*
X249606795Y-139301108D01*
%TO.N,P20*%
X257500000Y-124000000D02*
X257500000Y-120500000D01*
X266953795Y-125616108D02*
X259116108Y-125616108D01*
X268368795Y-127031108D02*
X266953795Y-125616108D01*
X257301108Y-120301108D02*
X249606795Y-120301108D01*
%TO.N,VCC*%
X237606795Y-100501108D02*
X233006795Y-100501108D01*
%TO.N,GND*%
X266844795Y-119411108D02*
X268368795Y-117887108D01*
X268368795Y-117887108D02*
X268368795Y-116871108D01*
X266844794Y-121951108D02*
X266844795Y-119411108D01*
%TD*%
M02*
