M48
; DRILL file {KiCad 8.0.0} date 2024-03-16T23:28:12+0100
; FORMAT={-:-/ absolute / inch / decimal}
; #@! TF.CreationDate,2024-03-16T23:28:12+01:00
; #@! TF.GenerationSoftware,Kicad,Pcbnew,8.0.0
; #@! TF.FileFunction,Plated,1,2,PTH
FMAT,2
INCH
; #@! TA.AperFunction,Plated,PTH,ComponentDrill
T1C0.0118
; #@! TA.AperFunction,Plated,PTH,ComponentDrill
T2C0.0157
; #@! TA.AperFunction,Plated,PTH,ComponentDrill
T3C0.0354
; #@! TA.AperFunction,Plated,PTH,ComponentDrill
T4C0.0390
; #@! TA.AperFunction,Plated,PTH,ComponentDrill
T5C0.0390
; #@! TA.AperFunction,Plated,PTH,ComponentDrill
T6C0.0394
; #@! TA.AperFunction,Plated,PTH,ComponentDrill
T7C0.0433
; #@! TA.AperFunction,Plated,PTH,ComponentDrill
T8C0.0512
; #@! TA.AperFunction,Plated,PTH,ComponentDrill
T9C0.0866
%
G90
G05
T1
X5.3437Y-4.6661
X5.4089Y-5.4113
X5.4741Y-6.1564
X5.7359Y-4.6318
X5.8011Y-5.3769
X5.8663Y-6.1221
X6.2444Y-5.6418
X6.2444Y-4.1457
X6.2444Y-4.8937
X6.6381Y-4.1457
X6.6381Y-4.8937
X6.6381Y-5.6418
X6.9924Y-3.9489
X6.9924Y-4.6969
X6.9924Y-5.4449
X7.3861Y-5.4449
X7.3861Y-3.9489
X7.3861Y-4.6969
X7.7404Y-4.1851
X7.7404Y-4.9331
X7.7404Y-5.6811
X7.8543Y-6.0827
X7.8937Y-6.0433
X7.9255Y-6.5473
X7.9331Y-6.0039
X8.1341Y-4.1851
X8.1341Y-4.9331
X8.1341Y-5.6811
X8.3192Y-6.5473
X8.4885Y-4.1851
X8.4885Y-4.9331
X8.4885Y-5.6811
X8.8822Y-4.1851
X8.8822Y-4.9331
X8.8822Y-5.6811
X8.9742Y-6.6159
X9.3545Y-6.7178
X9.4333Y-4.7363
X9.4333Y-5.4843
X9.827Y-4.7363
X9.827Y-5.4843
X9.9653Y-7.0014
X10.1622Y-6.6604
T2
X5.8884Y-5.7645
X5.9033Y-5.7171
X5.9113Y-5.8086
X5.9158Y-4.4975
X5.9308Y-4.45
X5.9388Y-4.5416
X5.9474Y-5.6941
X5.9588Y-5.8236
X5.9749Y-4.4271
X5.9862Y-4.5565
X5.9948Y-5.7091
X6.0029Y-5.8006
X6.0178Y-5.7532
X6.0223Y-4.442
X6.0303Y-4.5335
X6.0453Y-4.4861
X7.4983Y-4.5591
X7.5173Y-4.5132
X7.5173Y-4.605
X7.5633Y-4.4941
X7.5633Y-4.6241
X7.6046Y-6.1733
X7.6092Y-4.5132
X7.6092Y-4.605
X7.6236Y-6.1273
X7.6236Y-6.2192
X7.6282Y-4.5591
X7.6696Y-6.1083
X7.6696Y-6.2382
X7.7155Y-6.1273
X7.7155Y-6.2192
X7.7345Y-6.1733
X9.5652Y-4.126
X9.5843Y-4.0801
X9.5843Y-4.172
X9.6302Y-4.0611
X9.6302Y-4.191
X9.6761Y-4.0801
X9.6761Y-4.172
X9.6833Y-6.1339
X9.6951Y-4.126
X9.7024Y-6.088
X9.7024Y-6.1798
X9.7483Y-6.0689
X9.7483Y-6.1989
X9.7942Y-6.088
X9.7942Y-6.1798
X9.8133Y-6.1339
X10.5057Y-4.8012
X10.5057Y-4.5012
X10.5057Y-4.6012
X10.5057Y-4.7012
X10.5057Y-4.9012
X10.5057Y-5.0012
X10.5057Y-5.1012
X10.5057Y-5.2012
X10.5057Y-5.3012
X10.5057Y-5.4012
X10.5057Y-5.5012
X10.5057Y-5.6012
X10.5657Y-4.5012
X10.5657Y-4.6012
X10.5657Y-4.7012
X10.5657Y-4.8012
X10.5657Y-4.9012
X10.5657Y-5.0012
X10.5657Y-5.1012
X10.5657Y-5.2012
X10.5657Y-5.4012
X10.5657Y-5.5012
X10.5657Y-5.6012
X10.5657Y-5.3012
T4
X10.6791Y-6.3345
X10.7677Y-6.1811
T5
X5.3732Y-4.4659
X5.4384Y-5.2111
X5.5036Y-5.9563
X5.6721Y-4.4397
X5.7373Y-5.1849
X5.8025Y-5.9301
X6.2912Y-3.9489
X6.2912Y-4.6969
X6.2912Y-5.4449
X6.5912Y-3.9489
X6.5912Y-4.6969
X6.5912Y-5.4449
X7.0392Y-3.752
X7.0392Y-4.5
X7.0392Y-5.2481
X7.3392Y-3.752
X7.3392Y-4.5
X7.3392Y-5.2481
X7.7873Y-3.9882
X7.7873Y-4.7363
X7.7873Y-5.4843
X7.9723Y-6.3504
X8.0873Y-3.9882
X8.0873Y-4.7363
X8.0873Y-5.4843
X8.2723Y-6.3504
X8.5353Y-3.9882
X8.5353Y-4.7363
X8.5353Y-5.4843
X8.8353Y-3.9882
X8.8353Y-4.7363
X8.8353Y-5.4843
X9.0704Y-6.4379
X9.3602Y-6.5155
X9.4802Y-4.5394
X9.4802Y-5.2874
X9.7802Y-4.5394
X9.7802Y-5.2874
X9.8183Y-6.8624
X9.9683Y-6.6026
T6
X10.3861Y-5.7245
X10.4861Y-5.7245
X10.5861Y-5.7245
X10.6861Y-5.7245
T7
X10.2357Y-4.5012
X10.2357Y-4.5012
X10.2357Y-4.6012
X10.2357Y-4.7012
X10.2357Y-4.8012
X10.2357Y-4.9012
X10.2357Y-5.0012
X10.2357Y-5.1012
X10.2357Y-5.2012
X10.2357Y-5.3012
X10.2357Y-5.4012
X10.2357Y-5.5012
X10.2357Y-5.6012
X10.8357Y-4.5012
X10.8357Y-4.5012
X10.8357Y-4.6012
X10.8357Y-4.7012
X10.8357Y-4.8012
X10.8357Y-4.9012
X10.8357Y-5.0012
X10.8357Y-5.1012
X10.8357Y-5.2012
X10.8357Y-5.3012
X10.8357Y-5.4012
X10.8357Y-5.5012
X10.8357Y-5.6012
T8
X10.5694Y-6.3285
X10.7074Y-6.0895
T9
X5.9531Y-5.7589
X5.9806Y-4.4918
X7.5633Y-4.5591
X7.6696Y-6.1733
X9.6302Y-4.126
X9.7483Y-6.1339
T3
G00X9.1735Y-3.9449
M15
G01X9.1735Y-3.9685
M16
G05
G00X9.1735Y-4.063
M15
G01X9.1735Y-4.0867
M16
G05
G00X9.1735Y-4.2205
M15
G01X9.1735Y-4.2441
M16
G05
G00X9.1735Y-4.2638
M15
G01X9.1735Y-4.2874
M16
G05
G00X9.3546Y-3.9449
M15
G01X9.3546Y-3.9685
M16
G05
G00X9.3546Y-4.063
M15
G01X9.3546Y-4.0867
M16
G05
G00X9.3546Y-4.2205
M15
G01X9.3546Y-4.2441
M16
G05
G00X9.3546Y-4.2638
M15
G01X9.3546Y-4.2874
M16
G05
M30
