0
SECTION
2
HEADER
9
$INSUNITS
70
4
0
ENDSEC
0
SECTION
2
TABLES
0
TABLE
2
LTYPE
0
LTYPE
72
65
70
64
2
CONTINUOUS
3
______
73
0
40
0
0
ENDTAB
0
TABLE
2
LAYER
0
ENDTAB
0
ENDSEC
0
SECTION
2
ENTITIES
0
LINE
8
0
10
133.3474186
20
-132.8705797
11
150.7317321
21
-139.1979524
0
LINE
8
0
10
150.7317321
20
-139.1979524
11
157.0591048
21
-121.8136389
0
LINE
8
0
10
157.0591048
20
-121.8136389
11
139.6747913
21
-115.4862662
0
LINE
8
0
10
139.6747913
20
-115.4862662
11
133.3474186
21
-132.8705797
0
LINE
8
0
10
139.8458013
20
-115.0164199
11
157.2301148
21
-121.3437926
0
LINE
8
0
10
157.2301148
20
-121.3437926
11
163.5574875
21
-103.9594791
0
LINE
8
0
10
163.5574875
20
-103.9594791
11
146.173174
21
-97.6321064
0
LINE
8
0
10
146.173174
20
-97.6321064
11
139.8458013
21
-115.0164199
0
LINE
8
0
10
146.3441841
20
-97.1622601
11
163.7284976
21
-103.4896328
0
LINE
8
0
10
163.7284976
20
-103.4896328
11
170.0558703
21
-86.1053193
0
LINE
8
0
10
170.0558703
20
-86.1053193
11
152.6715568
21
-79.7779466
0
LINE
8
0
10
152.6715568
20
-79.7779466
11
146.3441841
21
-97.1622601
0
LINE
8
0
10
155.9998435
20
-128.6397978
11
172.7665376
21
-136.4582357
0
LINE
8
0
10
172.7665376
20
-136.4582357
11
180.5849755
21
-119.6915416
0
LINE
8
0
10
180.5849755
20
-119.6915416
11
163.8182814
21
-111.8731037
0
LINE
8
0
10
163.8182814
20
-111.8731037
11
155.9998435
21
-128.6397978
0
LINE
8
0
10
164.0295905
20
-111.4199499
11
180.7962846
21
-119.2383878
0
LINE
8
0
10
180.7962846
20
-119.2383878
11
188.6147225
21
-102.4716937
0
LINE
8
0
10
188.6147225
20
-102.4716937
11
171.8480284
21
-94.6532558
0
LINE
8
0
10
171.8480284
20
-94.6532558
11
164.0295905
21
-111.4199499
0
LINE
8
0
10
172.0593374
20
-94.2001019
11
188.8260315
21
-102.0185398
0
LINE
8
0
10
188.8260315
20
-102.0185398
11
196.6444694
21
-85.2518457
0
LINE
8
0
10
196.6444694
20
-85.2518457
11
179.8777753
21
-77.4334078
0
LINE
8
0
10
179.8777753
20
-77.4334078
11
172.0593374
21
-94.2001019
0
LINE
8
0
10
175.3327828
20
-132.138006
11
192.0994769
21
-139.9564439
0
LINE
8
0
10
192.0994769
20
-139.9564439
11
199.9179148
21
-123.1897498
0
LINE
8
0
10
199.9179148
20
-123.1897498
11
183.1512207
21
-115.3713119
0
LINE
8
0
10
183.1512207
20
-115.3713119
11
175.3327828
21
-132.138006
0
LINE
8
0
10
183.3625297
20
-114.918158
11
200.1292238
21
-122.7365959
0
LINE
8
0
10
200.1292238
20
-122.7365959
11
207.9476617
21
-105.9699018
0
LINE
8
0
10
207.9476617
20
-105.9699018
11
191.1809676
21
-98.1514639
0
LINE
8
0
10
191.1809676
20
-98.1514639
11
183.3625297
21
-114.918158
0
LINE
8
0
10
191.3922767
20
-97.69831
11
208.1589708
21
-105.5167479
0
LINE
8
0
10
208.1589708
20
-105.5167479
11
215.9774087
21
-88.7500538
0
LINE
8
0
10
215.9774087
20
-88.7500538
11
199.2107146
21
-80.9316159
0
LINE
8
0
10
199.2107146
20
-80.9316159
11
191.3922767
21
-97.69831
0
LINE
8
0
10
190.0169211
20
-145.6055997
11
206.7836152
21
-153.4240376
0
LINE
8
0
10
206.7836152
20
-153.4240376
11
214.6020531
21
-136.6573435
0
LINE
8
0
10
214.6020531
20
-136.6573435
11
197.835359
21
-128.8389056
0
LINE
8
0
10
197.835359
20
-128.8389056
11
190.0169211
21
-145.6055997
0
LINE
8
0
10
198.0466681
20
-128.3857517
11
214.8133622
21
-136.2041896
0
LINE
8
0
10
214.8133622
20
-136.2041896
11
222.6318001
21
-119.4374955
0
LINE
8
0
10
222.6318001
20
-119.4374955
11
205.865106
21
-111.6190576
0
LINE
8
0
10
205.865106
20
-111.6190576
11
198.0466681
21
-128.3857517
0
LINE
8
0
10
206.0764151
20
-111.1659037
11
222.8431092
21
-118.9843416
0
LINE
8
0
10
222.8431092
20
-118.9843416
11
230.6615471
21
-102.2176475
0
LINE
8
0
10
230.6615471
20
-102.2176475
11
213.894853
21
-94.3992096
0
LINE
8
0
10
213.894853
20
-94.3992096
11
206.0764151
21
-111.1659037
0
LINE
8
0
10
207.236769
20
-153.6353466
11
224.0034631
21
-161.4537845
0
LINE
8
0
10
224.0034631
20
-161.4537845
11
231.821901
21
-144.6870904
0
LINE
8
0
10
231.821901
20
-144.6870904
11
215.0552069
21
-136.8686525
0
LINE
8
0
10
215.0552069
20
-136.8686525
11
207.236769
21
-153.6353466
0
LINE
8
0
10
215.266516
20
-136.4154986
11
232.0332101
21
-144.2339365
0
LINE
8
0
10
232.0332101
20
-144.2339365
11
239.851648
21
-127.4672424
0
LINE
8
0
10
239.851648
20
-127.4672424
11
223.0849539
21
-119.6488045
0
LINE
8
0
10
223.0849539
20
-119.6488045
11
215.266516
21
-136.4154986
0
LINE
8
0
10
223.296263
20
-119.1956506
11
240.0629571
21
-127.0140885
0
LINE
8
0
10
240.0629571
20
-127.0140885
11
247.881395
21
-110.2473944
0
LINE
8
0
10
247.881395
20
-110.2473944
11
231.1147009
21
-102.4289565
0
LINE
8
0
10
231.1147009
20
-102.4289565
11
223.296263
21
-119.1956506
0
LINE
8
0
10
184.9789659
20
-167.5306767
11
201.74566
21
-175.3491146
0
LINE
8
0
10
201.74566
20
-175.3491146
11
209.5640979
21
-158.5824205
0
LINE
8
0
10
209.5640979
20
-158.5824205
11
192.7974038
21
-150.7639826
0
LINE
8
0
10
192.7974038
20
-150.7639826
11
184.9789659
21
-167.5306767
0
LINE
8
0
10
206.9452513
20
-178.1347667
11
221.1170735
21
-190.0263375
0
LINE
8
0
10
221.1170735
20
-190.0263375
11
233.0086443
21
-175.8545153
0
LINE
8
0
10
233.0086443
20
-175.8545153
11
218.8368221
21
-163.9629445
0
LINE
8
0
10
218.8368221
20
-163.9629445
11
206.9452513
21
-178.1347667
0
LINE
8
0
10
236.6473871
20
-203.3079413
11
251.8016999
21
-192.6967773
0
LINE
8
0
10
251.8016999
20
-192.6967773
11
241.1905359
21
-177.5424645
0
LINE
8
0
10
241.1905359
20
-177.5424645
11
226.0362231
21
-188.1536285
0
LINE
8
0
10
226.0362231
20
-188.1536285
11
236.6473871
21
-203.3079413
0
LINE
8
0
10
231.1012473
20
-159.2466459
11
247.8679414
21
-167.0650838
0
LINE
8
0
10
247.8679414
20
-167.0650838
11
255.6863793
21
-150.2983897
0
LINE
8
0
10
255.6863793
20
-150.2983897
11
238.9196852
21
-142.4799518
0
LINE
8
0
10
238.9196852
20
-142.4799518
11
231.1012473
21
-159.2466459
0
LINE
8
0
10
239.1309942
20
-142.0267979
11
255.8976883
21
-149.8452358
0
LINE
8
0
10
255.8976883
20
-149.8452358
11
263.7161262
21
-133.0785417
0
LINE
8
0
10
263.7161262
20
-133.0785417
11
246.9494321
21
-125.2601038
0
LINE
8
0
10
246.9494321
20
-125.2601038
11
239.1309942
21
-142.0267979
0
ENDSEC
0
EOF