0
SECTION
2
HEADER
9
$INSUNITS
70
4
0
ENDSEC
0
SECTION
2
TABLES
0
TABLE
2
LTYPE
0
LTYPE
72
65
70
64
2
CONTINUOUS
3
______
73
0
40
0
0
ENDTAB
0
TABLE
2
LAYER
0
ENDTAB
0
ENDSEC
0
SECTION
2
ENTITIES
0
LINE
8
0
10
131.1476052
20
-132.3359577
11
150.6427534
21
-78.7734782
0
LINE
8
0
10
153.2061788
20
-77.5781332
11
172.149192
21
-84.4728262
0
LINE
8
0
10
174.6497728
20
-83.4302087
11
177.9487918
21
-76.2683625
0
LINE
8
0
10
180.6105689
20
-75.2925148
11
194.1967062
21
-81.6278346
0
LINE
8
0
10
196.8545583
20
-80.6604557
11
197.2771767
21
-79.7541478
0
LINE
8
0
10
199.9350288
20
-78.7867689
11
217.1548768
21
-86.8165159
0
LINE
8
0
10
218.1222557
20
-89.474368
11
217.2770193
21
-91.2869835
0
LINE
8
0
10
218.2443982
20
-93.9448356
11
258.3137823
21
-112.6294962
0
LINE
8
0
10
259.3232411
20
-113.6937099
11
266.4112173
21
-131.2591877
0
LINE
8
0
10
267.4206761
20
-132.3234014
11
285.7423902
21
-140.866957
0
LINE
8
0
10
286.7115003
20
-143.5210867
11
268.0633927
21
-183.7273444
0
LINE
8
0
10
267.3961989
20
-184.5241344
11
233.0624934
21
-208.5648538
0
LINE
8
0
10
230.2501952
20
-208.0343812
11
219.8991285
21
-192.4760335
0
LINE
8
0
10
219.5447355
20
-192.0732598
11
204.7549276
21
-179.2401397
0
LINE
8
0
10
204.2849404
20
-178.9360511
11
179.5063451
21
-167.4558884
0
LINE
8
0
10
178.536007
20
-164.7927225
11
188.7125587
21
-143.0703947
0
LINE
8
0
10
187.746692
20
-140.4093072
11
177.780546
21
-135.762017
0
LINE
8
0
10
175.1226938
20
-136.729396
11
174.7000756
21
-137.6357038
0
LINE
8
0
10
172.0422234
20
-138.6030828
11
158.136461
21
-132.1187192
0
LINE
8
0
10
155.4201199
20
-133.224958
11
152.7745079
21
-140.2328569
0
LINE
8
0
10
150.2193632
20
-141.4058653
11
132.3429502
21
-134.8993831
0
ARC
8
0
10
152.5221386
20
-79.4575184
40
2
50
70.0000019
51
160.0000019
0
ARC
8
0
10
172.8332323
20
-82.5934409
40
2
50
250.0000019
51
335.267402
0
ARC
8
0
10
179.7653323
20
-77.1051303
40
2
50
64.9999983
51
155.267402
0
ARC
8
0
10
195.0419427
20
-79.8152191
40
2
50
244.9999983
51
334.9999983
0
ARC
8
0
10
199.0897923
20
-80.5993844
40
2
50
64.9999983
51
154.9999983
0
ARC
8
0
10
216.3096402
20
-88.6291314
40
2
50
334.9999983
51
64.9999983
0
ARC
8
0
10
219.0896348
20
-92.13222
40
2
50
154.9999983
51
244.9999983
0
ARC
8
0
10
257.4685457
20
-114.4421118
40
2
50
21.9749335
51
64.9999983
0
ARC
8
0
10
268.2659127
20
-130.5107858
40
2
50
201.9749335
51
244.9999983
0
ARC
8
0
10
284.8971536
20
-142.6795726
40
2
50
335.1176059
51
64.9999983
0
ARC
8
0
10
266.249046
20
-182.8858303
40
2
50
304.9999997
51
335.1176059
0
ARC
8
0
10
231.9153405
20
-206.9265497
40
2
50
213.6360699
51
304.9999997
0
ARC
8
0
10
218.2339831
20
-193.5838651
40
2
50
33.6360699
51
49.0518179
0
ARC
8
0
10
203.4441752
20
-180.7507449
40
2
50
49.0518179
51
65.1412541
0
ARC
8
0
10
180.3471103
20
-165.6411945
40
2
50
154.8976866
51
245.1412541
0
ARC
8
0
10
186.9014554
20
-142.2219228
40
2
50
334.8976866
51
64.9999983
0
ARC
8
0
10
176.9353094
20
-137.5746326
40
2
50
64.9999983
51
154.9999983
0
ARC
8
0
10
172.88746
20
-136.7904672
40
2
50
244.9999983
51
334.9999983
0
ARC
8
0
10
157.2912244
20
-133.9313348
40
2
50
64.9999983
51
159.3175432
0
ARC
8
0
10
150.9034034
20
-139.5264801
40
2
50
250.0000019
51
339.3175432
0
ARC
8
0
10
133.0269904
20
-133.0199979
40
2
50
160.0000019
51
250.0000019
0
ENDSEC
0
EOF