0
SECTION
2
HEADER
9
$INSUNITS
70
4
0
ENDSEC
0
SECTION
2
TABLES
0
TABLE
2
LTYPE
0
LTYPE
72
65
70
64
2
CONTINUOUS
3
______
73
0
40
0
0
ENDTAB
0
TABLE
2
LAYER
0
ENDTAB
0
ENDSEC
0
SECTION
2
ENTITIES
0
LINE
8
0
10
131.1476052
20
-132.3359577
11
150.6427534
21
-78.7734782
0
LINE
8
0
10
153.2061788
20
-77.5781332
11
172.149192
21
-84.4728262
0
LINE
8
0
10
174.6497728
20
-83.4302087
11
177.9487918
21
-76.2683625
0
LINE
8
0
10
180.6105689
20
-75.2925148
11
194.1967062
21
-81.6278346
0
LINE
8
0
10
196.8545583
20
-80.6604557
11
197.2771767
21
-79.7541478
0
LINE
8
0
10
199.9350288
20
-78.7867689
11
217.1548768
21
-86.8165159
0
LINE
8
0
10
218.1222557
20
-89.474368
11
217.2770193
21
-91.2869835
0
LINE
8
0
10
218.2443982
20
-93.9448356
11
258.3137823
21
-112.6294962
0
LINE
8
0
10
259.3232411
20
-113.6937099
11
266.4112173
21
-131.2591877
0
LINE
8
0
10
267.4206761
20
-132.3234014
11
285.7423902
21
-140.866957
0
LINE
8
0
10
286.7115003
20
-143.5210867
11
268.0633927
21
-183.7273444
0
LINE
8
0
10
267.3961989
20
-184.5241344
11
233.0624934
21
-208.5648538
0
LINE
8
0
10
230.2501952
20
-208.0343812
11
219.8991285
21
-192.4760335
0
LINE
8
0
10
219.5447355
20
-192.0732598
11
204.7549276
21
-179.2401397
0
LINE
8
0
10
204.2849404
20
-178.9360511
11
179.5063451
21
-167.4558884
0
LINE
8
0
10
178.536007
20
-164.7927225
11
188.7125587
21
-143.0703947
0
LINE
8
0
10
187.746692
20
-140.4093072
11
177.780546
21
-135.762017
0
LINE
8
0
10
175.1226938
20
-136.729396
11
174.7000756
21
-137.6357038
0
LINE
8
0
10
172.0422234
20
-138.6030828
11
158.136461
21
-132.1187192
0
LINE
8
0
10
155.4201199
20
-133.224958
11
152.7745079
21
-140.2328569
0
LINE
8
0
10
150.2193632
20
-141.4058653
11
132.3429502
21
-134.8993831
0
ARC
8
0
10
152.5221386
20
-79.4575184
40
2
50
70.0000019
51
160.0000019
0
ARC
8
0
10
172.8332323
20
-82.5934409
40
2
50
250.0000019
51
335.267402
0
ARC
8
0
10
179.7653323
20
-77.1051303
40
2
50
64.9999983
51
155.267402
0
ARC
8
0
10
195.0419427
20
-79.8152191
40
2
50
244.9999983
51
334.9999983
0
ARC
8
0
10
199.0897923
20
-80.5993844
40
2
50
64.9999983
51
154.9999983
0
ARC
8
0
10
216.3096402
20
-88.6291314
40
2
50
334.9999983
51
64.9999983
0
ARC
8
0
10
219.0896348
20
-92.13222
40
2
50
154.9999983
51
244.9999983
0
ARC
8
0
10
257.4685457
20
-114.4421118
40
2
50
21.9749335
51
64.9999983
0
ARC
8
0
10
268.2659127
20
-130.5107858
40
2
50
201.9749335
51
244.9999983
0
ARC
8
0
10
284.8971536
20
-142.6795726
40
2
50
335.1176059
51
64.9999983
0
ARC
8
0
10
266.249046
20
-182.8858303
40
2
50
304.9999997
51
335.1176059
0
ARC
8
0
10
231.9153405
20
-206.9265497
40
2
50
213.6360699
51
304.9999997
0
ARC
8
0
10
218.2339831
20
-193.5838651
40
2
50
33.6360699
51
49.0518179
0
ARC
8
0
10
203.4441752
20
-180.7507449
40
2
50
49.0518179
51
65.1412541
0
ARC
8
0
10
180.3471103
20
-165.6411945
40
2
50
154.8976866
51
245.1412541
0
ARC
8
0
10
186.9014554
20
-142.2219228
40
2
50
334.8976866
51
64.9999983
0
ARC
8
0
10
176.9353094
20
-137.5746326
40
2
50
64.9999983
51
154.9999983
0
ARC
8
0
10
172.88746
20
-136.7904672
40
2
50
244.9999983
51
334.9999983
0
ARC
8
0
10
157.2912244
20
-133.9313348
40
2
50
64.9999983
51
159.3175432
0
ARC
8
0
10
150.9034034
20
-139.5264801
40
2
50
250.0000019
51
339.3175432
0
ARC
8
0
10
133.0269904
20
-133.0199979
40
2
50
160.0000019
51
250.0000019
0
LINE
8
0
10
133.3474186
20
-132.8705797
11
150.7317321
21
-139.1979524
0
LINE
8
0
10
150.7317321
20
-139.1979524
11
157.0591048
21
-121.8136389
0
LINE
8
0
10
157.0591048
20
-121.8136389
11
139.6747913
21
-115.4862662
0
LINE
8
0
10
139.6747913
20
-115.4862662
11
133.3474186
21
-132.8705797
0
LINE
8
0
10
139.8458013
20
-115.0164199
11
157.2301148
21
-121.3437926
0
LINE
8
0
10
157.2301148
20
-121.3437926
11
163.5574875
21
-103.9594791
0
LINE
8
0
10
163.5574875
20
-103.9594791
11
146.173174
21
-97.6321064
0
LINE
8
0
10
146.173174
20
-97.6321064
11
139.8458013
21
-115.0164199
0
LINE
8
0
10
146.3441841
20
-97.1622601
11
163.7284976
21
-103.4896328
0
LINE
8
0
10
163.7284976
20
-103.4896328
11
170.0558703
21
-86.1053193
0
LINE
8
0
10
170.0558703
20
-86.1053193
11
152.6715568
21
-79.7779466
0
LINE
8
0
10
152.6715568
20
-79.7779466
11
146.3441841
21
-97.1622601
0
LINE
8
0
10
155.9998435
20
-128.6397978
11
172.7665376
21
-136.4582357
0
LINE
8
0
10
172.7665376
20
-136.4582357
11
180.5849755
21
-119.6915416
0
LINE
8
0
10
180.5849755
20
-119.6915416
11
163.8182814
21
-111.8731037
0
LINE
8
0
10
163.8182814
20
-111.8731037
11
155.9998435
21
-128.6397978
0
LINE
8
0
10
164.0295905
20
-111.4199499
11
180.7962846
21
-119.2383878
0
LINE
8
0
10
180.7962846
20
-119.2383878
11
188.6147225
21
-102.4716937
0
LINE
8
0
10
188.6147225
20
-102.4716937
11
171.8480284
21
-94.6532558
0
LINE
8
0
10
171.8480284
20
-94.6532558
11
164.0295905
21
-111.4199499
0
LINE
8
0
10
172.0593374
20
-94.2001019
11
188.8260315
21
-102.0185398
0
LINE
8
0
10
188.8260315
20
-102.0185398
11
196.6444694
21
-85.2518457
0
LINE
8
0
10
196.6444694
20
-85.2518457
11
179.8777753
21
-77.4334078
0
LINE
8
0
10
179.8777753
20
-77.4334078
11
172.0593374
21
-94.2001019
0
LINE
8
0
10
175.3327828
20
-132.138006
11
192.0994769
21
-139.9564439
0
LINE
8
0
10
192.0994769
20
-139.9564439
11
199.9179148
21
-123.1897498
0
LINE
8
0
10
199.9179148
20
-123.1897498
11
183.1512207
21
-115.3713119
0
LINE
8
0
10
183.1512207
20
-115.3713119
11
175.3327828
21
-132.138006
0
LINE
8
0
10
183.3625297
20
-114.918158
11
200.1292238
21
-122.7365959
0
LINE
8
0
10
200.1292238
20
-122.7365959
11
207.9476617
21
-105.9699018
0
LINE
8
0
10
207.9476617
20
-105.9699018
11
191.1809676
21
-98.1514639
0
LINE
8
0
10
191.1809676
20
-98.1514639
11
183.3625297
21
-114.918158
0
LINE
8
0
10
191.3922767
20
-97.69831
11
208.1589708
21
-105.5167479
0
LINE
8
0
10
208.1589708
20
-105.5167479
11
215.9774087
21
-88.7500538
0
LINE
8
0
10
215.9774087
20
-88.7500538
11
199.2107146
21
-80.9316159
0
LINE
8
0
10
199.2107146
20
-80.9316159
11
191.3922767
21
-97.69831
0
LINE
8
0
10
190.0169211
20
-145.6055997
11
206.7836152
21
-153.4240376
0
LINE
8
0
10
206.7836152
20
-153.4240376
11
214.6020531
21
-136.6573435
0
LINE
8
0
10
214.6020531
20
-136.6573435
11
197.835359
21
-128.8389056
0
LINE
8
0
10
197.835359
20
-128.8389056
11
190.0169211
21
-145.6055997
0
LINE
8
0
10
198.0466681
20
-128.3857517
11
214.8133622
21
-136.2041896
0
LINE
8
0
10
214.8133622
20
-136.2041896
11
222.6318001
21
-119.4374955
0
LINE
8
0
10
222.6318001
20
-119.4374955
11
205.865106
21
-111.6190576
0
LINE
8
0
10
205.865106
20
-111.6190576
11
198.0466681
21
-128.3857517
0
LINE
8
0
10
206.0764151
20
-111.1659037
11
222.8431092
21
-118.9843416
0
LINE
8
0
10
222.8431092
20
-118.9843416
11
230.6615471
21
-102.2176475
0
LINE
8
0
10
230.6615471
20
-102.2176475
11
213.894853
21
-94.3992096
0
LINE
8
0
10
213.894853
20
-94.3992096
11
206.0764151
21
-111.1659037
0
LINE
8
0
10
207.236769
20
-153.6353466
11
224.0034631
21
-161.4537845
0
LINE
8
0
10
224.0034631
20
-161.4537845
11
231.821901
21
-144.6870904
0
LINE
8
0
10
231.821901
20
-144.6870904
11
215.0552069
21
-136.8686525
0
LINE
8
0
10
215.0552069
20
-136.8686525
11
207.236769
21
-153.6353466
0
LINE
8
0
10
215.266516
20
-136.4154986
11
232.0332101
21
-144.2339365
0
LINE
8
0
10
232.0332101
20
-144.2339365
11
239.851648
21
-127.4672424
0
LINE
8
0
10
239.851648
20
-127.4672424
11
223.0849539
21
-119.6488045
0
LINE
8
0
10
223.0849539
20
-119.6488045
11
215.266516
21
-136.4154986
0
LINE
8
0
10
223.296263
20
-119.1956506
11
240.0629571
21
-127.0140885
0
LINE
8
0
10
240.0629571
20
-127.0140885
11
247.881395
21
-110.2473944
0
LINE
8
0
10
247.881395
20
-110.2473944
11
231.1147009
21
-102.4289565
0
LINE
8
0
10
231.1147009
20
-102.4289565
11
223.296263
21
-119.1956506
0
LINE
8
0
10
184.9789659
20
-167.5306767
11
201.74566
21
-175.3491146
0
LINE
8
0
10
201.74566
20
-175.3491146
11
209.5640979
21
-158.5824205
0
LINE
8
0
10
209.5640979
20
-158.5824205
11
192.7974038
21
-150.7639826
0
LINE
8
0
10
192.7974038
20
-150.7639826
11
184.9789659
21
-167.5306767
0
LINE
8
0
10
206.9452513
20
-178.1347667
11
221.1170735
21
-190.0263375
0
LINE
8
0
10
221.1170735
20
-190.0263375
11
233.0086443
21
-175.8545153
0
LINE
8
0
10
233.0086443
20
-175.8545153
11
218.8368221
21
-163.9629445
0
LINE
8
0
10
218.8368221
20
-163.9629445
11
206.9452513
21
-178.1347667
0
LINE
8
0
10
236.6473871
20
-203.3079413
11
251.8016999
21
-192.6967773
0
LINE
8
0
10
251.8016999
20
-192.6967773
11
241.1905359
21
-177.5424645
0
LINE
8
0
10
241.1905359
20
-177.5424645
11
226.0362231
21
-188.1536285
0
LINE
8
0
10
226.0362231
20
-188.1536285
11
236.6473871
21
-203.3079413
0
LINE
8
0
10
231.1012473
20
-159.2466459
11
247.8679414
21
-167.0650838
0
LINE
8
0
10
247.8679414
20
-167.0650838
11
255.6863793
21
-150.2983897
0
LINE
8
0
10
255.6863793
20
-150.2983897
11
238.9196852
21
-142.4799518
0
LINE
8
0
10
238.9196852
20
-142.4799518
11
231.1012473
21
-159.2466459
0
LINE
8
0
10
239.1309942
20
-142.0267979
11
255.8976883
21
-149.8452358
0
LINE
8
0
10
255.8976883
20
-149.8452358
11
263.7161262
21
-133.0785417
0
LINE
8
0
10
263.7161262
20
-133.0785417
11
246.9494321
21
-125.2601038
0
LINE
8
0
10
246.9494321
20
-125.2601038
11
239.1309942
21
-142.0267979
0
ENDSEC
0
EOF