%TF.GenerationSoftware,KiCad,Pcbnew,8.0.0*%
%TF.CreationDate,2024-03-23T03:27:30+01:00*%
%TF.ProjectId,cornish-v1.2,636f726e-6973-4682-9d76-312e322e6b69,v1.0.0*%
%TF.SameCoordinates,Original*%
%TF.FileFunction,Copper,L1,Top*%
%TF.FilePolarity,Positive*%
%FSLAX46Y46*%
G04 Gerber Fmt 4.6, Leading zero omitted, Abs format (unit mm)*
G04 Created by KiCad (PCBNEW 8.0.0) date 2024-03-23 03:27:30*
%MOMM*%
%LPD*%
G01*
G04 APERTURE LIST*
G04 Aperture macros list*
%AMRotRect*
0 Rectangle, with rotation*
0 The origin of the aperture is its center*
0 $1 length*
0 $2 width*
0 $3 Rotation angle, in degrees counterclockwise*
0 Add horizontal line*
21,1,$1,$2,0,0,$3*%
%AMFreePoly0*
4,1,37,1.124386,0.122598,1.169446,0.103934,1.203934,0.069446,1.222598,0.024386,1.222598,-0.024386,1.203934,-0.069446,1.169446,-0.103934,1.124386,-0.122598,0.000000,-0.125000,-0.024386,-0.122598,-0.052633,-0.110896,-0.062500,-0.108253,-0.064962,-0.105790,-0.069446,-0.103934,-0.103934,-0.069446,-0.105790,-0.064962,-0.108253,-0.062500,-0.110896,-0.052633,-0.122598,-0.024386,-0.122598,-0.008964,
-0.125000,0.000000,-0.122598,0.008964,-0.122598,0.024386,-0.110896,0.052633,-0.108253,0.062500,-0.105790,0.064962,-0.103934,0.069446,-0.069446,0.103934,-0.064962,0.105790,-0.062500,0.108253,-0.052633,0.110896,-0.024386,0.122598,-0.008841,0.122630,0.000000,0.125000,0.008703,0.122668,1.100000,0.125000,1.124386,0.122598,1.124386,0.122598,$1*%
%AMFreePoly1*
4,1,5,0.125000,-0.500000,-0.125000,-0.500000,-0.125000,0.500000,0.125000,0.500000,0.125000,-0.500000,0.125000,-0.500000,$1*%
%AMFreePoly2*
4,1,6,0.600000,0.200000,0.000000,-0.400000,-0.600000,0.200000,-0.600000,0.400000,0.600000,0.400000,0.600000,0.200000,0.600000,0.200000,$1*%
%AMFreePoly3*
4,1,6,0.600000,-0.250000,-0.600000,-0.250000,-0.600000,1.000000,0.000000,0.400000,0.600000,1.000000,0.600000,-0.250000,0.600000,-0.250000,$1*%
%AMFreePoly4*
4,1,45,0.069446,4.167933,0.854389,3.386388,0.869934,3.367446,0.888598,3.322386,0.891000,0.766000,0.888598,0.741614,0.869934,0.696554,0.088388,-0.088388,0.069446,-0.103933,0.064963,-0.105789,0.062500,-0.108253,0.052631,-0.110897,0.024387,-0.122598,0.008964,-0.122598,0.000000,-0.125000,-0.008964,-0.122598,-0.024387,-0.122598,-0.052631,-0.110897,-0.062500,-0.108253,-0.064963,-0.105789,
-0.069446,-0.103933,-0.103933,-0.069446,-0.105789,-0.064963,-0.108253,-0.062500,-0.110897,-0.052631,-0.122598,-0.024387,-0.122598,-0.008964,-0.125000,0.000000,-0.122598,0.008964,-0.122598,0.024387,-0.110897,0.052631,-0.108253,0.062500,-0.105789,0.064963,-0.103933,0.069446,0.643328,0.819956,0.641045,3.249334,-0.088388,3.975612,-0.103933,3.994554,-0.122598,4.039613,-0.122598,4.088387,
-0.103933,4.133446,-0.069446,4.167933,-0.024387,4.186598,0.024387,4.186598,0.069446,4.167933,0.069446,4.167933,$1*%
%AMFreePoly5*
4,1,45,0.069446,4.167933,0.850389,3.390388,0.865934,3.371446,0.884598,3.326386,0.887000,0.762000,0.884598,0.737613,0.865934,0.692554,0.088388,-0.088388,0.069446,-0.103933,0.064963,-0.105789,0.062500,-0.108253,0.052631,-0.110897,0.024387,-0.122598,0.008964,-0.122598,0.000000,-0.125000,-0.008964,-0.122598,-0.024387,-0.122598,-0.052631,-0.110897,-0.062500,-0.108253,-0.064963,-0.105789,
-0.069446,-0.103933,-0.103933,-0.069446,-0.105789,-0.064963,-0.108253,-0.062500,-0.110897,-0.052631,-0.122598,-0.024387,-0.122598,-0.008964,-0.125000,0.000000,-0.122598,0.008964,-0.122598,0.024387,-0.110897,0.052631,-0.108253,0.062500,-0.105789,0.064963,-0.103933,0.069446,0.639328,0.815955,0.637045,3.253333,-0.088388,3.975612,-0.103933,3.994554,-0.122598,4.039613,-0.122598,4.088387,
-0.103933,4.133446,-0.069446,4.167933,-0.024387,4.186598,0.024387,4.186598,0.069446,4.167933,0.069446,4.167933,$1*%
G04 Aperture macros list end*
%TA.AperFunction,ComponentPad*%
%ADD10R,1.778000X1.778000*%
%TD*%
%TA.AperFunction,SMDPad,CuDef*%
%ADD11FreePoly0,0.000000*%
%TD*%
%TA.AperFunction,SMDPad,CuDef*%
%ADD12R,0.900000X1.200000*%
%TD*%
%TA.AperFunction,ComponentPad*%
%ADD13C,1.905000*%
%TD*%
%TA.AperFunction,ComponentPad*%
%ADD14C,0.600000*%
%TD*%
%TA.AperFunction,SMDPad,CuDef*%
%ADD15R,2.550000X2.500000*%
%TD*%
%TA.AperFunction,ComponentPad*%
%ADD16RotRect,1.778000X1.778000X345.000000*%
%TD*%
%TA.AperFunction,SMDPad,CuDef*%
%ADD17FreePoly0,345.000000*%
%TD*%
%TA.AperFunction,SMDPad,CuDef*%
%ADD18RotRect,0.900000X1.200000X345.000000*%
%TD*%
%TA.AperFunction,ComponentPad*%
%ADD19O,1.600000X2.200000*%
%TD*%
%TA.AperFunction,SMDPad,CuDef*%
%ADD20RotRect,2.550000X2.500000X5.000000*%
%TD*%
%TA.AperFunction,SMDPad,CuDef*%
%ADD21RotRect,2.550000X2.500000X345.000000*%
%TD*%
%TA.AperFunction,ComponentPad*%
%ADD22C,1.600000*%
%TD*%
%TA.AperFunction,SMDPad,CuDef*%
%ADD23FreePoly1,270.000000*%
%TD*%
%TA.AperFunction,SMDPad,CuDef*%
%ADD24FreePoly2,270.000000*%
%TD*%
%TA.AperFunction,SMDPad,CuDef*%
%ADD25FreePoly2,90.000000*%
%TD*%
%TA.AperFunction,SMDPad,CuDef*%
%ADD26FreePoly1,90.000000*%
%TD*%
%TA.AperFunction,ComponentPad*%
%ADD27R,1.600000X1.600000*%
%TD*%
%TA.AperFunction,SMDPad,CuDef*%
%ADD28FreePoly3,270.000000*%
%TD*%
%TA.AperFunction,SMDPad,CuDef*%
%ADD29FreePoly4,270.000000*%
%TD*%
%TA.AperFunction,ComponentPad*%
%ADD30C,0.800000*%
%TD*%
%TA.AperFunction,SMDPad,CuDef*%
%ADD31FreePoly5,90.000000*%
%TD*%
%TA.AperFunction,SMDPad,CuDef*%
%ADD32FreePoly3,90.000000*%
%TD*%
%TA.AperFunction,ComponentPad*%
%ADD33RotRect,1.778000X1.778000X5.000000*%
%TD*%
%TA.AperFunction,SMDPad,CuDef*%
%ADD34FreePoly0,5.000000*%
%TD*%
%TA.AperFunction,SMDPad,CuDef*%
%ADD35RotRect,0.900000X1.200000X5.000000*%
%TD*%
%TA.AperFunction,ComponentPad*%
%ADD36C,0.700000*%
%TD*%
%TA.AperFunction,ComponentPad*%
%ADD37C,4.400000*%
%TD*%
%TA.AperFunction,ComponentPad*%
%ADD38RotRect,1.778000X1.778000X60.000000*%
%TD*%
%TA.AperFunction,SMDPad,CuDef*%
%ADD39FreePoly0,60.000000*%
%TD*%
%TA.AperFunction,SMDPad,CuDef*%
%ADD40RotRect,0.900000X1.200000X60.000000*%
%TD*%
%TA.AperFunction,ComponentPad*%
%ADD41C,2.100000*%
%TD*%
%TA.AperFunction,ComponentPad*%
%ADD42C,1.750000*%
%TD*%
%TA.AperFunction,SMDPad,CuDef*%
%ADD43RotRect,2.550000X2.500000X60.000000*%
%TD*%
%TA.AperFunction,ComponentPad*%
%ADD44R,1.700000X1.700000*%
%TD*%
%TA.AperFunction,ComponentPad*%
%ADD45O,1.700000X1.700000*%
%TD*%
%TA.AperFunction,ViaPad*%
%ADD46C,0.500000*%
%TD*%
%TA.AperFunction,Conductor*%
%ADD47C,0.250000*%
%TD*%
G04 APERTURE END LIST*
D10*
%TO.P,D12,1*%
%TO.N,P21*%
X198806126Y-101251688D03*
D11*
X199616126Y-101251688D03*
D12*
X200966126Y-101251688D03*
%TO.P,D12,2*%
%TO.N,index_top*%
X204266126Y-101251688D03*
D11*
X204516126Y-101251688D03*
D13*
X206426126Y-101251688D03*
%TD*%
D14*
%TO.P,REF\u002A\u002A,1*%
%TO.N,P15*%
X216616126Y-106251688D03*
%TD*%
D15*
%TO.P,S5,1*%
%TO.N,P10*%
X172686127Y-128951688D03*
%TO.P,S5,2*%
%TO.N,ring_home*%
X158346127Y-130001688D03*
%TD*%
D10*
%TO.P,D20,1*%
%TO.N,P20*%
X241806127Y-115251688D03*
D11*
X242616127Y-115251688D03*
D12*
X243966127Y-115251688D03*
%TO.P,D20,2*%
%TO.N,media_two*%
X247266127Y-115251688D03*
D11*
X247516127Y-115251688D03*
D13*
X249426127Y-115251688D03*
%TD*%
D14*
%TO.P,REF\u002A\u002A,1*%
%TO.N,P20*%
X226616126Y-125251688D03*
%TD*%
D10*
%TO.P,D13,1*%
%TO.N,P19*%
X217806126Y-139251688D03*
D11*
X218616126Y-139251688D03*
D12*
X219966126Y-139251688D03*
%TO.P,D13,2*%
%TO.N,index2_bottom*%
X223266126Y-139251688D03*
D11*
X223516126Y-139251688D03*
D13*
X225426126Y-139251688D03*
%TD*%
D14*
%TO.P,REF\u002A\u002A,1*%
%TO.N,P20*%
X207616126Y-125251688D03*
%TD*%
D15*
%TO.P,S20,1*%
%TO.N,P18*%
X253686126Y-124951688D03*
%TO.P,S20,2*%
%TO.N,media_two*%
X239346126Y-126001688D03*
%TD*%
D10*
%TO.P,D9,1*%
%TO.N,P21*%
X179806126Y-95251688D03*
D11*
X180616126Y-95251688D03*
D12*
X181966126Y-95251688D03*
%TO.P,D9,2*%
%TO.N,middle_top*%
X185266126Y-95251688D03*
D11*
X185516126Y-95251688D03*
D13*
X187426126Y-95251688D03*
%TD*%
D14*
%TO.P,REF\u002A\u002A,1*%
%TO.N,P20*%
X250616126Y-120251688D03*
%TD*%
D10*
%TO.P,D6,1*%
%TO.N,P21*%
X160806126Y-100251688D03*
D11*
X161616126Y-100251688D03*
D12*
X162966126Y-100251688D03*
%TO.P,D6,2*%
%TO.N,ring_top*%
X166266126Y-100251688D03*
D11*
X166516126Y-100251688D03*
D13*
X168426126Y-100251688D03*
%TD*%
D10*
%TO.P,D7,1*%
%TO.N,P19*%
X179806126Y-133251688D03*
D11*
X180616126Y-133251688D03*
D12*
X181966126Y-133251688D03*
%TO.P,D7,2*%
%TO.N,middle_bottom*%
X185266126Y-133251688D03*
D11*
X185516126Y-133251688D03*
D13*
X187426126Y-133251688D03*
%TD*%
D14*
%TO.P,REF\u002A\u002A,1*%
%TO.N,P16*%
X178616127Y-138251688D03*
%TD*%
D16*
%TO.P,D17,1*%
%TO.N,P4*%
X231398632Y-163472435D03*
D17*
X232181032Y-163682080D03*
D18*
X233485030Y-164031485D03*
%TO.P,D17,2*%
%TO.N,layer_cluster*%
X236672588Y-164885589D03*
D17*
X236914067Y-164950293D03*
D13*
X238758986Y-165444639D03*
%TD*%
D14*
%TO.P,REF\u002A\u002A,1*%
%TO.N,P19*%
X188616126Y-138251688D03*
%TD*%
%TO.P,REF\u002A\u002A,1*%
%TO.N,P9*%
X138395740Y-137396495D03*
%TD*%
%TO.P,REF\u002A\u002A,1*%
%TO.N,P18*%
X254128009Y-177785275D03*
%TD*%
D19*
%TO.P,TRRS1,1*%
%TO.N,GND*%
X234016126Y-108551688D03*
X238616126Y-108551688D03*
%TO.P,TRRS1,2*%
X234016126Y-107451688D03*
X238616126Y-107451687D03*
%TO.P,TRRS1,3*%
%TO.N,P1*%
X234016126Y-103451688D03*
X238616126Y-103451688D03*
%TO.P,TRRS1,4*%
%TO.N,VCC*%
X234016126Y-100451688D03*
X238616126Y-100451688D03*
%TD*%
D10*
%TO.P,D4,1*%
%TO.N,P19*%
X160806126Y-138251688D03*
D11*
X161616126Y-138251688D03*
D12*
X162966126Y-138251688D03*
%TO.P,D4,2*%
%TO.N,ring_bottom*%
X166266126Y-138251688D03*
D11*
X166516126Y-138251688D03*
D13*
X168426126Y-138251688D03*
%TD*%
D14*
%TO.P,REF\u002A\u002A,1*%
%TO.N,P21*%
X188616126Y-100251688D03*
%TD*%
D20*
%TO.P,S1,1*%
%TO.N,P9*%
X153481596Y-159867183D03*
%TO.P,S1,2*%
%TO.N,pinky_bottom*%
X139287677Y-162163001D03*
%TD*%
D10*
%TO.P,D5,1*%
%TO.N,P20*%
X160806126Y-119251688D03*
D11*
X161616126Y-119251688D03*
D12*
X162966126Y-119251688D03*
%TO.P,D5,2*%
%TO.N,ring_home*%
X166266126Y-119251688D03*
D11*
X166516126Y-119251688D03*
D13*
X168426126Y-119251688D03*
%TD*%
D21*
%TO.P,S17,1*%
%TO.N,P15*%
X240363286Y-175916687D03*
%TO.P,S17,2*%
%TO.N,layer_cluster*%
X226240150Y-173219444D03*
%TD*%
D10*
%TO.P,D15,1*%
%TO.N,P21*%
X217806126Y-101251688D03*
D11*
X218616126Y-101251688D03*
D12*
X219966126Y-101251688D03*
%TO.P,D15,2*%
%TO.N,index2_top*%
X223266126Y-101251688D03*
D11*
X223516126Y-101251688D03*
D13*
X225426126Y-101251688D03*
%TD*%
D10*
%TO.P,D16,1*%
%TO.N,P4*%
X203506126Y-161251688D03*
D11*
X204316126Y-161251688D03*
D12*
X205666126Y-161251688D03*
%TO.P,D16,2*%
%TO.N,mod_cluster*%
X208966126Y-161251688D03*
D11*
X209216126Y-161251688D03*
D13*
X211126126Y-161251688D03*
%TD*%
D14*
%TO.P,REF\u002A\u002A,1*%
%TO.N,P4*%
X238614343Y-170582261D03*
%TD*%
D22*
%TO.P,_41,*%
%TO.N,*%
X276236125Y-114281688D03*
D23*
X274966126Y-114281688D03*
D24*
X274458126Y-114281688D03*
D25*
X262774126Y-114281688D03*
D26*
X262266126Y-114281688D03*
D22*
X260996126Y-114281688D03*
D27*
X260996126Y-114281688D03*
D22*
X276236126Y-116821688D03*
D23*
X274966126Y-116821688D03*
D24*
X274458126Y-116821688D03*
D25*
X262774126Y-116821688D03*
D26*
X262266126Y-116821688D03*
D22*
X260996126Y-116821688D03*
X276236126Y-119361688D03*
D23*
X274966126Y-119361688D03*
D24*
X274458126Y-119361688D03*
D25*
X262774126Y-119361688D03*
D26*
X262266126Y-119361688D03*
D22*
X260996126Y-119361688D03*
X260996126Y-121901687D03*
X276236126Y-121901688D03*
D24*
X274458126Y-121901688D03*
D25*
X262774126Y-121901688D03*
D26*
X262266127Y-121901688D03*
D23*
X274966126Y-121901689D03*
D22*
X276236126Y-124441688D03*
D23*
X274966126Y-124441688D03*
D24*
X274458126Y-124441688D03*
D25*
X262774125Y-124441688D03*
D26*
X262266126Y-124441688D03*
D22*
X260996126Y-124441688D03*
X276236126Y-126981688D03*
D23*
X274966126Y-126981688D03*
D24*
X274458126Y-126981688D03*
D25*
X262774126Y-126981688D03*
D26*
X262266126Y-126981688D03*
D22*
X260996126Y-126981688D03*
X276236126Y-129521688D03*
D23*
X274966126Y-129521688D03*
D24*
X274458126Y-129521688D03*
D25*
X262774126Y-129521688D03*
D26*
X262266126Y-129521688D03*
D22*
X260996126Y-129521688D03*
X276236126Y-132061688D03*
D23*
X274966126Y-132061688D03*
D24*
X274458127Y-132061688D03*
D25*
X262774126Y-132061688D03*
D26*
X262266126Y-132061688D03*
D22*
X260996126Y-132061688D03*
D26*
X262266126Y-134601687D03*
D23*
X274966125Y-134601688D03*
D24*
X274458126Y-134601688D03*
D25*
X262774126Y-134601688D03*
D22*
X260996126Y-134601688D03*
X276236126Y-134601689D03*
X276236126Y-137141688D03*
D23*
X274966126Y-137141688D03*
D24*
X274458126Y-137141688D03*
D25*
X262774126Y-137141688D03*
D26*
X262266126Y-137141688D03*
D22*
X260996126Y-137141688D03*
X276236126Y-139681688D03*
D23*
X274966126Y-139681688D03*
D24*
X274458126Y-139681688D03*
D25*
X262774126Y-139681688D03*
D26*
X262266126Y-139681688D03*
D22*
X260996126Y-139681688D03*
X276236126Y-142221688D03*
D23*
X274966126Y-142221688D03*
D24*
X274458126Y-142221688D03*
D25*
X262774126Y-142221688D03*
D26*
X262266126Y-142221688D03*
D22*
X260996127Y-142221688D03*
D28*
%TO.P,_41,1*%
%TO.N,RAW*%
X273442126Y-114281688D03*
D29*
X269378126Y-114281688D03*
D30*
X269378126Y-114281688D03*
D28*
%TO.P,_41,2*%
%TO.N,GND*%
X273442126Y-116821688D03*
D29*
X269378126Y-116821688D03*
D30*
X269378126Y-116821688D03*
D28*
%TO.P,_41,3*%
%TO.N,RST*%
X273442126Y-119361688D03*
D29*
X269378126Y-119361688D03*
D30*
X269378126Y-119361688D03*
D28*
%TO.P,_41,4*%
%TO.N,VCC*%
X273442126Y-121901688D03*
D29*
X269378126Y-121901689D03*
D30*
X269378126Y-121901689D03*
D28*
%TO.P,_41,5*%
%TO.N,P21*%
X273442126Y-124441688D03*
D29*
X269378126Y-124441688D03*
D30*
X269378126Y-124441688D03*
D28*
%TO.P,_41,6*%
%TO.N,P20*%
X273442126Y-126981688D03*
D29*
X269378126Y-126981688D03*
D30*
X269378126Y-126981688D03*
D28*
%TO.P,_41,7*%
%TO.N,P19*%
X273442126Y-129521688D03*
D29*
X269378126Y-129521688D03*
D30*
X269378126Y-129521688D03*
D28*
%TO.P,_41,8*%
%TO.N,P18*%
X273442126Y-132061688D03*
D29*
X269378126Y-132061688D03*
D30*
X269378126Y-132061688D03*
D28*
%TO.P,_41,9*%
%TO.N,P15*%
X273442126Y-134601688D03*
D29*
X269378127Y-134601688D03*
D30*
X269378127Y-134601688D03*
D28*
%TO.P,_41,10*%
%TO.N,P14*%
X273442126Y-137141688D03*
D29*
X269378126Y-137141688D03*
D30*
X269378126Y-137141688D03*
D28*
%TO.P,_41,11*%
%TO.N,P16*%
X273442126Y-139681688D03*
D29*
X269378126Y-139681688D03*
D30*
X269378126Y-139681688D03*
D29*
%TO.P,_41,12*%
%TO.N,P10*%
X269378126Y-142221688D03*
D30*
X269378126Y-142221688D03*
D28*
X273442126Y-142221689D03*
D31*
%TO.P,_41,13*%
%TO.N,P9*%
X267854126Y-142221688D03*
D30*
X267854126Y-142221688D03*
D32*
X263790126Y-142221688D03*
D31*
%TO.P,_41,14*%
%TO.N,P8*%
X267854126Y-139681688D03*
D30*
X267854126Y-139681688D03*
D32*
X263790126Y-139681688D03*
D31*
%TO.P,_41,15*%
%TO.N,P7*%
X267854126Y-137141688D03*
D30*
X267854126Y-137141688D03*
D32*
X263790126Y-137141688D03*
D31*
%TO.P,_41,16*%
%TO.N,P6*%
X267854126Y-134601687D03*
D30*
X267854126Y-134601687D03*
D32*
X263790126Y-134601688D03*
D31*
%TO.P,_41,17*%
%TO.N,P5*%
X267854126Y-132061688D03*
D30*
X267854126Y-132061688D03*
D32*
X263790126Y-132061688D03*
D31*
%TO.P,_41,18*%
%TO.N,P4*%
X267854126Y-129521688D03*
D30*
X267854126Y-129521688D03*
D32*
X263790126Y-129521688D03*
D31*
%TO.P,_41,19*%
%TO.N,P3*%
X267854126Y-126981688D03*
D30*
X267854126Y-126981688D03*
D32*
X263790126Y-126981688D03*
D31*
%TO.P,_41,20*%
%TO.N,P2*%
X267854126Y-124441688D03*
D30*
X267854126Y-124441688D03*
D32*
X263790126Y-124441688D03*
D31*
%TO.P,_41,21*%
%TO.N,GND*%
X267854125Y-121901688D03*
D30*
X267854125Y-121901688D03*
D32*
X263790126Y-121901688D03*
D31*
%TO.P,_41,22*%
X267854126Y-119361688D03*
D30*
X267854126Y-119361688D03*
D32*
X263790126Y-119361688D03*
D31*
%TO.P,_41,23*%
%TO.N,P0*%
X267854126Y-116821688D03*
D30*
X267854126Y-116821688D03*
D32*
X263790126Y-116821688D03*
%TO.P,_41,24*%
%TO.N,P1*%
X263790126Y-114281687D03*
D31*
X267854126Y-114281688D03*
D30*
X267854126Y-114281688D03*
%TD*%
D14*
%TO.P,REF\u002A\u002A,1*%
%TO.N,P10*%
X159616127Y-105251688D03*
%TD*%
D33*
%TO.P,D1,1*%
%TO.N,P19*%
X140801392Y-151239505D03*
D34*
X141608310Y-151168910D03*
D35*
X142953173Y-151051249D03*
%TO.P,D1,2*%
%TO.N,pinky_bottom*%
X146240615Y-150763635D03*
D34*
X146489664Y-150741846D03*
D13*
X148392396Y-150575379D03*
%TD*%
D14*
%TO.P,REF\u002A\u002A,1*%
%TO.N,P4*%
X212316126Y-166251688D03*
%TD*%
%TO.P,REF\u002A\u002A,1*%
%TO.N,P19*%
X150013647Y-155452636D03*
%TD*%
%TO.P,REF\u002A\u002A,1*%
%TO.N,P19*%
X169616126Y-143251688D03*
%TD*%
%TO.P,REF\u002A\u002A,1*%
%TO.N,P14*%
X202316126Y-166251688D03*
%TD*%
D10*
%TO.P,D10,1*%
%TO.N,P19*%
X198806126Y-139251688D03*
D11*
X199616126Y-139251688D03*
D12*
X200966126Y-139251688D03*
%TO.P,D10,2*%
%TO.N,index_bottom*%
X204266126Y-139251688D03*
D11*
X204516126Y-139251688D03*
D13*
X206426126Y-139251688D03*
%TD*%
D14*
%TO.P,REF\u002A\u002A,1*%
%TO.N,P14*%
X197616126Y-125251688D03*
%TD*%
%TO.P,REF\u002A\u002A,1*%
%TO.N,P21*%
X169616126Y-105251688D03*
%TD*%
%TO.P,REF\u002A\u002A,1*%
%TO.N,P15*%
X216616126Y-125251688D03*
%TD*%
D15*
%TO.P,S4,1*%
%TO.N,P10*%
X172686127Y-147951688D03*
%TO.P,S4,2*%
%TO.N,ring_bottom*%
X158346127Y-149001688D03*
%TD*%
D14*
%TO.P,REF\u002A\u002A,1*%
%TO.N,P10*%
X159616127Y-124251688D03*
%TD*%
%TO.P,REF\u002A\u002A,1*%
%TO.N,P18*%
X240616126Y-120251688D03*
%TD*%
D15*
%TO.P,S8,1*%
%TO.N,P16*%
X191686127Y-123951688D03*
%TO.P,S8,2*%
%TO.N,middle_home*%
X177346127Y-125001688D03*
%TD*%
D14*
%TO.P,REF\u002A\u002A,1*%
%TO.N,P9*%
X140051700Y-156324194D03*
%TD*%
%TO.P,REF\u002A\u002A,1*%
%TO.N,P19*%
X226616126Y-144251688D03*
%TD*%
D15*
%TO.P,S12,1*%
%TO.N,P14*%
X210686126Y-110951688D03*
%TO.P,S12,2*%
%TO.N,index_top*%
X196346126Y-112001688D03*
%TD*%
D36*
%TO.P,_46,*%
%TO.N,*%
X194166126Y-156751688D03*
X194649400Y-155584962D03*
X194649400Y-157918414D03*
X195816126Y-155101688D03*
D37*
X195816126Y-156751688D03*
D36*
X195816126Y-158401688D03*
X196982852Y-155584962D03*
X196982852Y-157918414D03*
X197466126Y-156751688D03*
%TD*%
%TO.P,_44,*%
%TO.N,*%
X150574108Y-146369224D03*
X151157229Y-147489390D03*
X150953856Y-145164817D03*
X152074022Y-144581696D03*
D37*
X152217829Y-146225417D03*
D36*
X152361636Y-147869138D03*
X153481802Y-147286017D03*
X153278429Y-144961444D03*
X153861550Y-146081610D03*
%TD*%
D10*
%TO.P,D11,1*%
%TO.N,P20*%
X198806126Y-120251688D03*
D11*
X199616126Y-120251688D03*
D12*
X200966126Y-120251688D03*
%TO.P,D11,2*%
%TO.N,index_home*%
X204266126Y-120251688D03*
D11*
X204516126Y-120251688D03*
D13*
X206426126Y-120251688D03*
%TD*%
D15*
%TO.P,S15,1*%
%TO.N,P15*%
X229686126Y-110951688D03*
%TO.P,S15,2*%
%TO.N,index2_top*%
X215346126Y-112001688D03*
%TD*%
D14*
%TO.P,REF\u002A\u002A,1*%
%TO.N,P19*%
X207616126Y-144251688D03*
%TD*%
D10*
%TO.P,D19,1*%
%TO.N,P19*%
X241806127Y-134251688D03*
D11*
X242616127Y-134251688D03*
D12*
X243966127Y-134251688D03*
%TO.P,D19,2*%
%TO.N,media_one*%
X247266127Y-134251688D03*
D11*
X247516127Y-134251688D03*
D13*
X249426127Y-134251688D03*
%TD*%
D15*
%TO.P,S13,1*%
%TO.N,P15*%
X229686126Y-148951688D03*
%TO.P,S13,2*%
%TO.N,index2_bottom*%
X215346126Y-150001688D03*
%TD*%
%TO.P,S19,1*%
%TO.N,P18*%
X253686126Y-143951688D03*
%TO.P,S19,2*%
%TO.N,media_one*%
X239346126Y-145001688D03*
%TD*%
D38*
%TO.P,D18,1*%
%TO.N,P4*%
X250392882Y-174254705D03*
D39*
X250797882Y-173553225D03*
D40*
X251472882Y-172384091D03*
%TO.P,D18,2*%
%TO.N,space_cluster*%
X253122882Y-169526207D03*
D39*
X253247882Y-169309701D03*
D13*
X254202882Y-167655593D03*
%TD*%
D36*
%TO.P,_47,*%
%TO.N,*%
X243966126Y-104751688D03*
X244449400Y-103584962D03*
X244449400Y-105918414D03*
X245616126Y-103101688D03*
D37*
X245616126Y-104751688D03*
D36*
X245616126Y-106401688D03*
X246782852Y-103584962D03*
X246782852Y-105918414D03*
X247266126Y-104751688D03*
%TD*%
D14*
%TO.P,REF\u002A\u002A,1*%
%TO.N,P21*%
X146701728Y-117597238D03*
%TD*%
D15*
%TO.P,S6,1*%
%TO.N,P10*%
X172686126Y-109951688D03*
%TO.P,S6,2*%
%TO.N,ring_top*%
X158346126Y-111001688D03*
%TD*%
%TO.P,S7,1*%
%TO.N,P16*%
X191686127Y-142951688D03*
%TO.P,S7,2*%
%TO.N,middle_bottom*%
X177346127Y-144001688D03*
%TD*%
%TO.P,S9,1*%
%TO.N,P16*%
X191686127Y-104951688D03*
%TO.P,S9,2*%
%TO.N,middle_top*%
X177346127Y-106001688D03*
%TD*%
D14*
%TO.P,REF\u002A\u002A,1*%
%TO.N,P20*%
X188616126Y-119251688D03*
%TD*%
%TO.P,REF\u002A\u002A,1*%
%TO.N,P19*%
X250616126Y-139251688D03*
%TD*%
%TO.P,REF\u002A\u002A,1*%
%TO.N,P4*%
X259128009Y-169125021D03*
%TD*%
%TO.P,REF\u002A\u002A,1*%
%TO.N,P15*%
X216616126Y-144251688D03*
%TD*%
D33*
%TO.P,D2,1*%
%TO.N,P20*%
X139145433Y-132311805D03*
D34*
X139952351Y-132241210D03*
D35*
X141297214Y-132123549D03*
%TO.P,D2,2*%
%TO.N,pinky_home*%
X144584656Y-131835935D03*
D34*
X144833705Y-131814146D03*
D13*
X146736437Y-131647679D03*
%TD*%
D10*
%TO.P,D14,1*%
%TO.N,P20*%
X217806126Y-120251688D03*
D11*
X218616126Y-120251688D03*
D12*
X219966126Y-120251688D03*
%TO.P,D14,2*%
%TO.N,index2_home*%
X223266126Y-120251688D03*
D11*
X223516126Y-120251688D03*
D13*
X225426126Y-120251688D03*
%TD*%
D14*
%TO.P,REF\u002A\u002A,1*%
%TO.N,P9*%
X136739781Y-118468796D03*
%TD*%
%TO.P,REF\u002A\u002A,1*%
%TO.N,P14*%
X197616126Y-144251688D03*
%TD*%
%TO.P,REF\u002A\u002A,1*%
%TO.N,P18*%
X240616126Y-139251688D03*
%TD*%
%TO.P,REF\u002A\u002A,1*%
%TO.N,P21*%
X226616126Y-106251688D03*
%TD*%
%TO.P,REF\u002A\u002A,1*%
%TO.N,P14*%
X197616126Y-106251688D03*
%TD*%
%TO.P,REF\u002A\u002A,1*%
%TO.N,P16*%
X178616127Y-119251688D03*
%TD*%
D36*
%TO.P,_48,*%
%TO.N,*%
X246966126Y-155751688D03*
X247449400Y-154584962D03*
X247449400Y-156918414D03*
X248616126Y-154101688D03*
D37*
X248616126Y-155751688D03*
D36*
X248616126Y-157401688D03*
X249782852Y-154584962D03*
X249782852Y-156918414D03*
X250266126Y-155751688D03*
%TD*%
D15*
%TO.P,S10,1*%
%TO.N,P14*%
X210686126Y-148951688D03*
%TO.P,S10,2*%
%TO.N,index_bottom*%
X196346126Y-150001688D03*
%TD*%
%TO.P,S16,1*%
%TO.N,P14*%
X215386126Y-170951688D03*
%TO.P,S16,2*%
%TO.N,mod_cluster*%
X201046126Y-172001688D03*
%TD*%
D41*
%TO.P,_42,*%
%TO.N,*%
X272725772Y-153593009D03*
X269220772Y-159663846D03*
D42*
%TO.P,_42,1*%
%TO.N,GND*%
X274257174Y-155920539D03*
%TO.P,_42,2*%
%TO.N,RST*%
X272007175Y-159817653D03*
%TD*%
D20*
%TO.P,S3,1*%
%TO.N,P9*%
X150169678Y-122011785D03*
%TO.P,S3,2*%
%TO.N,pinky_top*%
X135975759Y-124307603D03*
%TD*%
D14*
%TO.P,REF\u002A\u002A,1*%
%TO.N,P20*%
X148357688Y-136524937D03*
%TD*%
%TO.P,REF\u002A\u002A,1*%
%TO.N,P20*%
X169616126Y-124251688D03*
%TD*%
D20*
%TO.P,S2,1*%
%TO.N,P9*%
X151825637Y-140939485D03*
%TO.P,S2,2*%
%TO.N,pinky_home*%
X137631718Y-143235303D03*
%TD*%
D10*
%TO.P,D8,1*%
%TO.N,P20*%
X179806126Y-114251688D03*
D11*
X180616126Y-114251688D03*
D12*
X181966126Y-114251688D03*
%TO.P,D8,2*%
%TO.N,middle_home*%
X185266126Y-114251688D03*
D11*
X185516126Y-114251688D03*
D13*
X187426126Y-114251688D03*
%TD*%
D14*
%TO.P,REF\u002A\u002A,1*%
%TO.N,P10*%
X159616126Y-143251687D03*
%TD*%
D43*
%TO.P,S18,1*%
%TO.N,P18*%
X264733328Y-168816323D03*
%TO.P,S18,2*%
%TO.N,space_cluster*%
X258472655Y-181760128D03*
%TD*%
D33*
%TO.P,D3,1*%
%TO.N,P21*%
X137489474Y-113384107D03*
D34*
X138296392Y-113313512D03*
D35*
X139641255Y-113195851D03*
%TO.P,D3,2*%
%TO.N,pinky_top*%
X142928697Y-112908237D03*
D34*
X143177746Y-112886448D03*
D13*
X145080478Y-112719981D03*
%TD*%
D36*
%TO.P,_45,*%
%TO.N,*%
X191466127Y-115751688D03*
X191949401Y-114584962D03*
X191949401Y-116918414D03*
X193116127Y-114101688D03*
D37*
X193116127Y-115751688D03*
D36*
X193116127Y-117401688D03*
X194282853Y-114584962D03*
X194282853Y-116918414D03*
X194766127Y-115751688D03*
%TD*%
D15*
%TO.P,S14,1*%
%TO.N,P15*%
X229686126Y-129951688D03*
%TO.P,S14,2*%
%TO.N,index2_home*%
X215346126Y-131001688D03*
%TD*%
D36*
%TO.P,_43,*%
%TO.N,*%
X151271806Y-114185948D03*
X151854927Y-115306114D03*
X151651554Y-112981541D03*
X152771720Y-112398420D03*
D37*
X152915527Y-114042141D03*
D36*
X153059334Y-115685862D03*
X154179500Y-115102741D03*
X153976127Y-112778168D03*
X154559248Y-113898334D03*
%TD*%
D15*
%TO.P,S11,1*%
%TO.N,P14*%
X210686126Y-129951688D03*
%TO.P,S11,2*%
%TO.N,index_home*%
X196346126Y-131001688D03*
%TD*%
D14*
%TO.P,REF\u002A\u002A,1*%
%TO.N,P21*%
X207616126Y-106251688D03*
%TD*%
%TO.P,REF\u002A\u002A,1*%
%TO.N,P15*%
X228955085Y-167994071D03*
%TD*%
D44*
%TO.P,OLED1,1*%
%TO.N,GND*%
X272416127Y-146151688D03*
D45*
%TO.P,OLED1,2*%
%TO.N,VCC*%
X269876126Y-146151688D03*
%TO.P,OLED1,3*%
%TO.N,P3*%
X267336126Y-146151688D03*
%TO.P,OLED1,4*%
%TO.N,P2*%
X264796126Y-146151688D03*
%TD*%
D14*
%TO.P,REF\u002A\u002A,1*%
%TO.N,P16*%
X178616127Y-100251688D03*
%TD*%
D46*
%TO.N,RST*%
X278500000Y-125975000D03*
%TD*%
D47*
%TO.N,GND*%
X267854126Y-119361688D02*
X267854125Y-121901688D01*
X269378126Y-116821688D02*
X269378126Y-117121874D01*
X269378126Y-117121874D02*
X267854126Y-118645874D01*
X267854126Y-118645874D02*
X267854126Y-119361688D01*
%TO.N,RST*%
X278500000Y-125975000D02*
X278500000Y-120034571D01*
X278500000Y-120034571D02*
X276702117Y-118236688D01*
X276702117Y-118236688D02*
X270503126Y-118236688D01*
X270503126Y-118236688D02*
X269378126Y-119361688D01*
%TO.N,P9*%
X231186396Y-153400000D02*
X233500000Y-151086396D01*
X193050000Y-149513755D02*
X193050000Y-151822792D01*
X156330297Y-153049271D02*
X170695702Y-153049271D01*
X175744973Y-148000000D02*
X191536245Y-148000000D01*
X153481596Y-159867183D02*
X153481596Y-155897972D01*
X170695702Y-153049271D02*
X175744973Y-148000000D01*
X194627208Y-153400000D02*
X231186396Y-153400000D01*
X193050000Y-151822792D02*
X194627208Y-153400000D01*
X233500000Y-151086396D02*
X252413604Y-151086396D01*
X153481596Y-155897972D02*
X156330297Y-153049271D01*
X191536245Y-148000000D02*
X193050000Y-149513755D01*
X258500000Y-145000000D02*
X262500000Y-145000000D01*
X252413604Y-151086396D02*
X258500000Y-145000000D01*
X262500000Y-145000000D02*
X265278312Y-142221688D01*
X265278312Y-142221688D02*
X267854126Y-142221688D01*
%TO.N,P10*%
X252085606Y-150636396D02*
X257950000Y-144772002D01*
X233136396Y-150636396D02*
X252085606Y-150636396D01*
X174048312Y-147951688D02*
X175000000Y-147000000D01*
X172686127Y-147951688D02*
X174048312Y-147951688D01*
X257950000Y-144772002D02*
X257950000Y-142500000D01*
X194813604Y-152950000D02*
X230822792Y-152950000D01*
X257950000Y-142500000D02*
X259445312Y-141004688D01*
X175000000Y-147000000D02*
X193500000Y-147000000D01*
X193500000Y-147000000D02*
X193500000Y-151636396D01*
X193500000Y-151636396D02*
X194813604Y-152950000D01*
X230822792Y-152950000D02*
X233136396Y-150636396D01*
X259445312Y-141004688D02*
X268161126Y-141004688D01*
X268161126Y-141004688D02*
X269378126Y-142221688D01*
%TO.N,P16*%
X191686127Y-142951688D02*
X194746126Y-146011687D01*
X252017408Y-150068198D02*
X257500000Y-144585606D01*
X268161126Y-138464688D02*
X269378126Y-139681688D01*
X194746126Y-146011687D02*
X194746126Y-152246126D01*
X257500000Y-144585606D02*
X257500000Y-139500000D01*
X194746126Y-152246126D02*
X195000000Y-152500000D01*
X195000000Y-152500000D02*
X230636396Y-152500000D01*
X230636396Y-152500000D02*
X233068198Y-150068198D01*
X233068198Y-150068198D02*
X252017408Y-150068198D01*
X257500000Y-139500000D02*
X258535312Y-138464688D01*
X258535312Y-138464688D02*
X268161126Y-138464688D01*
%TO.N,P10*%
X172686127Y-147951688D02*
X173042538Y-147595277D01*
%TO.N,P14*%
X251949210Y-149500000D02*
X257000000Y-144449210D01*
X233000000Y-149500000D02*
X251949210Y-149500000D01*
X210686126Y-148951688D02*
X213611126Y-151876688D01*
X257000000Y-137500000D02*
X258575312Y-135924688D01*
X213611126Y-151876688D02*
X230623312Y-151876688D01*
X257000000Y-144449210D02*
X257000000Y-137500000D01*
X230623312Y-151876688D02*
X233000000Y-149500000D01*
X258575312Y-135924688D02*
X268161126Y-135924688D01*
X268161126Y-135924688D02*
X269378126Y-137141688D01*
%TO.N,P15*%
X256500000Y-144312814D02*
X256500000Y-135500000D01*
X251861126Y-148951688D02*
X256500000Y-144312814D01*
X256500000Y-135500000D02*
X258615313Y-133384687D01*
X229686126Y-148951688D02*
X251861126Y-148951688D01*
X258615313Y-133384687D02*
X268161126Y-133384687D01*
X268161126Y-133384687D02*
X269378127Y-134601688D01*
%TO.N,P18*%
X253686126Y-143951688D02*
X256000000Y-141637814D01*
X268161126Y-130844688D02*
X269378126Y-132061688D01*
X256000000Y-141637814D02*
X256000000Y-133563219D01*
X256000000Y-133563219D02*
X258718531Y-130844688D01*
X258718531Y-130844688D02*
X268161126Y-130844688D01*
%TO.N,P4*%
X259128009Y-169125021D02*
X267214184Y-161038846D01*
X267214184Y-161038846D02*
X272565319Y-161038846D01*
X272565319Y-161038846D02*
X277500000Y-156104165D01*
X277500000Y-156104165D02*
X277500000Y-131500000D01*
X277500000Y-131500000D02*
X276742689Y-130742689D01*
X276742689Y-130742689D02*
X269075127Y-130742689D01*
X269075127Y-130742689D02*
X267854126Y-129521688D01*
%TO.N,P19*%
X250616126Y-139251688D02*
X250616126Y-138310697D01*
X250616126Y-138310697D02*
X260622135Y-128304688D01*
X260622135Y-128304688D02*
X268161126Y-128304688D01*
X268161126Y-128304688D02*
X269378126Y-129521688D01*
%TO.N,P20*%
X250616126Y-120251688D02*
X254925135Y-120251688D01*
X254925135Y-120251688D02*
X260438135Y-125764688D01*
X260438135Y-125764688D02*
X268161126Y-125764688D01*
X268161126Y-125764688D02*
X269378126Y-126981688D01*
%TO.N,P21*%
X226616126Y-106251688D02*
X228161126Y-106251688D01*
X228161126Y-106251688D02*
X235497126Y-113587688D01*
X235497126Y-113587688D02*
X251091136Y-113587688D01*
X260728136Y-123224688D02*
X268161126Y-123224688D01*
X251091136Y-113587688D02*
X260728136Y-123224688D01*
X268161126Y-123224688D02*
X269378126Y-124441688D01*
%TO.N,media_two*%
X239346126Y-126001688D02*
X239341126Y-125996688D01*
X248212127Y-114037688D02*
X249426127Y-115251688D01*
X239341126Y-125996688D02*
X239341126Y-115158874D01*
X239341126Y-115158874D02*
X240462312Y-114037688D01*
X240462312Y-114037688D02*
X248212127Y-114037688D01*
%TO.N,P18*%
X253686126Y-124951688D02*
X251429286Y-122694848D01*
X251429286Y-122694848D02*
X247194848Y-122694848D01*
X243460026Y-123095588D02*
X240616126Y-120251688D01*
X247194848Y-122694848D02*
X246794108Y-123095588D01*
X246794108Y-123095588D02*
X243460026Y-123095588D01*
%TO.N,media_one*%
X239346126Y-145001688D02*
X239341126Y-144996688D01*
X239341126Y-134288689D02*
X240629815Y-133000000D01*
X239341126Y-144996688D02*
X239341126Y-134288689D01*
X240629815Y-133000000D02*
X248174439Y-133000000D01*
X248174439Y-133000000D02*
X249426127Y-134251688D01*
%TO.N,P18*%
X253686126Y-143951688D02*
X251811126Y-142076688D01*
X246794108Y-142095588D02*
X243460026Y-142095588D01*
X251811126Y-142076688D02*
X246813008Y-142076688D01*
X243460026Y-142095588D02*
X240616126Y-139251688D01*
X246813008Y-142076688D02*
X246794108Y-142095588D01*
%TO.N,space_cluster*%
X248853485Y-171146515D02*
X252500000Y-167500000D01*
X255898891Y-181760128D02*
X248853485Y-174714722D01*
X258472655Y-181760128D02*
X255898891Y-181760128D01*
X248853485Y-174714722D02*
X248853485Y-171146515D01*
X253000000Y-167500000D02*
X253155593Y-167655593D01*
X252500000Y-167500000D02*
X253000000Y-167500000D01*
X253155593Y-167655593D02*
X254202882Y-167655593D01*
%TO.N,P18*%
X264733328Y-168816323D02*
X263289952Y-168816323D01*
X256319764Y-177785275D02*
X254128009Y-177785275D01*
X263289952Y-168816323D02*
X259500000Y-172606275D01*
X259500000Y-174605039D02*
X256319764Y-177785275D01*
X259500000Y-172606275D02*
X259500000Y-174605039D01*
%TO.N,P15*%
X240363286Y-175916687D02*
X240363286Y-174622592D01*
X240363286Y-174622592D02*
X237872760Y-172132066D01*
X237872760Y-172132066D02*
X232132066Y-172132066D01*
X232132066Y-172132066D02*
X228955085Y-168955085D01*
X228955085Y-168955085D02*
X228955085Y-167994071D01*
%TO.N,layer_cluster*%
X226240150Y-173219444D02*
X226240150Y-166453881D01*
X235314347Y-162000000D02*
X238758986Y-165444639D01*
X226240150Y-166453881D02*
X230694031Y-162000000D01*
X230694031Y-162000000D02*
X235314347Y-162000000D01*
%TO.N,P15*%
X229686126Y-148951688D02*
X227734438Y-147000000D01*
X222889696Y-147000000D02*
X222794108Y-147095588D01*
X219460026Y-147095588D02*
X216616126Y-144251688D01*
X227734438Y-147000000D02*
X222889696Y-147000000D01*
X222794108Y-147095588D02*
X219460026Y-147095588D01*
%TO.N,index2_bottom*%
X215346126Y-150001688D02*
X215341126Y-149996688D01*
X215341126Y-149996688D02*
X215341126Y-139288688D01*
X215341126Y-139288688D02*
X216629814Y-138000000D01*
X216629814Y-138000000D02*
X224174438Y-138000000D01*
X224174438Y-138000000D02*
X225426126Y-139251688D01*
%TO.N,P15*%
X229686126Y-129951688D02*
X227811126Y-128076688D01*
X227811126Y-128076688D02*
X222813008Y-128076688D01*
X222813008Y-128076688D02*
X222794108Y-128095588D01*
X219460026Y-128095588D02*
X216616126Y-125251688D01*
X222794108Y-128095588D02*
X219460026Y-128095588D01*
%TO.N,index2_home*%
X215346126Y-131001688D02*
X215341126Y-130996688D01*
X215341126Y-130996688D02*
X215341126Y-120158874D01*
X224174438Y-119000000D02*
X225426126Y-120251688D01*
X215341126Y-120158874D02*
X216500000Y-119000000D01*
X216500000Y-119000000D02*
X224174438Y-119000000D01*
%TO.N,P15*%
X229686126Y-110951688D02*
X227734438Y-109000000D01*
X219864438Y-109500000D02*
X216616126Y-106251688D01*
X227734438Y-109000000D02*
X222889696Y-109000000D01*
X222389696Y-109500000D02*
X219864438Y-109500000D01*
X222889696Y-109000000D02*
X222389696Y-109500000D01*
%TO.N,index2_top*%
X215346126Y-112001688D02*
X215341126Y-111996688D01*
X215341126Y-111996688D02*
X215341126Y-100610562D01*
X215341126Y-100610562D02*
X215914000Y-100037688D01*
X215914000Y-100037688D02*
X224212126Y-100037688D01*
X224212126Y-100037688D02*
X225426126Y-101251688D01*
%TO.N,mod_cluster*%
X201046126Y-172001688D02*
X201041126Y-171996688D01*
X201962312Y-160037688D02*
X209912126Y-160037688D01*
X201041126Y-171996688D02*
X201041126Y-160958874D01*
X201041126Y-160958874D02*
X201962312Y-160037688D01*
X209912126Y-160037688D02*
X211126126Y-161251688D01*
%TO.N,P14*%
X215386126Y-170951688D02*
X212729286Y-168294848D01*
X209294848Y-168294848D02*
X208494108Y-169095588D01*
X208494108Y-169095588D02*
X205160026Y-169095588D01*
X212729286Y-168294848D02*
X209294848Y-168294848D01*
X205160026Y-169095588D02*
X202316126Y-166251688D01*
%TO.N,index_bottom*%
X196346126Y-150001688D02*
X196341126Y-149996688D01*
X196341126Y-139288688D02*
X197629814Y-138000000D01*
X196341126Y-149996688D02*
X196341126Y-139288688D01*
X197629814Y-138000000D02*
X205174438Y-138000000D01*
X205174438Y-138000000D02*
X206426126Y-139251688D01*
%TO.N,P14*%
X210686126Y-148951688D02*
X208234438Y-146500000D01*
X208234438Y-146500000D02*
X204389696Y-146500000D01*
X204389696Y-146500000D02*
X203794108Y-147095588D01*
X200460026Y-147095588D02*
X197616126Y-144251688D01*
X203794108Y-147095588D02*
X200460026Y-147095588D01*
%TO.N,index_home*%
X196346126Y-131001688D02*
X196341126Y-130996688D01*
X197462312Y-119037688D02*
X205212126Y-119037688D01*
X196341126Y-130996688D02*
X196341126Y-120158874D01*
X196341126Y-120158874D02*
X197462312Y-119037688D01*
X205212126Y-119037688D02*
X206426126Y-120251688D01*
%TO.N,P14*%
X210686126Y-129951688D02*
X208734438Y-128000000D01*
X208734438Y-128000000D02*
X203889696Y-128000000D01*
X203889696Y-128000000D02*
X203794108Y-128095588D01*
X203794108Y-128095588D02*
X200460026Y-128095588D01*
X200460026Y-128095588D02*
X197616126Y-125251688D01*
%TO.N,index_top*%
X196346126Y-112001688D02*
X196341126Y-111996688D01*
X197592126Y-100037688D02*
X205212126Y-100037688D01*
X196341126Y-111996688D02*
X196341126Y-101288688D01*
X196341126Y-101288688D02*
X197592126Y-100037688D01*
X205212126Y-100037688D02*
X206426126Y-101251688D01*
%TO.N,P14*%
X210686126Y-110951688D02*
X208811126Y-109076688D01*
X205923312Y-109076688D02*
X205904412Y-109095588D01*
X200460026Y-109095588D02*
X197616126Y-106251688D01*
X208811126Y-109076688D02*
X205923312Y-109076688D01*
X205904412Y-109095588D02*
X200460026Y-109095588D01*
%TO.N,middle_bottom*%
X177346127Y-144001688D02*
X177341127Y-143996688D01*
X177341127Y-133158873D02*
X178462312Y-132037688D01*
X177341127Y-143996688D02*
X177341127Y-133158873D01*
X186212126Y-132037688D02*
X187426126Y-133251688D01*
X178462312Y-132037688D02*
X186212126Y-132037688D01*
%TO.N,middle_home*%
X177346127Y-125001688D02*
X177341127Y-124996688D01*
X177341127Y-124996688D02*
X177341127Y-114288687D01*
X177341127Y-114288687D02*
X178592126Y-113037688D01*
X178592126Y-113037688D02*
X186212126Y-113037688D01*
X186212126Y-113037688D02*
X187426126Y-114251688D01*
%TO.N,middle_top*%
X177346127Y-106001688D02*
X177341127Y-105996688D01*
X177341127Y-105996688D02*
X177341127Y-95288687D01*
X178629814Y-94000000D02*
X186174438Y-94000000D01*
X186174438Y-94000000D02*
X187426126Y-95251688D01*
X177341127Y-95288687D02*
X178629814Y-94000000D01*
%TO.N,P16*%
X191686127Y-104951688D02*
X188679288Y-101944849D01*
X188679288Y-101944849D02*
X187528549Y-103095588D01*
X187528549Y-103095588D02*
X181460027Y-103095588D01*
X181460027Y-103095588D02*
X178616127Y-100251688D01*
X191686127Y-123951688D02*
X189734439Y-122000000D01*
X184889697Y-122000000D02*
X184794109Y-122095588D01*
X189734439Y-122000000D02*
X184889697Y-122000000D01*
X184794109Y-122095588D02*
X181460027Y-122095588D01*
X181460027Y-122095588D02*
X178616127Y-119251688D01*
X191686127Y-142951688D02*
X191661127Y-142951688D01*
X191661127Y-142951688D02*
X188709439Y-140000000D01*
X187613851Y-141095588D02*
X181460027Y-141095588D01*
X188709439Y-140000000D02*
X187613851Y-141095588D01*
X181460027Y-141095588D02*
X178616127Y-138251688D01*
%TO.N,ring_top*%
X158346126Y-111001688D02*
X158341126Y-110996688D01*
X158341126Y-110996688D02*
X158341126Y-100288688D01*
X158341126Y-100288688D02*
X159629814Y-99000000D01*
X167174438Y-99000000D02*
X168426126Y-100251688D01*
X159629814Y-99000000D02*
X167174438Y-99000000D01*
%TO.N,ring_home*%
X158346127Y-130001688D02*
X158341127Y-129996688D01*
X158341127Y-129996688D02*
X158341127Y-119288687D01*
X159629814Y-118000000D02*
X167174438Y-118000000D01*
X167174438Y-118000000D02*
X168426126Y-119251688D01*
X158341127Y-119288687D02*
X159629814Y-118000000D01*
%TO.N,ring_bottom*%
X158346127Y-149001688D02*
X158341127Y-148996688D01*
X158341127Y-148996688D02*
X158341127Y-138288687D01*
X158341127Y-138288687D02*
X159629814Y-137000000D01*
X159629814Y-137000000D02*
X167174438Y-137000000D01*
X167174438Y-137000000D02*
X168426126Y-138251688D01*
%TO.N,P10*%
X172686127Y-147951688D02*
X170811127Y-146076688D01*
X165813009Y-146076688D02*
X165794109Y-146095588D01*
X165794109Y-146095588D02*
X162460027Y-146095588D01*
X170811127Y-146076688D02*
X165813009Y-146076688D01*
X162460027Y-146095588D02*
X159616126Y-143251687D01*
X172686127Y-128951688D02*
X170811127Y-127076688D01*
X170811127Y-127076688D02*
X165813009Y-127076688D01*
X165813009Y-127076688D02*
X165794109Y-127095588D01*
X162460027Y-127095588D02*
X159616127Y-124251688D01*
X165794109Y-127095588D02*
X162460027Y-127095588D01*
X172686126Y-109951688D02*
X169234438Y-106500000D01*
X169234438Y-106500000D02*
X167638850Y-108095588D01*
X167638850Y-108095588D02*
X162460027Y-108095588D01*
X162460027Y-108095588D02*
X159616127Y-105251688D01*
%TO.N,pinky_top*%
X135975759Y-124307603D02*
X135872131Y-124203975D01*
X135872131Y-124203975D02*
X135872131Y-112770594D01*
X135872131Y-112770594D02*
X137142725Y-111500000D01*
X137142725Y-111500000D02*
X143860497Y-111500000D01*
X143860497Y-111500000D02*
X145080478Y-112719981D01*
%TO.N,pinky_home*%
X137631718Y-143235303D02*
X137528090Y-143131675D01*
X137528090Y-131698292D02*
X138226382Y-131000000D01*
X137528090Y-143131675D02*
X137528090Y-131698292D01*
X138226382Y-131000000D02*
X146088758Y-131000000D01*
X146088758Y-131000000D02*
X146736437Y-131647679D01*
%TO.N,pinky_bottom*%
X139287677Y-162163001D02*
X139184049Y-162059373D01*
X147768423Y-149951406D02*
X148392396Y-150575379D01*
X139184049Y-162059373D02*
X139184049Y-150625992D01*
X139858635Y-149951406D02*
X147768423Y-149951406D01*
X139184049Y-150625992D02*
X139858635Y-149951406D01*
%TO.N,P9*%
X140051700Y-156324194D02*
X142459821Y-158732315D01*
X142459821Y-158732315D02*
X146767685Y-158732315D01*
X147187955Y-158312045D02*
X151926458Y-158312045D01*
X146767685Y-158732315D02*
X147187955Y-158312045D01*
X151926458Y-158312045D02*
X153481596Y-159867183D01*
X138395740Y-137396495D02*
X141481942Y-140482697D01*
X141481942Y-140482697D02*
X146294603Y-140482697D01*
X150270499Y-139384347D02*
X151825637Y-140939485D01*
X146294603Y-140482697D02*
X147392953Y-139384347D01*
X147392953Y-139384347D02*
X150270499Y-139384347D01*
X150169678Y-122011785D02*
X148614540Y-120456647D01*
X148614540Y-120456647D02*
X144543353Y-120456647D01*
X144543353Y-120456647D02*
X144123083Y-120876917D01*
X139147902Y-120876917D02*
X136739781Y-118468796D01*
X144123083Y-120876917D02*
X139147902Y-120876917D01*
%TO.N,P4*%
X251472882Y-172384091D02*
X252165702Y-172384091D01*
X255424772Y-169125021D02*
X259128009Y-169125021D01*
X252165702Y-172384091D02*
X255424772Y-169125021D01*
X233485030Y-164031485D02*
X238614343Y-169160798D01*
X238614343Y-169160798D02*
X238614343Y-170582261D01*
X205666126Y-161251688D02*
X207500000Y-163085562D01*
X207500000Y-163085562D02*
X209150000Y-163085562D01*
X209150000Y-163085562D02*
X212316126Y-166251688D01*
%TO.N,P21*%
X219966126Y-101251688D02*
X221616126Y-101251688D01*
X221616126Y-101251688D02*
X226616126Y-106251688D01*
X200966126Y-101251688D02*
X201666126Y-101251688D01*
X201666126Y-101251688D02*
X206666126Y-106251688D01*
X206666126Y-106251688D02*
X207616126Y-106251688D01*
X181966126Y-95251688D02*
X183616126Y-95251688D01*
X183616126Y-95251688D02*
X188616126Y-100251688D01*
X162966126Y-100251688D02*
X163666126Y-100251688D01*
X163666126Y-100251688D02*
X168666126Y-105251688D01*
X168666126Y-105251688D02*
X169616126Y-105251688D01*
X139641255Y-113195851D02*
X141634521Y-115189117D01*
X144293607Y-115189117D02*
X146701728Y-117597238D01*
X141634521Y-115189117D02*
X144293607Y-115189117D01*
%TO.N,P20*%
X243966127Y-115251688D02*
X245616126Y-115251688D01*
X245616126Y-115251688D02*
X250616126Y-120251688D01*
X219966126Y-120251688D02*
X221616126Y-120251688D01*
X221616126Y-120251688D02*
X226616126Y-125251688D01*
X200966126Y-120251688D02*
X202616126Y-120251688D01*
X202616126Y-120251688D02*
X207616126Y-125251688D01*
X181966126Y-114251688D02*
X183616126Y-114251688D01*
X183616126Y-114251688D02*
X188616126Y-119251688D01*
X162966126Y-119251688D02*
X164616126Y-119251688D01*
X164616126Y-119251688D02*
X169616126Y-124251688D01*
X141297214Y-132123549D02*
X143290482Y-134116817D01*
X143290482Y-134116817D02*
X145949568Y-134116817D01*
X145949568Y-134116817D02*
X148357688Y-136524937D01*
%TO.N,P19*%
X243966127Y-134251688D02*
X245616126Y-134251688D01*
X245616126Y-134251688D02*
X250616126Y-139251688D01*
X219966126Y-139251688D02*
X221616126Y-139251688D01*
X221616126Y-139251688D02*
X226616126Y-144251688D01*
X200966126Y-139251688D02*
X201666126Y-139251688D01*
X201666126Y-139251688D02*
X206666126Y-144251688D01*
X206666126Y-144251688D02*
X207616126Y-144251688D01*
X181966126Y-133251688D02*
X183616126Y-133251688D01*
X183616126Y-133251688D02*
X188616126Y-138251688D01*
X162966126Y-138251688D02*
X163666126Y-138251688D01*
X163666126Y-138251688D02*
X168666126Y-143251688D01*
X168666126Y-143251688D02*
X169616126Y-143251688D01*
X142953173Y-151051249D02*
X144217389Y-151051249D01*
X144217389Y-151051249D02*
X148618776Y-155452636D01*
X148618776Y-155452636D02*
X150013647Y-155452636D01*
%TD*%
M02*
