%TF.GenerationSoftware,KiCad,Pcbnew,8.0.0*%
%TF.CreationDate,2024-03-23T03:27:30+01:00*%
%TF.ProjectId,cornish-v1.2,636f726e-6973-4682-9d76-312e322e6b69,v1.0.0*%
%TF.SameCoordinates,Original*%
%TF.FileFunction,Paste,Bot*%
%TF.FilePolarity,Positive*%
%FSLAX46Y46*%
G04 Gerber Fmt 4.6, Leading zero omitted, Abs format (unit mm)*
G04 Created by KiCad (PCBNEW 8.0.0) date 2024-03-23 03:27:30*
%MOMM*%
%LPD*%
G01*
G04 APERTURE LIST*
G04 Aperture macros list*
%AMRotRect*
0 Rectangle, with rotation*
0 The origin of the aperture is its center*
0 $1 length*
0 $2 width*
0 $3 Rotation angle, in degrees counterclockwise*
0 Add horizontal line*
21,1,$1,$2,0,0,$3*%
G04 Aperture macros list end*
%ADD10R,0.900000X1.200000*%
%ADD11R,2.550000X2.500000*%
%ADD12RotRect,0.900000X1.200000X345.000000*%
%ADD13RotRect,2.550000X2.500000X5.000000*%
%ADD14RotRect,2.550000X2.500000X345.000000*%
%ADD15RotRect,0.900000X1.200000X5.000000*%
%ADD16RotRect,0.900000X1.200000X60.000000*%
%ADD17RotRect,2.550000X2.500000X60.000000*%
G04 APERTURE END LIST*
D10*
%TO.C,D12*%
X200966126Y-101251688D03*
X204266126Y-101251688D03*
%TD*%
D11*
%TO.C,S5*%
X156546127Y-128951688D03*
X170886127Y-130001688D03*
%TD*%
D10*
%TO.C,D20*%
X243966127Y-115251688D03*
X247266127Y-115251688D03*
%TD*%
%TO.C,D13*%
X219966126Y-139251688D03*
X223266126Y-139251688D03*
%TD*%
D11*
%TO.C,S20*%
X237546126Y-124951688D03*
X251886126Y-126001688D03*
%TD*%
D10*
%TO.C,D9*%
X181966126Y-95251688D03*
X185266126Y-95251688D03*
%TD*%
%TO.C,D6*%
X162966126Y-100251688D03*
X166266126Y-100251688D03*
%TD*%
%TO.C,D7*%
X181966126Y-133251688D03*
X185266126Y-133251688D03*
%TD*%
D12*
%TO.C,D17*%
X233485030Y-164031485D03*
X236672588Y-164885589D03*
%TD*%
D10*
%TO.C,D4*%
X162966126Y-138251688D03*
X166266126Y-138251688D03*
%TD*%
D13*
%TO.C,S1*%
X137403014Y-161273877D03*
X151779959Y-161070068D03*
%TD*%
D10*
%TO.C,D5*%
X162966126Y-119251688D03*
X166266126Y-119251688D03*
%TD*%
D14*
%TO.C,S17*%
X224773244Y-171739348D03*
X238352860Y-176465035D03*
%TD*%
D10*
%TO.C,D15*%
X219966126Y-101251688D03*
X223266126Y-101251688D03*
%TD*%
%TO.C,D16*%
X205666126Y-161251688D03*
X208966126Y-161251688D03*
%TD*%
D15*
%TO.C,D1*%
X142953173Y-151051249D03*
X146240615Y-150763635D03*
%TD*%
D10*
%TO.C,D10*%
X200966126Y-139251688D03*
X204266126Y-139251688D03*
%TD*%
D11*
%TO.C,S4*%
X156546127Y-147951688D03*
X170886127Y-149001688D03*
%TD*%
%TO.C,S8*%
X175546127Y-123951688D03*
X189886127Y-125001688D03*
%TD*%
%TO.C,S12*%
X194546126Y-110951688D03*
X208886126Y-112001688D03*
%TD*%
D10*
%TO.C,D11*%
X200966126Y-120251688D03*
X204266126Y-120251688D03*
%TD*%
D11*
%TO.C,S15*%
X213546126Y-110951688D03*
X227886126Y-112001688D03*
%TD*%
D10*
%TO.C,D19*%
X243966127Y-134251688D03*
X247266127Y-134251688D03*
%TD*%
D11*
%TO.C,S13*%
X213546126Y-148951688D03*
X227886126Y-150001688D03*
%TD*%
%TO.C,S19*%
X237546126Y-143951688D03*
X251886126Y-145001688D03*
%TD*%
D16*
%TO.C,D18*%
X251472882Y-172384091D03*
X253122882Y-169526207D03*
%TD*%
D11*
%TO.C,S6*%
X156546126Y-109951688D03*
X170886126Y-111001688D03*
%TD*%
%TO.C,S7*%
X175546127Y-142951688D03*
X189886127Y-144001688D03*
%TD*%
%TO.C,S9*%
X175546127Y-104951688D03*
X189886127Y-106001688D03*
%TD*%
D15*
%TO.C,D2*%
X141297214Y-132123549D03*
X144584656Y-131835935D03*
%TD*%
D10*
%TO.C,D14*%
X219966126Y-120251688D03*
X223266126Y-120251688D03*
%TD*%
D11*
%TO.C,S10*%
X194546126Y-148951688D03*
X208886126Y-150001688D03*
%TD*%
%TO.C,S16*%
X199246126Y-170951688D03*
X213586126Y-172001688D03*
%TD*%
D13*
%TO.C,S3*%
X134091096Y-123418479D03*
X148468041Y-123214670D03*
%TD*%
%TO.C,S2*%
X135747055Y-142346179D03*
X150124000Y-142142370D03*
%TD*%
D10*
%TO.C,D8*%
X181966126Y-114251688D03*
X185266126Y-114251688D03*
%TD*%
D17*
%TO.C,S18*%
X256663328Y-182793973D03*
X264742655Y-170900169D03*
%TD*%
D15*
%TO.C,D3*%
X139641255Y-113195851D03*
X142928697Y-112908237D03*
%TD*%
D11*
%TO.C,S14*%
X213546126Y-129951688D03*
X227886126Y-131001688D03*
%TD*%
%TO.C,S11*%
X194546126Y-129951688D03*
X208886126Y-131001688D03*
%TD*%
M02*
