M48
; DRILL file {KiCad 8.0.0} date 2024-03-23T03:27:25+0100
; FORMAT={-:-/ absolute / inch / decimal}
; #@! TF.CreationDate,2024-03-23T03:27:25+01:00
; #@! TF.GenerationSoftware,Kicad,Pcbnew,8.0.0
; #@! TF.FileFunction,Plated,1,2,PTH
FMAT,2
INCH
; #@! TA.AperFunction,Plated,PTH,ViaDrill
T1C0.0118
; #@! TA.AperFunction,Plated,PTH,ComponentDrill
T2C0.0118
; #@! TA.AperFunction,Plated,PTH,ComponentDrill
T3C0.0157
; #@! TA.AperFunction,Plated,PTH,ComponentDrill
T4C0.0354
; #@! TA.AperFunction,Plated,PTH,ComponentDrill
T5C0.0390
; #@! TA.AperFunction,Plated,PTH,ComponentDrill
T6C0.0390
; #@! TA.AperFunction,Plated,PTH,ComponentDrill
T7C0.0394
; #@! TA.AperFunction,Plated,PTH,ComponentDrill
T8C0.0433
; #@! TA.AperFunction,Plated,PTH,ComponentDrill
T9C0.0512
; #@! TA.AperFunction,Plated,PTH,ComponentDrill
T10C0.0866
%
G90
G05
T1
X10.9646Y-4.9596
T2
X5.3835Y-4.6641
X5.4487Y-5.4093
X5.5138Y-6.1545
X5.7757Y-4.6298
X5.8409Y-5.375
X5.906Y-6.1202
X6.2841Y-5.6398
X6.2841Y-4.1438
X6.2841Y-4.8918
X6.6778Y-4.1438
X6.6778Y-4.8918
X6.6778Y-5.6398
X7.0321Y-3.9469
X7.0321Y-4.6949
X7.0321Y-5.443
X7.4258Y-3.9469
X7.4258Y-4.6949
X7.4258Y-5.443
X7.7802Y-4.1831
X7.7802Y-4.9312
X7.7802Y-5.6792
X7.9652Y-6.5453
X8.1739Y-4.1831
X8.1739Y-4.9312
X8.1739Y-5.6792
X8.3589Y-6.5453
X8.5282Y-4.1831
X8.5282Y-4.9312
X8.5282Y-5.6792
X8.9219Y-4.1831
X8.9219Y-4.9312
X8.9219Y-5.6792
X9.014Y-6.6139
X9.3943Y-6.7158
X9.4731Y-4.7343
X9.4731Y-5.4823
X9.8668Y-4.7343
X9.8668Y-5.4823
X10.005Y-6.9994
X10.2019Y-6.6585
T3
X5.9281Y-5.7626
X5.9431Y-5.7152
X5.9511Y-5.8067
X5.9556Y-4.4955
X5.9705Y-4.4481
X5.9785Y-4.5396
X5.9872Y-5.6922
X5.9985Y-5.8216
X6.0146Y-4.4251
X6.026Y-4.5546
X6.0346Y-5.7071
X6.0426Y-5.7987
X6.0575Y-5.7512
X6.0621Y-4.4401
X6.0701Y-4.5316
X6.085Y-4.4842
X7.538Y-4.5572
X7.5571Y-4.5112
X7.5571Y-4.6031
X7.603Y-4.4922
X7.603Y-4.6221
X7.6443Y-6.1713
X7.6489Y-4.5112
X7.6489Y-4.6031
X7.6634Y-6.1254
X7.6634Y-6.2173
X7.668Y-4.5572
X7.7093Y-6.1064
X7.7093Y-6.2363
X7.7552Y-6.1254
X7.7552Y-6.2173
X7.7743Y-6.1713
X9.605Y-4.1241
X9.624Y-4.0781
X9.624Y-4.17
X9.6699Y-4.0591
X9.6699Y-4.189
X9.7159Y-4.0781
X9.7159Y-4.17
X9.7231Y-6.132
X9.7349Y-4.1241
X9.7421Y-6.086
X9.7421Y-6.1779
X9.788Y-6.067
X9.788Y-6.1969
X9.834Y-6.086
X9.834Y-6.1779
X9.853Y-6.132
X10.5454Y-4.7993
X10.5454Y-4.4993
X10.5454Y-4.5993
X10.5454Y-4.6993
X10.5454Y-4.8993
X10.5454Y-4.9993
X10.5454Y-5.0993
X10.5454Y-5.1993
X10.5454Y-5.2993
X10.5454Y-5.3993
X10.5454Y-5.4993
X10.5454Y-5.5993
X10.6054Y-4.4993
X10.6054Y-4.5993
X10.6054Y-4.6993
X10.6054Y-4.7993
X10.6054Y-4.8993
X10.6054Y-4.9993
X10.6054Y-5.0993
X10.6054Y-5.1993
X10.6054Y-5.3993
X10.6054Y-5.4993
X10.6054Y-5.5993
X10.6054Y-5.2993
T5
X10.7089Y-6.292
X10.7975Y-6.1386
T6
X5.413Y-4.4639
X5.4782Y-5.2091
X5.5434Y-5.9543
X5.7118Y-4.4378
X5.777Y-5.183
X5.8422Y-5.9282
X6.3309Y-3.9469
X6.3309Y-4.6949
X6.3309Y-5.443
X6.6309Y-3.9469
X6.6309Y-4.6949
X6.6309Y-5.443
X7.079Y-3.7501
X7.079Y-4.4981
X7.079Y-5.2461
X7.379Y-3.7501
X7.379Y-4.4981
X7.379Y-5.2461
X7.827Y-3.9863
X7.827Y-4.7343
X7.827Y-5.4823
X8.0121Y-6.3485
X8.127Y-3.9863
X8.127Y-4.7343
X8.127Y-5.4823
X8.3121Y-6.3485
X8.575Y-3.9863
X8.575Y-4.7343
X8.575Y-5.4823
X8.875Y-3.9863
X8.875Y-4.7343
X8.875Y-5.4823
X9.1102Y-6.4359
X9.4Y-6.5136
X9.5199Y-4.5375
X9.5199Y-5.2855
X9.8199Y-4.5375
X9.8199Y-5.2855
X9.858Y-6.8604
X10.008Y-6.6006
T7
X10.425Y-5.754
X10.525Y-5.754
X10.625Y-5.754
X10.725Y-5.754
T8
X10.2754Y-4.4993
X10.2754Y-4.4993
X10.2754Y-4.5993
X10.2754Y-4.6993
X10.2754Y-4.7993
X10.2754Y-4.8993
X10.2754Y-4.9993
X10.2754Y-5.0993
X10.2754Y-5.1993
X10.2754Y-5.2993
X10.2754Y-5.3993
X10.2754Y-5.4993
X10.2754Y-5.5993
X10.8754Y-4.4993
X10.8754Y-4.4993
X10.8754Y-4.5993
X10.8754Y-4.6993
X10.8754Y-4.7993
X10.8754Y-4.8993
X10.8754Y-4.9993
X10.8754Y-5.0993
X10.8754Y-5.1993
X10.8754Y-5.2993
X10.8754Y-5.3993
X10.8754Y-5.4993
X10.8754Y-5.5993
T9
X10.5992Y-6.286
X10.7372Y-6.047
T10
X5.9928Y-5.7569
X6.0203Y-4.4898
X7.603Y-4.5572
X7.7093Y-6.1713
X9.6699Y-4.1241
X9.788Y-6.132
T4
G00X9.2132Y-3.943
M15
G01X9.2132Y-3.9666
M16
G05
G00X9.2132Y-4.0611
M15
G01X9.2132Y-4.0847
M16
G05
G00X9.2132Y-4.2186
M15
G01X9.2132Y-4.2422
M16
G05
G00X9.2132Y-4.2619
M15
G01X9.2132Y-4.2855
M16
G05
G00X9.3943Y-3.943
M15
G01X9.3943Y-3.9666
M16
G05
G00X9.3943Y-4.0611
M15
G01X9.3943Y-4.0847
M16
G05
G00X9.3943Y-4.2186
M15
G01X9.3943Y-4.2422
M16
G05
G00X9.3943Y-4.2619
M15
G01X9.3943Y-4.2855
M16
G05
M30
