%TF.GenerationSoftware,KiCad,Pcbnew,8.0.0*%
%TF.CreationDate,2024-03-12T02:30:12+01:00*%
%TF.ProjectId,cornish-v1,636f726e-6973-4682-9d76-312e6b696361,v1.0.0*%
%TF.SameCoordinates,Original*%
%TF.FileFunction,Soldermask,Bot*%
%TF.FilePolarity,Negative*%
%FSLAX46Y46*%
G04 Gerber Fmt 4.6, Leading zero omitted, Abs format (unit mm)*
G04 Created by KiCad (PCBNEW 8.0.0) date 2024-03-12 02:30:12*
%MOMM*%
%LPD*%
G01*
G04 APERTURE LIST*
G04 Aperture macros list*
%AMRoundRect*
0 Rectangle with rounded corners*
0 $1 Rounding radius*
0 $2 $3 $4 $5 $6 $7 $8 $9 X,Y pos of 4 corners*
0 Add a 4 corners polygon primitive as box body*
4,1,4,$2,$3,$4,$5,$6,$7,$8,$9,$2,$3,0*
0 Add four circle primitives for the rounded corners*
1,1,$1+$1,$2,$3*
1,1,$1+$1,$4,$5*
1,1,$1+$1,$6,$7*
1,1,$1+$1,$8,$9*
0 Add four rect primitives between the rounded corners*
20,1,$1+$1,$2,$3,$4,$5,0*
20,1,$1+$1,$4,$5,$6,$7,0*
20,1,$1+$1,$6,$7,$8,$9,0*
20,1,$1+$1,$8,$9,$2,$3,0*%
%AMFreePoly0*
4,1,14,0.635355,0.435355,0.650000,0.400000,0.650000,0.200000,0.635355,0.164645,0.035355,-0.435355,0.000000,-0.450000,-0.035355,-0.435355,-0.635355,0.164645,-0.650000,0.200000,-0.650000,0.400000,-0.635355,0.435355,-0.600000,0.450000,0.600000,0.450000,0.635355,0.435355,0.635355,0.435355,$1*%
%AMFreePoly1*
4,1,16,0.635355,1.035355,0.650000,1.000000,0.650000,-0.250000,0.635355,-0.285355,0.600000,-0.300000,-0.600000,-0.300000,-0.635355,-0.285355,-0.650000,-0.250000,-0.650000,1.000000,-0.635355,1.035355,-0.600000,1.050000,-0.564645,1.035355,0.000000,0.470710,0.564645,1.035355,0.600000,1.050000,0.635355,1.035355,0.635355,1.035355,$1*%
G04 Aperture macros list end*
%ADD10C,0.250000*%
%ADD11C,0.100000*%
%ADD12C,2.200000*%
%ADD13C,1.850000*%
%ADD14C,0.800000*%
%ADD15C,4.500000*%
%ADD16RoundRect,0.050000X-0.889000X-0.889000X0.889000X-0.889000X0.889000X0.889000X-0.889000X0.889000X0*%
%ADD17RoundRect,0.050000X-0.450000X-0.600000X0.450000X-0.600000X0.450000X0.600000X-0.450000X0.600000X0*%
%ADD18C,2.005000*%
%ADD19RoundRect,0.050000X-0.808136X-0.963099X0.963099X-0.808136X0.808136X0.963099X-0.963099X0.808136X0*%
%ADD20RoundRect,0.050000X-0.395994X-0.636937X0.500581X-0.558497X0.395994X0.636937X-0.500581X0.558497X0*%
%ADD21C,3.100000*%
%ADD22C,5.037800*%
%ADD23RoundRect,0.050000X-1.275000X-1.250000X1.275000X-1.250000X1.275000X1.250000X-1.275000X1.250000X0*%
%ADD24C,1.600000*%
%ADD25O,1.700000X2.300000*%
%ADD26RoundRect,0.050000X0.325397X-1.214397X1.214397X0.325397X-0.325397X1.214397X-1.214397X-0.325397X0*%
%ADD27RoundRect,0.050000X0.294615X-0.689711X0.744615X0.089711X-0.294615X0.689711X-0.744615X-0.089711X0*%
%ADD28RoundRect,0.050000X-1.161204X-1.356367X1.379093X-1.134120X1.161204X1.356367X-1.379093X1.134120X0*%
%ADD29C,1.700000*%
%ADD30RoundRect,0.050000X-0.800000X0.800000X-0.800000X-0.800000X0.800000X-0.800000X0.800000X0.800000X0*%
%ADD31FreePoly0,270.000000*%
%ADD32FreePoly0,90.000000*%
%ADD33FreePoly1,90.000000*%
%ADD34FreePoly1,270.000000*%
%ADD35RoundRect,0.050000X-1.555079X-0.877413X0.908032X-1.537402X1.555079X0.877413X-0.908032X1.537402X0*%
%ADD36RoundRect,0.050000X-1.088798X-0.628618X0.628618X-1.088798X1.088798X0.628618X-0.628618X1.088798X0*%
%ADD37RoundRect,0.050000X-0.589958X-0.463087X0.279375X-0.696024X0.589958X0.463087X-0.279375X0.696024X0*%
%ADD38RoundRect,0.050000X0.445032X-1.729182X1.720032X0.479182X-0.445032X1.729182X-1.720032X-0.479182X0*%
%ADD39RoundRect,0.050000X0.850000X0.850000X-0.850000X0.850000X-0.850000X-0.850000X0.850000X-0.850000X0*%
%ADD40O,1.800000X1.800000*%
G04 APERTURE END LIST*
D10*
%TO.C,_41*%
X266969795Y-142271108D02*
G75*
G02*
X266719795Y-142271108I-125000J0D01*
G01*
X266719795Y-142271108D02*
G75*
G02*
X266969795Y-142271108I125000J0D01*
G01*
X266969795Y-139731108D02*
G75*
G02*
X266719795Y-139731108I-125000J0D01*
G01*
X266719795Y-139731108D02*
G75*
G02*
X266969795Y-139731108I125000J0D01*
G01*
X268493795Y-142271108D02*
G75*
G02*
X268243795Y-142271108I-125000J0D01*
G01*
X268243795Y-142271108D02*
G75*
G02*
X268493795Y-142271108I125000J0D01*
G01*
X266969795Y-137191108D02*
G75*
G02*
X266719795Y-137191108I-125000J0D01*
G01*
X266719795Y-137191108D02*
G75*
G02*
X266969795Y-137191108I125000J0D01*
G01*
X268493795Y-139731108D02*
G75*
G02*
X268243795Y-139731108I-125000J0D01*
G01*
X268243795Y-139731108D02*
G75*
G02*
X268493795Y-139731108I125000J0D01*
G01*
X266969796Y-134651107D02*
G75*
G02*
X266719794Y-134651107I-125001J0D01*
G01*
X266719794Y-134651107D02*
G75*
G02*
X266969796Y-134651107I125001J0D01*
G01*
X268493795Y-137191108D02*
G75*
G02*
X268243795Y-137191108I-125000J0D01*
G01*
X268243795Y-137191108D02*
G75*
G02*
X268493795Y-137191108I125000J0D01*
G01*
X266969795Y-132111108D02*
G75*
G02*
X266719795Y-132111108I-125000J0D01*
G01*
X266719795Y-132111108D02*
G75*
G02*
X266969795Y-132111108I125000J0D01*
G01*
X268493796Y-134651108D02*
G75*
G02*
X268243796Y-134651108I-125000J0D01*
G01*
X268243796Y-134651108D02*
G75*
G02*
X268493796Y-134651108I125000J0D01*
G01*
X266969795Y-129571108D02*
G75*
G02*
X266719795Y-129571108I-125000J0D01*
G01*
X266719795Y-129571108D02*
G75*
G02*
X266969795Y-129571108I125000J0D01*
G01*
X268493795Y-132111108D02*
G75*
G02*
X268243795Y-132111108I-125000J0D01*
G01*
X268243795Y-132111108D02*
G75*
G02*
X268493795Y-132111108I125000J0D01*
G01*
X266969795Y-127031108D02*
G75*
G02*
X266719795Y-127031108I-125000J0D01*
G01*
X266719795Y-127031108D02*
G75*
G02*
X266969795Y-127031108I125000J0D01*
G01*
X268493795Y-129571108D02*
G75*
G02*
X268243795Y-129571108I-125000J0D01*
G01*
X268243795Y-129571108D02*
G75*
G02*
X268493795Y-129571108I125000J0D01*
G01*
X266969795Y-124491108D02*
G75*
G02*
X266719795Y-124491108I-125000J0D01*
G01*
X266719795Y-124491108D02*
G75*
G02*
X266969795Y-124491108I125000J0D01*
G01*
X268493795Y-127031108D02*
G75*
G02*
X268243795Y-127031108I-125000J0D01*
G01*
X268243795Y-127031108D02*
G75*
G02*
X268493795Y-127031108I125000J0D01*
G01*
X266969794Y-121951108D02*
G75*
G02*
X266719794Y-121951108I-125000J0D01*
G01*
X266719794Y-121951108D02*
G75*
G02*
X266969794Y-121951108I125000J0D01*
G01*
X268493795Y-124491108D02*
G75*
G02*
X268243795Y-124491108I-125000J0D01*
G01*
X268243795Y-124491108D02*
G75*
G02*
X268493795Y-124491108I125000J0D01*
G01*
X266969795Y-119411108D02*
G75*
G02*
X266719795Y-119411108I-125000J0D01*
G01*
X266719795Y-119411108D02*
G75*
G02*
X266969795Y-119411108I125000J0D01*
G01*
X268493794Y-121951109D02*
G75*
G02*
X268243796Y-121951109I-124999J0D01*
G01*
X268243796Y-121951109D02*
G75*
G02*
X268493794Y-121951109I124999J0D01*
G01*
X266969795Y-116871108D02*
G75*
G02*
X266719795Y-116871108I-125000J0D01*
G01*
X266719795Y-116871108D02*
G75*
G02*
X266969795Y-116871108I125000J0D01*
G01*
X268493795Y-119411108D02*
G75*
G02*
X268243795Y-119411108I-125000J0D01*
G01*
X268243795Y-119411108D02*
G75*
G02*
X268493795Y-119411108I125000J0D01*
G01*
X266969796Y-114331108D02*
G75*
G02*
X266719794Y-114331108I-125001J0D01*
G01*
X266719794Y-114331108D02*
G75*
G02*
X266969796Y-114331108I125001J0D01*
G01*
X268493795Y-116871108D02*
G75*
G02*
X268243795Y-116871108I-125000J0D01*
G01*
X268243795Y-116871108D02*
G75*
G02*
X268493795Y-116871108I125000J0D01*
G01*
X268493795Y-114331108D02*
G75*
G02*
X268243795Y-114331108I-125000J0D01*
G01*
X268243795Y-114331108D02*
G75*
G02*
X268493795Y-114331108I125000J0D01*
G01*
D11*
X262526795Y-142779108D02*
X261510795Y-142779108D01*
X261510795Y-141763108D01*
X262526795Y-141763108D01*
X262526795Y-142779108D01*
G36*
X262526795Y-142779108D02*
G01*
X261510795Y-142779108D01*
X261510795Y-141763108D01*
X262526795Y-141763108D01*
X262526795Y-142779108D01*
G37*
X262526796Y-140239108D02*
X261510795Y-140239108D01*
X261510795Y-139223108D01*
X262526795Y-139223108D01*
X262526796Y-140239108D01*
G36*
X262526796Y-140239108D02*
G01*
X261510795Y-140239108D01*
X261510795Y-139223108D01*
X262526795Y-139223108D01*
X262526796Y-140239108D01*
G37*
X262526795Y-137699108D02*
X261510795Y-137699108D01*
X261510795Y-136683108D01*
X262526795Y-136683108D01*
X262526795Y-137699108D01*
G36*
X262526795Y-137699108D02*
G01*
X261510795Y-137699108D01*
X261510795Y-136683108D01*
X262526795Y-136683108D01*
X262526795Y-137699108D01*
G37*
X262526795Y-135159108D02*
X261510795Y-135159108D01*
X261510795Y-134143108D01*
X262526795Y-134143108D01*
X262526795Y-135159108D01*
G36*
X262526795Y-135159108D02*
G01*
X261510795Y-135159108D01*
X261510795Y-134143108D01*
X262526795Y-134143108D01*
X262526795Y-135159108D01*
G37*
X262526795Y-132619108D02*
X261510795Y-132619108D01*
X261510795Y-131603108D01*
X262526795Y-131603108D01*
X262526795Y-132619108D01*
G36*
X262526795Y-132619108D02*
G01*
X261510795Y-132619108D01*
X261510795Y-131603108D01*
X262526795Y-131603108D01*
X262526795Y-132619108D01*
G37*
X262526795Y-130079108D02*
X261510794Y-130079108D01*
X261510796Y-129063108D01*
X262526795Y-129063108D01*
X262526795Y-130079108D01*
G36*
X262526795Y-130079108D02*
G01*
X261510794Y-130079108D01*
X261510796Y-129063108D01*
X262526795Y-129063108D01*
X262526795Y-130079108D01*
G37*
X262526796Y-127539108D02*
X261510795Y-127539108D01*
X261510795Y-126523108D01*
X262526795Y-126523108D01*
X262526796Y-127539108D01*
G36*
X262526796Y-127539108D02*
G01*
X261510795Y-127539108D01*
X261510795Y-126523108D01*
X262526795Y-126523108D01*
X262526796Y-127539108D01*
G37*
X262526795Y-124999108D02*
X261510795Y-124999108D01*
X261510795Y-123983108D01*
X262526795Y-123983108D01*
X262526795Y-124999108D01*
G36*
X262526795Y-124999108D02*
G01*
X261510795Y-124999108D01*
X261510795Y-123983108D01*
X262526795Y-123983108D01*
X262526795Y-124999108D01*
G37*
X262526795Y-122459108D02*
X261510795Y-122459108D01*
X261510795Y-121443108D01*
X262526794Y-121443108D01*
X262526795Y-122459108D01*
G36*
X262526795Y-122459108D02*
G01*
X261510795Y-122459108D01*
X261510795Y-121443108D01*
X262526794Y-121443108D01*
X262526795Y-122459108D01*
G37*
X273702795Y-142779108D02*
X272686795Y-142779108D01*
X272686795Y-141763108D01*
X273702795Y-141763108D01*
X273702795Y-142779108D01*
G36*
X273702795Y-142779108D02*
G01*
X272686795Y-142779108D01*
X272686795Y-141763108D01*
X273702795Y-141763108D01*
X273702795Y-142779108D01*
G37*
X262526795Y-119919108D02*
X261510795Y-119919108D01*
X261510795Y-118903108D01*
X262526795Y-118903108D01*
X262526795Y-119919108D01*
G36*
X262526795Y-119919108D02*
G01*
X261510795Y-119919108D01*
X261510795Y-118903108D01*
X262526795Y-118903108D01*
X262526795Y-119919108D01*
G37*
X273702794Y-140239108D02*
X272686795Y-140239108D01*
X272686795Y-139223108D01*
X273702796Y-139223108D01*
X273702794Y-140239108D01*
G36*
X273702794Y-140239108D02*
G01*
X272686795Y-140239108D01*
X272686795Y-139223108D01*
X273702796Y-139223108D01*
X273702794Y-140239108D01*
G37*
X262526795Y-117379108D02*
X261510794Y-117379108D01*
X261510796Y-116363108D01*
X262526795Y-116363108D01*
X262526795Y-117379108D01*
G36*
X262526795Y-117379108D02*
G01*
X261510794Y-117379108D01*
X261510796Y-116363108D01*
X262526795Y-116363108D01*
X262526795Y-117379108D01*
G37*
X273702795Y-137699108D02*
X272686795Y-137699108D01*
X272686795Y-136683108D01*
X273702795Y-136683108D01*
X273702795Y-137699108D01*
G36*
X273702795Y-137699108D02*
G01*
X272686795Y-137699108D01*
X272686795Y-136683108D01*
X273702795Y-136683108D01*
X273702795Y-137699108D01*
G37*
X262526795Y-114839108D02*
X261510795Y-114839108D01*
X261510795Y-113823108D01*
X262526795Y-113823108D01*
X262526795Y-114839108D01*
G36*
X262526795Y-114839108D02*
G01*
X261510795Y-114839108D01*
X261510795Y-113823108D01*
X262526795Y-113823108D01*
X262526795Y-114839108D01*
G37*
X273702795Y-135159108D02*
X272686796Y-135159108D01*
X272686795Y-134143108D01*
X273702795Y-134143108D01*
X273702795Y-135159108D01*
G36*
X273702795Y-135159108D02*
G01*
X272686796Y-135159108D01*
X272686795Y-134143108D01*
X273702795Y-134143108D01*
X273702795Y-135159108D01*
G37*
X273702795Y-132619108D02*
X272686795Y-132619108D01*
X272686795Y-131603108D01*
X273702795Y-131603108D01*
X273702795Y-132619108D01*
G36*
X273702795Y-132619108D02*
G01*
X272686795Y-132619108D01*
X272686795Y-131603108D01*
X273702795Y-131603108D01*
X273702795Y-132619108D01*
G37*
X273702795Y-130079108D02*
X272686795Y-130079108D01*
X272686794Y-129063108D01*
X273702795Y-129063108D01*
X273702795Y-130079108D01*
G36*
X273702795Y-130079108D02*
G01*
X272686795Y-130079108D01*
X272686794Y-129063108D01*
X273702795Y-129063108D01*
X273702795Y-130079108D01*
G37*
X273702794Y-127539108D02*
X272686795Y-127539108D01*
X272686795Y-126523108D01*
X273702796Y-126523108D01*
X273702794Y-127539108D01*
G36*
X273702794Y-127539108D02*
G01*
X272686795Y-127539108D01*
X272686795Y-126523108D01*
X273702796Y-126523108D01*
X273702794Y-127539108D01*
G37*
X273702795Y-124999108D02*
X272686795Y-124999108D01*
X272686795Y-123983108D01*
X273702795Y-123983108D01*
X273702795Y-124999108D01*
G36*
X273702795Y-124999108D02*
G01*
X272686795Y-124999108D01*
X272686795Y-123983108D01*
X273702795Y-123983108D01*
X273702795Y-124999108D01*
G37*
X273702795Y-122459108D02*
X272686795Y-122459108D01*
X272686795Y-121443108D01*
X273702795Y-121443108D01*
X273702795Y-122459108D01*
G36*
X273702795Y-122459108D02*
G01*
X272686795Y-122459108D01*
X272686795Y-121443108D01*
X273702795Y-121443108D01*
X273702795Y-122459108D01*
G37*
X273702795Y-119919108D02*
X272686795Y-119919108D01*
X272686795Y-118903108D01*
X273702795Y-118903108D01*
X273702795Y-119919108D01*
G36*
X273702795Y-119919108D02*
G01*
X272686795Y-119919108D01*
X272686795Y-118903108D01*
X273702795Y-118903108D01*
X273702795Y-119919108D01*
G37*
X273702795Y-117379108D02*
X272686795Y-117379108D01*
X272686794Y-116363108D01*
X273702795Y-116363108D01*
X273702795Y-117379108D01*
G36*
X273702795Y-117379108D02*
G01*
X272686795Y-117379108D01*
X272686794Y-116363108D01*
X273702795Y-116363108D01*
X273702795Y-117379108D01*
G37*
X273702795Y-114839108D02*
X272686795Y-114839108D01*
X272686795Y-113823108D01*
X273702795Y-113823108D01*
X273702795Y-114839108D01*
G36*
X273702795Y-114839108D02*
G01*
X272686795Y-114839108D01*
X272686795Y-113823108D01*
X273702795Y-113823108D01*
X273702795Y-114839108D01*
G37*
%TD*%
D12*
%TO.C,REF\u002A\u002A*%
X271968597Y-154672468D03*
X268463597Y-160743307D03*
D13*
X273500000Y-157000000D03*
X271250001Y-160897115D03*
%TD*%
D14*
%TO.C,_46*%
X242956795Y-104801108D03*
X243440069Y-103634382D03*
X243440069Y-105967834D03*
X244606795Y-103151108D03*
D15*
X244606795Y-104801108D03*
D14*
X244606795Y-106451108D03*
X245773521Y-103634382D03*
X245773521Y-105967834D03*
X246256795Y-104801108D03*
%TD*%
D16*
%TO.C,D19*%
X240796796Y-134301108D03*
D17*
X242956796Y-134301108D03*
X246256796Y-134301108D03*
D18*
X248416796Y-134301108D03*
%TD*%
D16*
%TO.C,D10*%
X197796795Y-139301109D03*
D17*
X199956795Y-139301109D03*
X203256795Y-139301109D03*
D18*
X205416795Y-139301109D03*
%TD*%
D19*
%TO.C,D1*%
X139792061Y-151288925D03*
D20*
X141943842Y-151100669D03*
X145231284Y-150813055D03*
D18*
X147383065Y-150624799D03*
%TD*%
D14*
%TO.C,_43*%
X149564777Y-146418645D03*
X149944525Y-145214238D03*
X150147898Y-147538811D03*
X151064691Y-144631117D03*
D15*
X151208498Y-146274838D03*
D14*
X151352305Y-147918559D03*
X152269098Y-145010865D03*
X152472471Y-147335438D03*
X152852219Y-146131031D03*
%TD*%
D16*
%TO.C,D11*%
X197796795Y-120301109D03*
D17*
X199956795Y-120301109D03*
X203256795Y-120301109D03*
D18*
X205416795Y-120301109D03*
%TD*%
D14*
%TO.C,_45*%
X193156795Y-156801109D03*
X193640069Y-155634383D03*
X193640069Y-157967835D03*
X194806795Y-155151109D03*
D15*
X194806795Y-156801109D03*
D14*
X194806795Y-158451109D03*
X195973521Y-155634383D03*
X195973521Y-157967835D03*
X196456795Y-156801109D03*
%TD*%
D21*
%TO.C,S10*%
X197206795Y-149001109D03*
X199006795Y-150051109D03*
D22*
X201606795Y-144301109D03*
D21*
X204206795Y-150051109D03*
X206006795Y-149001109D03*
D23*
X195336795Y-150051109D03*
X209676795Y-149001109D03*
%TD*%
D14*
%TO.C,_47*%
X245956795Y-155801108D03*
X246440069Y-154634382D03*
X246440069Y-156967834D03*
X247606795Y-154151108D03*
D15*
X247606795Y-155801108D03*
D14*
X247606795Y-157451108D03*
X248773521Y-154634382D03*
X248773521Y-156967834D03*
X249256795Y-155801108D03*
%TD*%
D21*
%TO.C,S4*%
X159206796Y-148001108D03*
X161006796Y-149051108D03*
D22*
X163606796Y-143301108D03*
D21*
X166206796Y-149051108D03*
X168006796Y-148001108D03*
D23*
X157336796Y-149051108D03*
X171676796Y-148001108D03*
%TD*%
D24*
%TO.C,TRRS1*%
X235306795Y-98901108D03*
X235306795Y-105901108D03*
D25*
X233006795Y-108601108D03*
X237606795Y-108601108D03*
X233006795Y-107501108D03*
X237606795Y-107501107D03*
X233006795Y-103501108D03*
X237606795Y-103501108D03*
X233006795Y-100501108D03*
X237606795Y-100501108D03*
%TD*%
D26*
%TO.C,D18*%
X249383551Y-174304125D03*
D27*
X250463551Y-172433511D03*
X252113551Y-169575627D03*
D18*
X253193551Y-167705013D03*
%TD*%
D21*
%TO.C,S11*%
X197206795Y-130001109D03*
X199006795Y-131051109D03*
D22*
X201606795Y-125301109D03*
D21*
X204206795Y-131051109D03*
X206006795Y-130001109D03*
D23*
X195336795Y-131051109D03*
X209676795Y-130001109D03*
%TD*%
D16*
%TO.C,D13*%
X216796795Y-139301109D03*
D17*
X218956795Y-139301109D03*
X222256795Y-139301109D03*
D18*
X224416795Y-139301109D03*
%TD*%
D21*
%TO.C,S3*%
X136737800Y-123148038D03*
X138622463Y-124037161D03*
D22*
X140711424Y-118082437D03*
D21*
X143802676Y-123583952D03*
X145504313Y-122381067D03*
D28*
X134966428Y-124357023D03*
X149160347Y-122061205D03*
%TD*%
D21*
%TO.C,S12*%
X197206795Y-111001109D03*
X199006795Y-112051109D03*
D22*
X201606795Y-106301109D03*
D21*
X204206795Y-112051109D03*
X206006795Y-111001109D03*
D23*
X195336795Y-112051109D03*
X209676795Y-111001109D03*
%TD*%
D16*
%TO.C,D20*%
X240796796Y-115301108D03*
D17*
X242956796Y-115301108D03*
X246256796Y-115301108D03*
D18*
X248416796Y-115301108D03*
%TD*%
D21*
%TO.C,S13*%
X216206795Y-149001109D03*
X218006795Y-150051109D03*
D22*
X220606795Y-144301109D03*
D21*
X223206795Y-150051109D03*
X225006795Y-149001109D03*
D23*
X214336795Y-150051109D03*
X228676795Y-149001109D03*
%TD*%
D16*
%TO.C,D15*%
X216796795Y-101301109D03*
D17*
X218956795Y-101301109D03*
X222256795Y-101301109D03*
D18*
X224416795Y-101301109D03*
%TD*%
D21*
%TO.C,S19*%
X240206795Y-144001109D03*
X242006795Y-145051109D03*
D22*
X244606795Y-139301109D03*
D21*
X247206795Y-145051109D03*
X249006795Y-144001109D03*
D23*
X238336795Y-145051109D03*
X252676795Y-144001109D03*
%TD*%
D16*
%TO.C,D7*%
X178796795Y-133301108D03*
D17*
X180956795Y-133301108D03*
X184256795Y-133301108D03*
D18*
X186416795Y-133301108D03*
%TD*%
D16*
%TO.C,D12*%
X197796795Y-101301109D03*
D17*
X199956795Y-101301109D03*
X203256795Y-101301109D03*
D18*
X205416795Y-101301109D03*
%TD*%
D29*
%TO.C,_41*%
X275226794Y-114331108D03*
D30*
X275226794Y-114331108D03*
D31*
X273448795Y-114331108D03*
D32*
X261764795Y-114331108D03*
D29*
X259986795Y-114331108D03*
X275226795Y-116871108D03*
D31*
X273448795Y-116871108D03*
D32*
X261764795Y-116871108D03*
D29*
X259986795Y-116871108D03*
X275226795Y-119411108D03*
D31*
X273448795Y-119411108D03*
D32*
X261764795Y-119411108D03*
D29*
X259986795Y-119411108D03*
X259986795Y-121951107D03*
X275226795Y-121951108D03*
D31*
X273448795Y-121951108D03*
D32*
X261764795Y-121951108D03*
D29*
X275226795Y-124491108D03*
D31*
X273448795Y-124491108D03*
D32*
X261764794Y-124491108D03*
D29*
X259986795Y-124491108D03*
X275226795Y-127031108D03*
D31*
X273448795Y-127031108D03*
D32*
X261764795Y-127031108D03*
D29*
X259986795Y-127031108D03*
X275226795Y-129571108D03*
D31*
X273448795Y-129571108D03*
D32*
X261764795Y-129571108D03*
D29*
X259986795Y-129571108D03*
X275226795Y-132111108D03*
D31*
X273448796Y-132111108D03*
D32*
X261764795Y-132111108D03*
D29*
X259986795Y-132111108D03*
D31*
X273448795Y-134651108D03*
D32*
X261764795Y-134651108D03*
D29*
X259986795Y-134651108D03*
X275226795Y-134651109D03*
X275226795Y-137191108D03*
D31*
X273448795Y-137191108D03*
D32*
X261764795Y-137191108D03*
D29*
X259986795Y-137191108D03*
X275226795Y-139731108D03*
D31*
X273448795Y-139731108D03*
D32*
X261764795Y-139731108D03*
D29*
X259986795Y-139731108D03*
X275226795Y-142271108D03*
D31*
X273448795Y-142271108D03*
D32*
X261764795Y-142271108D03*
D29*
X259986796Y-142271108D03*
D33*
X262780795Y-114331107D03*
X262780795Y-116871108D03*
X262780795Y-119411108D03*
X262780795Y-121951108D03*
X262780795Y-124491108D03*
X262780795Y-127031108D03*
X262780795Y-129571108D03*
X262780795Y-132111108D03*
X262780795Y-134651108D03*
X262780795Y-137191108D03*
X262780795Y-139731108D03*
X262780795Y-142271108D03*
D34*
X272432795Y-142271109D03*
X272432795Y-139731108D03*
X272432795Y-137191108D03*
X272432795Y-134651108D03*
X272432795Y-132111108D03*
X272432795Y-129571108D03*
X272432795Y-127031108D03*
X272432795Y-124491108D03*
X272432795Y-121951108D03*
X272432795Y-119411108D03*
X272432795Y-116871108D03*
X272432795Y-114331108D03*
%TD*%
D21*
%TO.C,S2*%
X138393759Y-142075738D03*
X140278422Y-142964861D03*
D22*
X142367383Y-137010137D03*
D21*
X145458635Y-142511652D03*
X147160272Y-141308767D03*
D28*
X136622387Y-143284723D03*
X150816306Y-140988905D03*
%TD*%
D21*
%TO.C,S17*%
X227308860Y-172738633D03*
X228775767Y-174218730D03*
D22*
X232775383Y-169337586D03*
D21*
X233798581Y-175564589D03*
X235809007Y-175016241D03*
D35*
X225230819Y-173268864D03*
X239353955Y-175966107D03*
%TD*%
D16*
%TO.C,D14*%
X216796795Y-120301109D03*
D17*
X218956795Y-120301109D03*
X222256795Y-120301109D03*
D18*
X224416795Y-120301109D03*
%TD*%
D21*
%TO.C,S16*%
X201906795Y-171001109D03*
X203706795Y-172051109D03*
D22*
X206306795Y-166301109D03*
D21*
X208906795Y-172051109D03*
X210706795Y-171001109D03*
D23*
X200036795Y-172051109D03*
X214376795Y-171001109D03*
%TD*%
D16*
%TO.C,D6*%
X159796796Y-100301108D03*
D17*
X161956796Y-100301108D03*
X165256796Y-100301108D03*
D18*
X167416796Y-100301108D03*
%TD*%
D21*
%TO.C,S7*%
X178206796Y-143001108D03*
X180006796Y-144051108D03*
D22*
X182606796Y-138301108D03*
D21*
X185206796Y-144051108D03*
X187006796Y-143001108D03*
D23*
X176336796Y-144051108D03*
X190676796Y-143001108D03*
%TD*%
D14*
%TO.C,_42*%
X150262475Y-114235368D03*
X150642223Y-113030961D03*
X150845596Y-115355534D03*
X151762389Y-112447840D03*
D15*
X151906196Y-114091561D03*
D14*
X152050003Y-115735282D03*
X152966796Y-112827588D03*
X153170169Y-115152161D03*
X153549917Y-113947754D03*
%TD*%
D21*
%TO.C,S20*%
X240206795Y-125001109D03*
X242006795Y-126051109D03*
D22*
X244606795Y-120301109D03*
D21*
X247206795Y-126051109D03*
X249006795Y-125001109D03*
D23*
X238336795Y-126051109D03*
X252676795Y-125001109D03*
%TD*%
D16*
%TO.C,D16*%
X202496795Y-161301109D03*
D17*
X204656795Y-161301109D03*
X207956795Y-161301109D03*
D18*
X210116795Y-161301109D03*
%TD*%
D36*
%TO.C,D17*%
X230389301Y-163521857D03*
D37*
X232475700Y-164080906D03*
X235663256Y-164935010D03*
D18*
X237749655Y-165494059D03*
%TD*%
D19*
%TO.C,D2*%
X138136102Y-132361226D03*
D20*
X140287883Y-132172970D03*
X143575325Y-131885356D03*
D18*
X145727106Y-131697100D03*
%TD*%
D16*
%TO.C,D9*%
X178796795Y-95301108D03*
D17*
X180956795Y-95301108D03*
X184256795Y-95301108D03*
D18*
X186416795Y-95301108D03*
%TD*%
D19*
%TO.C,D3*%
X136480144Y-113433527D03*
D20*
X138631925Y-113245271D03*
X141919367Y-112957657D03*
D18*
X144071148Y-112769401D03*
%TD*%
D21*
%TO.C,S18*%
X257488998Y-179665080D03*
X259298325Y-178631234D03*
D22*
X255618679Y-173504568D03*
D21*
X261898325Y-174127902D03*
X261888998Y-172044056D03*
D38*
X257463325Y-181809548D03*
X263723998Y-168865743D03*
%TD*%
D16*
%TO.C,D8*%
X178796795Y-114301108D03*
D17*
X180956795Y-114301108D03*
X184256795Y-114301108D03*
D18*
X186416795Y-114301108D03*
%TD*%
D16*
%TO.C,D4*%
X159796796Y-138301108D03*
D17*
X161956796Y-138301108D03*
X165256796Y-138301108D03*
D18*
X167416796Y-138301108D03*
%TD*%
D16*
%TO.C,D5*%
X159796796Y-119301108D03*
D17*
X161956796Y-119301108D03*
X165256796Y-119301108D03*
D18*
X167416796Y-119301108D03*
%TD*%
D21*
%TO.C,S15*%
X216206795Y-111001109D03*
X218006795Y-112051109D03*
D22*
X220606795Y-106301109D03*
D21*
X223206795Y-112051109D03*
X225006795Y-111001109D03*
D23*
X214336795Y-112051109D03*
X228676795Y-111001109D03*
%TD*%
D14*
%TO.C,_44*%
X190456796Y-115801108D03*
X190940070Y-114634382D03*
X190940070Y-116967834D03*
X192106796Y-114151108D03*
D15*
X192106796Y-115801108D03*
D14*
X192106796Y-117451108D03*
X193273522Y-114634382D03*
X193273522Y-116967834D03*
X193756796Y-115801108D03*
%TD*%
D21*
%TO.C,S8*%
X178206796Y-124001108D03*
X180006796Y-125051108D03*
D22*
X182606796Y-119301108D03*
D21*
X185206796Y-125051108D03*
X187006796Y-124001108D03*
D23*
X176336796Y-125051108D03*
X190676796Y-124001108D03*
%TD*%
D39*
%TO.C,OLED1*%
X263806794Y-145401108D03*
D40*
X266346795Y-145401108D03*
X268886795Y-145401108D03*
X271426795Y-145401108D03*
%TD*%
D21*
%TO.C,S6*%
X159206795Y-110001109D03*
X161006795Y-111051109D03*
D22*
X163606795Y-105301109D03*
D21*
X166206795Y-111051109D03*
X168006795Y-110001109D03*
D23*
X157336795Y-111051109D03*
X171676795Y-110001109D03*
%TD*%
D21*
%TO.C,S1*%
X140049718Y-161003436D03*
X141934381Y-161892559D03*
D22*
X144023342Y-155937835D03*
D21*
X147114594Y-161439350D03*
X148816231Y-160236465D03*
D28*
X138278346Y-162212421D03*
X152472265Y-159916603D03*
%TD*%
D21*
%TO.C,S5*%
X159206796Y-129001108D03*
X161006796Y-130051108D03*
D22*
X163606796Y-124301108D03*
D21*
X166206796Y-130051108D03*
X168006796Y-129001108D03*
D23*
X157336796Y-130051108D03*
X171676796Y-129001108D03*
%TD*%
D21*
%TO.C,S9*%
X178206796Y-105001108D03*
X180006796Y-106051108D03*
D22*
X182606796Y-100301108D03*
D21*
X185206796Y-106051108D03*
X187006796Y-105001108D03*
D23*
X176336796Y-106051108D03*
X190676796Y-105001108D03*
%TD*%
D21*
%TO.C,S14*%
X216206795Y-130001109D03*
X218006795Y-131051109D03*
D22*
X220606795Y-125301109D03*
D21*
X223206795Y-131051109D03*
X225006795Y-130001109D03*
D23*
X214336795Y-131051109D03*
X228676795Y-130001109D03*
%TD*%
M02*
