0
SECTION
2
HEADER
9
$INSUNITS
70
4
0
ENDSEC
0
SECTION
2
TABLES
0
TABLE
2
LTYPE
0
LTYPE
72
65
70
64
2
CONTINUOUS
3
______
73
0
40
0
0
ENDTAB
0
TABLE
2
LAYER
0
ENDTAB
0
ENDSEC
0
SECTION
2
ENTITIES
0
LINE
8
0
10
133.0701744
20
-131.4394489
11
151.5392621
21
-80.6960474
0
LINE
8
0
10
154.1026875
20
-79.5007023
11
173.0267995
21
-86.3885158
0
LINE
8
0
10
175.5363378
20
-85.3261719
11
178.6852038
21
-78.2907274
0
LINE
8
0
10
181.3559385
20
-77.2951532
11
194.9222405
21
-83.6212237
0
LINE
8
0
10
197.5800926
20
-82.6538448
11
198.0027109
21
-81.7475369
0
LINE
8
0
10
200.660563
20
-80.7801579
11
215.1614877
21
-87.5420501
0
LINE
8
0
10
216.1288666
20
-90.1999022
11
215.2836302
21
-92.0125178
0
LINE
8
0
10
216.2510091
20
-94.6703699
11
257.1903576
21
-113.7607015
0
LINE
8
0
10
258.2245062
20
-114.8892769
11
264.4294819
21
-131.9373075
0
LINE
8
0
10
265.4636305
20
-133.0658829
11
284.6178029
21
-141.9976202
0
LINE
8
0
10
285.5692636
20
-144.6888023
11
266.9985682
21
-182.6664749
0
LINE
8
0
10
266.3490239
20
-183.4262124
11
234.0518897
21
-206.0409092
0
LINE
8
0
10
231.2352113
20
-205.5038247
11
222.6119004
21
-192.4302866
0
LINE
8
0
10
222.2315121
20
-192.0024133
11
206.8480336
21
-179.0330151
0
LINE
8
0
10
206.426817
20
-178.760244
11
182.0924898
21
-167.038901
0
LINE
8
0
10
181.1272366
20
-164.4373658
11
190.776007
21
-142.3184372
0
LINE
8
0
10
189.7880698
20
-139.7061504
11
177.0550117
21
-133.7686279
0
LINE
8
0
10
174.3971596
20
-134.7360069
11
173.9745413
21
-135.6423147
0
LINE
8
0
10
171.3166892
20
-136.6096937
11
157.3885548
21
-130.1148979
0
LINE
8
0
10
154.6804487
20
-131.1996967
11
151.8909723
21
-138.3394469
0
LINE
8
0
10
149.3440626
20
-139.4910153
11
134.2655194
21
-134.0028744
0
ARC
8
0
10
153.4186473
20
-81.3800876
40
2
50
70.0000019
51
160.0000019
0
ARC
8
0
10
173.7108398
20
-84.5091306
40
2
50
250.0000019
51
335.8880597
0
ARC
8
0
10
180.5107019
20
-79.1077688
40
2
50
64.9999983
51
155.8880597
0
ARC
8
0
10
195.767477
20
-81.8086082
40
2
50
244.9999983
51
334.9999983
0
ARC
8
0
10
199.8153265
20
-82.5927735
40
2
50
64.9999983
51
154.9999983
0
ARC
8
0
10
214.3162511
20
-89.3546657
40
2
50
334.9999983
51
64.9999983
0
ARC
8
0
10
217.0962457
20
-92.8577543
40
2
50
154.9999983
51
244.9999983
0
ARC
8
0
10
256.345121
20
-115.5733171
40
2
50
19.9999981
51
64.9999983
0
ARC
8
0
10
266.3088671
20
-131.2532673
40
2
50
199.9999981
51
244.9999983
0
ARC
8
0
10
283.7725664
20
-143.8102357
40
2
50
333.9418385
51
64.9999983
0
ARC
8
0
10
265.201871
20
-181.7879083
40
2
50
304.9999997
51
333.9418385
0
ARC
8
0
10
232.9047368
20
-204.402605
40
2
50
213.4088594
51
304.9999997
0
ARC
8
0
10
220.9423749
20
-193.5315063
40
2
50
33.4088594
51
49.8666625
0
ARC
8
0
10
205.5588964
20
-180.5621081
40
2
50
49.8666625
51
64.2808456
0
ARC
8
0
10
182.9604104
20
-165.2370369
40
2
50
156.4320992
51
244.2808456
0
ARC
8
0
10
188.9428332
20
-141.518766
40
2
50
336.4320992
51
64.9999983
0
ARC
8
0
10
176.2097751
20
-135.5812435
40
2
50
64.9999983
51
154.9999983
0
ARC
8
0
10
172.1619258
20
-134.7970781
40
2
50
244.9999983
51
334.9999983
0
ARC
8
0
10
156.5433182
20
-131.9275135
40
2
50
64.9999983
51
158.6595799
0
ARC
8
0
10
150.0281029
20
-137.61163
40
2
50
250.0000019
51
338.6595799
0
ARC
8
0
10
134.9495596
20
-132.1234892
40
2
50
160.0000019
51
250.0000019
0
ENDSEC
0
EOF