0
SECTION
2
HEADER
9
$INSUNITS
70
4
0
ENDSEC
0
SECTION
2
TABLES
0
TABLE
2
LTYPE
0
LTYPE
72
65
70
64
2
CONTINUOUS
3
______
73
0
40
0
0
ENDTAB
0
TABLE
2
LAYER
0
ENDTAB
0
ENDSEC
0
SECTION
2
ENTITIES
0
LINE
8
0
10
129.1818521
20
-134.8130153
11
152.6741677
21
-143.3635189
0
LINE
8
0
10
152.6741677
20
-143.3635189
11
156.6223256
21
-132.5160442
0
LINE
8
0
10
129.1818521
20
-134.8130153
11
150.7291212
21
-75.6123801
0
LINE
8
0
10
173.3087022
20
-83.8306755
11
150.7291212
21
-75.6123801
0
LINE
8
0
10
156.6223256
20
-132.5160442
11
174.3385286
21
-140.7772453
0
LINE
8
0
10
174.3385286
20
-140.7772453
11
176.4516198
21
-136.2457065
0
LINE
8
0
10
195.5256323
20
-81.1441452
11
178.3057843
21
-73.1143982
0
LINE
8
0
10
178.3057843
20
-73.1143982
11
173.3087022
21
-83.8306755
0
LINE
8
0
10
176.4516198
20
-136.2457065
11
188.2336211
21
-141.7397439
0
LINE
8
0
10
217.7607087
20
-92.6159096
11
220.2964183
21
-87.1780628
0
LINE
8
0
10
220.2964183
20
-87.1780628
11
197.6387236
21
-76.6126063
0
LINE
8
0
10
197.6387236
20
-76.6126063
11
195.5256323
21
-81.1441452
0
LINE
8
0
10
185.6979115
20
-147.1775907
11
189.957558
21
-149.1638965
0
LINE
8
0
10
188.2336211
20
-141.7397439
11
185.6979115
21
-147.1775907
0
LINE
8
0
10
217.7607087
20
-92.6159096
11
252.2004046
21
-108.6754034
0
LINE
8
0
10
212.6152527
20
-159.729353
11
216.5910206
21
-161.583284
0
LINE
8
0
10
225.708863
20
-165.4866978
11
227.6885454
21
-161.2412551
0
LINE
8
0
10
246.2837489
20
-121.3637125
11
252.2004046
21
-108.6754034
0
LINE
8
0
10
180.6599563
20
-169.1026677
11
203.317651
21
-179.6681242
0
LINE
8
0
10
203.317651
20
-179.6681242
11
203.4298313
21
-179.4275528
0
LINE
8
0
10
205.6962879
20
-174.5671208
11
212.6152527
21
-159.729353
0
LINE
8
0
10
189.957558
20
-149.1638965
11
180.6599563
21
-169.1026677
0
LINE
8
0
10
203.4298313
20
-179.4275528
11
221.5176582
21
-194.6050417
0
LINE
8
0
10
221.5176582
20
-194.6050417
11
224.2805064
21
-191.3124074
0
LINE
8
0
10
236.2772059
20
-177.0152977
11
237.5873485
21
-175.4539306
0
LINE
8
0
10
237.5873485
20
-175.4539306
11
225.708863
21
-165.4866978
0
LINE
8
0
10
216.5910206
20
-161.583284
11
205.6962879
21
-174.5671208
0
LINE
8
0
10
235.8492664
20
-207.8343089
11
256.3280675
21
-193.494898
0
LINE
8
0
10
256.3280675
20
-193.494898
11
241.9886566
21
-173.0160969
0
LINE
8
0
10
241.9886566
20
-173.0160969
11
236.2772059
21
-177.0152977
0
LINE
8
0
10
224.2805064
20
-191.3124074
11
235.8492664
21
-207.8343089
0
LINE
8
0
10
227.6885454
20
-161.2412551
11
249.4399324
21
-171.3840934
0
LINE
8
0
10
249.4399324
20
-171.3840934
11
268.0351358
21
-131.5065507
0
LINE
8
0
10
268.0351358
20
-131.5065507
11
246.2837489
21
-121.3637125
0
ENDSEC
0
EOF