%TF.GenerationSoftware,KiCad,Pcbnew,8.0.0*%
%TF.CreationDate,2024-03-12T02:06:11+01:00*%
%TF.ProjectId,cornish-v1,636f726e-6973-4682-9d76-312e6b696361,v1.0.0*%
%TF.SameCoordinates,Original*%
%TF.FileFunction,Copper,L1,Top*%
%TF.FilePolarity,Positive*%
%FSLAX46Y46*%
G04 Gerber Fmt 4.6, Leading zero omitted, Abs format (unit mm)*
G04 Created by KiCad (PCBNEW 8.0.0) date 2024-03-12 02:06:11*
%MOMM*%
%LPD*%
G01*
G04 APERTURE LIST*
G04 Aperture macros list*
%AMRotRect*
0 Rectangle, with rotation*
0 The origin of the aperture is its center*
0 $1 length*
0 $2 width*
0 $3 Rotation angle, in degrees counterclockwise*
0 Add horizontal line*
21,1,$1,$2,0,0,$3*%
%AMFreePoly0*
4,1,5,0.125000,-0.500000,-0.125000,-0.500000,-0.125000,0.500000,0.125000,0.500000,0.125000,-0.500000,0.125000,-0.500000,$1*%
%AMFreePoly1*
4,1,6,0.600000,0.200000,0.000000,-0.400000,-0.600000,0.200000,-0.600000,0.400000,0.600000,0.400000,0.600000,0.200000,0.600000,0.200000,$1*%
%AMFreePoly2*
4,1,6,0.600000,-0.250000,-0.600000,-0.250000,-0.600000,1.000000,0.000000,0.400000,0.600000,1.000000,0.600000,-0.250000,0.600000,-0.250000,$1*%
%AMFreePoly3*
4,1,45,0.069446,4.167933,0.854389,3.386388,0.869934,3.367446,0.888598,3.322386,0.891000,0.766000,0.888598,0.741614,0.869934,0.696554,0.088388,-0.088388,0.069446,-0.103933,0.064963,-0.105789,0.062500,-0.108253,0.052631,-0.110897,0.024387,-0.122598,0.008964,-0.122598,0.000000,-0.125000,-0.008964,-0.122598,-0.024387,-0.122598,-0.052631,-0.110897,-0.062500,-0.108253,-0.064963,-0.105789,
-0.069446,-0.103933,-0.103933,-0.069446,-0.105789,-0.064963,-0.108253,-0.062500,-0.110897,-0.052631,-0.122598,-0.024387,-0.122598,-0.008964,-0.125000,0.000000,-0.122598,0.008964,-0.122598,0.024387,-0.110897,0.052631,-0.108253,0.062500,-0.105789,0.064963,-0.103933,0.069446,0.643328,0.819956,0.641045,3.249334,-0.088388,3.975612,-0.103933,3.994554,-0.122598,4.039613,-0.122598,4.088387,
-0.103933,4.133446,-0.069446,4.167933,-0.024387,4.186598,0.024387,4.186598,0.069446,4.167933,0.069446,4.167933,$1*%
%AMFreePoly4*
4,1,45,0.069446,4.167933,0.850389,3.390388,0.865934,3.371446,0.884598,3.326386,0.887000,0.762000,0.884598,0.737613,0.865934,0.692554,0.088388,-0.088388,0.069446,-0.103933,0.064963,-0.105789,0.062500,-0.108253,0.052631,-0.110897,0.024387,-0.122598,0.008964,-0.122598,0.000000,-0.125000,-0.008964,-0.122598,-0.024387,-0.122598,-0.052631,-0.110897,-0.062500,-0.108253,-0.064963,-0.105789,
-0.069446,-0.103933,-0.103933,-0.069446,-0.105789,-0.064963,-0.108253,-0.062500,-0.110897,-0.052631,-0.122598,-0.024387,-0.122598,-0.008964,-0.125000,0.000000,-0.122598,0.008964,-0.122598,0.024387,-0.110897,0.052631,-0.108253,0.062500,-0.105789,0.064963,-0.103933,0.069446,0.639328,0.815955,0.637045,3.253333,-0.088388,3.975612,-0.103933,3.994554,-0.122598,4.039613,-0.122598,4.088387,
-0.103933,4.133446,-0.069446,4.167933,-0.024387,4.186598,0.024387,4.186598,0.069446,4.167933,0.069446,4.167933,$1*%
G04 Aperture macros list end*
%TA.AperFunction,ComponentPad*%
%ADD10C,0.600000*%
%TD*%
%TA.AperFunction,ComponentPad*%
%ADD11C,2.100000*%
%TD*%
%TA.AperFunction,ComponentPad*%
%ADD12C,1.750000*%
%TD*%
%TA.AperFunction,ComponentPad*%
%ADD13C,0.700000*%
%TD*%
%TA.AperFunction,ComponentPad*%
%ADD14C,4.400000*%
%TD*%
%TA.AperFunction,ComponentPad*%
%ADD15R,1.778000X1.778000*%
%TD*%
%TA.AperFunction,SMDPad,CuDef*%
%ADD16R,0.900000X1.200000*%
%TD*%
%TA.AperFunction,ComponentPad*%
%ADD17C,1.905000*%
%TD*%
%TA.AperFunction,ComponentPad*%
%ADD18RotRect,1.778000X1.778000X5.000000*%
%TD*%
%TA.AperFunction,SMDPad,CuDef*%
%ADD19RotRect,0.900000X1.200000X5.000000*%
%TD*%
%TA.AperFunction,SMDPad,CuDef*%
%ADD20R,2.550000X2.500000*%
%TD*%
%TA.AperFunction,ComponentPad*%
%ADD21O,1.600000X2.200000*%
%TD*%
%TA.AperFunction,ComponentPad*%
%ADD22RotRect,1.778000X1.778000X60.000000*%
%TD*%
%TA.AperFunction,SMDPad,CuDef*%
%ADD23RotRect,0.900000X1.200000X60.000000*%
%TD*%
%TA.AperFunction,SMDPad,CuDef*%
%ADD24RotRect,2.550000X2.500000X5.000000*%
%TD*%
%TA.AperFunction,ComponentPad*%
%ADD25C,1.600000*%
%TD*%
%TA.AperFunction,SMDPad,CuDef*%
%ADD26FreePoly0,270.000000*%
%TD*%
%TA.AperFunction,SMDPad,CuDef*%
%ADD27FreePoly1,270.000000*%
%TD*%
%TA.AperFunction,SMDPad,CuDef*%
%ADD28FreePoly1,90.000000*%
%TD*%
%TA.AperFunction,SMDPad,CuDef*%
%ADD29FreePoly0,90.000000*%
%TD*%
%TA.AperFunction,ComponentPad*%
%ADD30R,1.600000X1.600000*%
%TD*%
%TA.AperFunction,SMDPad,CuDef*%
%ADD31FreePoly2,270.000000*%
%TD*%
%TA.AperFunction,SMDPad,CuDef*%
%ADD32FreePoly3,270.000000*%
%TD*%
%TA.AperFunction,ComponentPad*%
%ADD33C,0.800000*%
%TD*%
%TA.AperFunction,SMDPad,CuDef*%
%ADD34FreePoly4,90.000000*%
%TD*%
%TA.AperFunction,SMDPad,CuDef*%
%ADD35FreePoly2,90.000000*%
%TD*%
%TA.AperFunction,SMDPad,CuDef*%
%ADD36RotRect,2.550000X2.500000X345.000000*%
%TD*%
%TA.AperFunction,ComponentPad*%
%ADD37RotRect,1.778000X1.778000X345.000000*%
%TD*%
%TA.AperFunction,SMDPad,CuDef*%
%ADD38RotRect,0.900000X1.200000X345.000000*%
%TD*%
%TA.AperFunction,SMDPad,CuDef*%
%ADD39RotRect,2.550000X2.500000X60.000000*%
%TD*%
%TA.AperFunction,ComponentPad*%
%ADD40R,1.700000X1.700000*%
%TD*%
%TA.AperFunction,ComponentPad*%
%ADD41O,1.700000X1.700000*%
%TD*%
%TA.AperFunction,Conductor*%
%ADD42C,0.250000*%
%TD*%
G04 APERTURE END LIST*
D10*
%TO.P,REF\u002A\u002A,1*%
%TO.N,P16*%
X199500000Y-154500000D03*
%TD*%
%TO.P,REF\u002A\u002A,1*%
%TO.N,P10*%
X200500000Y-153500000D03*
%TD*%
%TO.P,REF\u002A\u002A,1*%
%TO.N,P9*%
X201500000Y-152500000D03*
%TD*%
D11*
%TO.P,REF\u002A\u002A,*%
%TO.N,*%
X271968597Y-154672468D03*
X268463597Y-160743307D03*
D12*
%TO.P,REF\u002A\u002A,1*%
%TO.N,GND*%
X273500000Y-157000000D03*
%TO.P,REF\u002A\u002A,2*%
%TO.N,RST*%
X271250001Y-160897115D03*
%TD*%
D13*
%TO.P,_46,1*%
%TO.N,N/C*%
X242956795Y-104801108D03*
X243440069Y-103634382D03*
X243440069Y-105967834D03*
X244606795Y-103151108D03*
D14*
X244606795Y-104801108D03*
D13*
X244606795Y-106451108D03*
X245773521Y-103634382D03*
X245773521Y-105967834D03*
X246256795Y-104801108D03*
%TD*%
D15*
%TO.P,D19,1*%
%TO.N,P19*%
X240796796Y-134301108D03*
D16*
X242956796Y-134301108D03*
%TO.P,D19,2*%
%TO.N,media_one*%
X246256796Y-134301108D03*
D17*
X248416796Y-134301108D03*
%TD*%
D10*
%TO.P,REF\u002A\u002A,1*%
%TO.N,P4*%
X258118678Y-169174442D03*
%TD*%
D15*
%TO.P,D10,1*%
%TO.N,P19*%
X197796795Y-139301109D03*
D16*
X199956795Y-139301109D03*
%TO.P,D10,2*%
%TO.N,index_bottom*%
X203256795Y-139301109D03*
D17*
X205416795Y-139301109D03*
%TD*%
D18*
%TO.P,D1,1*%
%TO.N,P19*%
X139792061Y-151288925D03*
D19*
X141943842Y-151100669D03*
%TO.P,D1,2*%
%TO.N,pinky_bottom*%
X145231284Y-150813055D03*
D17*
X147383065Y-150624799D03*
%TD*%
D13*
%TO.P,_43,1*%
%TO.N,N/C*%
X149564777Y-146418645D03*
X149944525Y-145214238D03*
X150147898Y-147538811D03*
X151064691Y-144631117D03*
D14*
X151208498Y-146274838D03*
D13*
X151352305Y-147918559D03*
X152269098Y-145010865D03*
X152472471Y-147335438D03*
X152852219Y-146131031D03*
%TD*%
D15*
%TO.P,D11,1*%
%TO.N,P20*%
X197796795Y-120301109D03*
D16*
X199956795Y-120301109D03*
%TO.P,D11,2*%
%TO.N,index_home*%
X203256795Y-120301109D03*
D17*
X205416795Y-120301109D03*
%TD*%
D10*
%TO.P,REF\u002A\u002A,1*%
%TO.N,P21*%
X206606795Y-106301108D03*
%TD*%
%TO.P,REF\u002A\u002A,1*%
%TO.N,P16*%
X177606796Y-119301109D03*
%TD*%
%TO.P,REF\u002A\u002A,1*%
%TO.N,P19*%
X187606795Y-138301108D03*
%TD*%
%TO.P,REF\u002A\u002A,1*%
%TO.N,P14*%
X196606795Y-144301108D03*
%TD*%
D13*
%TO.P,_45,1*%
%TO.N,N/C*%
X193156795Y-156801109D03*
X193640069Y-155634383D03*
X193640069Y-157967835D03*
X194806795Y-155151109D03*
D14*
X194806795Y-156801109D03*
D13*
X194806795Y-158451109D03*
X195973521Y-155634383D03*
X195973521Y-157967835D03*
X196456795Y-156801109D03*
%TD*%
D10*
%TO.P,REF\u002A\u002A,1*%
%TO.N,P20*%
X147348357Y-136574357D03*
%TD*%
%TO.P,REF\u002A\u002A,1*%
%TO.N,P16*%
X177606796Y-100301109D03*
%TD*%
D20*
%TO.P,S10,1*%
%TO.N,P14*%
X207876795Y-150051109D03*
%TO.P,S10,2*%
%TO.N,index_bottom*%
X193536795Y-149001109D03*
%TD*%
D10*
%TO.P,REF\u002A\u002A,1*%
%TO.N,P20*%
X206606795Y-125301108D03*
%TD*%
D13*
%TO.P,_47,1*%
%TO.N,N/C*%
X245956795Y-155801108D03*
X246440069Y-154634382D03*
X246440069Y-156967834D03*
X247606795Y-154151108D03*
D14*
X247606795Y-155801108D03*
D13*
X247606795Y-157451108D03*
X248773521Y-154634382D03*
X248773521Y-156967834D03*
X249256795Y-155801108D03*
%TD*%
D20*
%TO.P,S4,1*%
%TO.N,P10*%
X169876796Y-149051108D03*
%TO.P,S4,2*%
%TO.N,ring_bottom*%
X155536796Y-148001108D03*
%TD*%
D21*
%TO.P,TRRS1,1*%
%TO.N,GND*%
X233006795Y-108601108D03*
X237606795Y-108601108D03*
%TO.P,TRRS1,2*%
X233006795Y-107501108D03*
X237606795Y-107501107D03*
%TO.P,TRRS1,3*%
%TO.N,P1*%
X233006795Y-103501108D03*
X237606795Y-103501108D03*
%TO.P,TRRS1,4*%
%TO.N,VCC*%
X233006795Y-100501108D03*
X237606795Y-100501108D03*
%TD*%
D22*
%TO.P,D18,1*%
%TO.N,P4*%
X249383551Y-174304125D03*
D23*
X250463551Y-172433511D03*
%TO.P,D18,2*%
%TO.N,space_cluster*%
X252113551Y-169575627D03*
D17*
X253193551Y-167705013D03*
%TD*%
D10*
%TO.P,REF\u002A\u002A,1*%
%TO.N,P21*%
X168606795Y-105301108D03*
%TD*%
%TO.P,REF\u002A\u002A,1*%
%TO.N,P18*%
X253118678Y-177834696D03*
%TD*%
%TO.P,REF\u002A\u002A,1*%
%TO.N,P19*%
X225606795Y-144301108D03*
%TD*%
D20*
%TO.P,S11,1*%
%TO.N,P14*%
X207876795Y-131051109D03*
%TO.P,S11,2*%
%TO.N,index_home*%
X193536795Y-130001109D03*
%TD*%
D15*
%TO.P,D13,1*%
%TO.N,P19*%
X216796795Y-139301109D03*
D16*
X218956795Y-139301109D03*
%TO.P,D13,2*%
%TO.N,index2_bottom*%
X222256795Y-139301109D03*
D17*
X224416795Y-139301109D03*
%TD*%
D10*
%TO.P,REF\u002A\u002A,1*%
%TO.N,P4*%
X211306795Y-166301108D03*
%TD*%
D24*
%TO.P,S3,1*%
%TO.N,P9*%
X147458710Y-123264090D03*
%TO.P,S3,2*%
%TO.N,pinky_top*%
X133081765Y-123467899D03*
%TD*%
D10*
%TO.P,REF\u002A\u002A,1*%
%TO.N,P15*%
X227945754Y-168043491D03*
%TD*%
%TO.P,REF\u002A\u002A,1*%
%TO.N,P10*%
X158606796Y-105301108D03*
%TD*%
D20*
%TO.P,S12,1*%
%TO.N,P14*%
X207876795Y-112051109D03*
%TO.P,S12,2*%
%TO.N,index_top*%
X193536795Y-111001109D03*
%TD*%
D10*
%TO.P,REF\u002A\u002A,1*%
%TO.N,P15*%
X215606795Y-125301108D03*
%TD*%
D15*
%TO.P,D20,1*%
%TO.N,P20*%
X240796796Y-115301108D03*
D16*
X242956796Y-115301108D03*
%TO.P,D20,2*%
%TO.N,media_two*%
X246256796Y-115301108D03*
D17*
X248416796Y-115301108D03*
%TD*%
D20*
%TO.P,S13,1*%
%TO.N,P15*%
X226876795Y-150051109D03*
%TO.P,S13,2*%
%TO.N,index2_bottom*%
X212536795Y-149001109D03*
%TD*%
D15*
%TO.P,D15,1*%
%TO.N,P21*%
X216796795Y-101301109D03*
D16*
X218956795Y-101301109D03*
%TO.P,D15,2*%
%TO.N,index2_top*%
X222256795Y-101301109D03*
D17*
X224416795Y-101301109D03*
%TD*%
D10*
%TO.P,REF\u002A\u002A,1*%
%TO.N,P19*%
X149004316Y-155502057D03*
%TD*%
D20*
%TO.P,S19,1*%
%TO.N,P18*%
X250876795Y-145051109D03*
%TO.P,S19,2*%
%TO.N,media_one*%
X236536795Y-144001109D03*
%TD*%
D10*
%TO.P,REF\u002A\u002A,1*%
%TO.N,P18*%
X239606795Y-139301109D03*
%TD*%
%TO.P,REF\u002A\u002A,1*%
%TO.N,P16*%
X177606796Y-138301109D03*
%TD*%
%TO.P,REF\u002A\u002A,1*%
%TO.N,P14*%
X201306795Y-166301108D03*
%TD*%
%TO.P,REF\u002A\u002A,1*%
%TO.N,P21*%
X225606795Y-106301108D03*
%TD*%
%TO.P,REF\u002A\u002A,1*%
%TO.N,P21*%
X145692397Y-117646658D03*
%TD*%
%TO.P,REF\u002A\u002A,1*%
%TO.N,P10*%
X158606796Y-124301109D03*
%TD*%
%TO.P,REF\u002A\u002A,1*%
%TO.N,P15*%
X215606795Y-106301108D03*
%TD*%
%TO.P,REF\u002A\u002A,1*%
%TO.N,P9*%
X135730450Y-118518216D03*
%TD*%
%TO.P,REF\u002A\u002A,1*%
%TO.N,P10*%
X158606795Y-143301108D03*
%TD*%
D15*
%TO.P,D7,1*%
%TO.N,P19*%
X178796795Y-133301108D03*
D16*
X180956795Y-133301108D03*
%TO.P,D7,2*%
%TO.N,middle_bottom*%
X184256795Y-133301108D03*
D17*
X186416795Y-133301108D03*
%TD*%
D10*
%TO.P,REF\u002A\u002A,1*%
%TO.N,P20*%
X249606795Y-120301108D03*
%TD*%
D15*
%TO.P,D12,1*%
%TO.N,P21*%
X197796795Y-101301109D03*
D16*
X199956795Y-101301109D03*
%TO.P,D12,2*%
%TO.N,index_top*%
X203256795Y-101301109D03*
D17*
X205416795Y-101301109D03*
%TD*%
D25*
%TO.P,_41,*%
%TO.N,*%
X275226794Y-114331108D03*
D26*
X273956795Y-114331108D03*
D27*
X273448795Y-114331108D03*
D28*
X261764795Y-114331108D03*
D29*
X261256795Y-114331108D03*
D25*
X259986795Y-114331108D03*
D30*
X259986795Y-114331108D03*
D25*
X275226795Y-116871108D03*
D26*
X273956795Y-116871108D03*
D27*
X273448795Y-116871108D03*
D28*
X261764795Y-116871108D03*
D29*
X261256795Y-116871108D03*
D25*
X259986795Y-116871108D03*
X275226795Y-119411108D03*
D26*
X273956795Y-119411108D03*
D27*
X273448795Y-119411108D03*
D28*
X261764795Y-119411108D03*
D29*
X261256795Y-119411108D03*
D25*
X259986795Y-119411108D03*
X259986795Y-121951107D03*
X275226795Y-121951108D03*
D27*
X273448795Y-121951108D03*
D28*
X261764795Y-121951108D03*
D29*
X261256796Y-121951108D03*
D26*
X273956795Y-121951109D03*
D25*
X275226795Y-124491108D03*
D26*
X273956795Y-124491108D03*
D27*
X273448795Y-124491108D03*
D28*
X261764794Y-124491108D03*
D29*
X261256795Y-124491108D03*
D25*
X259986795Y-124491108D03*
X275226795Y-127031108D03*
D26*
X273956795Y-127031108D03*
D27*
X273448795Y-127031108D03*
D28*
X261764795Y-127031108D03*
D29*
X261256795Y-127031108D03*
D25*
X259986795Y-127031108D03*
X275226795Y-129571108D03*
D26*
X273956795Y-129571108D03*
D27*
X273448795Y-129571108D03*
D28*
X261764795Y-129571108D03*
D29*
X261256795Y-129571108D03*
D25*
X259986795Y-129571108D03*
X275226795Y-132111108D03*
D26*
X273956795Y-132111108D03*
D27*
X273448796Y-132111108D03*
D28*
X261764795Y-132111108D03*
D29*
X261256795Y-132111108D03*
D25*
X259986795Y-132111108D03*
D29*
X261256795Y-134651107D03*
D26*
X273956794Y-134651108D03*
D27*
X273448795Y-134651108D03*
D28*
X261764795Y-134651108D03*
D25*
X259986795Y-134651108D03*
X275226795Y-134651109D03*
X275226795Y-137191108D03*
D26*
X273956795Y-137191108D03*
D27*
X273448795Y-137191108D03*
D28*
X261764795Y-137191108D03*
D29*
X261256795Y-137191108D03*
D25*
X259986795Y-137191108D03*
X275226795Y-139731108D03*
D26*
X273956795Y-139731108D03*
D27*
X273448795Y-139731108D03*
D28*
X261764795Y-139731108D03*
D29*
X261256795Y-139731108D03*
D25*
X259986795Y-139731108D03*
X275226795Y-142271108D03*
D26*
X273956795Y-142271108D03*
D27*
X273448795Y-142271108D03*
D28*
X261764795Y-142271108D03*
D29*
X261256795Y-142271108D03*
D25*
X259986796Y-142271108D03*
D31*
%TO.P,_41,1*%
%TO.N,RAW*%
X272432795Y-114331108D03*
D32*
X268368795Y-114331108D03*
D33*
X268368795Y-114331108D03*
D31*
%TO.P,_41,2*%
%TO.N,GND*%
X272432795Y-116871108D03*
D32*
X268368795Y-116871108D03*
D33*
X268368795Y-116871108D03*
D31*
%TO.P,_41,3*%
%TO.N,RST*%
X272432795Y-119411108D03*
D32*
X268368795Y-119411108D03*
D33*
X268368795Y-119411108D03*
D31*
%TO.P,_41,4*%
%TO.N,VCC*%
X272432795Y-121951108D03*
D32*
X268368795Y-121951109D03*
D33*
X268368795Y-121951109D03*
D31*
%TO.P,_41,5*%
%TO.N,P21*%
X272432795Y-124491108D03*
D32*
X268368795Y-124491108D03*
D33*
X268368795Y-124491108D03*
D31*
%TO.P,_41,6*%
%TO.N,P20*%
X272432795Y-127031108D03*
D32*
X268368795Y-127031108D03*
D33*
X268368795Y-127031108D03*
D31*
%TO.P,_41,7*%
%TO.N,P19*%
X272432795Y-129571108D03*
D32*
X268368795Y-129571108D03*
D33*
X268368795Y-129571108D03*
D31*
%TO.P,_41,8*%
%TO.N,P18*%
X272432795Y-132111108D03*
D32*
X268368795Y-132111108D03*
D33*
X268368795Y-132111108D03*
D31*
%TO.P,_41,9*%
%TO.N,P15*%
X272432795Y-134651108D03*
D32*
X268368796Y-134651108D03*
D33*
X268368796Y-134651108D03*
D31*
%TO.P,_41,10*%
%TO.N,P14*%
X272432795Y-137191108D03*
D32*
X268368795Y-137191108D03*
D33*
X268368795Y-137191108D03*
D31*
%TO.P,_41,11*%
%TO.N,P16*%
X272432795Y-139731108D03*
D32*
X268368795Y-139731108D03*
D33*
X268368795Y-139731108D03*
D32*
%TO.P,_41,12*%
%TO.N,P10*%
X268368795Y-142271108D03*
D33*
X268368795Y-142271108D03*
D31*
X272432795Y-142271109D03*
D34*
%TO.P,_41,13*%
%TO.N,P9*%
X266844795Y-142271108D03*
D33*
X266844795Y-142271108D03*
D35*
X262780795Y-142271108D03*
D34*
%TO.P,_41,14*%
%TO.N,P8*%
X266844795Y-139731108D03*
D33*
X266844795Y-139731108D03*
D35*
X262780795Y-139731108D03*
D34*
%TO.P,_41,15*%
%TO.N,P7*%
X266844795Y-137191108D03*
D33*
X266844795Y-137191108D03*
D35*
X262780795Y-137191108D03*
D34*
%TO.P,_41,16*%
%TO.N,P6*%
X266844795Y-134651107D03*
D33*
X266844795Y-134651107D03*
D35*
X262780795Y-134651108D03*
D34*
%TO.P,_41,17*%
%TO.N,P5*%
X266844795Y-132111108D03*
D33*
X266844795Y-132111108D03*
D35*
X262780795Y-132111108D03*
D34*
%TO.P,_41,18*%
%TO.N,P4*%
X266844795Y-129571108D03*
D33*
X266844795Y-129571108D03*
D35*
X262780795Y-129571108D03*
D34*
%TO.P,_41,19*%
%TO.N,P3*%
X266844795Y-127031108D03*
D33*
X266844795Y-127031108D03*
D35*
X262780795Y-127031108D03*
D34*
%TO.P,_41,20*%
%TO.N,P2*%
X266844795Y-124491108D03*
D33*
X266844795Y-124491108D03*
D35*
X262780795Y-124491108D03*
D34*
%TO.P,_41,21*%
%TO.N,GND*%
X266844794Y-121951108D03*
D33*
X266844794Y-121951108D03*
D35*
X262780795Y-121951108D03*
D34*
%TO.P,_41,22*%
X266844795Y-119411108D03*
D33*
X266844795Y-119411108D03*
D35*
X262780795Y-119411108D03*
D34*
%TO.P,_41,23*%
%TO.N,P0*%
X266844795Y-116871108D03*
D33*
X266844795Y-116871108D03*
D35*
X262780795Y-116871108D03*
%TO.P,_41,24*%
%TO.N,P1*%
X262780795Y-114331107D03*
D34*
X266844795Y-114331108D03*
D33*
X266844795Y-114331108D03*
%TD*%
D10*
%TO.P,REF\u002A\u002A,1*%
%TO.N,P14*%
X196606795Y-106301108D03*
%TD*%
%TO.P,REF\u002A\u002A,1*%
%TO.N,P19*%
X206606795Y-144301108D03*
%TD*%
D24*
%TO.P,S2,1*%
%TO.N,P9*%
X149114669Y-142191790D03*
%TO.P,S2,2*%
%TO.N,pinky_home*%
X134737724Y-142395599D03*
%TD*%
D10*
%TO.P,REF\u002A\u002A,1*%
%TO.N,P9*%
X137386409Y-137445915D03*
%TD*%
D36*
%TO.P,S17,1*%
%TO.N,P15*%
X237343529Y-176514455D03*
%TO.P,S17,2*%
%TO.N,layer_cluster*%
X223763913Y-171788768D03*
%TD*%
D15*
%TO.P,D14,1*%
%TO.N,P20*%
X216796795Y-120301109D03*
D16*
X218956795Y-120301109D03*
%TO.P,D14,2*%
%TO.N,index2_home*%
X222256795Y-120301109D03*
D17*
X224416795Y-120301109D03*
%TD*%
D10*
%TO.P,REF\u002A\u002A,1*%
%TO.N,P19*%
X249606795Y-139301108D03*
%TD*%
D20*
%TO.P,S16,1*%
%TO.N,P14*%
X212576795Y-172051109D03*
%TO.P,S16,2*%
%TO.N,mod_cluster*%
X198236795Y-171001109D03*
%TD*%
D15*
%TO.P,D6,1*%
%TO.N,P21*%
X159796796Y-100301108D03*
D16*
X161956796Y-100301108D03*
%TO.P,D6,2*%
%TO.N,ring_top*%
X165256796Y-100301108D03*
D17*
X167416796Y-100301108D03*
%TD*%
D20*
%TO.P,S7,1*%
%TO.N,P16*%
X188876796Y-144051108D03*
%TO.P,S7,2*%
%TO.N,middle_bottom*%
X174536796Y-143001108D03*
%TD*%
D13*
%TO.P,_42,1*%
%TO.N,N/C*%
X150262475Y-114235368D03*
X150642223Y-113030961D03*
X150845596Y-115355534D03*
X151762389Y-112447840D03*
D14*
X151906196Y-114091561D03*
D13*
X152050003Y-115735282D03*
X152966796Y-112827588D03*
X153170169Y-115152161D03*
X153549917Y-113947754D03*
%TD*%
D10*
%TO.P,REF\u002A\u002A,1*%
%TO.N,P9*%
X139042369Y-156373615D03*
%TD*%
D20*
%TO.P,S20,1*%
%TO.N,P18*%
X250876795Y-126051109D03*
%TO.P,S20,2*%
%TO.N,media_two*%
X236536795Y-125001109D03*
%TD*%
D15*
%TO.P,D16,1*%
%TO.N,P4*%
X202496795Y-161301109D03*
D16*
X204656795Y-161301109D03*
%TO.P,D16,2*%
%TO.N,mod_cluster*%
X207956795Y-161301109D03*
D17*
X210116795Y-161301109D03*
%TD*%
D10*
%TO.P,REF\u002A\u002A,1*%
%TO.N,P20*%
X187606796Y-119301108D03*
%TD*%
D37*
%TO.P,D17,1*%
%TO.N,P4*%
X230389301Y-163521857D03*
D38*
X232475700Y-164080906D03*
%TO.P,D17,2*%
%TO.N,layer_cluster*%
X235663256Y-164935010D03*
D17*
X237749655Y-165494059D03*
%TD*%
D18*
%TO.P,D2,1*%
%TO.N,P20*%
X138136102Y-132361226D03*
D19*
X140287883Y-132172970D03*
%TO.P,D2,2*%
%TO.N,pinky_home*%
X143575325Y-131885356D03*
D17*
X145727106Y-131697100D03*
%TD*%
D15*
%TO.P,D9,1*%
%TO.N,P21*%
X178796795Y-95301108D03*
D16*
X180956795Y-95301108D03*
%TO.P,D9,2*%
%TO.N,middle_top*%
X184256795Y-95301108D03*
D17*
X186416795Y-95301108D03*
%TD*%
D10*
%TO.P,REF\u002A\u002A,1*%
%TO.N,P20*%
X225606795Y-125301108D03*
%TD*%
D18*
%TO.P,D3,1*%
%TO.N,P21*%
X136480144Y-113433527D03*
D19*
X138631925Y-113245271D03*
%TO.P,D3,2*%
%TO.N,pinky_top*%
X141919367Y-112957657D03*
D17*
X144071148Y-112769401D03*
%TD*%
D39*
%TO.P,S18,1*%
%TO.N,P18*%
X263733325Y-170949589D03*
%TO.P,S18,2*%
%TO.N,space_cluster*%
X255653998Y-182843393D03*
%TD*%
D15*
%TO.P,D8,1*%
%TO.N,P20*%
X178796795Y-114301108D03*
D16*
X180956795Y-114301108D03*
%TO.P,D8,2*%
%TO.N,middle_home*%
X184256795Y-114301108D03*
D17*
X186416795Y-114301108D03*
%TD*%
D10*
%TO.P,REF\u002A\u002A,1*%
%TO.N,P4*%
X237605012Y-170631682D03*
%TD*%
%TO.P,REF\u002A\u002A,1*%
%TO.N,P20*%
X168606795Y-124301108D03*
%TD*%
%TO.P,REF\u002A\u002A,1*%
%TO.N,P18*%
X239606795Y-120301108D03*
%TD*%
D15*
%TO.P,D4,1*%
%TO.N,P19*%
X159796796Y-138301108D03*
D16*
X161956796Y-138301108D03*
%TO.P,D4,2*%
%TO.N,ring_bottom*%
X165256796Y-138301108D03*
D17*
X167416796Y-138301108D03*
%TD*%
D15*
%TO.P,D5,1*%
%TO.N,P20*%
X159796796Y-119301108D03*
D16*
X161956796Y-119301108D03*
%TO.P,D5,2*%
%TO.N,ring_home*%
X165256796Y-119301108D03*
D17*
X167416796Y-119301108D03*
%TD*%
D10*
%TO.P,REF\u002A\u002A,1*%
%TO.N,P15*%
X215606795Y-144301108D03*
%TD*%
%TO.P,REF\u002A\u002A,1*%
%TO.N,P14*%
X196606795Y-125301108D03*
%TD*%
D20*
%TO.P,S15,1*%
%TO.N,P15*%
X226876795Y-112051109D03*
%TO.P,S15,2*%
%TO.N,index2_top*%
X212536795Y-111001109D03*
%TD*%
D13*
%TO.P,_44,1*%
%TO.N,N/C*%
X190456796Y-115801108D03*
X190940070Y-114634382D03*
X190940070Y-116967834D03*
X192106796Y-114151108D03*
D14*
X192106796Y-115801108D03*
D13*
X192106796Y-117451108D03*
X193273522Y-114634382D03*
X193273522Y-116967834D03*
X193756796Y-115801108D03*
%TD*%
D20*
%TO.P,S8,1*%
%TO.N,P16*%
X188876796Y-125051108D03*
%TO.P,S8,2*%
%TO.N,middle_home*%
X174536796Y-124001108D03*
%TD*%
D10*
%TO.P,REF\u002A\u002A,1*%
%TO.N,P21*%
X187606796Y-100301108D03*
%TD*%
D40*
%TO.P,OLED1,1*%
%TO.N,GND*%
X263806794Y-145401108D03*
D41*
%TO.P,OLED1,2*%
%TO.N,VCC*%
X266346795Y-145401108D03*
%TO.P,OLED1,3*%
%TO.N,P3*%
X268886795Y-145401108D03*
%TO.P,OLED1,4*%
%TO.N,P2*%
X271426795Y-145401108D03*
%TD*%
D20*
%TO.P,S6,1*%
%TO.N,P10*%
X169876795Y-111051109D03*
%TO.P,S6,2*%
%TO.N,ring_top*%
X155536795Y-110001109D03*
%TD*%
D24*
%TO.P,S1,1*%
%TO.N,P9*%
X150770628Y-161119488D03*
%TO.P,S1,2*%
%TO.N,pinky_bottom*%
X136393683Y-161323297D03*
%TD*%
D20*
%TO.P,S5,1*%
%TO.N,P10*%
X169876796Y-130051108D03*
%TO.P,S5,2*%
%TO.N,ring_home*%
X155536796Y-129001108D03*
%TD*%
%TO.P,S9,1*%
%TO.N,P16*%
X188876796Y-106051108D03*
%TO.P,S9,2*%
%TO.N,middle_top*%
X174536796Y-105001108D03*
%TD*%
%TO.P,S14,1*%
%TO.N,P15*%
X226876795Y-131051109D03*
%TO.P,S14,2*%
%TO.N,index2_home*%
X212536795Y-130001109D03*
%TD*%
D10*
%TO.P,REF\u002A\u002A,1*%
%TO.N,P19*%
X168606795Y-143301108D03*
%TD*%
D42*
%TO.N,ring_top*%
X167416796Y-100301108D02*
X165256796Y-100301108D01*
%TO.N,P9*%
X143493933Y-120506067D02*
X142000000Y-122000000D01*
%TO.N,P10*%
X169881795Y-109224459D02*
X168657336Y-108000000D01*
X164500000Y-110000000D02*
X163000000Y-110000000D01*
%TO.N,P16*%
X188881796Y-104224458D02*
X187657338Y-103000000D01*
X183500000Y-105000000D02*
X182305687Y-105000000D01*
%TO.N,middle_top*%
X174500000Y-101500000D02*
X174536796Y-101536796D01*
%TO.N,P21*%
X159796796Y-100301108D02*
X159796796Y-101203204D01*
X178796795Y-95301108D02*
X178606795Y-95301108D01*
%TO.N,P20*%
X178796795Y-114301108D02*
X178606795Y-114301108D01*
%TO.N,P9*%
X145066233Y-139433767D02*
X143500000Y-141000000D01*
%TO.N,P19*%
X164983639Y-146500000D02*
X162689571Y-146500000D01*
X158689571Y-142500000D02*
X158524019Y-142500000D01*
%TO.N,P16*%
X188881796Y-122881796D02*
X187500000Y-121500000D01*
X183500000Y-123500000D02*
X181805687Y-123500000D01*
X188876796Y-125051108D02*
X188881796Y-125046108D01*
X188876796Y-132647765D02*
X186067353Y-135457208D01*
%TO.N,P14*%
X207881795Y-110224459D02*
X206657336Y-109000000D01*
X202000000Y-110500000D02*
X200805687Y-110500000D01*
X207881795Y-129224459D02*
X206657336Y-128000000D01*
X202000000Y-130000000D02*
X201305687Y-130000000D01*
X207876795Y-150051109D02*
X207881795Y-150046109D01*
X207881795Y-148224459D02*
X206657336Y-147000000D01*
X202000000Y-149000000D02*
X201305687Y-149000000D01*
%TO.N,P15*%
X226876795Y-150051109D02*
X226881795Y-150046109D01*
X226881795Y-148224459D02*
X225657336Y-147000000D01*
X221500000Y-148500000D02*
X219805687Y-148500000D01*
X226881795Y-128881795D02*
X226000000Y-128000000D01*
X221500000Y-130000000D02*
X220305687Y-130000000D01*
X226881795Y-109881795D02*
X226000000Y-109000000D01*
X221500000Y-110500000D02*
X219805687Y-110500000D01*
%TO.N,P18*%
X250881795Y-124224459D02*
X249657336Y-123000000D01*
X245500000Y-124500000D02*
X243805687Y-124500000D01*
%TO.N,media_two*%
X246256796Y-115301108D02*
X245556796Y-115301108D01*
%TO.N,P18*%
X250876795Y-145051109D02*
X250881795Y-145046109D01*
X250881795Y-142881795D02*
X250000000Y-142000000D01*
X245000000Y-143500000D02*
X243805686Y-143500000D01*
%TO.N,P21*%
X259274108Y-123274108D02*
X258000000Y-122000000D01*
%TO.N,P4*%
X275692786Y-130986108D02*
X277000000Y-132293322D01*
%TO.N,P18*%
X259000000Y-175500000D02*
X259000000Y-172281404D01*
%TO.N,space_cluster*%
X252000000Y-170500000D02*
X252113551Y-170386449D01*
%TO.N,P15*%
X238364150Y-175493834D02*
X238364150Y-174364150D01*
%TO.N,layer_cluster*%
X235074489Y-165523777D02*
X235663256Y-164935010D01*
%TO.N,mod_cluster*%
X201500000Y-165000000D02*
X203500000Y-165000000D01*
%TO.N,P14*%
X212576795Y-172051109D02*
X212581795Y-172046109D01*
X209873891Y-169126109D02*
X209000000Y-170000000D01*
X212581795Y-170081795D02*
X211626109Y-169126109D01*
%TO.N,P16*%
X208950000Y-154500000D02*
X210000000Y-153450000D01*
X230901109Y-153450000D02*
X232500000Y-151851109D01*
X273186396Y-148450000D02*
X276351795Y-145284601D01*
X276351795Y-139265117D02*
X275586678Y-138500000D01*
%TO.N,P10*%
X209000000Y-153500000D02*
X209500000Y-153000000D01*
X230401109Y-153000000D02*
X232000000Y-151401109D01*
X274500000Y-144500000D02*
X274000000Y-144000000D01*
%TO.N,P9*%
X229951109Y-152500000D02*
X231500000Y-150951109D01*
%TO.N,P14*%
X253586396Y-144000000D02*
X253586396Y-146152904D01*
X259025892Y-135974108D02*
X257850000Y-137150000D01*
X230998891Y-150501109D02*
X229500000Y-152000000D01*
%TO.N,P10*%
X169876796Y-130051108D02*
X169881796Y-130046108D01*
X169881796Y-128224458D02*
X168657338Y-127000000D01*
X166000000Y-127000000D02*
X164500000Y-128500000D01*
X171000000Y-133000000D02*
X169876796Y-131876796D01*
%TO.N,pinky_bottom*%
X141000000Y-153000000D02*
X143044339Y-153000000D01*
%TO.N,P9*%
X145000000Y-160500000D02*
X144000000Y-160500000D01*
%TO.N,P10*%
X169876796Y-149051108D02*
X169881796Y-149046108D01*
X169881796Y-147224458D02*
X168657338Y-146000000D01*
X166500000Y-146000000D02*
X165000000Y-147500000D01*
%TO.N,P16*%
X188881796Y-142224458D02*
X187783446Y-141126108D01*
X185373892Y-141126108D02*
X184000000Y-142500000D01*
%TO.N,P15*%
X258565893Y-133434107D02*
X257400000Y-134600000D01*
X253136396Y-143636396D02*
X253136396Y-145966508D01*
%TO.N,P18*%
X258803892Y-130696108D02*
X256950000Y-132550000D01*
%TO.N,P19*%
X258843892Y-128156108D02*
X256500000Y-130500000D01*
X256500000Y-139000000D02*
X256198892Y-139301108D01*
%TO.N,P20*%
X259116108Y-125616108D02*
X257500000Y-124000000D01*
X257500000Y-120500000D02*
X257301108Y-120301108D01*
%TO.N,pinky_home*%
X143575325Y-131885356D02*
X145538850Y-131885356D01*
X145538850Y-131885356D02*
X145727106Y-131697100D01*
X134737724Y-137262276D02*
X138000000Y-134000000D01*
X141460681Y-134000000D02*
X143575325Y-131885356D01*
X134737724Y-142395599D02*
X134737724Y-137262276D01*
X138000000Y-134000000D02*
X141460681Y-134000000D01*
%TO.N,pinky_top*%
X141919367Y-112957657D02*
X143882892Y-112957657D01*
X143882892Y-112957657D02*
X144071148Y-112769401D01*
X133081765Y-118418235D02*
X136500000Y-115000000D01*
X136500000Y-115000000D02*
X139877024Y-115000000D01*
X133081765Y-123467899D02*
X133081765Y-118418235D01*
X139877024Y-115000000D02*
X141919367Y-112957657D01*
%TO.N,P9*%
X147458710Y-123264090D02*
X147458710Y-121683814D01*
X147458710Y-121683814D02*
X146280963Y-120506067D01*
X146280963Y-120506067D02*
X143493933Y-120506067D01*
X139212234Y-122000000D02*
X135730450Y-118518216D01*
X142000000Y-122000000D02*
X139212234Y-122000000D01*
%TO.N,P10*%
X169876795Y-111051109D02*
X169881795Y-111046109D01*
X169881795Y-111046109D02*
X169881795Y-109224459D01*
X158606796Y-105606796D02*
X158606796Y-105301108D01*
X168657336Y-108000000D02*
X166500000Y-108000000D01*
X166500000Y-108000000D02*
X164500000Y-110000000D01*
X163000000Y-110000000D02*
X158606796Y-105606796D01*
%TO.N,ring_top*%
X163557904Y-102000000D02*
X160500000Y-102000000D01*
X165256796Y-100301108D02*
X163557904Y-102000000D01*
X160500000Y-102000000D02*
X155536795Y-106963205D01*
X155536795Y-106963205D02*
X155536795Y-110001109D01*
%TO.N,ring_home*%
X163557904Y-121000000D02*
X159500000Y-121000000D01*
X165256796Y-119301108D02*
X163557904Y-121000000D01*
X159500000Y-121000000D02*
X155536796Y-124963204D01*
X155536796Y-124963204D02*
X155536796Y-129001108D01*
X167416796Y-119301108D02*
X165256796Y-119301108D01*
%TO.N,middle_home*%
X182557903Y-116000000D02*
X178500000Y-116000000D01*
X184256795Y-114301108D02*
X182557903Y-116000000D01*
X178500000Y-116000000D02*
X174536796Y-119963204D01*
X174536796Y-119963204D02*
X174536796Y-124001108D01*
X184256795Y-114301108D02*
X186416795Y-114301108D01*
%TO.N,P16*%
X188876796Y-106051108D02*
X188881796Y-106046108D01*
X188881796Y-106046108D02*
X188881796Y-104224458D01*
X187657338Y-103000000D02*
X185500000Y-103000000D01*
X185500000Y-103000000D02*
X183500000Y-105000000D01*
X182305687Y-105000000D02*
X177606796Y-100301109D01*
%TO.N,middle_top*%
X178500000Y-97000000D02*
X174500000Y-101000000D01*
X174500000Y-101000000D02*
X174500000Y-101500000D01*
X184256795Y-95301108D02*
X182557903Y-97000000D01*
X182557903Y-97000000D02*
X178500000Y-97000000D01*
X174536796Y-101536796D02*
X174536796Y-105001108D01*
X186416795Y-95301108D02*
X184256795Y-95301108D01*
%TO.N,P21*%
X178796795Y-95301108D02*
X180956795Y-95301108D01*
%TO.N,P20*%
X178796795Y-114301108D02*
X180956795Y-114301108D01*
X159796796Y-119301108D02*
X161956796Y-119301108D01*
%TO.N,P21*%
X159796796Y-100301108D02*
X161956796Y-100301108D01*
X159796796Y-101203204D02*
X145692397Y-115307603D01*
X145692397Y-115307603D02*
X145692397Y-117646658D01*
X178606795Y-95301108D02*
X168606795Y-105301108D01*
%TO.N,P20*%
X178606795Y-114301108D02*
X168606795Y-124301108D01*
%TO.N,P9*%
X147936922Y-139433767D02*
X145066233Y-139433767D01*
X143500000Y-141000000D02*
X140940494Y-141000000D01*
X149114669Y-140611514D02*
X147936922Y-139433767D01*
X149114669Y-142191790D02*
X149114669Y-140611514D01*
X140940494Y-141000000D02*
X137386409Y-137445915D01*
%TO.N,ring_bottom*%
X163557904Y-140000000D02*
X159500000Y-140000000D01*
X165256796Y-138301108D02*
X163557904Y-140000000D01*
X159500000Y-140000000D02*
X155536796Y-143963204D01*
X155536796Y-143963204D02*
X155536796Y-148001108D01*
%TO.N,P19*%
X168606795Y-143301108D02*
X168182531Y-143301108D01*
X168182531Y-143301108D02*
X164983639Y-146500000D01*
X157136796Y-149863204D02*
X151497943Y-155502057D01*
X162689571Y-146500000D02*
X158689571Y-142500000D01*
X158524019Y-142500000D02*
X157136796Y-143887223D01*
X157136796Y-143887223D02*
X157136796Y-149863204D01*
X151497943Y-155502057D02*
X149004316Y-155502057D01*
%TO.N,P20*%
X152500000Y-126597904D02*
X152500000Y-132000000D01*
X159796796Y-119301108D02*
X152500000Y-126597904D01*
X152500000Y-132000000D02*
X147925643Y-136574357D01*
X147925643Y-136574357D02*
X147348357Y-136574357D01*
%TO.N,P16*%
X185500000Y-121500000D02*
X183500000Y-123500000D01*
X188881796Y-125046108D02*
X188881796Y-122881796D01*
X187500000Y-121500000D02*
X185500000Y-121500000D01*
X181805687Y-123500000D02*
X177606796Y-119301109D01*
X188876796Y-125051108D02*
X188876796Y-132647765D01*
X186067353Y-135457208D02*
X180450697Y-135457208D01*
X180450697Y-135457208D02*
X177606796Y-138301109D01*
%TO.N,P21*%
X197796795Y-101301109D02*
X188606797Y-101301109D01*
X188606797Y-101301109D02*
X187606796Y-100301108D01*
%TO.N,index_top*%
X201557904Y-103000000D02*
X197500000Y-103000000D01*
X203256795Y-101301109D02*
X201557904Y-103000000D01*
X197500000Y-103000000D02*
X193536795Y-106963205D01*
X193536795Y-106963205D02*
X193536795Y-111001109D01*
X205416795Y-101301109D02*
X203256795Y-101301109D01*
%TO.N,P14*%
X207876795Y-112051109D02*
X207881795Y-112046109D01*
X207881795Y-112046109D02*
X207881795Y-110224459D01*
X200805687Y-110500000D02*
X196606795Y-106301108D01*
X206657336Y-109000000D02*
X203500000Y-109000000D01*
X203500000Y-109000000D02*
X202000000Y-110500000D01*
%TO.N,P20*%
X197796795Y-120301109D02*
X188606797Y-120301109D01*
X188606797Y-120301109D02*
X187606796Y-119301108D01*
%TO.N,P14*%
X207876795Y-131051109D02*
X207881795Y-131046109D01*
X207881795Y-131046109D02*
X207881795Y-129224459D01*
X206657336Y-128000000D02*
X204000000Y-128000000D01*
X204000000Y-128000000D02*
X202000000Y-130000000D01*
X201305687Y-130000000D02*
X196606795Y-125301108D01*
%TO.N,index_home*%
X201557904Y-122000000D02*
X197500000Y-122000000D01*
X197500000Y-122000000D02*
X193536795Y-125963205D01*
X203256795Y-120301109D02*
X201557904Y-122000000D01*
X193536795Y-125963205D02*
X193536795Y-130001109D01*
X205416795Y-120301109D02*
X203256795Y-120301109D01*
%TO.N,middle_bottom*%
X182557903Y-135000000D02*
X178500000Y-135000000D01*
X184256795Y-133301108D02*
X182557903Y-135000000D01*
X178500000Y-135000000D02*
X174536796Y-138963204D01*
X174536796Y-138963204D02*
X174536796Y-143001108D01*
X186416795Y-133301108D02*
X184256795Y-133301108D01*
%TO.N,P19*%
X197796795Y-139301109D02*
X188606796Y-139301109D01*
X188606796Y-139301109D02*
X187606795Y-138301108D01*
%TO.N,index_bottom*%
X203256795Y-139301109D02*
X205416795Y-139301109D01*
X193536795Y-144963205D02*
X197500000Y-141000000D01*
X193536795Y-149001109D02*
X193536795Y-144963205D01*
X197500000Y-141000000D02*
X201557904Y-141000000D01*
X201557904Y-141000000D02*
X203256795Y-139301109D01*
%TO.N,P14*%
X201305687Y-149000000D02*
X196606795Y-144301108D01*
X207881795Y-150046109D02*
X207881795Y-148224459D01*
X206657336Y-147000000D02*
X204000000Y-147000000D01*
X204000000Y-147000000D02*
X202000000Y-149000000D01*
%TO.N,P19*%
X216796795Y-139301109D02*
X211606794Y-139301109D01*
X211606794Y-139301109D02*
X206606795Y-144301108D01*
%TO.N,index2_bottom*%
X222256795Y-139301109D02*
X224416795Y-139301109D01*
X212536795Y-144963205D02*
X216500000Y-141000000D01*
X212536795Y-149001109D02*
X212536795Y-144963205D01*
X220557904Y-141000000D02*
X222256795Y-139301109D01*
X216500000Y-141000000D02*
X220557904Y-141000000D01*
%TO.N,P15*%
X223000000Y-147000000D02*
X221500000Y-148500000D01*
X226881795Y-150046109D02*
X226881795Y-148224459D01*
X225657336Y-147000000D02*
X223000000Y-147000000D01*
X219805687Y-148500000D02*
X215606795Y-144301108D01*
X226876795Y-131051109D02*
X226881795Y-131046109D01*
X226881795Y-131046109D02*
X226881795Y-128881795D01*
X226000000Y-128000000D02*
X223500000Y-128000000D01*
X220305687Y-130000000D02*
X215606795Y-125301108D01*
X223500000Y-128000000D02*
X221500000Y-130000000D01*
%TO.N,index2_home*%
X222256795Y-120301109D02*
X224416795Y-120301109D01*
X212536795Y-125963205D02*
X216500000Y-122000000D01*
X216500000Y-122000000D02*
X220557904Y-122000000D01*
X212536795Y-130001109D02*
X212536795Y-125963205D01*
X220557904Y-122000000D02*
X222256795Y-120301109D01*
%TO.N,P20*%
X216796795Y-120301109D02*
X211606794Y-120301109D01*
X211606794Y-120301109D02*
X206606795Y-125301108D01*
%TO.N,P21*%
X216796795Y-101301109D02*
X211606794Y-101301109D01*
X211606794Y-101301109D02*
X206606795Y-106301108D01*
%TO.N,index2_top*%
X222256795Y-101301109D02*
X224416795Y-101301109D01*
X212536795Y-106963205D02*
X216500000Y-103000000D01*
X212536795Y-111001109D02*
X212536795Y-106963205D01*
X216500000Y-103000000D02*
X220557904Y-103000000D01*
X220557904Y-103000000D02*
X222256795Y-101301109D01*
%TO.N,P15*%
X226876795Y-112051109D02*
X226881795Y-112046109D01*
X226881795Y-112046109D02*
X226881795Y-109881795D01*
X223000000Y-109000000D02*
X221500000Y-110500000D01*
X226000000Y-109000000D02*
X223000000Y-109000000D01*
X219805687Y-110500000D02*
X215606795Y-106301108D01*
%TO.N,P18*%
X250876795Y-126051109D02*
X250881795Y-126046109D01*
X243805687Y-124500000D02*
X239606795Y-120301108D01*
X250881795Y-126046109D02*
X250881795Y-124224459D01*
X247000000Y-123000000D02*
X245500000Y-124500000D01*
X249657336Y-123000000D02*
X247000000Y-123000000D01*
%TO.N,P20*%
X240796796Y-115301108D02*
X235606795Y-115301108D01*
X235606795Y-115301108D02*
X225606795Y-125301108D01*
%TO.N,P19*%
X240796796Y-134301108D02*
X235606795Y-134301108D01*
X235606795Y-134301108D02*
X225606795Y-144301108D01*
%TO.N,media_two*%
X245556796Y-115301108D02*
X243857904Y-117000000D01*
X243857904Y-117000000D02*
X240500000Y-117000000D01*
X240500000Y-117000000D02*
X236536795Y-120963205D01*
X236536795Y-120963205D02*
X236536795Y-125001109D01*
X248416796Y-115301108D02*
X246256796Y-115301108D01*
%TO.N,media_one*%
X236536795Y-144001109D02*
X236536795Y-139963205D01*
X236536795Y-139963205D02*
X240500000Y-136000000D01*
X240500000Y-136000000D02*
X244557904Y-136000000D01*
X244557904Y-136000000D02*
X246256796Y-134301108D01*
X248416796Y-134301108D02*
X246256796Y-134301108D01*
%TO.N,P18*%
X250000000Y-142000000D02*
X246500000Y-142000000D01*
X250881795Y-145046109D02*
X250881795Y-142881795D01*
X246500000Y-142000000D02*
X245000000Y-143500000D01*
X243805686Y-143500000D02*
X239606795Y-139301109D01*
%TO.N,P21*%
X268368795Y-124491108D02*
X267151795Y-123274108D01*
X258000000Y-122000000D02*
X258000000Y-115000000D01*
X267151795Y-123274108D02*
X259274108Y-123274108D01*
X227801108Y-106301108D02*
X225606795Y-106301108D01*
X258000000Y-115000000D02*
X254500000Y-111500000D01*
X254500000Y-111500000D02*
X233000000Y-111500000D01*
X233000000Y-111500000D02*
X227801108Y-106301108D01*
%TO.N,P4*%
X266844795Y-129571108D02*
X268259795Y-130986108D01*
X268259795Y-130986108D02*
X275692786Y-130986108D01*
X277000000Y-132293322D02*
X277000000Y-145272792D01*
X277000000Y-145272792D02*
X258118678Y-164154114D01*
X258118678Y-164154114D02*
X258118678Y-169174442D01*
%TO.N,P18*%
X256665304Y-177834696D02*
X259000000Y-175500000D01*
X253118678Y-177834696D02*
X256665304Y-177834696D01*
X261281404Y-170000000D02*
X262783736Y-170000000D01*
X259000000Y-172281404D02*
X261281404Y-170000000D01*
X262783736Y-170000000D02*
X263733325Y-170949589D01*
%TO.N,space_cluster*%
X255653998Y-182843393D02*
X252000000Y-179189395D01*
X252000000Y-179189395D02*
X252000000Y-170500000D01*
X252113551Y-170386449D02*
X252113551Y-169575627D01*
%TO.N,P4*%
X237605012Y-170631682D02*
X240631682Y-170631682D01*
X240631682Y-170631682D02*
X245000000Y-175000000D01*
X245000000Y-175000000D02*
X248687676Y-175000000D01*
X248687676Y-175000000D02*
X249383551Y-174304125D01*
%TO.N,P15*%
X237000000Y-173000000D02*
X231000000Y-173000000D01*
X227945754Y-169945754D02*
X227945754Y-168043491D01*
X237343529Y-176514455D02*
X238364150Y-175493834D01*
X238364150Y-174364150D02*
X237000000Y-173000000D01*
X231000000Y-173000000D02*
X227945754Y-169945754D01*
%TO.N,layer_cluster*%
X223763913Y-170783641D02*
X229023777Y-165523777D01*
X223763913Y-171788768D02*
X223763913Y-170783641D01*
X229023777Y-165523777D02*
X235074489Y-165523777D01*
X235663256Y-164935010D02*
X237190606Y-164935010D01*
X237190606Y-164935010D02*
X237749655Y-165494059D01*
%TO.N,P4*%
X230389301Y-163521857D02*
X231916651Y-163521857D01*
X231916651Y-163521857D02*
X232475700Y-164080906D01*
X211306795Y-166301108D02*
X227610050Y-166301108D01*
X227610050Y-166301108D02*
X230389301Y-163521857D01*
%TO.N,mod_cluster*%
X203500000Y-165000000D02*
X207198891Y-161301109D01*
X200000000Y-166500000D02*
X201500000Y-165000000D01*
X198236795Y-171001109D02*
X198261795Y-171001109D01*
X198261795Y-171001109D02*
X200000000Y-169262904D01*
X200000000Y-169262904D02*
X200000000Y-166500000D01*
X207198891Y-161301109D02*
X207956795Y-161301109D01*
%TO.N,P14*%
X209000000Y-170000000D02*
X204500000Y-170000000D01*
X212581795Y-172046109D02*
X212581795Y-170081795D01*
X201306795Y-166806795D02*
X201306795Y-166301108D01*
X211626109Y-169126109D02*
X209873891Y-169126109D01*
X204500000Y-170000000D02*
X201306795Y-166806795D01*
%TO.N,P16*%
X232500000Y-151851109D02*
X250098891Y-151851109D01*
X210000000Y-153450000D02*
X230901109Y-153450000D01*
X250098891Y-151851109D02*
X253500000Y-148450000D01*
X253500000Y-148450000D02*
X273186396Y-148450000D01*
X199500000Y-154500000D02*
X208950000Y-154500000D01*
X276351795Y-145284601D02*
X276351795Y-139265117D01*
X275586678Y-138500000D02*
X269599903Y-138500000D01*
X269599903Y-138500000D02*
X268368795Y-139731108D01*
%TO.N,P10*%
X200500000Y-153500000D02*
X209000000Y-153500000D01*
X274500000Y-146500000D02*
X274500000Y-144500000D01*
X209500000Y-153000000D02*
X230401109Y-153000000D01*
X249610983Y-151401109D02*
X253012092Y-148000000D01*
X270097687Y-144000000D02*
X268368795Y-142271108D01*
X232000000Y-151401109D02*
X249610983Y-151401109D01*
X253012092Y-148000000D02*
X273000000Y-148000000D01*
X273000000Y-148000000D02*
X274500000Y-146500000D01*
X274000000Y-144000000D02*
X270097687Y-144000000D01*
%TO.N,P9*%
X201500000Y-152500000D02*
X229951109Y-152500000D01*
X265719795Y-141146108D02*
X266844795Y-142271108D01*
X231500000Y-150951109D02*
X249424587Y-150951109D01*
X249424587Y-150951109D02*
X259229588Y-141146108D01*
X259229588Y-141146108D02*
X265719795Y-141146108D01*
%TO.N,P14*%
X268368795Y-137191108D02*
X267151795Y-135974108D01*
X257850000Y-139736396D02*
X253586396Y-144000000D01*
X267151795Y-135974108D02*
X259025892Y-135974108D01*
X209825686Y-152000000D02*
X207876795Y-150051109D01*
X257850000Y-137150000D02*
X257850000Y-139736396D01*
X253586396Y-146152904D02*
X249238191Y-150501109D01*
X249238191Y-150501109D02*
X230998891Y-150501109D01*
X229500000Y-152000000D02*
X209825686Y-152000000D01*
%TO.N,P10*%
X169881796Y-130046108D02*
X169881796Y-128224458D01*
X168657338Y-127000000D02*
X166000000Y-127000000D01*
X158606796Y-124999458D02*
X158606796Y-124301109D01*
X164500000Y-128500000D02*
X162107338Y-128500000D01*
X162107338Y-128500000D02*
X158606796Y-124999458D01*
X169876796Y-149051108D02*
X171000000Y-147927904D01*
X171000000Y-147927904D02*
X171000000Y-133000000D01*
X169876796Y-131876796D02*
X169876796Y-130051108D01*
%TO.N,pinky_bottom*%
X145231284Y-150813055D02*
X147194809Y-150813055D01*
X147194809Y-150813055D02*
X147383065Y-150624799D01*
X136393683Y-161323297D02*
X136393683Y-157606317D01*
X136393683Y-157606317D02*
X141000000Y-153000000D01*
X143044339Y-153000000D02*
X145231284Y-150813055D01*
%TO.N,P19*%
X141943842Y-151100669D02*
X139980317Y-151100669D01*
X139980317Y-151100669D02*
X139792061Y-151288925D01*
%TO.N,P9*%
X150770628Y-161119488D02*
X150770628Y-159539212D01*
X150770628Y-159539212D02*
X149592881Y-158361465D01*
X149592881Y-158361465D02*
X147138535Y-158361465D01*
X147138535Y-158361465D02*
X145000000Y-160500000D01*
X144000000Y-160500000D02*
X139873615Y-156373615D01*
X139873615Y-156373615D02*
X139042369Y-156373615D01*
%TO.N,P10*%
X168657338Y-146000000D02*
X166500000Y-146000000D01*
X169881796Y-149046108D02*
X169881796Y-147224458D01*
X165000000Y-147500000D02*
X162805687Y-147500000D01*
X162805687Y-147500000D02*
X158606795Y-143301108D01*
%TO.N,P16*%
X188876796Y-144051108D02*
X188881796Y-144046108D01*
X188881796Y-144046108D02*
X188881796Y-142224458D01*
X184000000Y-142500000D02*
X181805687Y-142500000D01*
X181805687Y-142500000D02*
X177606796Y-138301109D01*
X187783446Y-141126108D02*
X185373892Y-141126108D01*
%TO.N,P15*%
X268368796Y-134651108D02*
X267151795Y-133434107D01*
X267151795Y-133434107D02*
X258565893Y-133434107D01*
X257400000Y-134600000D02*
X257400000Y-139372792D01*
X257400000Y-139372792D02*
X253136396Y-143636396D01*
X253136396Y-145966508D02*
X249051795Y-150051109D01*
X249051795Y-150051109D02*
X226876795Y-150051109D01*
%TO.N,P18*%
X268368795Y-132111108D02*
X266953795Y-130696108D01*
X266953795Y-130696108D02*
X258803892Y-130696108D01*
X251085287Y-145051109D02*
X250876795Y-145051109D01*
X256950000Y-132550000D02*
X256950000Y-139186396D01*
X256950000Y-139186396D02*
X251085287Y-145051109D01*
%TO.N,P19*%
X268368795Y-129571108D02*
X266953795Y-128156108D01*
X266953795Y-128156108D02*
X258843892Y-128156108D01*
X256500000Y-130500000D02*
X256500000Y-139000000D01*
X256198892Y-139301108D02*
X249606795Y-139301108D01*
%TO.N,P20*%
X257500000Y-124000000D02*
X257500000Y-120500000D01*
X266953795Y-125616108D02*
X259116108Y-125616108D01*
X268368795Y-127031108D02*
X266953795Y-125616108D01*
X257301108Y-120301108D02*
X249606795Y-120301108D01*
%TO.N,VCC*%
X237606795Y-100501108D02*
X233006795Y-100501108D01*
%TO.N,GND*%
X266844795Y-119411108D02*
X268368795Y-117887108D01*
X268368795Y-117887108D02*
X268368795Y-116871108D01*
X266844794Y-121951108D02*
X266844795Y-119411108D01*
%TD*%
M02*
