M48
; DRILL file {KiCad 8.0.0} date 2024-03-12T02:05:47+0100
; FORMAT={-:-/ absolute / inch / decimal}
; #@! TF.CreationDate,2024-03-12T02:05:47+01:00
; #@! TF.GenerationSoftware,Kicad,Pcbnew,8.0.0
; #@! TF.FileFunction,NonPlated,1,2,NPTH
FMAT,2
INCH
; #@! TA.AperFunction,NonPlated,NPTH,ComponentDrill
T1C0.0591
; #@! TA.AperFunction,NonPlated,NPTH,ComponentDrill
T2C0.1181
; #@! TA.AperFunction,NonPlated,NPTH,ComponentDrill
T3C0.1944
%
G90
G05
T1
X9.264Y-3.8937
X9.264Y-4.1693
T2
X5.3834Y-4.8483
X5.4486Y-5.5935
X5.4576Y-4.8834
X5.5138Y-6.3387
X5.5228Y-5.6285
X5.588Y-6.3737
X5.6615Y-4.8655
X5.7267Y-5.6107
X5.7285Y-4.8182
X5.7919Y-6.3559
X5.7937Y-5.5633
X5.8589Y-6.3085
X6.268Y-4.3308
X6.268Y-5.0788
X6.268Y-5.8268
X6.3389Y-4.3721
X6.3389Y-5.1201
X6.3389Y-5.8682
X6.5436Y-4.3721
X6.5436Y-5.1201
X6.5436Y-5.8682
X6.6144Y-4.3308
X6.6144Y-5.0788
X6.6144Y-5.8268
X7.016Y-4.1339
X7.016Y-4.8819
X7.016Y-5.63
X7.0869Y-4.1752
X7.0869Y-4.9233
X7.0869Y-5.6713
X7.2916Y-4.1752
X7.2916Y-4.9233
X7.2916Y-5.6713
X7.3625Y-4.1339
X7.3625Y-4.8819
X7.3625Y-5.63
X7.764Y-4.3701
X7.764Y-5.1182
X7.764Y-5.8662
X7.8349Y-4.4115
X7.8349Y-5.1595
X7.8349Y-5.9075
X7.9491Y-6.7323
X8.02Y-6.7737
X8.0396Y-4.4115
X8.0396Y-5.1595
X8.0396Y-5.9075
X8.1105Y-4.3701
X8.1105Y-5.1182
X8.1105Y-5.8662
X8.2247Y-6.7737
X8.2955Y-6.7323
X8.5121Y-4.3701
X8.5121Y-5.1182
X8.5121Y-5.8662
X8.5829Y-4.4115
X8.5829Y-5.1595
X8.5829Y-5.9075
X8.7877Y-4.4115
X8.7877Y-5.1595
X8.7877Y-5.9075
X8.8585Y-4.3701
X8.8585Y-5.1182
X8.8585Y-5.8662
X8.9492Y-6.8007
X9.0069Y-6.859
X9.2047Y-6.912
X9.2838Y-6.8904
X9.457Y-4.9213
X9.457Y-5.6693
X9.5278Y-4.9626
X9.5278Y-5.7107
X9.7326Y-4.9626
X9.7326Y-5.7107
X9.8034Y-4.9213
X9.8034Y-5.6693
X10.1374Y-7.0734
X10.2086Y-7.0327
X10.3106Y-6.7734
X10.311Y-6.8554
T3
X5.5398Y-4.6489
X5.605Y-5.3941
X5.6702Y-6.1393
X6.4412Y-4.1457
X6.4412Y-4.8937
X6.4412Y-5.6418
X7.1892Y-3.9489
X7.1892Y-4.6969
X7.1892Y-5.4449
X7.9373Y-4.1851
X7.9373Y-4.9331
X7.9373Y-5.6811
X8.1223Y-6.5473
X8.6853Y-4.1851
X8.6853Y-4.9331
X8.6853Y-5.6811
X9.1644Y-6.6668
X9.6302Y-4.7363
X9.6302Y-5.4843
X10.0637Y-6.8309
M30
