%TF.GenerationSoftware,KiCad,Pcbnew,8.0.0*%
%TF.CreationDate,2024-03-12T02:30:12+01:00*%
%TF.ProjectId,cornish-v1,636f726e-6973-4682-9d76-312e6b696361,v1.0.0*%
%TF.SameCoordinates,Original*%
%TF.FileFunction,Paste,Bot*%
%TF.FilePolarity,Positive*%
%FSLAX46Y46*%
G04 Gerber Fmt 4.6, Leading zero omitted, Abs format (unit mm)*
G04 Created by KiCad (PCBNEW 8.0.0) date 2024-03-12 02:30:12*
%MOMM*%
%LPD*%
G01*
G04 APERTURE LIST*
G04 Aperture macros list*
%AMRotRect*
0 Rectangle, with rotation*
0 The origin of the aperture is its center*
0 $1 length*
0 $2 width*
0 $3 Rotation angle, in degrees counterclockwise*
0 Add horizontal line*
21,1,$1,$2,0,0,$3*%
G04 Aperture macros list end*
%ADD10R,0.900000X1.200000*%
%ADD11RotRect,0.900000X1.200000X5.000000*%
%ADD12R,2.550000X2.500000*%
%ADD13RotRect,0.900000X1.200000X60.000000*%
%ADD14RotRect,2.550000X2.500000X5.000000*%
%ADD15RotRect,2.550000X2.500000X345.000000*%
%ADD16RotRect,0.900000X1.200000X345.000000*%
%ADD17RotRect,2.550000X2.500000X60.000000*%
G04 APERTURE END LIST*
D10*
%TO.C,D19*%
X242956796Y-134301108D03*
X246256796Y-134301108D03*
%TD*%
%TO.C,D10*%
X199956795Y-139301109D03*
X203256795Y-139301109D03*
%TD*%
D11*
%TO.C,D1*%
X141943842Y-151100669D03*
X145231284Y-150813055D03*
%TD*%
D10*
%TO.C,D11*%
X199956795Y-120301109D03*
X203256795Y-120301109D03*
%TD*%
D12*
%TO.C,S10*%
X195336795Y-150051109D03*
X209676795Y-149001109D03*
%TD*%
%TO.C,S4*%
X157336796Y-149051108D03*
X171676796Y-148001108D03*
%TD*%
D13*
%TO.C,D18*%
X250463551Y-172433511D03*
X252113551Y-169575627D03*
%TD*%
D12*
%TO.C,S11*%
X195336795Y-131051109D03*
X209676795Y-130001109D03*
%TD*%
D10*
%TO.C,D13*%
X218956795Y-139301109D03*
X222256795Y-139301109D03*
%TD*%
D14*
%TO.C,S3*%
X134966428Y-124357023D03*
X149160347Y-122061205D03*
%TD*%
D12*
%TO.C,S12*%
X195336795Y-112051109D03*
X209676795Y-111001109D03*
%TD*%
D10*
%TO.C,D20*%
X242956796Y-115301108D03*
X246256796Y-115301108D03*
%TD*%
D12*
%TO.C,S13*%
X214336795Y-150051109D03*
X228676795Y-149001109D03*
%TD*%
D10*
%TO.C,D15*%
X218956795Y-101301109D03*
X222256795Y-101301109D03*
%TD*%
D12*
%TO.C,S19*%
X238336795Y-145051109D03*
X252676795Y-144001109D03*
%TD*%
D10*
%TO.C,D7*%
X180956795Y-133301108D03*
X184256795Y-133301108D03*
%TD*%
%TO.C,D12*%
X199956795Y-101301109D03*
X203256795Y-101301109D03*
%TD*%
D14*
%TO.C,S2*%
X136622387Y-143284723D03*
X150816306Y-140988905D03*
%TD*%
D15*
%TO.C,S17*%
X225230819Y-173268864D03*
X239353955Y-175966107D03*
%TD*%
D10*
%TO.C,D14*%
X218956795Y-120301109D03*
X222256795Y-120301109D03*
%TD*%
D12*
%TO.C,S16*%
X200036795Y-172051109D03*
X214376795Y-171001109D03*
%TD*%
D10*
%TO.C,D6*%
X161956796Y-100301108D03*
X165256796Y-100301108D03*
%TD*%
D12*
%TO.C,S7*%
X176336796Y-144051108D03*
X190676796Y-143001108D03*
%TD*%
%TO.C,S20*%
X238336795Y-126051109D03*
X252676795Y-125001109D03*
%TD*%
D10*
%TO.C,D16*%
X204656795Y-161301109D03*
X207956795Y-161301109D03*
%TD*%
D16*
%TO.C,D17*%
X232475700Y-164080906D03*
X235663256Y-164935010D03*
%TD*%
D11*
%TO.C,D2*%
X140287883Y-132172970D03*
X143575325Y-131885356D03*
%TD*%
D10*
%TO.C,D9*%
X180956795Y-95301108D03*
X184256795Y-95301108D03*
%TD*%
D11*
%TO.C,D3*%
X138631925Y-113245271D03*
X141919367Y-112957657D03*
%TD*%
D17*
%TO.C,S18*%
X257463325Y-181809548D03*
X263723998Y-168865743D03*
%TD*%
D10*
%TO.C,D8*%
X180956795Y-114301108D03*
X184256795Y-114301108D03*
%TD*%
%TO.C,D4*%
X161956796Y-138301108D03*
X165256796Y-138301108D03*
%TD*%
%TO.C,D5*%
X161956796Y-119301108D03*
X165256796Y-119301108D03*
%TD*%
D12*
%TO.C,S15*%
X214336795Y-112051109D03*
X228676795Y-111001109D03*
%TD*%
%TO.C,S8*%
X176336796Y-125051108D03*
X190676796Y-124001108D03*
%TD*%
%TO.C,S6*%
X157336795Y-111051109D03*
X171676795Y-110001109D03*
%TD*%
D14*
%TO.C,S1*%
X138278346Y-162212421D03*
X152472265Y-159916603D03*
%TD*%
D12*
%TO.C,S5*%
X157336796Y-130051108D03*
X171676796Y-129001108D03*
%TD*%
%TO.C,S9*%
X176336796Y-106051108D03*
X190676796Y-105001108D03*
%TD*%
%TO.C,S14*%
X214336795Y-131051109D03*
X228676795Y-130001109D03*
%TD*%
M02*
